<svg id="Ebene_1" data-name="Ebene 1" xmlns="http://www.w3.org/2000/svg" xmlns:xlink="http://www.w3.org/1999/xlink" viewBox="0 0 1000 800"><defs><style>.cls-1{fill:none;clip-rule:evenodd;}.cls-2{fill:#fff;}.cls-3{fill:#1798b5;}.cls-11,.cls-12,.cls-13,.cls-16,.cls-23,.cls-24,.cls-3,.cls-4,.cls-5,.cls-6,.cls-7,.cls-8{fill-rule:evenodd;}.cls-4{fill:#fba2b4;}.cls-5{fill:#e8617c;}.cls-6{fill:#a8af1c;}.cls-7{fill:#f2778f;}.cls-8{fill:#369;}.cls-9{clip-path:url(#clip-path);}.cls-10{fill:url(#linear-gradient);}.cls-11{fill:#f7839a;}.cls-12{fill:#8572b7;}.cls-13{fill:#9575cd;}.cls-14{clip-path:url(#clip-path-2);}.cls-15{fill:url(#linear-gradient-2);}.cls-16{fill:#705d9b;}.cls-17{clip-path:url(#clip-path-3);}.cls-18{fill:url(#linear-gradient-3);}.cls-19{clip-path:url(#clip-path-4);}.cls-20{fill:url(#linear-gradient-4);}.cls-21{clip-path:url(#clip-path-5);}.cls-22{fill:url(#linear-gradient-5);}.cls-23{fill:#1bbeee;}.cls-24{fill:#9ff;}</style><clipPath id="clip-path"><polygon id="SVGID" class="cls-1" points="594.21 591.74 500.79 604.5 582.05 708.86 696.04 679.38 594.21 591.74"/></clipPath><linearGradient id="linear-gradient" x1="598.41" y1="731.41" x2="598.41" y2="606.35" gradientUnits="userSpaceOnUse"><stop offset="0" stop-color="#b0d8ff"/><stop offset="0.05" stop-color="#b6dbff"/><stop offset="0.47" stop-color="#ddeefe"/><stop offset="0.8" stop-color="#f5fafe"/><stop offset="1" stop-color="#fefefe"/></linearGradient><clipPath id="clip-path-2"><path id="SVGID-2" data-name="SVGID" class="cls-1" d="M827.31,742.19s15.2,9.32,17.63,16.21-7.09,10.54-10.33,10.94S760.44,788,758.21,788.6s-12.93-2.66-15.79-11.05,4-43.06,16.6-47.11,68.29,11.75,68.29,11.75"/></clipPath><linearGradient id="linear-gradient-2" x1="793.47" y1="788.58" x2="793.47" y2="736.34" gradientUnits="userSpaceOnUse"><stop offset="0" stop-color="#1e9ef9"/><stop offset="1" stop-color="#bae5ff"/></linearGradient><clipPath id="clip-path-3"><path id="SVGID-3" data-name="SVGID" class="cls-1" d="M743.89,602.45c-10,7-90.09,14.35-90.54,23.24-.2,4.05,66.47,43.77,72.75,47.62s18,6.69,28,3.24,73.74-27.62,77.5-33-3.94-17.7-3.94-17.7l-55.53-24.32Z"/></clipPath><linearGradient id="linear-gradient-3" x1="741.82" y1="668.75" x2="748.7" y2="589.31" xlink:href="#linear-gradient"/><clipPath id="clip-path-4"><path id="SVGID-4" data-name="SVGID" class="cls-1" d="M898,600.8,888,647.46s-1.32,11.65-8.92,14.18-14.18-2.43-14.18-2.43L588,529.31s-3.24-1.22-2.64-6.28c.14-1.19,3.09-14.84,7.52-35Z"/></clipPath><linearGradient id="linear-gradient-4" x1="731.3" y1="650.77" x2="750.06" y2="512.12" xlink:href="#linear-gradient"/><clipPath id="clip-path-5"><polygon id="SVGID-5" data-name="SVGID" class="cls-1" points="943.64 270.13 879.61 566.81 603.19 473.59 645.75 289.99 943.64 270.13"/></clipPath><linearGradient id="linear-gradient-5" x1="762.3" y1="522.44" x2="787.83" y2="283.73" gradientUnits="userSpaceOnUse"><stop offset="0" stop-color="#9575cd"/><stop offset="1" stop-color="#1bc3f2"/></linearGradient></defs><title>Zeichenfläche 1</title><path class="cls-2" d="M868.7,522.52c-57.26-27.68-136.39-44.79-223.81-44.79s-166.55,17.11-223.81,44.79c-57.09,27.59-92.4,65.64-92.4,107.62s35.31,80,92.4,107.62c57.26,27.67,136.39,44.79,223.81,44.79s166.55-17.12,223.81-44.79c57.09-27.59,92.4-65.65,92.4-107.62s-35.31-80-92.4-107.62m-223.81-46.4c87.67,0,167.06,17.18,224.54,45,57.66,27.86,93.32,66.42,93.32,109.06s-35.66,81.2-93.32,109.06c-57.48,27.78-136.87,45-224.54,45s-167.06-17.18-224.54-45C362.69,711.34,327,672.79,327,630.15s35.66-81.2,93.32-109.06C477.82,493.31,557.21,476.13,644.88,476.13Z"/><path class="cls-3" d="M662.25,534.15c126.19,0,228.48,49.44,228.48,110.42S788.44,755,662.25,755,433.77,705.56,433.77,644.57,536.07,534.15,662.25,534.15"/><path class="cls-4" d="M398.16,167c.41,2.43,1.62,11.75.41,26.34s-2,25.13-1.22,29.18-5.37,12.26-7,15.2-.81,7-.81,7l11.86,35.16s.4,4.86-4,6.18-8.21,2-9.12,1.93-6.79.1-6.79.1,2.33,14.59,1.42,16.11-5.17,2.23-8.41,3.85a7,7,0,0,0-3.85,4.05c7.64,14.77-.34,37.12-20.92,45.42-5,2-36.89-7.27-45.75-8.74,0,0-36.88,31.61-39.11,37.49a15.94,15.94,0,0,0-.61,10.34s11.75,25.53,10.94,32S261.48,438,261.48,438L198.05,378.4l-48.84-60s28-5.07,35.87-19.25,13.17-28.37,12.36-61.2,4.46-87.95,43-111.46c50.31-30.72,147-35.16,157.76,40.53"/><path class="cls-5" d="M306.33,350.13,304,348.81s-36.88,31.61-39.11,37.49c-4.81,6.1-6.71,14.61-6.71,14.61-3.51-14.73,5.37-31.56,14-43.36,5.47-7.5,12.68-25,12.68-25L298.54,330l4.68,3.23c2.21,5.88,3.64,9.64,3.64,9.64Z"/><path class="cls-6" d="M381.55,288.12c-17.11,2.24-41.68,4.21-58.14-18.2-24.36-33.14-16.39-79.43,7.81-91.3,3-1.46,9.3-2.07,7.29-6.69-6.26-14.34-.11-24.28,7.9-26.24,26.64-6.51,39.93,27.42,53.89,23.17,7.24-2.2,18.87-8.28,23.82-21,4.08-10.46,3.21-27.27-4.59-34-7-6-24.58-9.93-33.61-19.21-18.72-19.25-34.6-33.56-64.18-38.18-37.12-5.79-76.37,2.63-103.83,26-62.16,53-34.1,100.42-30.48,179.52.9,19.78,36.16,3,41.59-8.9,5-10.92,6.73-24.36,9-37.78,2.84-17,7.29-40,20.86-41.24,44.94-4,39.92,70.46,9.52,99.7l6.48,5.88-6.08,3.85c-14.84,42,61.38,92.34,89.24,81.1,20.57-8.3,20.33-37.77,12.69-52.54a21.35,21.35,0,0,1,4.85-3.16c3.24-1.62,6.5-3.22,7.41-4.74s-1.42-16.11-1.42-16.11"/><path class="cls-7" d="M278.69,213.58s-5.07,5.17-4.86,8.41,3.85,5.88,4.05,6.49-1.62,5-1.62,5-2.43-8.41-8.51-8.92c-6.94-.58-12.91-7.33-8.61-13.47,3.75-5.37,12-7.8,12-7.8s2.84-1.93,3.75-4.26c2.43-6.21-2.79-9.94-9.58-9.26-16,1.59-15,17.19-10.38,29.42A59.5,59.5,0,0,0,261,230.5s-12.67-10.74-12.26-26.85,9-21.68,13.07-22.59,13-.91,16.11,5.47,3.85,10.74,1.11,14.29-16.41,14.49-16.41,14.49-.81,2.73.91,2.94c3,.36,6.09-5.57,15.2-4.66"/><path class="cls-8" d="M500.79,604.5l-.5,2.63,82,106.44,99.5-25.46c1.24,4.56,15,9.22,14.29-8.74Z"/><g class="cls-9"><rect class="cls-10" x="500.79" y="591.74" width="195.25" height="117.13"/></g><path class="cls-4" d="M349.4,571.77s84.42,23,110.77,20.32,58.56-13.17,58.56-13.17l37.09-3.25c2.7-.24,5.35-.88,7.65,1.06,8.35,7,26.66,25.74,21.32,29.75a8.83,8.83,0,0,1-2.94,1.52s5.68,9.62,6.28,13.07-1.93,6.79-3.35,6.58-2.33,3.24-9.93-5.78S558.65,603,558.65,603c-4.53.27-32.54.77-34.86,3.75-1.42,1.82-10,11.25-10,11.25L538,622.59s15.1.1,17.73,2.33,9.12,6.89,6.18,9.93-3.34,7.3-10.74,7.9-40.33-2.94-40.33-2.94c-20.41,7.41-29.48,2.61-47.42-8-40.47,0-84.14,5.22-124.75,8,0,0-8-1.14-11.63-4.68s-7.6-24.83-.1-41.44a43.07,43.07,0,0,1,22.47-22"/><path class="cls-11" d="M559.61,637.88c-1.58,2.3-3.35,4.46-8.46,4.88-7.4.61-40.33-2.94-40.33-2.94-20.41,7.41-29.48,2.61-47.42-8-40.47,0-84.14,5.22-124.75,8,0,0-8-1.14-11.63-4.68-2.36-2.3-4.85-12-4.28-23.14,4-.51,10-.39,18.57,1.63,19.86,4.66,34.25,2.84,50.26,5.27s60.79-1.52,66.77-1.12a50.37,50.37,0,0,1,12.67,3l9.22,4.06-1.72-5.27s26.14,9.53,31.51,10.74,21.89,1.82,28.57,3.14,8.11-4,8.11-4a12.26,12.26,0,0,0,2.53,5.67c2.23,2.84,8.92,2.33,10,2.13Z"/><path class="cls-11" d="M587.65,624.9c-.73,1.71-2,2.88-2.86,2.76-1.42-.2-2.33,3.24-9.93-5.78S558.65,603,558.65,603c-4.53.27-32.54.77-34.86,3.75-1.42,1.82-10,11.25-10,11.25s-.9-.23-3.38-.79-13.27-3.9-13.27-3.9l9.32-7.7s10.84-8.72,23.71-9.83,29.08-1.22,29.08-1.22,20.47,24.67,21.94,27.16c1.22,2.07,4.81,2.87,6.49,3.14"/><path class="cls-12" d="M305.15,538.39s25.53,21.68,35.06,26.35a91.91,91.91,0,0,0,14.33,5.62c3.24.95,3.09,3.59,3,3.57a23.84,23.84,0,0,0-3.61-.85c-13.87,10.95-28.42,45.11-14.75,67.26,0,0-21.78.2-37.89-4.26s-17.12-7.7-17.12-7.7-21-55.12-5.17-75.79,26.14-14.19,26.14-14.19"/><path class="cls-13" d="M153.46,315s13.37-1.62,25.53,9.32c6.26,5.64,87.23,125.16,93,101.73,1.54-6.26-6.64-27.09-6.64-27.09s-2.07-3.73-1.61-7.06.69-5.84,3.46-8.88,7-7.29,7-7.29,39.63,49.16,38,119.28-17,138.61-17,138.61L255.5,799.51H-3V465C-3,419.4,82.91,328.6,153.46,315"/><path class="cls-12" d="M305.66,573.24c-4.81,35.32-10.45,60.39-10.45,60.39L287,667.77l-34.24-6.34L155.33,404.67s20.87-4.66,44,13.37,31.21,70.12,32,76.2,6.89,12.56,12.16,20.67,14.18,42.76,14.79,53.9,23.3,27.36,31.41,33.64,15.8-28.43,16-29.22"/><path class="cls-13" d="M140.19,393.49c-39.31-2-97.67.41-108.21,70.93S52.24,658.56,94.39,722.6,156,799.51,156,799.51H417.82s2-57.26-1.42-59.08-53.5-4.66-53.5-4.66L350.54,739s1-8.51-2.43-12-12.16-4.86-12.16-4.86,3.85-6.89-1-17.23S325,693.21,325,693.21s5.93-6.48.45-15.4S313,668.49,313,668.49s.81.81-2.63-6.28a19.25,19.25,0,0,0-10.54-9.32S284.48,622.29,276,617s-10.54-9.32-10.54-9.32-18.64-34-22.29-51.88,3.24-22.7-6.89-38.5-10.94-28-10.94-28c-4.85-46.06-34.91-93.27-85.11-95.86"/><path class="cls-12" d="M36.22,446.1A112.21,112.21,0,0,0,32,464.42C21.44,534.95,52.24,658.56,94.39,722.6S156,799.51,156,799.51H417.82s.17-4.77.32-11.59c-21-1-83.45-4.37-123.77-11-49-8.1-55.52-26.75-55.52-26.75l10.94-18.64L208,740l7.29-23.51c-60.24-11-90.07-74.34-114.29-124l45.39-10.94C89,557.53,42.33,513.22,36.22,446.1"/><g class="cls-14"><rect class="cls-15" x="739.56" y="726.38" width="107.81" height="62.82"/></g><path class="cls-4" d="M415,744.19s114.7,8.71,199-10.74,108.62-38.9,108.62-38.9,3.85-5.88,17.23-7.09,51.07-3.65,51.07-3.65l9.73,5.88,2.84,3.24,30.2,18.44s4,3,5.27,10,3.54,17.23,3.54,17.23-1.21,6.89-4.56,7.4-7.5-1.83-7.5-1.83.91,7-2.94,11.85-10.74,14.79-10.74,14.79S806,769.42,805,762.43s3.85-12.26,3.85-12.26l-5.06-6.58-22.9,1-7,8.31,18.64-.41a12,12,0,0,1,6,10c.51,7.39.4,15.91.4,15.91s-7.6,10.74-8.21,11.15-6.89,2.43-6.89,2.43-6.89-4.36-6.79-7a36.52,36.52,0,0,0-.4-5.87s-5-.4-12.46,2.43C728.93,794.9,722.7,794.73,684.9,795c-6.47,0-18.95,4.48-26.75,4.48H408.7Z"/><path class="cls-11" d="M790.68,789.58c-.61.41-6.89,2.43-6.89,2.43s-6.89-4.36-6.79-7a36.52,36.52,0,0,0-.4-5.87s-5-.4-12.46,2.43C728.93,794.9,722.7,794.73,684.9,795c-6.47,0-18.95,4.48-26.75,4.48H567.53s38.1-12.9,50.86-15.94,52.08-9.12,52.08-9.12l-2.23-3.85s15-1.62,23.71,1,22.29,9.53,29.79,9.53,41.54-8.72,54.92-10.54,13-1.22,14.79,4.26-.77,14.72-.77,14.72"/><path class="cls-11" d="M842.46,738.62s-1.21,6.89-4.56,7.4c-2.86.43-6.31-1.21-7.25-1.69-.7-1-1.11-1.44-1.11-1.44s-7.8-11.45-14.39-18.34-11-8.51-13.27-8.92-4.46,0-14.08,2.53-26.65,6.38-26.65,6.38l2-3s21.28-12.06,32.42-14.19c11.51-2.2,25.06,10.11,34.65,16,5,9,4.32,19.68,12.21,15.29"/><path class="cls-11" d="M824,760.58c-3.53,4.8-7.31,10.25-7.31,10.25S806,769.42,805,762.43s3.85-12.26,3.85-12.26l-5.06-6.58-22.9,1-7,8.31-26-1.82,6.89-5.88L774,734.37l29.49-4.56S824,744.7,825.28,749,824,760.58,824,760.58"/><path class="cls-16" d="M961.92,242.16c16.12-1.49,9.14,17.1,7.91,25.74L888,647.46s-1.32,11.65-8.92,14.18-14.18-2.43-14.18-2.43L588,529.31s-3.24-1.22-2.64-6.28,52.28-237,52.28-237c4-11.16,12.6-11.91,23.15-12.41Z"/><path class="cls-8" d="M744.48,605.65c-9.75,6.83-86.88,12.3-91.29,20.87a2.38,2.38,0,0,0-.09,2.11,12.18,12.18,0,0,0,2.17,2.43c10.28,9.22,65.73,42,71.41,45.45,6.28,3.85,18,6.69,28,3.24s73.74-27.62,77.5-33-3.94-17.7-3.94-17.7l-55.53-24.32Z"/><g class="cls-17"><rect class="cls-18" x="653.15" y="601.57" width="182.18" height="78.42"/></g><g class="cls-19"><rect class="cls-20" x="584.79" y="487.99" width="313.22" height="176.18"/></g><g class="cls-21"><rect class="cls-22" x="603.19" y="270.13" width="340.45" height="296.67"/></g><polygon class="cls-23" points="634.52 383.78 615.47 464.43 771.51 517.93 794.21 408.1 634.52 383.78"/><polygon class="cls-8" points="637.24 326.7 669.88 327.74 929.42 336.01 932.21 323.07 639.11 318.65 637.24 326.7"/><polygon class="cls-23" points="787.93 468.18 774.02 531.2 875.49 565.41 891.28 494.53 787.93 468.18"/><polygon class="cls-24" points="637.57 371.72 635.75 378.61 750.85 395.13 752.27 385.81 637.57 371.72"/><polygon class="cls-24" points="732.05 308.8 730.78 316.81 788.54 317.72 789.91 308.7 732.05 308.8"/><polygon class="cls-8" points="826.71 482.57 824.78 491.29 881.73 506.79 884.26 496.96 826.71 482.57"/><polygon class="cls-8" points="824.08 495.24 822.15 503.95 878.99 519.83 881.52 510 824.08 495.24"/><polygon class="cls-8" points="821.44 507.9 819.51 516.62 876.16 533.23 878.69 523.4 821.44 507.9"/><polygon class="cls-8" points="818.8 520.57 816.88 529.28 873.32 546 875.85 536.17 818.8 520.57"/><polygon class="cls-24" points="874.92 284.89 873.65 292.89 931.41 290.56 932.77 281.55 874.92 284.89"/><polygon class="cls-23" points="805.23 375.98 803.3 384.69 909.08 395.94 910.9 386.04 805.23 375.98"/><polygon class="cls-8" points="712.13 479.91 710.2 488.62 766.83 505.57 769.36 495.74 712.13 479.91"/><polygon class="cls-24" points="680.54 309.63 679.53 315.98 725.39 316.71 726.48 309.55 680.54 309.63"/><polygon class="cls-23" points="801 409.56 790.41 461.19 891.51 485.78 904.79 424.07 801 409.56"/><path class="cls-16" d="M401.66,222.69l-22,46a1.86,1.86,0,0,1-2.75-1.68c-.84-8.93,11.69-32.32,3.48-34.55-2.48-.67-74.9-27.06-74.9-27.06s-9.86-6.27-9.85-7.9,4.09-1.46,4.09-1.46l88.61,30.47s3.35-1.39,6.28-2.84,5.3-1.73,5.82-1.61a4.31,4.31,0,0,1,1.21.64"/></svg>