<svg id="Ebene_1" data-name="Ebene 1" xmlns="http://www.w3.org/2000/svg" xmlns:xlink="http://www.w3.org/1999/xlink" viewBox="0 0 800 800"><defs><style>.cls-1{fill:#019592;}.cls-1,.cls-11{opacity:0.4;}.cls-2{fill:#03dac5;}.cls-3{fill:url(#Áĺçűě_ííűé_ăđŕäčĺíň_2);}.cls-4{fill:url(#Áĺçűě_ííűé_ăđŕäčĺíň_5);}.cls-5{fill:url(#Áĺçűě_ííűé_ăđŕäčĺíň_2-2);}.cls-18,.cls-6{fill:#fff;}.cls-18,.cls-7,.cls-9{opacity:0.5;}.cls-8,.cls-9{fill:#7f22fd;}.cls-10,.cls-11{fill:#005457;}.cls-10{opacity:0.2;}.cls-12{fill:url(#Áĺçűě_ííűé_ăđŕäčĺíň_2-3);}.cls-13{fill:url(#Áĺçűě_ííűé_ăđŕäčĺíň_4);}.cls-14{fill:url(#Áĺçűě_ííűé_ăđŕäčĺíň_3);}.cls-15{fill:url(#Áĺçűě_ííűé_ăđŕäčĺíň_2-4);}.cls-16{fill:#8b1e64;}.cls-17{fill:#fb8488;}</style><linearGradient id="Áĺçűě_ííűé_ăđŕäčĺíň_2" x1="-209.15" y1="303.81" x2="275.35" y2="303.81" gradientTransform="translate(522.91)" gradientUnits="userSpaceOnUse"><stop offset="0" stop-color="#bb86fc"/><stop offset="1" stop-color="#bb86fc"/></linearGradient><linearGradient id="Áĺçűě_ííűé_ăđŕäčĺíň_5" x1="-114.09" y1="542.59" x2="157.99" y2="542.59" gradientTransform="translate(522.91)" gradientUnits="userSpaceOnUse"><stop offset="0" stop-color="#bb86fc"/><stop offset="0.32" stop-color="#bb86fc"/><stop offset="1" stop-color="#bb86fc"/></linearGradient><linearGradient id="Áĺçűě_ííűé_ăđŕäčĺíň_2-2" x1="193.85" y1="512.78" x2="-324.56" y2="540.46" xlink:href="#Áĺçűě_ííűé_ăđŕäčĺíň_2"/><linearGradient id="Áĺçűě_ííűé_ăđŕäčĺíň_2-3" x1="141.02" y1="231.57" x2="31.76" y2="202.23" gradientTransform="matrix(1, 0, 0, 1, 0, 0)" xlink:href="#Áĺçűě_ííűé_ăđŕäčĺíň_2"/><radialGradient id="Áĺçűě_ííűé_ăđŕäčĺíň_4" cx="140.05" cy="236.9" r="81.39" gradientTransform="matrix(1, 0, 0, 1, 0, 0)" xlink:href="#Áĺçűě_ííűé_ăđŕäčĺíň_2"/><linearGradient id="Áĺçűě_ííűé_ăđŕäčĺíň_3" x1="60.26" y1="203.7" x2="176.14" y2="203.7" gradientUnits="userSpaceOnUse"><stop offset="0" stop-color="#9e55fc"/><stop offset="1" stop-color="#bb86fc"/></linearGradient><linearGradient id="Áĺçűě_ííűé_ăđŕäčĺíň_2-4" x1="155.15" y1="223.73" x2="45.11" y2="206.75" gradientTransform="matrix(1, 0, 0, 1, 0, 0)" xlink:href="#Áĺçűě_ííűé_ăđŕäčĺíň_2"/></defs><title>Zeichenfläche 1</title><path class="cls-1" d="M433.91,799a19.86,19.86,0,0,1-9.74-2.24L46.12,578.49C43.47,577,42,574.79,42,572.4c0-2.83,2.07-5.64,5.67-7.72L290.3,424.59c6.57-3.79,16.58-4.19,22.31-.89L690.66,642c2.66,1.54,4.12,3.7,4.12,6.09,0,2.83-2.07,5.64-5.67,7.72L446.48,795.87A25.84,25.84,0,0,1,433.91,799ZM425,795.36c5.28,3,14.55,2.65,20.69-.89L688.31,654.38c3.09-1.78,4.86-4.09,4.86-6.32,0-1.79-1.18-3.46-3.32-4.69L311.8,425.1c-5.29-3.05-14.57-2.65-20.69.89L48.47,566.08c-3.09,1.78-4.86,4.09-4.86,6.32,0,1.79,1.18,3.46,3.32,4.69Z"/><path class="cls-2" d="M433.92,763.92a19.88,19.88,0,0,1-9.74-2.24L46.12,543.41c-2.66-1.54-4.12-3.7-4.12-6.09,0-2.82,2.07-5.64,5.67-7.72L290.3,389.51c6.57-3.79,16.58-4.2,22.31-.89L690.66,606.89c2.66,1.53,4.12,3.7,4.12,6.09,0,2.83-2.07,5.64-5.67,7.72L446.48,760.79A25.82,25.82,0,0,1,433.92,763.92ZM425,760.28c5.28,3,14.56,2.65,20.69-.89L688.31,619.3c3.09-1.78,4.86-4.09,4.86-6.33,0-1.79-1.18-3.45-3.32-4.69L311.8,390c-5.28-3.05-14.56-2.66-20.69.89L48.47,531c-3.09,1.78-4.86,4.09-4.86,6.32,0,1.79,1.18,3.46,3.32,4.7Z"/><path class="cls-3" d="M790.69,261,414.13,43.59a9.76,9.76,0,0,0-7.69-1.1h0l-7,2.43,2.45.58a12.18,12.18,0,0,0-2.3,4.31L314.43,326.31c-2.11,6.86,1,15.19,6.9,18.61L697.9,562.33a11,11,0,0,0,2.77,1.13l-.93,2,6.66-2.34h0a10.64,10.64,0,0,0,6.06-7L797.6,279.61C799.7,272.75,796.61,264.42,790.69,261Z"/><path class="cls-4" d="M684.42,572.65l.13.16L312.6,358.07c-5.47-3.16-15-2.76-21.35.88L50.94,497.7l-8-3.06,2.25,11.24h0a6.73,6.73,0,0,0,3.61,4.5L424.18,727.1c5.47,3.16,15,2.76,21.35-.88l240.93-139.1c3-1.72,4.68-3.85,5.11-6v0l2.3-10.94Z"/><path class="cls-5" d="M424.58,717.21,46.53,498.94c-5.51-3.18-4.82-8.74,1.54-12.41L290.71,346.45c6.36-3.67,16-4.07,21.5-.89L690.26,563.82c5.51,3.18,4.82,8.74-1.54,12.41L446.08,716.32C439.72,720,430.09,720.4,424.58,717.21Z"/><path class="cls-6" d="M46.53,492.6,424.58,710.86c5.51,3.18,15.14,2.78,21.5-.89L688.72,569.89a11.92,11.92,0,0,0,4.15-3.76c2.3,3.15.87,7.21-4.15,10.11L446.08,716.32c-6.36,3.67-16,4.07-21.5.89L46.53,498.94c-3.84-2.21-4.6-5.57-2.6-8.65A8.26,8.26,0,0,0,46.53,492.6Z"/><path class="cls-2" d="M691.48,564.57,314.92,347.16c-5.92-3.42-9-11.75-6.9-18.61L393.17,52.07c2.11-6.86,8.62-9.64,14.54-6.23L784.28,263.25c5.92,3.42,9,11.75,6.9,18.61L706,558.35C703.91,565.21,697.4,568,691.48,564.57Z"/><path class="cls-2" d="M696.66,566.84a11.15,11.15,0,0,1-5.58-1.57L314.51,347.86c-6.22-3.59-9.48-12.36-7.27-19.54L392.4,51.83A11.39,11.39,0,0,1,399,44.25a10.41,10.41,0,0,1,9.15.89L784.68,262.55c6.22,3.59,9.48,12.35,7.27,19.54l-85.16,276.5a11.39,11.39,0,0,1-6.57,7.58A9.72,9.72,0,0,1,696.66,566.84Zm-4.77-3a8.86,8.86,0,0,0,7.75.79,9.81,9.81,0,0,0,5.61-6.55l85.16-276.5c2-6.51-.93-14.43-6.53-17.67L407.31,46.54a8.83,8.83,0,0,0-7.75-.79,9.83,9.83,0,0,0-5.61,6.56L308.78,328.79c-2,6.51.93,14.44,6.53,17.67Z"/><g class="cls-7"><path class="cls-8" d="M235.09,458.92l-12.5-7.22c-1-.58-.88-1.59.28-2.26l14.76-8.52a4.35,4.35,0,0,1,3.92-.16L254,448c1,.58.88,1.59-.28,2.26L239,458.76A4.35,4.35,0,0,1,235.09,458.92Z"/><path class="cls-8" d="M254.4,470.07l-12.5-7.22c-1-.58-.88-1.59.28-2.26l14.76-8.52a4.35,4.35,0,0,1,3.92-.16l12.5,7.22c1,.58.88,1.59-.28,2.26l-14.76,8.52A4.35,4.35,0,0,1,254.4,470.07Z"/><path class="cls-8" d="M273.71,481.22,261.21,474c-1-.58-.88-1.59.28-2.26l14.76-8.52a4.35,4.35,0,0,1,3.92-.16l12.5,7.22c1,.58.88,1.59-.28,2.26l-14.76,8.52A4.35,4.35,0,0,1,273.71,481.22Z"/><path class="cls-8" d="M300.41,472l-12.5-7.22c-1-.58-.88-1.59.28-2.26l12.39-7.15a4.35,4.35,0,0,1,3.92-.16l12.5,7.22c1,.58.88,1.59-.28,2.26l-12.39,7.15A4.35,4.35,0,0,1,300.41,472Z"/><path class="cls-8" d="M319.72,483.16l-12.5-7.22c-1-.58-.88-1.59.28-2.26l12.39-7.15a4.35,4.35,0,0,1,3.92-.16l12.5,7.22c1,.58.88,1.59-.28,2.26L323.64,483A4.35,4.35,0,0,1,319.72,483.16Z"/><path class="cls-8" d="M339,494.31l-12.5-7.22c-1-.58-.88-1.59.28-2.26l12.39-7.15a4.35,4.35,0,0,1,3.92-.16l12.5,7.22c1,.58.88,1.59-.28,2.26l-12.39,7.15A4.35,4.35,0,0,1,339,494.31Z"/><path class="cls-8" d="M358.34,505.46l-12.5-7.22c-1-.58-.88-1.59.28-2.26l12.39-7.15a4.35,4.35,0,0,1,3.92-.16l12.5,7.22c1,.58.88,1.59-.28,2.26l-12.39,7.15A4.35,4.35,0,0,1,358.34,505.46Z"/><path class="cls-8" d="M377.65,516.6l-12.5-7.22c-1-.58-.88-1.59.28-2.26L377.81,500a4.35,4.35,0,0,1,3.92-.16l12.5,7.22c1,.58.88,1.59-.28,2.26l-12.39,7.15A4.35,4.35,0,0,1,377.65,516.6Z"/><path class="cls-8" d="M397,527.75l-12.5-7.22c-1-.58-.88-1.59.28-2.26l12.39-7.15A4.35,4.35,0,0,1,401,511l12.5,7.22c1,.58.88,1.59-.28,2.26l-12.39,7.15A4.35,4.35,0,0,1,397,527.75Z"/><path class="cls-8" d="M416.26,538.9l-12.5-7.22c-1-.58-.88-1.59.28-2.26l12.39-7.15a4.35,4.35,0,0,1,3.92-.16l12.5,7.22c1,.58.88,1.59-.28,2.26l-12.39,7.15A4.35,4.35,0,0,1,416.26,538.9Z"/><path class="cls-8" d="M435.57,550l-12.5-7.22c-1-.58-.88-1.59.28-2.26l12.39-7.15a4.35,4.35,0,0,1,3.92-.16l12.5,7.22c1,.58.88,1.59-.28,2.26l-12.39,7.15A4.35,4.35,0,0,1,435.57,550Z"/><path class="cls-8" d="M454.88,561.19,442.38,554c-1-.58-.88-1.59.28-2.26L455,544.56a4.35,4.35,0,0,1,3.92-.16l12.5,7.22c1,.58.88,1.59-.28,2.26L458.8,561A4.35,4.35,0,0,1,454.88,561.19Z"/><path class="cls-8" d="M474.19,572.34l-12.5-7.22c-1-.58-.88-1.59.28-2.26l12.39-7.15a4.35,4.35,0,0,1,3.92-.16l12.5,7.22c1,.58.88,1.59-.28,2.26l-12.39,7.15A4.35,4.35,0,0,1,474.19,572.34Z"/><path class="cls-8" d="M328.86,466.74l-12.5-7.22c-1-.58-.88-1.59.28-2.26L329,450.1a4.35,4.35,0,0,1,3.92-.16l12.5,7.22c1,.58.88,1.59-.28,2.26l-12.39,7.15A4.35,4.35,0,0,1,328.86,466.74Z"/><path class="cls-8" d="M309.27,455.42l-12.5-7.22c-1-.58-.88-1.59.28-2.26l12.39-7.15a4.35,4.35,0,0,1,3.92-.16l12.5,7.22c1,.58.88,1.59-.28,2.26l-12.39,7.15A4.35,4.35,0,0,1,309.27,455.42Z"/><path class="cls-8" d="M289.64,444.09l-26.93-15.55c-1-.58-.88-1.59.28-2.26l12.39-7.15a4.35,4.35,0,0,1,3.92-.16l26.93,15.55c1,.58.88,1.59-.28,2.26l-12.39,7.15A4.35,4.35,0,0,1,289.64,444.09Z"/><path class="cls-8" d="M303.36,430.31l-21.85-12.62c-1-.58-.88-1.59.28-2.26l12.39-7.15a4.35,4.35,0,0,1,3.92-.16l21.85,12.62c1,.58.88,1.59-.28,2.26l-12.39,7.15A4.35,4.35,0,0,1,303.36,430.31Z"/><path class="cls-8" d="M348.17,477.88l-12.5-7.22c-1-.58-.88-1.59.28-2.26l12.39-7.15a4.35,4.35,0,0,1,3.92-.16l12.5,7.22c1,.58.88,1.59-.28,2.26l-12.39,7.15A4.35,4.35,0,0,1,348.17,477.88Z"/><path class="cls-8" d="M367.48,489,355,481.81c-1-.58-.88-1.59.28-2.26l12.39-7.15a4.35,4.35,0,0,1,3.92-.16l12.5,7.22c1,.58.88,1.59-.28,2.26l-12.39,7.15A4.35,4.35,0,0,1,367.48,489Z"/><path class="cls-8" d="M386.79,500.18,374.28,493c-1-.58-.88-1.59.28-2.26L387,483.55a4.35,4.35,0,0,1,3.92-.16l12.5,7.22c1,.58.88,1.59-.28,2.26L390.7,500A4.35,4.35,0,0,1,386.79,500.18Z"/><path class="cls-8" d="M406.1,511.33l-12.5-7.22c-1-.58-.88-1.59.28-2.26l12.39-7.15a4.35,4.35,0,0,1,3.92-.16l12.5,7.22c1,.58.88,1.59-.28,2.26L410,511.16A4.35,4.35,0,0,1,406.1,511.33Z"/><path class="cls-8" d="M425.4,522.47l-12.5-7.22c-1-.58-.88-1.59.28-2.26l12.39-7.15a4.35,4.35,0,0,1,3.92-.16L442,512.9c1,.58.88,1.59-.28,2.26l-12.39,7.15A4.35,4.35,0,0,1,425.4,522.47Z"/><path class="cls-8" d="M444.71,533.62l-12.5-7.22c-1-.58-.88-1.59.28-2.26L444.88,517a4.35,4.35,0,0,1,3.92-.16L461.3,524c1,.58.88,1.59-.28,2.26l-12.39,7.15A4.35,4.35,0,0,1,444.71,533.62Z"/><path class="cls-8" d="M464,544.77l-12.5-7.22c-1-.58-.88-1.59.28-2.26l12.39-7.15a4.35,4.35,0,0,1,3.92-.16l12.5,7.22c1,.58.88,1.59-.28,2.26l-12.39,7.15A4.35,4.35,0,0,1,464,544.77Z"/><path class="cls-8" d="M483.33,555.91l-12.5-7.22c-1-.58-.88-1.59.28-2.26l12.39-7.15a4.35,4.35,0,0,1,3.92-.16l12.5,7.22c1,.58.88,1.59-.28,2.26l-12.39,7.15A4.35,4.35,0,0,1,483.33,555.91Z"/><path class="cls-8" d="M502.64,567.06l-12.5-7.22c-1-.58-.88-1.59.28-2.26l12.39-7.15a4.35,4.35,0,0,1,3.92-.16l12.5,7.22c1,.58.88,1.59-.28,2.26l-12.39,7.15A4.35,4.35,0,0,1,502.64,567.06Z"/><path class="cls-8" d="M537,586.88l-27.28-15.75c-1-.58-.88-1.59.28-2.26l12.39-7.15a4.35,4.35,0,0,1,3.92-.16l27.28,15.75c1,.58.88,1.59-.28,2.26l-12.39,7.15A4.35,4.35,0,0,1,537,586.88Z"/><path class="cls-8" d="M574.55,565.18l-23-13.29c-1-.58-.88-1.59.28-2.26l12.39-7.15a4.35,4.35,0,0,1,3.92-.16l23,13.29c1,.58.88,1.59-.28,2.26L578.47,565A4.35,4.35,0,0,1,574.55,565.18Z"/><path class="cls-8" d="M382,475.7l-12.5-7.22c-1-.58-.88-1.59.28-2.26l12.39-7.15a4.35,4.35,0,0,1,3.92-.16l12.5,7.22c1,.58.88,1.59-.28,2.26l-12.39,7.15A4.35,4.35,0,0,1,382,475.7Z"/><path class="cls-8" d="M362.2,464.28l-12.5-7.22c-1-.58-.88-1.59.28-2.26l12.39-7.15a4.35,4.35,0,0,1,3.92-.16l12.5,7.22c1,.58.88,1.59-.28,2.26l-12.39,7.15A4.35,4.35,0,0,1,362.2,464.28Z"/><path class="cls-8" d="M342.41,452.85l-12.5-7.22c-1-.58-.88-1.59.28-2.26l12.39-7.15a4.35,4.35,0,0,1,3.92-.16l12.5,7.22c1,.58.88,1.59-.28,2.26l-12.39,7.15A4.35,4.35,0,0,1,342.41,452.85Z"/><path class="cls-8" d="M322.62,441.43l-12.5-7.22c-1-.58-.88-1.59.28-2.26l12.39-7.15a4.35,4.35,0,0,1,3.92-.16l12.5,7.22c1,.58.88,1.59-.28,2.26l-12.39,7.15A4.35,4.35,0,0,1,322.62,441.43Z"/><path class="cls-8" d="M401.29,486.85l-12.5-7.22c-1-.58-.88-1.59.28-2.26l12.39-7.15a4.35,4.35,0,0,1,3.92-.16l12.5,7.22c1,.58.88,1.59-.28,2.26l-12.39,7.15A4.35,4.35,0,0,1,401.29,486.85Z"/><path class="cls-8" d="M420.6,498l-12.5-7.22c-1-.58-.88-1.59.28-2.26l12.39-7.15a4.35,4.35,0,0,1,3.92-.16l12.5,7.22c1,.58.88,1.59-.28,2.26l-12.39,7.15A4.35,4.35,0,0,1,420.6,498Z"/><path class="cls-8" d="M439.91,509.14l-12.5-7.22c-1-.58-.88-1.59.28-2.26l12.39-7.15a4.35,4.35,0,0,1,3.92-.16l12.5,7.22c1,.58.88,1.59-.28,2.26L443.82,509A4.35,4.35,0,0,1,439.91,509.14Z"/><path class="cls-8" d="M459.22,520.29l-12.5-7.22c-1-.58-.88-1.59.28-2.26l12.39-7.15a4.35,4.35,0,0,1,3.92-.16l12.5,7.22c1,.58.88,1.59-.28,2.26l-12.39,7.15A4.35,4.35,0,0,1,459.22,520.29Z"/><path class="cls-8" d="M478.52,531.44,466,524.22c-1-.58-.88-1.59.28-2.26l12.39-7.15a4.35,4.35,0,0,1,3.92-.16l12.5,7.22c1,.58.88,1.59-.28,2.26l-12.39,7.15A4.35,4.35,0,0,1,478.52,531.44Z"/><path class="cls-8" d="M497.83,542.59l-12.5-7.22c-1-.58-.88-1.59.28-2.26L498,526a4.35,4.35,0,0,1,3.92-.16l12.5,7.22c1,.58.88,1.59-.28,2.26l-12.39,7.15A4.35,4.35,0,0,1,497.83,542.59Z"/><path class="cls-8" d="M517.14,553.73l-12.5-7.22c-1-.58-.88-1.59.28-2.26l12.39-7.15a4.35,4.35,0,0,1,3.92-.16l12.5,7.22c1,.58.88,1.59-.28,2.26l-12.39,7.15A4.35,4.35,0,0,1,517.14,553.73Z"/><path class="cls-8" d="M536.45,564.88l-12.5-7.22c-1-.58-.88-1.59.28-2.26l12.39-7.15a4.35,4.35,0,0,1,3.92-.16l12.5,7.22c1,.58.88,1.59-.28,2.26l-12.39,7.15A4.35,4.35,0,0,1,536.45,564.88Z"/><path class="cls-8" d="M555.76,576l-12.5-7.22c-1-.58-.88-1.59.28-2.26l12.39-7.15a4.35,4.35,0,0,1,3.92-.16l12.5,7.22c1,.58.88,1.59-.28,2.26l-12.39,7.15A4.35,4.35,0,0,1,555.76,576Z"/><path class="cls-8" d="M371.82,448.13l-12.5-7.22c-1-.58-.88-1.59.28-2.26L372,431.5a4.35,4.35,0,0,1,3.92-.16l12.5,7.22c1,.58.88,1.59-.28,2.26L375.73,448A4.35,4.35,0,0,1,371.82,448.13Z"/><path class="cls-8" d="M352.61,437l-12.5-7.22c-1-.58-.88-1.59.28-2.26l12.39-7.15a4.35,4.35,0,0,1,3.92-.16l12.5,7.22c1,.58.88,1.59-.28,2.26l-12.39,7.15A4.35,4.35,0,0,1,352.61,437Z"/><path class="cls-8" d="M333.39,425.94l-12.5-7.22c-1-.58-.88-1.59.28-2.26l12.39-7.15a4.35,4.35,0,0,1,3.92-.16l12.5,7.22c1,.58.88,1.59-.28,2.26l-12.39,7.15A4.35,4.35,0,0,1,333.39,425.94Z"/><path class="cls-8" d="M314.18,414.85l-12.5-7.22c-1-.58-.88-1.59.28-2.26l12.39-7.15a4.35,4.35,0,0,1,3.92-.16l12.5,7.22c1,.58.88,1.59-.28,2.26l-12.39,7.15A4.35,4.35,0,0,1,314.18,414.85Z"/><path class="cls-8" d="M333.94,403.45l-12.5-7.22c-1-.58-.88-1.59.28-2.26l4.09-2.36a4.35,4.35,0,0,1,3.92-.16l12.5,7.22c1,.58.88,1.59-.28,2.26l-4.1,2.36A4.35,4.35,0,0,1,333.94,403.45Z"/><path class="cls-8" d="M359,417.92l-12.5-7.22c-1-.58-.88-1.59.28-2.26l4.1-2.36a4.35,4.35,0,0,1,3.92-.16l12.5,7.22c1,.58.88,1.59-.28,2.26l-4.09,2.36A4.35,4.35,0,0,1,359,417.92Z"/><path class="cls-8" d="M378.14,429l-12.5-7.22c-1-.58-.88-1.59.28-2.26l4.09-2.36a4.35,4.35,0,0,1,3.92-.16l12.5,7.22c1,.58.88,1.59-.28,2.26l-4.1,2.36A4.35,4.35,0,0,1,378.14,429Z"/><path class="cls-8" d="M397.27,440l-12.5-7.22c-1-.58-.88-1.59.28-2.26l4.1-2.36a4.35,4.35,0,0,1,3.92-.16l12.5,7.22c1,.58.88,1.59-.28,2.26l-4.09,2.36A4.35,4.35,0,0,1,397.27,440Z"/><path class="cls-8" d="M416.4,451.06l-12.5-7.22c-1-.58-.88-1.59.28-2.26l4.09-2.36a4.35,4.35,0,0,1,3.92-.16l12.5,7.22c1,.58.88,1.59-.28,2.26l-4.1,2.36A4.35,4.35,0,0,1,416.4,451.06Z"/><path class="cls-8" d="M523.21,512.73l-12.5-7.22c-1-.58-.88-1.59.28-2.26l4.1-2.36a4.35,4.35,0,0,1,3.92-.16l12.5,7.22c1,.58.88,1.59-.28,2.26l-4.09,2.36A4.35,4.35,0,0,1,523.21,512.73Z"/><path class="cls-8" d="M542.35,523.77l-12.5-7.22c-1-.58-.88-1.59.28-2.26l4.09-2.36a4.35,4.35,0,0,1,3.92-.16l12.5,7.22c1,.58.88,1.59-.28,2.26l-4.1,2.36A4.35,4.35,0,0,1,542.35,523.77Z"/><path class="cls-8" d="M561.48,534.82,549,527.6c-1-.58-.88-1.59.28-2.26l4.1-2.36a4.35,4.35,0,0,1,3.92-.16l12.5,7.22c1,.58.88,1.59-.28,2.26l-4.09,2.36A4.35,4.35,0,0,1,561.48,534.82Z"/><path class="cls-8" d="M580.61,545.86l-12.5-7.22c-1-.58-.88-1.59.28-2.26l4.09-2.36a4.35,4.35,0,0,1,3.92-.16l12.5,7.22c1,.58.88,1.59-.28,2.26l-4.1,2.36A4.35,4.35,0,0,1,580.61,545.86Z"/><path class="cls-8" d="M391.13,459.28l-12.5-7.22c-1-.58-.88-1.59.28-2.26l12.39-7.15a4.35,4.35,0,0,1,3.92-.16l12.5,7.22c1,.58.88,1.59-.28,2.26L395,459.11A4.35,4.35,0,0,1,391.13,459.28Z"/><path class="cls-8" d="M410.43,470.42l-12.5-7.22c-1-.58-.88-1.59.28-2.26l12.39-7.15a4.35,4.35,0,0,1,3.92-.16l12.5,7.22c1,.58.88,1.59-.28,2.26l-12.39,7.15A4.35,4.35,0,0,1,410.43,470.42Z"/><path class="cls-8" d="M429.74,481.57l-12.5-7.22c-1-.58-.88-1.59.28-2.26l12.39-7.15a4.35,4.35,0,0,1,3.92-.16l12.5,7.22c1,.58.88,1.59-.28,2.26l-12.39,7.15A4.35,4.35,0,0,1,429.74,481.57Z"/><path class="cls-8" d="M449,492.72l-12.5-7.22c-1-.58-.88-1.59.28-2.26l12.39-7.15a4.35,4.35,0,0,1,3.92-.16l12.5,7.22c1,.58.88,1.59-.28,2.26L453,492.56A4.35,4.35,0,0,1,449,492.72Z"/><path class="cls-8" d="M468.36,503.87l-12.5-7.22c-1-.58-.88-1.59.28-2.26l12.39-7.15a4.35,4.35,0,0,1,3.92-.16l12.5,7.22c1,.58.88,1.59-.28,2.26l-12.39,7.15A4.35,4.35,0,0,1,468.36,503.87Z"/><path class="cls-8" d="M487.67,515l-12.5-7.22c-1-.58-.88-1.59.28-2.26l12.39-7.15a4.35,4.35,0,0,1,3.92-.16l12.5,7.22c1,.58.88,1.59-.28,2.26l-12.39,7.15A4.35,4.35,0,0,1,487.67,515Z"/><path class="cls-8" d="M507,526.16l-12.5-7.22c-1-.58-.88-1.59.28-2.26l12.39-7.15a4.35,4.35,0,0,1,3.92-.16l12.5,7.22c1,.58.88,1.59-.28,2.26L510.89,526A4.35,4.35,0,0,1,507,526.16Z"/><path class="cls-8" d="M526.28,537.31l-12.5-7.22c-1-.58-.88-1.59.28-2.26l12.39-7.15a4.35,4.35,0,0,1,3.92-.16l12.5,7.22c1,.58.88,1.59-.28,2.26l-12.39,7.15A4.35,4.35,0,0,1,526.28,537.31Z"/><path class="cls-8" d="M545.59,548.46l-12.5-7.22c-1-.58-.88-1.59.28-2.26l12.39-7.15a4.35,4.35,0,0,1,3.92-.16l12.5,7.22c1,.58.88,1.59-.28,2.26l-12.39,7.15A4.35,4.35,0,0,1,545.59,548.46Z"/><path class="cls-8" d="M280.74,460.65l-36.82-21.26c-1-.58-.88-1.59.28-2.26L256.59,430a4.35,4.35,0,0,1,3.92-.16l36.82,21.26c1,.58.88,1.59-.28,2.26l-12.39,7.15A4.35,4.35,0,0,1,280.74,460.65Z"/><path class="cls-8" d="M517.94,597.6l-36.82-21.26c-1-.58-.88-1.59.28-2.26l12.39-7.15a4.35,4.35,0,0,1,3.92-.16L534.53,588c1,.58.88,1.59-.28,2.26l-12.39,7.15A4.35,4.35,0,0,1,517.94,597.6Z"/><path class="cls-8" d="M440.73,577.65l-12.5-7.22c-1-.58-.88-1.59.28-2.26l14.76-8.52a4.35,4.35,0,0,1,3.92-.16l12.5,7.22c1,.58.88,1.59-.28,2.26l-14.76,8.52A4.35,4.35,0,0,1,440.73,577.65Z"/><path class="cls-8" d="M300.51,496.69l-20-11.54c-1-.58-.88-1.59.28-2.26l14.76-8.52a4.35,4.35,0,0,1,3.92-.16l20,11.54c1,.58.88,1.59-.28,2.26l-14.76,8.52A4.35,4.35,0,0,1,300.51,496.69Z"/><path class="cls-8" d="M422.12,566.9l-20-11.54c-1-.58-.88-1.59.28-2.26l14.76-8.52a4.35,4.35,0,0,1,3.92-.16l20,11.54c1,.58.88,1.59-.28,2.26L426,566.74A4.35,4.35,0,0,1,422.12,566.9Z"/><path class="cls-8" d="M328.37,512.78l-20-11.54c-1-.58-.88-1.59.28-2.26l14.76-8.52a4.35,4.35,0,0,1,3.92-.16l20,11.54c1,.58.88,1.59-.28,2.26l-14.76,8.52A4.35,4.35,0,0,1,328.37,512.78Z"/><path class="cls-8" d="M327.46,490.37l86.93,50.19a1.19,1.19,0,0,1,0,2.26l-15,8.69a4.32,4.32,0,0,1-3.91,0l-86.93-50.19Z"/><path class="cls-8" d="M494.69,597.86l13.93,8c.82.48.72,1.3-.23,1.85l-6,3.49a3.57,3.57,0,0,1-3.21.13l-13.93-8c-.82-.48-.72-1.3.23-1.85l6-3.49A3.57,3.57,0,0,1,494.69,597.86Z"/><path class="cls-8" d="M475.22,586.62l13.93,8c.82.48.72,1.3-.23,1.85l-6,3.49a3.57,3.57,0,0,1-3.21.13l-13.93-8c-.82-.47-.72-1.3.23-1.85l6-3.49A3.57,3.57,0,0,1,475.22,586.62Z"/><path class="cls-8" d="M455.91,575.47l13.93,8c.82.48.72,1.3-.23,1.85l-6,3.49a3.57,3.57,0,0,1-3.21.13l-13.93-8c-.82-.47-.72-1.3.23-1.85l6-3.49A3.57,3.57,0,0,1,455.91,575.47Z"/><path class="cls-8" d="M485.88,580.46l13.93,8c.82.47.72,1.3-.23,1.85l-6,3.49a3.57,3.57,0,0,1-3.21.13l-13.93-8c-.82-.48-.72-1.3.23-1.85l6-3.49A3.57,3.57,0,0,1,485.88,580.46Z"/></g><path class="cls-9" d="M329.33,618.59a18,18,0,0,1-8.86-2.08l-97-56c-2.5-1.44-3.87-3.49-3.88-5.78,0-2.67,1.91-5.3,5.24-7.22l49.95-28.84c6-3.49,14.9-3.84,20.18-.79l97,56c2.5,1.44,3.88,3.5,3.88,5.78,0,2.67-1.91,5.3-5.24,7.22l-49.95,28.84A23.15,23.15,0,0,1,329.33,618.59Zm-7.68-4.11c4.54,2.62,12.54,2.26,17.82-.79l49.95-28.84c2.58-1.49,4.06-3.38,4.06-5.19s-1.47-3-2.7-3.75l-97-56c-4.54-2.62-12.54-2.26-17.82.79L226,549.52c-2.59,1.49-4.07,3.38-4.07,5.19s1.47,3,2.7,3.74Z"/><path class="cls-6" d="M446.84,151.35l-11-6.36a2.87,2.87,0,0,1-1.22-3.17h0a1.63,1.63,0,0,1,2.48-1l11,6.36a2.87,2.87,0,0,1,1.22,3.17h0A1.63,1.63,0,0,1,446.84,151.35Z"/><path class="cls-6" d="M473.08,166.5l-16.24-9.38a2.87,2.87,0,0,1-1.22-3.17h0a1.63,1.63,0,0,1,2.48-1l16.24,9.38a2.87,2.87,0,0,1,1.22,3.17h0A1.63,1.63,0,0,1,473.08,166.5Z"/><path class="cls-6" d="M424.62,200.4l-11-6.36a2.87,2.87,0,0,1-1.22-3.17h0a1.63,1.63,0,0,1,2.48-1l11,6.36a2.87,2.87,0,0,1,1.22,3.17h0A1.63,1.63,0,0,1,424.62,200.4Z"/><path class="cls-6" d="M448,213.9l-16.24-9.38a2.87,2.87,0,0,1-1.22-3.17h0a1.63,1.63,0,0,1,2.48-1l16.24,9.38a2.87,2.87,0,0,1,1.22,3.17h0A1.63,1.63,0,0,1,448,213.9Z"/><path class="cls-6" d="M413.84,142.61l-6.88-4a2.87,2.87,0,0,1-1.22-3.17h0a1.63,1.63,0,0,1,2.48-1l6.88,4a2.87,2.87,0,0,1,1.22,3.17h0A1.63,1.63,0,0,1,413.84,142.61Z"/><path class="cls-6" d="M434.54,164.88l-21-12.14a2.87,2.87,0,0,1-1.22-3.17h0a1.63,1.63,0,0,1,2.48-1l21,12.14a2.87,2.87,0,0,1,1.22,3.17h0A1.63,1.63,0,0,1,434.54,164.88Z"/><path class="cls-6" d="M415.15,174.31l-6.88-4a2.87,2.87,0,0,1-1.22-3.17h0a1.63,1.63,0,0,1,2.48-1l6.88,4a2.87,2.87,0,0,1,1.22,3.17h0A1.63,1.63,0,0,1,415.15,174.31Z"/><path class="cls-6" d="M450.55,236l-18.38-10.61a2.87,2.87,0,0,1-1.22-3.17h0a1.63,1.63,0,0,1,2.48-1l18.38,10.61A2.87,2.87,0,0,1,453,235h0A1.63,1.63,0,0,1,450.55,236Z"/><path class="cls-6" d="M407.44,190.48,403,187.93a2.87,2.87,0,0,1-1.22-3.17h0a1.63,1.63,0,0,1,2.48-1l4.42,2.55a2.87,2.87,0,0,1,1.22,3.17h0A1.63,1.63,0,0,1,407.44,190.48Z"/><path class="cls-6" d="M403.26,208.69l-5.49-3.17a2.87,2.87,0,0,1-1.22-3.17h0a1.63,1.63,0,0,1,2.48-1l5.49,3.17a2.87,2.87,0,0,1,1.22,3.17h0A1.63,1.63,0,0,1,403.26,208.69Z"/><path class="cls-6" d="M424.6,221l-14.46-8.35a2.87,2.87,0,0,1-1.22-3.17h0a1.63,1.63,0,0,1,2.48-1l14.46,8.35a2.87,2.87,0,0,1,1.22,3.17h0A1.63,1.63,0,0,1,424.6,221Z"/><path class="cls-6" d="M405.55,220.32l-10.4-6a2.87,2.87,0,0,1-1.22-3.17h0a1.63,1.63,0,0,1,2.48-1l10.4,6a2.87,2.87,0,0,1,1.22,3.17h0A1.63,1.63,0,0,1,405.55,220.32Z"/><path class="cls-6" d="M466.32,245.14l-6.68-3.86a2.87,2.87,0,0,1-1.22-3.17h0a1.63,1.63,0,0,1,2.48-1l6.68,3.86a2.87,2.87,0,0,1,1.22,3.17h0A1.63,1.63,0,0,1,466.32,245.14Z"/><path class="cls-6" d="M440.75,189.09l-18.38-10.61a2.87,2.87,0,0,1-1.22-3.17h0a1.63,1.63,0,0,1,2.48-1L442,184.89a2.87,2.87,0,0,1,1.22,3.17h0A1.63,1.63,0,0,1,440.75,189.09Z"/><path class="cls-6" d="M442.93,180l-32-18.49a2.87,2.87,0,0,1-1.22-3.17h0a1.63,1.63,0,0,1,2.48-1l32,18.49a2.87,2.87,0,0,1,1.22,3.17h0A1.63,1.63,0,0,1,442.93,180Z"/><path class="cls-6" d="M424,189.74l-18.38-10.61a2.87,2.87,0,0,1-1.22-3.17h0a1.63,1.63,0,0,1,2.48-1l18.38,10.61a2.87,2.87,0,0,1,1.22,3.17h0A1.63,1.63,0,0,1,424,189.74Z"/><path class="cls-6" d="M454.69,197.13,448,193.28a2.87,2.87,0,0,1-1.22-3.17h0a1.63,1.63,0,0,1,2.48-1l6.68,3.86a2.87,2.87,0,0,1,1.22,3.17h0A1.63,1.63,0,0,1,454.69,197.13Z"/><path class="cls-6" d="M506.61,185.79l-23.53-13.52a2.87,2.87,0,0,1-1.22-3.17h0a1.63,1.63,0,0,1,2.48-1l23.53,13.52a2.87,2.87,0,0,1,1.22,3.17h0A1.63,1.63,0,0,1,506.61,185.79Z"/><path class="cls-6" d="M422.49,209.48,400.4,196.72a2.87,2.87,0,0,1-1.22-3.17h0a1.63,1.63,0,0,1,2.48-1l22.09,12.76a2.87,2.87,0,0,1,1.22,3.17h0A1.63,1.63,0,0,1,422.49,209.48Z"/><path class="cls-6" d="M425.82,139.22l-16.24-9.38a2.87,2.87,0,0,1-1.22-3.17h0a1.63,1.63,0,0,1,2.48-1L427.08,135a2.87,2.87,0,0,1,1.22,3.17h0A1.63,1.63,0,0,1,425.82,139.22Z"/><path class="cls-6" d="M402.15,228.67l-18.81-10.86a2.87,2.87,0,0,1-1.22-3.17h0a1.63,1.63,0,0,1,2.48-1l18.81,10.86a2.87,2.87,0,0,1,1.22,3.17h0A1.63,1.63,0,0,1,402.15,228.67Z"/><path class="cls-6" d="M418,248.81l-11-6.36a2.87,2.87,0,0,1-1.22-3.17h0a1.63,1.63,0,0,1,2.48-1l11,6.36a2.87,2.87,0,0,1,1.22,3.17h0A1.63,1.63,0,0,1,418,248.81Z"/><path class="cls-6" d="M444.27,264,428,254.58a2.87,2.87,0,0,1-1.22-3.17h0a1.63,1.63,0,0,1,2.48-1l16.24,9.38a2.87,2.87,0,0,1,1.22,3.17h0A1.63,1.63,0,0,1,444.27,264Z"/><path class="cls-6" d="M395.81,297.86l-11-6.36a2.87,2.87,0,0,1-1.22-3.17h0a1.63,1.63,0,0,1,2.48-1l11,6.36a2.87,2.87,0,0,1,1.22,3.17h0A1.63,1.63,0,0,1,395.81,297.86Z"/><path class="cls-6" d="M419.2,311.36,403,302a2.87,2.87,0,0,1-1.22-3.17h0a1.63,1.63,0,0,1,2.48-1l16.24,9.38a2.87,2.87,0,0,1,1.22,3.17h0A1.63,1.63,0,0,1,419.2,311.36Z"/><path class="cls-6" d="M385,240.07l-6.88-4a2.87,2.87,0,0,1-1.22-3.17h0a1.63,1.63,0,0,1,2.48-1l6.88,4a2.87,2.87,0,0,1,1.22,3.17h0A1.63,1.63,0,0,1,385,240.07Z"/><path class="cls-6" d="M405.74,262.34l-21-12.14a2.87,2.87,0,0,1-1.22-3.17h0a1.63,1.63,0,0,1,2.48-1l21,12.14a2.87,2.87,0,0,1,1.22,3.17h0A1.63,1.63,0,0,1,405.74,262.34Z"/><path class="cls-6" d="M386.34,271.77l-6.88-4a2.87,2.87,0,0,1-1.22-3.17h0a1.63,1.63,0,0,1,2.48-1l6.88,4a2.87,2.87,0,0,1,1.22,3.17h0A1.63,1.63,0,0,1,386.34,271.77Z"/><path class="cls-6" d="M421.74,333.45l-18.38-10.61a2.87,2.87,0,0,1-1.22-3.17h0a1.63,1.63,0,0,1,2.48-1L423,329.25a2.87,2.87,0,0,1,1.22,3.17h0A1.63,1.63,0,0,1,421.74,333.45Z"/><path class="cls-6" d="M378.63,287.94l-4.42-2.55a2.87,2.87,0,0,1-1.22-3.17h0a1.63,1.63,0,0,1,2.48-1l4.42,2.55a2.87,2.87,0,0,1,1.22,3.17h0A1.63,1.63,0,0,1,378.63,287.94Z"/><path class="cls-6" d="M374.45,306.15,369,303a2.87,2.87,0,0,1-1.22-3.17h0a1.63,1.63,0,0,1,2.48-1l5.49,3.17a2.87,2.87,0,0,1,1.22,3.17h0A1.63,1.63,0,0,1,374.45,306.15Z"/><path class="cls-6" d="M395.79,318.47l-14.46-8.35a2.87,2.87,0,0,1-1.22-3.17h0a1.63,1.63,0,0,1,2.48-1L397,314.27a2.87,2.87,0,0,1,1.22,3.17h0A1.63,1.63,0,0,1,395.79,318.47Z"/><path class="cls-6" d="M376.74,317.78l-10.4-6a2.87,2.87,0,0,1-1.22-3.17h0a1.63,1.63,0,0,1,2.48-1l10.4,6a2.87,2.87,0,0,1,1.22,3.17h0A1.63,1.63,0,0,1,376.74,317.78Z"/><path class="cls-6" d="M437.51,342.6l-6.68-3.86a2.87,2.87,0,0,1-1.22-3.17h0a1.63,1.63,0,0,1,2.48-1l6.68,3.86a2.87,2.87,0,0,1,1.22,3.17h0A1.63,1.63,0,0,1,437.51,342.6Z"/><path class="cls-6" d="M411.94,286.55l-18.38-10.61a2.87,2.87,0,0,1-1.22-3.17h0a1.63,1.63,0,0,1,2.48-1l18.38,10.61a2.87,2.87,0,0,1,1.22,3.17h0A1.63,1.63,0,0,1,411.94,286.55Z"/><path class="cls-6" d="M414.12,277.49l-32-18.49a2.87,2.87,0,0,1-1.22-3.17h0a1.63,1.63,0,0,1,2.48-1l32,18.49a2.87,2.87,0,0,1,1.22,3.17h0A1.63,1.63,0,0,1,414.12,277.49Z"/><path class="cls-6" d="M395.22,287.2l-18.38-10.61a2.87,2.87,0,0,1-1.22-3.17h0a1.63,1.63,0,0,1,2.48-1L396.47,283a2.87,2.87,0,0,1,1.22,3.17h0A1.63,1.63,0,0,1,395.22,287.2Z"/><path class="cls-6" d="M425.88,294.59l-6.68-3.86a2.87,2.87,0,0,1-1.22-3.17h0a1.63,1.63,0,0,1,2.48-1l6.68,3.86a2.87,2.87,0,0,1,1.22,3.17h0A1.63,1.63,0,0,1,425.88,294.59Z"/><path class="cls-6" d="M393.68,306.94l-22.09-12.76a2.87,2.87,0,0,1-1.22-3.17h0a1.63,1.63,0,0,1,2.48-1l22.09,12.76a2.87,2.87,0,0,1,1.22,3.17h0A1.63,1.63,0,0,1,393.68,306.94Z"/><path class="cls-6" d="M397,236.68l-16.24-9.38a2.87,2.87,0,0,1-1.22-3.17h0a1.63,1.63,0,0,1,2.48-1l16.24,9.38a2.87,2.87,0,0,1,1.22,3.17h0A1.63,1.63,0,0,1,397,236.68Z"/><path class="cls-6" d="M373.34,326.13l-18.81-10.86a2.87,2.87,0,0,1-1.22-3.17h0a1.63,1.63,0,0,1,2.48-1l18.81,10.86a2.87,2.87,0,0,1,1.22,3.17h0A1.63,1.63,0,0,1,373.34,326.13Z"/><path class="cls-6" d="M673.3,497.87a13.76,13.76,0,0,1-6.88-1.94l-176.72-102c-7.59-4.38-11.63-14.94-9-23.54l49.66-162.7a13.41,13.41,0,0,1,7.75-8.94,12.77,12.77,0,0,1,11.21,1.12L726,301.86c7.59,4.38,11.63,14.94,9,23.54L685.38,488.11a13.42,13.42,0,0,1-7.75,8.94A11.71,11.71,0,0,1,673.3,497.87Zm-6.07-3.34a11.17,11.17,0,0,0,9.81,1,11.83,11.83,0,0,0,6.8-7.91L733.5,324.93c2.42-7.92-1.29-17.65-8.27-21.67l-176.72-102a11.17,11.17,0,0,0-9.81-1,11.84,11.84,0,0,0-6.8,7.92l-49.66,162.7c-2.42,7.93,1.29,17.65,8.27,21.67Z"/><path class="cls-6" d="M700.74,358.13a9.73,9.73,0,0,1-4.86-1.37L541.3,267.51C536,264.44,533.15,257,535,251l6.32-20.72a9.49,9.49,0,0,1,5.48-6.31,9,9,0,0,1,7.93.79L709.3,314c5.32,3.07,8.15,10.47,6.31,16.49l-6.32,20.72a9.48,9.48,0,0,1-5.48,6.31A8.31,8.31,0,0,1,700.74,358.13ZM549.86,225a6.75,6.75,0,0,0-2.48.47,7.91,7.91,0,0,0-4.53,5.29l-6.32,20.72c-1.63,5.34.87,11.91,5.57,14.62l154.59,89.25a7.45,7.45,0,0,0,6.53.69,7.91,7.91,0,0,0,4.53-5.29L714.07,330c1.63-5.34-.87-11.91-5.57-14.62L553.91,226.18A8.1,8.1,0,0,0,549.86,225Z"/><path class="cls-6" d="M679.13,412.26l-29-16.73c-5-2.9-7.68-9.86-5.94-15.56l6.32-20.72c1.74-5.69,7.22-8,12.24-5.06l29,16.73c5,2.9,7.68,9.86,5.94,15.56l-6.32,20.72C689.63,412.89,684.15,415.16,679.13,412.26Z"/><path class="cls-6" d="M666.44,470.53a9.72,9.72,0,0,1-4.86-1.37l-29-16.73c-5.32-3.07-8.15-10.47-6.31-16.49l6.32-20.72a9.47,9.47,0,0,1,5.48-6.31,9,9,0,0,1,7.93.79l29,16.73c5.32,3.07,8.15,10.47,6.31,16.49L675,463.63a9.47,9.47,0,0,1-5.48,6.31A8.34,8.34,0,0,1,666.44,470.53Zm-4.05-2.77a7.46,7.46,0,0,0,6.53.69,7.9,7.9,0,0,0,4.53-5.29l6.32-20.72c1.63-5.35-.87-11.91-5.57-14.62l-29-16.73a7.46,7.46,0,0,0-6.53-.69,7.91,7.91,0,0,0-4.53,5.29l-6.32,20.72c-1.63,5.35.87,11.91,5.57,14.62Z"/><path class="cls-6" d="M598.78,433.61a9.71,9.71,0,0,1-4.86-1.37l-87.49-50.51c-5.32-3.07-8.15-10.47-6.31-16.49l24-78.73a9.48,9.48,0,0,1,5.48-6.31,9,9,0,0,1,7.93.79l87.49,50.51c5.32,3.07,8.15,10.47,6.31,16.49l-24,78.73a9.48,9.48,0,0,1-5.48,6.31A8.31,8.31,0,0,1,598.78,433.61Zm-4-2.77a7.47,7.47,0,0,0,6.53.69,7.9,7.9,0,0,0,4.53-5.29l24-78.73c1.63-5.35-.87-11.91-5.58-14.62l-87.49-50.51a7.44,7.44,0,0,0-6.53-.69A7.91,7.91,0,0,0,525.7,287l-24,78.73c-1.63,5.35.87,11.91,5.58,14.62Z"/><path class="cls-6" d="M719.83,268.07a5.81,5.81,0,0,1-2.87-.79,6.2,6.2,0,0,1-2.84-7.58,4.61,4.61,0,0,1,2.8-2.55,5.53,5.53,0,0,1,4.44.54,6.2,6.2,0,0,1,2.84,7.58h0a4.58,4.58,0,0,1-2.8,2.55A5,5,0,0,1,719.83,268.07Zm-1.35-9.55a3.34,3.34,0,0,0-1.06.17,3,3,0,0,0-1.83,1.67,4.56,4.56,0,0,0,2.17,5.53,3.9,3.9,0,0,0,3.13.41,3,3,0,0,0,1.83-1.67,4.56,4.56,0,0,0-2.16-5.53A4.22,4.22,0,0,0,718.49,258.51Z"/><path class="cls-6" d="M732.59,275.36a5.81,5.81,0,0,1-2.87-.79,6.2,6.2,0,0,1-2.84-7.58,4.59,4.59,0,0,1,2.8-2.55,5.49,5.49,0,0,1,4.44.54,6.2,6.2,0,0,1,2.84,7.58,4.58,4.58,0,0,1-2.8,2.55A5,5,0,0,1,732.59,275.36Zm-1.34-9.55a3.32,3.32,0,0,0-1.06.17,3,3,0,0,0-1.83,1.67,4.56,4.56,0,0,0,2.17,5.53,3.9,3.9,0,0,0,3.13.41,3,3,0,0,0,1.83-1.67h0a4.56,4.56,0,0,0-2.16-5.53A4.21,4.21,0,0,0,731.25,265.81Z"/><path class="cls-6" d="M749,279.53c-1,2.26-3.72,3-6.1,1.64a5.37,5.37,0,0,1-2.5-6.55c1-2.26,3.72-3,6.1-1.64A5.37,5.37,0,0,1,749,279.53Z"/><path class="cls-1" d="M103.89,427.92c-11.92,0-23.83-2.62-32.9-7.86S57.12,408,57.12,400.61,62,386.31,71,381.14c18.14-10.47,47.65-10.47,65.8,0,8.94,5.16,13.86,12.07,13.86,19.46s-4.92,14.3-13.86,19.46h0C127.71,425.3,115.8,427.92,103.89,427.92Zm0-53c-11.62,0-23.24,2.55-32.09,7.66-8.42,4.86-13.05,11.28-13.05,18.07s4.64,13.2,13.05,18.06c17.7,10.22,46.49,10.22,64.18,0h0c8.42-4.86,13.06-11.28,13.06-18.06s-4.64-13.2-13.06-18.06C127.13,377.43,115.5,374.88,103.88,374.88Z"/><path class="cls-2" d="M103.88,401.39c-11.92,0-23.83-2.62-32.9-7.85s-13.86-12.08-13.86-19.46S62,359.78,71,354.61c18.14-10.48,47.66-10.47,65.8,0,8.94,5.16,13.86,12.07,13.86,19.46s-4.92,14.3-13.86,19.46h0C127.71,398.77,115.8,401.39,103.88,401.39Zm0-53c-11.62,0-23.24,2.55-32.09,7.66-8.42,4.86-13.05,11.27-13.05,18.06s4.64,13.2,13.05,18.06c17.7,10.21,46.49,10.21,64.18,0h0c8.42-4.86,13.06-11.28,13.06-18.06S144.39,360.87,136,356C127.13,350.9,115.5,348.35,103.88,348.35Z"/><path class="cls-2" d="M157.24,226.67H50.53l9.93,115.53h0c0,6.42,4.24,12.83,12.72,17.73,17,9.79,44.46,9.79,61.42,0,8.48-4.9,12.72-11.31,12.72-17.73Z"/><path class="cls-10" d="M157.24,226.67H50.53l1.63,19a41.51,41.51,0,0,0,9.89,8.9c20.39,13.53,54,16.13,77,6.39l-3.55,84.5a16.6,16.6,0,0,1-3.81,10.08c-3.46,4.07-10.12,8.85-22.92,11.56,9.44-.61,18.59-3,25.83-7.17,8.48-4.9,12.72-11.31,12.72-17.73l8-92.65h0Z"/><path class="cls-11" d="M141.61,248.46c-20.84,12-54.62,12-75.45,0s-20.84-31.53,0-43.56,54.62-12,75.45,0S162.45,236.43,141.61,248.46Z"/><path class="cls-11" d="M136.38,234.58c-17.95,10.36-47,10.36-65,0s-17.95-27.16,0-37.52,47-10.36,65,0S154.32,224.22,136.38,234.58Z"/><path class="cls-12" d="M160.4,225.22h0v-.09c0-.05,0-.11,0-.16l-1-10.34,0,.12c-.46-7.83-5.85-15.58-16.2-21.56-21.66-12.51-56.78-12.51-78.45,0-10.61,6.13-16,14.12-16.23,22.15v0l-1,9.21c0,.24-.06.48-.08.72l0,.15h0c-.58,8.78,4.91,17.66,16.52,24.36,22.09,12.76,57.91,12.76,80,0C155.56,243,161.06,234.05,160.4,225.22Z"/><path class="cls-13" d="M136.38,235.12c-17.95,10.36-47,10.36-65,0s-17.95-27.16,0-37.52,47-10.36,65,0S154.32,224.76,136.38,235.12Z"/><path class="cls-11" d="M76.84,201c17.95-10.36,47-10.36,65,0,.23.13.42.28.64.41a36.68,36.68,0,0,0-6.09-4.36c-17.95-10.36-47-10.36-65,0-17.72,10.23-17.91,26.72-.64,37.11C59.22,223.89,61.24,210,76.84,201Z"/><path class="cls-14" d="M71.39,201.66c17.95-10.36,47-10.36,65,0,8,4.59,12.38,10.46,13.28,16.46,1.13-7.54-3.29-15.3-13.28-21.06-17.95-10.36-47-10.36-65,0-10,5.77-14.41,13.53-13.28,21.06C59,212.12,63.43,206.25,71.39,201.66Z"/><path class="cls-15" d="M143.45,193.44c-21.63-12.74-56.88-13.05-78.73-.69s-22,32.71-.4,45.46,56.88,13.05,78.73.69S165.08,206.18,143.45,193.44Zm-7.07,41.14a59.89,59.89,0,0,1-20.9,6.89l-.83-2.74a2.63,2.63,0,0,0-2.51-1.86H95.63a2.63,2.63,0,0,0-2.51,1.86l-.83,2.74a59.89,59.89,0,0,1-20.89-6.89c-17.95-10.36-17.95-27.16,0-37.52s47-10.36,65,0S154.32,224.22,136.38,234.58Z"/><rect class="cls-16" x="97.7" y="240.23" width="12.36" height="2.67" rx="0.39" ry="0.39"/><path class="cls-17" d="M108.81,240.23H99a1.25,1.25,0,0,0-1.25,1.25v.17a1.19,1.19,0,0,0,.07.33,1.23,1.23,0,0,1,1.18-.91h9.86A1.23,1.23,0,0,1,110,242a1.21,1.21,0,0,0,.07-.33v-.17A1.25,1.25,0,0,0,108.81,240.23Z"/><path class="cls-18" d="M110.84,98.86s-4-26.28,20.67-52.77c0,0-21.8,48.69-14.67,72.74C116.84,118.83,111.07,103.55,110.84,98.86Z"/></svg>