<svg xmlns="http://www.w3.org/2000/svg" xmlns:xlink="http://www.w3.org/1999/xlink" viewBox="0 0 600 400"><defs><style>.cls-1{fill:none;}.cls-2{isolation:isolate;}.cls-3{fill:#42e8e0;}.cls-4{fill:url(#Áĺçűě_ííűé_ăđŕäčĺíň_2);}.cls-5{fill:url(#Áĺçűě_ííűé_ăđŕäčĺíň_24);}.cls-6{fill:#24126a;}.cls-7{opacity:0.51;}.cls-8{fill:#453c9e;}.cls-9{fill:url(#Áĺçűě_ííűé_ăđŕäčĺíň_24-2);}.cls-10{fill:url(#Áĺçűě_ííűé_ăđŕäčĺíň_2-2);}.cls-11{fill:#fff;}.cls-12{opacity:0.15;}.cls-13{clip-path:url(#clip-path);}.cls-14{fill:url(#Áĺçűě_ííűé_ăđŕäčĺíň_24-3);}.cls-15{fill:url(#Áĺçűě_ííűé_ăđŕäčĺíň_2-3);}.cls-16,.cls-18{opacity:0.5;}.cls-17{opacity:0.8;}.cls-18{mix-blend-mode:lighten;fill:url(#Áĺçűě_ííűé_ăđŕäčĺíň_21);}</style><linearGradient id="Áĺçűě_ííűé_ăđŕäčĺíň_2" x1="29.7" y1="175.19" x2="186.02" y2="175.19" gradientTransform="matrix(-1, 0, 0, 1, 560.71, 0)" gradientUnits="userSpaceOnUse"><stop offset="0" stop-color="#c0bff6"/><stop offset="0.29" stop-color="#c5c4f7"/><stop offset="0.64" stop-color="#d3d2f9"/><stop offset="1" stop-color="#e9e9fd"/></linearGradient><linearGradient id="Áĺçűě_ííűé_ăđŕäčĺíň_24" x1="29.7" y1="215.28" x2="56.54" y2="215.28" gradientTransform="matrix(-1, 0, 0, 1, 560.71, 0)" gradientUnits="userSpaceOnUse"><stop offset="0" stop-color="#5761d7"/><stop offset="0.18" stop-color="#5c66d9"/><stop offset="0.39" stop-color="#6a73df"/><stop offset="0.61" stop-color="#8289e8"/><stop offset="0.85" stop-color="#a3a7f5"/><stop offset="1" stop-color="#bcbeff"/></linearGradient><linearGradient id="Áĺçűě_ííűé_ăđŕäčĺíň_24-2" x1="50.64" y1="259.02" x2="271.42" y2="259.02" xlink:href="#Áĺçűě_ííűé_ăđŕäčĺíň_24"/><linearGradient id="Áĺçűě_ííűé_ăđŕäčĺíň_2-2" x1="-47.44" y1="252.98" x2="277.89" y2="252.98" xlink:href="#Áĺçűě_ííűé_ăđŕäčĺíň_2"/><clipPath id="clip-path"><polygon class="cls-1" points="527.29 164.39 391.33 85.93 374.25 187.5 510.12 265.9 527.29 164.39"/></clipPath><linearGradient id="Áĺçűě_ííűé_ăđŕäčĺíň_24-3" x1="-34.26" y1="210.43" x2="186.52" y2="210.43" xlink:href="#Áĺçűě_ííűé_ăđŕäčĺíň_24"/><linearGradient id="Áĺçűě_ííűé_ăđŕäčĺíň_2-3" x1="39.93" y1="204.39" x2="260.83" y2="204.39" xlink:href="#Áĺçűě_ííűé_ăđŕäčĺíň_2"/><linearGradient id="Áĺçűě_ííűé_ăđŕäčĺíň_21" x1="612.91" y1="182.16" x2="659.54" y2="202.11" gradientTransform="translate(-148.43)" gradientUnits="userSpaceOnUse"><stop offset="0" stop-color="#42e8e0"/><stop offset="0.11" stop-color="#37b6bf"/><stop offset="0.22" stop-color="#2c87a1"/><stop offset="0.34" stop-color="#235f87"/><stop offset="0.46" stop-color="#1c3f72"/><stop offset="0.58" stop-color="#162561"/><stop offset="0.71" stop-color="#121355"/><stop offset="0.85" stop-color="#10084e"/><stop offset="1" stop-color="#0f054c"/></linearGradient></defs><title>Zeichenfläche 113</title><g class="cls-2"><g id="Ńëîé_1" data-name="Ńëîé 1"><path class="cls-3" d="M426.74,336.34a6.21,6.21,0,0,1-3-.77L289.76,258.24a2.5,2.5,0,0,1-1.45-2,1.94,1.94,0,0,1,1.1-1.66l79.93-46.15a6,6,0,0,1,5.43.21l133.95,77.33a2.5,2.5,0,0,1,1.45,2,1.93,1.93,0,0,1-1.1,1.66l-79.93,46.15A4.87,4.87,0,0,1,426.74,336.34Zm-136.5-78.93,133.95,77.33a5.06,5.06,0,0,0,4.47.21l79.93-46.15a1.05,1.05,0,0,0,.62-.83c0-.4-.36-.85-1-1.2L374.29,209.44a5.07,5.07,0,0,0-4.48-.21l-79.93,46.15a1.05,1.05,0,0,0-.62.83c0,.4.36.85,1,1.2Z"/><path class="cls-4" d="M374.72,184.91,391.65,84.46l-1.36-.57,2-1.17h0a1.47,1.47,0,0,1,1.58.11L529.23,161A3.82,3.82,0,0,1,531,164.4L513.92,265.65a1.27,1.27,0,0,1-.71,1h0l-2,1.16-.34-1.87.11,0-134.5-77.65A3.82,3.82,0,0,1,374.72,184.91Z"/><path class="cls-5" d="M528.47,163.71l2.22-1a3.06,3.06,0,0,1,.29,1.67L513.92,265.65a1.27,1.27,0,0,1-.71,1h0l-2,1.16-.34-1.87.11,0-6.81-3.93Z"/><path class="cls-6" d="M374.35,189.57,509.67,267.7c1,.6,1.94.25,2.12-.83l17.07-101.25a3.82,3.82,0,0,0-1.76-3.44L391.78,84c-1-.6-1.94-.25-2.12.83L372.59,186.13A3.82,3.82,0,0,0,374.35,189.57Z"/><g class="cls-7"><polygon class="cls-8" points="391.33 85.93 527.29 164.39 510.12 265.9 374.25 187.5 391.33 85.93"/></g><path class="cls-9" d="M289.29,237.5l7.38,3.86,74.05-42.75a5.37,5.37,0,0,1,4.83.2l127.72,73.74c1.22-.68,6.79-3.36,6.79-3.36l-2.7,4.39h0a1.61,1.61,0,0,1-.76.84l-78,45a5.37,5.37,0,0,1-4.83-.2l-130.7-75.46a2.34,2.34,0,0,1-1.1-1.17h0Z"/><path class="cls-10" d="M290.43,238.72l133.95,77.33a5.51,5.51,0,0,0,5,.21l79.93-46.15c1.27-.73,1.11-2-.36-2.86L375,189.92a5.51,5.51,0,0,0-5-.21l-79.93,46.15C288.8,236.59,289,237.87,290.43,238.72Z"/><path class="cls-11" d="M290.43,238.12l133.95,77.33a5.51,5.51,0,0,0,5,.21l79.93-46.15a1.61,1.61,0,0,0,.81-.94,1.37,1.37,0,0,1-.81,1.54l-79.93,46.15a5.51,5.51,0,0,1-5-.21L290.43,238.72c-1-.55-1.34-1.28-1.16-1.92A2.27,2.27,0,0,0,290.43,238.12Z"/><g class="cls-12"><g class="cls-13"><path class="cls-14" d="M374.19,188.92l7.38,3.86L455.62,150a5.37,5.37,0,0,1,4.83.2L588.17,224c1.22-.68,6.79-3.36,6.79-3.36l-2.7,4.39h0a1.61,1.61,0,0,1-.76.84l-78,45a5.37,5.37,0,0,1-4.83-.2L378,195.19a2.34,2.34,0,0,1-1.1-1.17h0Z"/><path class="cls-15" d="M375.33,190.13l133.95,77.33a5.51,5.51,0,0,0,5,.21l79.93-46.15c1.27-.73,1.11-2-.36-2.86L459.86,141.33a5.51,5.51,0,0,0-5-.21L375,187.27C373.7,188,373.86,189.28,375.33,190.13Z"/><path class="cls-11" d="M593.8,218.66,459.86,141.33a5.84,5.84,0,0,0-3.31-.67,5.6,5.6,0,0,1,2.32.67l133.95,77.33c1.47.85,1.63,2.13.36,2.86l-79.93,46.15a4,4,0,0,1-1.64.47,4.69,4.69,0,0,0,2.63-.47l79.93-46.15C595.43,220.79,595.27,219.51,593.8,218.66Z"/><g class="cls-16"><path class="cls-6" d="M445.49,176.82l-4.29-2.48a1.44,1.44,0,0,0-1.3,0l-4.77,2.79c-.37.22-.4.56-.05.76l4.29,2.48a1.44,1.44,0,0,0,1.3,0l4.77-2.79C445.81,177.35,445.83,177,445.49,176.82Z"/><path class="cls-6" d="M452.12,180.64l-4.29-2.48a1.44,1.44,0,0,0-1.3,0L441.75,181c-.37.22-.4.56-.05.76l4.29,2.48a1.44,1.44,0,0,0,1.3,0l4.77-2.79C452.44,181.18,452.46,180.84,452.12,180.64Z"/><path class="cls-6" d="M458.75,184.47,454.46,182a1.44,1.44,0,0,0-1.3,0l-4.77,2.79c-.37.22-.4.56-.05.76l4.29,2.48a1.44,1.44,0,0,0,1.3,0l4.77-2.79C459.07,185,459.09,184.67,458.75,184.47Z"/><path class="cls-6" d="M453.7,189.57l-4.29-2.48a1.44,1.44,0,0,0-1.3,0l-4,2.34c-.37.22-.4.56-.05.76l4.29,2.48a1.43,1.43,0,0,0,1.3,0l4-2.34C454,190.11,454,189.77,453.7,189.57Z"/><path class="cls-6" d="M460.33,193.4,456,190.92a1.44,1.44,0,0,0-1.3,0l-4,2.34c-.37.22-.4.56-.05.76l4.29,2.48a1.44,1.44,0,0,0,1.3,0l4-2.34C460.65,193.93,460.68,193.59,460.33,193.4Z"/><path class="cls-6" d="M467,197.22l-4.29-2.48a1.43,1.43,0,0,0-1.3,0l-4,2.34c-.37.22-.4.56-.05.76l4.29,2.48a1.44,1.44,0,0,0,1.3,0l4-2.34C467.28,197.76,467.31,197.42,467,197.22Z"/><path class="cls-6" d="M473.59,201.05l-4.29-2.48a1.44,1.44,0,0,0-1.3,0l-4,2.34c-.37.22-.4.56-.05.76l4.29,2.48a1.43,1.43,0,0,0,1.3,0l4-2.34C473.91,201.59,473.94,201.25,473.59,201.05Z"/><path class="cls-6" d="M480.22,204.88l-4.29-2.48a1.44,1.44,0,0,0-1.3,0l-4,2.34c-.37.22-.4.56-.05.76l4.29,2.48a1.44,1.44,0,0,0,1.3,0l4-2.34C480.54,205.42,480.57,205.08,480.22,204.88Z"/><path class="cls-6" d="M486.85,208.71l-4.29-2.48a1.43,1.43,0,0,0-1.3,0l-4,2.34c-.37.22-.4.56-.05.76l4.29,2.48a1.44,1.44,0,0,0,1.3,0l4-2.34C487.17,209.25,487.2,208.91,486.85,208.71Z"/><path class="cls-6" d="M493.48,212.54l-4.29-2.48a1.44,1.44,0,0,0-1.3,0l-4,2.34c-.37.22-.4.56-.05.76l4.29,2.48a1.44,1.44,0,0,0,1.3,0l4-2.34C493.8,213.07,493.83,212.74,493.48,212.54Z"/><path class="cls-6" d="M500.11,216.36l-4.29-2.48a1.44,1.44,0,0,0-1.3,0l-4,2.34c-.37.22-.4.56-.05.76l4.29,2.48a1.44,1.44,0,0,0,1.3,0l4-2.34C500.44,216.9,500.46,216.56,500.11,216.36Z"/><path class="cls-6" d="M506.75,220.19l-4.29-2.48a1.44,1.44,0,0,0-1.3,0l-4,2.34c-.37.22-.4.56-.05.76l4.29,2.48a1.44,1.44,0,0,0,1.3,0l4-2.34C507.07,220.73,507.09,220.39,506.75,220.19Z"/><path class="cls-6" d="M513.38,224l-4.29-2.48a1.44,1.44,0,0,0-1.3,0l-4,2.34c-.37.22-.4.56-.05.76l4.29,2.48a1.44,1.44,0,0,0,1.3,0l4-2.34C513.7,224.56,513.72,224.22,513.38,224Z"/><path class="cls-6" d="M450.94,195l-4.29-2.48a1.44,1.44,0,0,0-1.3,0l-4,2.34c-.37.22-.4.56-.05.76l4.29,2.48a1.43,1.43,0,0,0,1.3,0l4-2.34C451.26,195.57,451.28,195.23,450.94,195Z"/><path class="cls-6" d="M444.21,191.15l-4.29-2.48a1.44,1.44,0,0,0-1.3,0l-4,2.34c-.37.22-.4.56-.05.76l4.29,2.48a1.43,1.43,0,0,0,1.3,0l4-2.34C444.53,191.69,444.55,191.35,444.21,191.15Z"/><path class="cls-6" d="M437.47,187.26l-9.25-5.34a1.44,1.44,0,0,0-1.3,0l-4,2.34c-.37.22-.4.56-.05.76l9.25,5.34a1.44,1.44,0,0,0,1.3,0l4-2.34C437.79,187.79,437.81,187.45,437.47,187.26Z"/><path class="cls-6" d="M429.65,189.8l-7.5-4.33a1.44,1.44,0,0,0-1.3,0l-4,2.34c-.37.22-.4.56-.05.76l7.5,4.33a1.44,1.44,0,0,0,1.3,0l4-2.34C430,190.34,430,190,429.65,189.8Z"/><path class="cls-6" d="M457.57,198.86l-4.29-2.48a1.44,1.44,0,0,0-1.3,0l-4,2.34c-.37.22-.4.56-.05.76l4.29,2.48a1.44,1.44,0,0,0,1.3,0l4-2.34C457.89,199.4,457.91,199.06,457.57,198.86Z"/><path class="cls-6" d="M464.2,202.69l-4.29-2.48a1.44,1.44,0,0,0-1.3,0l-4,2.34c-.37.22-.4.56-.05.76l4.29,2.48a1.44,1.44,0,0,0,1.3,0l4-2.34C464.52,203.23,464.54,202.89,464.2,202.69Z"/><path class="cls-6" d="M470.83,206.52,466.54,204a1.44,1.44,0,0,0-1.3,0l-4,2.34c-.37.22-.4.56-.05.76l4.29,2.48a1.43,1.43,0,0,0,1.3,0l4-2.34C471.15,207.05,471.18,206.72,470.83,206.52Z"/><path class="cls-6" d="M477.46,210.35l-4.29-2.48a1.44,1.44,0,0,0-1.3,0l-4,2.34c-.37.22-.4.56-.05.76l4.29,2.48a1.44,1.44,0,0,0,1.3,0l4-2.34C477.78,210.88,477.81,210.54,477.46,210.35Z"/><path class="cls-6" d="M484.09,214.17l-4.29-2.48a1.43,1.43,0,0,0-1.3,0l-4,2.34c-.37.22-.4.56-.05.76l4.29,2.48a1.44,1.44,0,0,0,1.3,0l4-2.34C484.41,214.71,484.44,214.37,484.09,214.17Z"/><path class="cls-6" d="M490.72,218l-4.29-2.48a1.44,1.44,0,0,0-1.3,0l-4,2.34c-.37.22-.4.56-.05.76l4.29,2.48a1.44,1.44,0,0,0,1.3,0l4-2.34C491,218.54,491.07,218.2,490.72,218Z"/><path class="cls-6" d="M497.35,221.83l-4.29-2.48a1.44,1.44,0,0,0-1.3,0l-4,2.34c-.37.22-.4.56-.05.76L492,225a1.44,1.44,0,0,0,1.3,0l4-2.34C497.67,222.37,497.7,222,497.35,221.83Z"/><path class="cls-6" d="M504,225.66l-4.29-2.48a1.44,1.44,0,0,0-1.3,0l-4,2.34c-.37.22-.4.56-.05.76l4.29,2.48a1.44,1.44,0,0,0,1.3,0l4-2.34C504.3,226.2,504.33,225.86,504,225.66Z"/><path class="cls-6" d="M510.61,229.49,506.32,227a1.44,1.44,0,0,0-1.3,0l-4,2.34c-.37.22-.4.56-.05.76l4.29,2.48a1.44,1.44,0,0,0,1.3,0l4-2.34C510.93,230,511,229.68,510.61,229.49Z"/><path class="cls-6" d="M522.4,236.29,513,230.88a1.44,1.44,0,0,0-1.3,0l-4,2.34c-.37.22-.4.56-.05.76l9.37,5.41a1.44,1.44,0,0,0,1.3,0l4-2.34C522.72,236.83,522.75,236.49,522.4,236.29Z"/><path class="cls-6" d="M510.25,243.39l-7.91-4.57a1.44,1.44,0,0,0-1.3,0l-4,2.34c-.37.22-.4.56-.05.76l7.91,4.57a1.43,1.43,0,0,0,1.3,0l4-2.34C510.57,243.93,510.59,243.59,510.25,243.39Z"/><path class="cls-6" d="M456.65,205.39l-4.29-2.48a1.44,1.44,0,0,0-1.3,0l-4,2.34c-.37.22-.4.56-.05.76l4.29,2.48a1.43,1.43,0,0,0,1.3,0l4-2.34C457,205.93,457,205.59,456.65,205.39Z"/><path class="cls-6" d="M449.85,201.47,445.56,199a1.44,1.44,0,0,0-1.3,0l-4,2.34c-.37.22-.4.56-.05.76l4.29,2.48a1.44,1.44,0,0,0,1.3,0l4-2.34C450.17,202,450.2,201.66,449.85,201.47Z"/><path class="cls-6" d="M443.06,197.54l-4.29-2.48a1.43,1.43,0,0,0-1.3,0l-4,2.34c-.37.22-.4.56-.05.76l4.29,2.48a1.44,1.44,0,0,0,1.3,0l4-2.34C443.38,198.08,443.4,197.74,443.06,197.54Z"/><path class="cls-6" d="M436.26,193.62,432,191.14a1.44,1.44,0,0,0-1.3,0l-4,2.34c-.37.22-.4.56-.05.76l4.29,2.48a1.44,1.44,0,0,0,1.3,0l4-2.34C436.58,194.16,436.61,193.82,436.26,193.62Z"/><path class="cls-6" d="M463.28,209.22,459,206.74a1.44,1.44,0,0,0-1.3,0l-4,2.34c-.37.22-.4.56-.05.76l4.29,2.48a1.44,1.44,0,0,0,1.3,0l4-2.34C463.6,209.75,463.62,209.42,463.28,209.22Z"/><path class="cls-6" d="M469.91,213l-4.29-2.48a1.43,1.43,0,0,0-1.3,0l-4,2.34c-.37.22-.4.56-.05.76l4.29,2.48a1.44,1.44,0,0,0,1.3,0l4-2.34C470.23,213.58,470.25,213.24,469.91,213Z"/><path class="cls-6" d="M476.54,216.87l-4.29-2.48a1.44,1.44,0,0,0-1.3,0l-4,2.34c-.37.22-.4.56-.05.76l4.29,2.48a1.44,1.44,0,0,0,1.3,0l4-2.34C476.86,217.41,476.89,217.07,476.54,216.87Z"/><path class="cls-6" d="M483.17,220.7l-4.29-2.48a1.44,1.44,0,0,0-1.3,0l-4,2.34c-.37.22-.4.56-.05.76l4.29,2.48a1.44,1.44,0,0,0,1.3,0l4-2.34C483.49,221.24,483.52,220.9,483.17,220.7Z"/><path class="cls-6" d="M489.8,224.53l-4.29-2.48a1.44,1.44,0,0,0-1.3,0l-4,2.34c-.37.22-.4.56-.05.76l4.29,2.48a1.44,1.44,0,0,0,1.3,0l4-2.34C490.12,225.07,490.15,224.73,489.8,224.53Z"/><path class="cls-6" d="M496.43,228.36l-4.29-2.48a1.44,1.44,0,0,0-1.3,0l-4,2.34c-.37.22-.4.56-.05.76l4.29,2.48a1.44,1.44,0,0,0,1.3,0l4-2.34C496.75,228.9,496.78,228.56,496.43,228.36Z"/><path class="cls-6" d="M503.06,232.19l-4.29-2.48a1.44,1.44,0,0,0-1.3,0l-4,2.34c-.37.22-.4.56-.05.76l4.29,2.48a1.44,1.44,0,0,0,1.3,0l4-2.34C503.38,232.72,503.41,232.38,503.06,232.19Z"/><path class="cls-6" d="M509.69,236l-4.29-2.48a1.44,1.44,0,0,0-1.3,0l-4,2.34c-.37.22-.4.56-.05.76l4.29,2.48a1.44,1.44,0,0,0,1.3,0l4-2.34C510,236.55,510,236.21,509.69,236Z"/><path class="cls-6" d="M516.32,239.84,512,237.36a1.44,1.44,0,0,0-1.3,0l-4,2.34c-.37.22-.4.56-.05.76L511,243a1.44,1.44,0,0,0,1.3,0l4-2.34C516.64,240.38,516.67,240,516.32,239.84Z"/><path class="cls-6" d="M440.63,203.2l-4.29-2.48a1.44,1.44,0,0,0-1.3,0l-4,2.34c-.37.22-.4.56-.05.76l4.29,2.48a1.44,1.44,0,0,0,1.3,0l4-2.34C440.95,203.74,441,203.4,440.63,203.2Z"/><path class="cls-6" d="M434,199.39l-4.29-2.48a1.44,1.44,0,0,0-1.3,0l-4,2.34c-.37.22-.4.56-.05.76l4.29,2.48a1.44,1.44,0,0,0,1.3,0l4-2.34C434.35,199.93,434.37,199.59,434,199.39Z"/><path class="cls-6" d="M427.43,195.58l-4.29-2.48a1.44,1.44,0,0,0-1.3,0l-4,2.34c-.37.22-.4.56-.05.76l4.29,2.48a1.44,1.44,0,0,0,1.3,0l4-2.34C427.75,196.12,427.78,195.78,427.43,195.58Z"/><path class="cls-6" d="M420.83,191.77l-4.29-2.48a1.44,1.44,0,0,0-1.3,0l-4,2.34c-.37.22-.4.56-.05.76l4.29,2.48a1.44,1.44,0,0,0,1.3,0l4-2.34C421.15,192.31,421.18,192,420.83,191.77Z"/><path class="cls-6" d="M414.45,195.5,410.15,193a1.44,1.44,0,0,0-1.3,0l-1.32.77c-.37.22-.4.56-.05.76l4.29,2.48a1.43,1.43,0,0,0,1.3,0l1.32-.77C414.77,196,414.79,195.7,414.45,195.5Z"/><path class="cls-6" d="M423.05,200.47,418.76,198a1.44,1.44,0,0,0-1.3,0l-1.32.77c-.37.22-.4.56-.05.76l4.29,2.48a1.44,1.44,0,0,0,1.3,0l1.32-.77C423.38,201,423.4,200.67,423.05,200.47Z"/><path class="cls-6" d="M429.62,204.27l-4.29-2.48a1.44,1.44,0,0,0-1.3,0l-1.32.77c-.37.22-.4.56-.05.76l4.29,2.48a1.44,1.44,0,0,0,1.3,0l1.32-.77C429.95,204.8,430,204.47,429.62,204.27Z"/><path class="cls-6" d="M436.19,208.06l-4.29-2.48a1.44,1.44,0,0,0-1.3,0l-1.32.77c-.37.22-.4.56-.05.76l4.29,2.48a1.43,1.43,0,0,0,1.3,0l1.32-.77C436.52,208.6,436.54,208.26,436.19,208.06Z"/><path class="cls-6" d="M442.77,211.85l-4.29-2.48a1.44,1.44,0,0,0-1.3,0l-1.32.77c-.37.22-.4.56-.05.76l4.29,2.48a1.44,1.44,0,0,0,1.3,0l1.32-.77C443.09,212.39,443.11,212.05,442.77,211.85Z"/><path class="cls-6" d="M479.44,233l-4.29-2.48a1.44,1.44,0,0,0-1.3,0l-1.32.77c-.37.22-.4.56-.05.76l4.29,2.48a1.44,1.44,0,0,0,1.3,0l1.32-.77C479.76,233.57,479.79,233.23,479.44,233Z"/><path class="cls-6" d="M486,236.82l-4.29-2.48a1.43,1.43,0,0,0-1.3,0l-1.32.77c-.37.22-.4.56-.05.76l4.29,2.48a1.44,1.44,0,0,0,1.3,0l1.32-.77C486.33,237.36,486.36,237,486,236.82Z"/><path class="cls-6" d="M492.58,240.62l-4.29-2.48a1.44,1.44,0,0,0-1.3,0l-1.32.77c-.37.22-.4.56-.05.76l4.29,2.48a1.44,1.44,0,0,0,1.3,0l1.32-.77C492.91,241.15,492.93,240.81,492.58,240.62Z"/><path class="cls-6" d="M499.15,244.41l-4.29-2.48a1.44,1.44,0,0,0-1.3,0l-1.32.77c-.37.22-.4.56-.05.76l4.29,2.48a1.43,1.43,0,0,0,1.3,0l1.32-.77C499.48,244.95,499.5,244.61,499.15,244.41Z"/><path class="cls-6" d="M447.26,207,443,204.55a1.44,1.44,0,0,0-1.3,0l-4,2.34c-.37.22-.4.56-.05.76l4.29,2.48a1.44,1.44,0,0,0,1.3,0l4-2.34C447.58,207.56,447.6,207.22,447.26,207Z"/><path class="cls-6" d="M453.89,210.85l-4.29-2.48a1.44,1.44,0,0,0-1.3,0l-4,2.34c-.37.22-.4.56-.05.76l4.29,2.48a1.43,1.43,0,0,0,1.3,0l4-2.34C454.21,211.39,454.23,211.05,453.89,210.85Z"/><path class="cls-6" d="M460.52,214.68l-4.29-2.48a1.44,1.44,0,0,0-1.3,0l-4,2.34c-.37.22-.4.56-.05.76l4.29,2.48a1.44,1.44,0,0,0,1.3,0l4-2.34C460.84,215.22,460.86,214.88,460.52,214.68Z"/><path class="cls-6" d="M467.15,218.51,462.85,216a1.43,1.43,0,0,0-1.3,0l-4,2.34c-.37.22-.4.56-.05.76l4.29,2.48a1.44,1.44,0,0,0,1.3,0l4-2.34C467.47,219,467.49,218.71,467.15,218.51Z"/><path class="cls-6" d="M473.78,222.34l-4.29-2.48a1.44,1.44,0,0,0-1.3,0l-4,2.34c-.37.22-.4.56-.05.76l4.29,2.48a1.44,1.44,0,0,0,1.3,0l4-2.34C474.1,222.88,474.12,222.54,473.78,222.34Z"/><path class="cls-6" d="M480.41,226.17l-4.29-2.48a1.44,1.44,0,0,0-1.3,0l-4,2.34c-.37.22-.4.56-.05.76L475,229.3a1.44,1.44,0,0,0,1.3,0l4-2.34C480.73,226.7,480.75,226.37,480.41,226.17Z"/><path class="cls-6" d="M487,230l-4.29-2.48a1.44,1.44,0,0,0-1.3,0l-4,2.34c-.37.22-.4.56-.05.76l4.29,2.48a1.44,1.44,0,0,0,1.3,0l4-2.34C487.36,230.53,487.38,230.19,487,230Z"/><path class="cls-6" d="M493.67,233.82l-4.29-2.48a1.44,1.44,0,0,0-1.3,0l-4,2.34c-.37.22-.4.56-.05.76l4.29,2.48a1.44,1.44,0,0,0,1.3,0l4-2.34C494,234.36,494,234,493.67,233.82Z"/><path class="cls-6" d="M500.3,237.65,496,235.17a1.44,1.44,0,0,0-1.3,0l-4,2.34c-.37.22-.4.56-.05.76l4.29,2.48a1.44,1.44,0,0,0,1.3,0l4-2.34C500.62,238.19,500.65,237.85,500.3,237.65Z"/><path class="cls-6" d="M446.94,185.67l-12.64-7.3a1.44,1.44,0,0,0-1.3,0l-4,2.34c-.37.22-.4.56-.05.76l12.64,7.3a1.44,1.44,0,0,0,1.3,0l4-2.34C447.26,186.2,447.29,185.87,446.94,185.67Z"/><path class="cls-6" d="M528.4,232.7l-12.64-7.3a1.44,1.44,0,0,0-1.3,0l-4,2.34c-.37.22-.4.56-.05.76l12.64,7.3a1.44,1.44,0,0,0,1.3,0l4-2.34C528.72,233.23,528.75,232.9,528.4,232.7Z"/><path class="cls-6" d="M516.1,217.59l-4.29-2.48a1.44,1.44,0,0,0-1.3,0l-4.77,2.79c-.37.22-.4.56-.05.76l4.29,2.48a1.43,1.43,0,0,0,1.3,0l4.77-2.79C516.42,218.12,516.45,217.79,516.1,217.59Z"/><path class="cls-6" d="M468,189.79l-6.87-4a1.44,1.44,0,0,0-1.3,0L455,188.65c-.37.22-.4.56-.05.76l6.87,4a1.44,1.44,0,0,0,1.3,0l4.77-2.79C468.27,190.32,468.3,190,468,189.79Z"/><path class="cls-6" d="M509.72,213.9l-6.87-4a1.44,1.44,0,0,0-1.3,0l-4.77,2.79c-.37.22-.4.56-.05.76l6.87,4a1.44,1.44,0,0,0,1.3,0l4.77-2.79C510,214.44,510.06,214.1,509.72,213.9Z"/><path class="cls-6" d="M477.52,195.31l-6.87-4a1.44,1.44,0,0,0-1.3,0l-4.77,2.79c-.37.22-.4.56-.05.76l6.87,4a1.44,1.44,0,0,0,1.3,0l4.77-2.79C477.84,195.85,477.86,195.51,477.52,195.31Z"/><path class="cls-6" d="M464.57,195l29.85,17.24a1.43,1.43,0,0,0,1.3,0l4.87-2.84c.35-.2.33-.54,0-.76L470.7,191.37Z"/><path class="cls-6" d="M528.32,228.2,533.1,231a1.18,1.18,0,0,0,1.07,0l2-1.14c.31-.18.33-.46,0-.62l-4.78-2.76a1.18,1.18,0,0,0-1.07,0l-2,1.14C528.05,227.76,528,228,528.32,228.2Z"/><path class="cls-6" d="M521.63,224.34l4.78,2.76a1.18,1.18,0,0,0,1.07,0l2-1.14c.31-.18.33-.46,0-.62l-4.78-2.76a1.18,1.18,0,0,0-1.07,0l-2,1.14C521.37,223.9,521.35,224.17,521.63,224.34Z"/><path class="cls-6" d="M515,220.51l4.78,2.76a1.18,1.18,0,0,0,1.07,0l2-1.14c.31-.18.33-.46,0-.62l-4.78-2.76a1.18,1.18,0,0,0-1.07,0l-2,1.14C514.74,220.07,514.72,220.35,515,220.51Z"/><path class="cls-6" d="M518.18,226.35l4.78,2.76a1.18,1.18,0,0,0,1.07,0l2-1.14c.31-.18.33-.46,0-.62l-4.78-2.76a1.18,1.18,0,0,0-1.07,0l-2,1.14C517.92,225.91,517.9,226.19,518.18,226.35Z"/></g></g></g><g class="cls-17"><path class="cls-6" d="M352,230.15l-4.25-2.45c-.34-.2-.3-.54.1-.77l5-2.9a1.48,1.48,0,0,1,1.33-.06l4.25,2.45c.34.2.3.54-.1.77l-5,2.9A1.48,1.48,0,0,1,352,230.15Z"/><path class="cls-6" d="M358.61,233.95l-4.25-2.46c-.34-.2-.3-.54.1-.77l5-2.9a1.48,1.48,0,0,1,1.33-.06l4.25,2.45c.34.2.3.54-.1.77l-5,2.9A1.48,1.48,0,0,1,358.61,233.95Z"/><path class="cls-6" d="M365.18,237.74l-4.25-2.46c-.34-.2-.3-.54.1-.77l5-2.9a1.48,1.48,0,0,1,1.33-.06l4.25,2.45c.34.2.3.54-.1.77l-5,2.9A1.48,1.48,0,0,1,365.18,237.74Z"/><path class="cls-6" d="M374.26,234.61,370,232.15c-.34-.2-.3-.54.1-.77l4.21-2.43a1.48,1.48,0,0,1,1.33-.06l4.25,2.46c.34.2.3.54-.1.77l-4.21,2.43A1.48,1.48,0,0,1,374.26,234.61Z"/><path class="cls-6" d="M380.82,238.4l-4.25-2.46c-.34-.2-.3-.54.1-.77l4.21-2.43a1.48,1.48,0,0,1,1.33-.06l4.25,2.45c.34.2.3.54-.1.77l-4.21,2.43A1.48,1.48,0,0,1,380.82,238.4Z"/><path class="cls-6" d="M387.39,242.19l-4.25-2.45c-.34-.2-.3-.54.1-.77l4.21-2.43a1.48,1.48,0,0,1,1.33-.06l4.25,2.45c.34.2.3.54-.1.77l-4.21,2.43A1.48,1.48,0,0,1,387.39,242.19Z"/><path class="cls-6" d="M394,246l-4.25-2.45c-.34-.2-.3-.54.1-.77l4.21-2.43a1.48,1.48,0,0,1,1.33-.06l4.25,2.45c.34.2.3.54-.1.77l-4.21,2.43A1.48,1.48,0,0,1,394,246Z"/><path class="cls-6" d="M400.52,249.77l-4.25-2.45c-.34-.2-.3-.54.1-.77l4.21-2.43a1.48,1.48,0,0,1,1.33-.06l4.25,2.46c.34.2.3.54-.1.77l-4.21,2.43A1.48,1.48,0,0,1,400.52,249.77Z"/><path class="cls-6" d="M407.09,253.56l-4.25-2.46c-.34-.2-.3-.54.1-.77l4.21-2.43a1.48,1.48,0,0,1,1.33-.06l4.25,2.46c.34.2.3.54-.1.77l-4.21,2.43A1.48,1.48,0,0,1,407.09,253.56Z"/><path class="cls-6" d="M413.66,257.35l-4.25-2.45c-.34-.2-.3-.54.1-.77l4.21-2.43a1.48,1.48,0,0,1,1.33-.06l4.25,2.45c.34.2.3.54-.1.77L415,257.3A1.48,1.48,0,0,1,413.66,257.35Z"/><path class="cls-6" d="M420.22,261.15,416,258.69c-.34-.2-.3-.54.1-.77l4.21-2.43a1.48,1.48,0,0,1,1.33-.06l4.25,2.46c.34.2.3.54-.1.77l-4.21,2.43A1.48,1.48,0,0,1,420.22,261.15Z"/><path class="cls-6" d="M426.79,264.94l-4.25-2.45c-.34-.2-.3-.54.1-.77l4.21-2.43a1.48,1.48,0,0,1,1.33-.06l4.25,2.46c.34.2.3.54-.1.77l-4.21,2.43A1.48,1.48,0,0,1,426.79,264.94Z"/><path class="cls-6" d="M433.36,268.73l-4.25-2.46c-.34-.2-.3-.54.1-.77l4.21-2.43a1.48,1.48,0,0,1,1.33-.06l4.25,2.45c.34.2.3.54-.1.77l-4.21,2.43A1.48,1.48,0,0,1,433.36,268.73Z"/><path class="cls-6" d="M383.93,232.81l-4.25-2.45c-.34-.2-.3-.54.1-.77l4.21-2.43a1.48,1.48,0,0,1,1.33-.06l4.25,2.45c.34.2.3.54-.1.77l-4.21,2.43A1.48,1.48,0,0,1,383.93,232.81Z"/><path class="cls-6" d="M377.27,229,373,226.51c-.34-.2-.3-.54.1-.77l4.21-2.43a1.48,1.48,0,0,1,1.33-.06l4.25,2.45c.34.2.3.54-.1.77l-4.21,2.43A1.48,1.48,0,0,1,377.27,229Z"/><path class="cls-6" d="M370.59,225.11l-9.16-5.29c-.34-.2-.3-.54.1-.77l4.21-2.43a1.48,1.48,0,0,1,1.33-.06l9.16,5.29c.34.2.3.54-.1.77l-4.21,2.43A1.48,1.48,0,0,1,370.59,225.11Z"/><path class="cls-6" d="M375.26,220.42l-7.43-4.29c-.34-.2-.3-.54.1-.77l4.21-2.43a1.48,1.48,0,0,1,1.33-.06l7.43,4.29c.34.2.3.54-.1.77l-4.21,2.43A1.48,1.48,0,0,1,375.26,220.42Z"/><path class="cls-6" d="M390.5,236.6l-4.25-2.46c-.34-.2-.3-.54.1-.77l4.21-2.43a1.48,1.48,0,0,1,1.33-.06l4.25,2.45c.34.2.3.54-.1.77l-4.21,2.43A1.48,1.48,0,0,1,390.5,236.6Z"/><path class="cls-6" d="M397.07,240.39l-4.25-2.46c-.34-.2-.3-.54.1-.77l4.21-2.43a1.48,1.48,0,0,1,1.33-.06l4.25,2.46c.34.2.3.54-.1.77l-4.21,2.43A1.48,1.48,0,0,1,397.07,240.39Z"/><path class="cls-6" d="M403.63,244.19l-4.25-2.45c-.34-.2-.3-.54.1-.77l4.21-2.43a1.48,1.48,0,0,1,1.33-.06l4.25,2.46c.34.2.3.54-.1.77L405,244.13A1.48,1.48,0,0,1,403.63,244.19Z"/><path class="cls-6" d="M410.2,248l-4.25-2.46c-.34-.2-.3-.54.1-.77l4.21-2.43a1.48,1.48,0,0,1,1.33-.06l4.25,2.45c.34.2.3.54-.1.77l-4.21,2.43A1.48,1.48,0,0,1,410.2,248Z"/><path class="cls-6" d="M416.77,251.77l-4.25-2.45c-.34-.2-.3-.54.1-.77l4.21-2.43a1.48,1.48,0,0,1,1.33-.06l4.25,2.45c.34.2.3.54-.1.77l-4.21,2.43A1.48,1.48,0,0,1,416.77,251.77Z"/><path class="cls-6" d="M423.33,255.56l-4.25-2.45c-.34-.2-.3-.54.1-.77l4.21-2.43a1.48,1.48,0,0,1,1.33-.06L429,252.3c.34.2.3.54-.1.77l-4.21,2.43A1.48,1.48,0,0,1,423.33,255.56Z"/><path class="cls-6" d="M429.9,259.35l-4.25-2.45c-.34-.2-.3-.54.1-.77l4.21-2.43a1.48,1.48,0,0,1,1.33-.06l4.25,2.45c.34.2.3.54-.1.77l-4.21,2.43A1.48,1.48,0,0,1,429.9,259.35Z"/><path class="cls-6" d="M436.47,263.14l-4.25-2.45c-.34-.2-.3-.54.1-.77l4.21-2.43a1.48,1.48,0,0,1,1.33-.06l4.25,2.45c.34.2.3.54-.1.77l-4.21,2.43A1.48,1.48,0,0,1,436.47,263.14Z"/><path class="cls-6" d="M443,266.93l-4.25-2.45c-.34-.2-.3-.54.1-.77l4.21-2.43a1.48,1.48,0,0,1,1.33-.06l4.25,2.45c.34.2.3.54-.1.77l-4.21,2.43A1.48,1.48,0,0,1,443,266.93Z"/><path class="cls-6" d="M454.71,273.67l-9.28-5.36c-.34-.2-.3-.54.1-.77l4.21-2.43a1.48,1.48,0,0,1,1.33-.06l9.28,5.36c.34.2.3.54-.1.77L456,273.62A1.48,1.48,0,0,1,454.71,273.67Z"/><path class="cls-6" d="M467.49,266.29l-7.83-4.52c-.34-.2-.3-.54.1-.77l4.21-2.43a1.48,1.48,0,0,1,1.33-.06l7.83,4.52c.34.2.3.54-.1.77l-4.21,2.43A1.48,1.48,0,0,1,467.49,266.29Z"/><path class="cls-6" d="M402,235.86l-4.25-2.45c-.34-.2-.3-.54.1-.77l4.21-2.43a1.48,1.48,0,0,1,1.33-.06l4.25,2.45c.34.2.3.54-.1.77l-4.21,2.43A1.48,1.48,0,0,1,402,235.86Z"/><path class="cls-6" d="M395.27,232,391,229.52c-.34-.2-.3-.54.1-.77l4.21-2.43a1.48,1.48,0,0,1,1.33-.06l4.25,2.46c.34.2.3.54-.1.77l-4.21,2.43A1.48,1.48,0,0,1,395.27,232Z"/><path class="cls-6" d="M388.54,228.09l-4.25-2.45c-.34-.2-.3-.54.1-.77l4.21-2.43a1.48,1.48,0,0,1,1.33-.06l4.25,2.46c.34.2.3.54-.1.77L389.87,228A1.48,1.48,0,0,1,388.54,228.09Z"/><path class="cls-6" d="M381.81,224.2l-4.25-2.45c-.34-.2-.3-.54.1-.77l4.21-2.43a1.48,1.48,0,0,1,1.33-.06l4.25,2.45c.34.2.3.54-.1.77l-4.21,2.43A1.48,1.48,0,0,1,381.81,224.2Z"/><path class="cls-6" d="M408.57,239.65l-4.25-2.45c-.34-.2-.3-.54.1-.77l4.21-2.43a1.48,1.48,0,0,1,1.33-.06l4.25,2.45c.34.2.3.54-.1.77l-4.21,2.43A1.48,1.48,0,0,1,408.57,239.65Z"/><path class="cls-6" d="M415.13,243.44,410.88,241c-.34-.2-.3-.54.1-.77l4.21-2.43a1.48,1.48,0,0,1,1.33-.06l4.25,2.46c.34.2.3.54-.1.77l-4.21,2.43A1.48,1.48,0,0,1,415.13,243.44Z"/><path class="cls-6" d="M421.7,247.23l-4.25-2.46c-.34-.2-.3-.54.1-.77l4.21-2.43a1.48,1.48,0,0,1,1.33-.06l4.25,2.46c.34.2.3.54-.1.77L423,247.18A1.48,1.48,0,0,1,421.7,247.23Z"/><path class="cls-6" d="M428.27,251,424,248.57c-.34-.2-.3-.54.1-.77l4.21-2.43a1.48,1.48,0,0,1,1.33-.06l4.25,2.46c.34.2.3.54-.1.77L429.6,251A1.48,1.48,0,0,1,428.27,251Z"/><path class="cls-6" d="M434.83,254.82l-4.25-2.46c-.34-.2-.3-.54.1-.77l4.21-2.43a1.48,1.48,0,0,1,1.33-.06l4.25,2.45c.34.2.3.54-.1.77l-4.21,2.43A1.48,1.48,0,0,1,434.83,254.82Z"/><path class="cls-6" d="M441.4,258.61l-4.25-2.45c-.34-.2-.3-.54.1-.77l4.21-2.43a1.48,1.48,0,0,1,1.33-.06l4.25,2.45c.34.2.3.54-.1.77l-4.21,2.43A1.48,1.48,0,0,1,441.4,258.61Z"/><path class="cls-6" d="M448,262.4l-4.25-2.45c-.34-.2-.3-.54.1-.77l4.21-2.43a1.48,1.48,0,0,1,1.33-.06l4.25,2.46c.34.2.3.54-.1.77l-4.21,2.43A1.48,1.48,0,0,1,448,262.4Z"/><path class="cls-6" d="M454.53,266.19l-4.25-2.46c-.34-.2-.3-.54.1-.77l4.21-2.43a1.48,1.48,0,0,1,1.33-.06l4.25,2.45c.34.2.3.54-.1.77l-4.21,2.43A1.48,1.48,0,0,1,454.53,266.19Z"/><path class="cls-6" d="M461.1,270l-4.25-2.46c-.34-.2-.3-.54.1-.77l4.21-2.43a1.48,1.48,0,0,1,1.33-.06l4.25,2.45c.34.2.3.54-.1.77l-4.21,2.43A1.48,1.48,0,0,1,461.1,270Z"/><path class="cls-6" d="M398.54,226.48,394.29,224c-.34-.2-.3-.54.1-.77l4.21-2.43a1.48,1.48,0,0,1,1.33-.06l4.25,2.45c.34.2.3.54-.1.77l-4.21,2.43A1.48,1.48,0,0,1,398.54,226.48Z"/><path class="cls-6" d="M392,222.71l-4.25-2.45c-.34-.2-.3-.54.1-.77l4.21-2.43a1.48,1.48,0,0,1,1.33-.06l4.25,2.45c.34.2.3.54-.1.77l-4.21,2.43A1.48,1.48,0,0,1,392,222.71Z"/><path class="cls-6" d="M385.47,218.94l-4.25-2.45c-.34-.2-.3-.54.1-.77l4.21-2.43a1.48,1.48,0,0,1,1.33-.06l4.25,2.45c.34.2.3.54-.1.77l-4.21,2.43A1.48,1.48,0,0,1,385.47,218.94Z"/><path class="cls-6" d="M378.94,215.17l-4.25-2.46c-.34-.2-.3-.54.1-.77l4.21-2.43a1.48,1.48,0,0,1,1.33-.06l4.25,2.45c.34.2.3.54-.1.77l-4.21,2.43A1.48,1.48,0,0,1,378.94,215.17Z"/><path class="cls-6" d="M385.66,211.29l-4.25-2.46c-.34-.2-.3-.54.1-.77l1.39-.8a1.48,1.48,0,0,1,1.33-.06l4.25,2.45c.34.2.3.54-.1.77l-1.39.8A1.48,1.48,0,0,1,385.66,211.29Z"/><path class="cls-6" d="M394.19,216.21l-4.25-2.45c-.34-.2-.3-.54.1-.77l1.39-.8a1.48,1.48,0,0,1,1.33-.06l4.25,2.45c.34.2.3.54-.1.77l-1.39.8A1.48,1.48,0,0,1,394.19,216.21Z"/><path class="cls-6" d="M400.69,220l-4.25-2.46c-.34-.2-.3-.54.1-.77l1.39-.8a1.48,1.48,0,0,1,1.33-.06l4.25,2.46c.34.2.3.54-.1.77l-1.39.8A1.48,1.48,0,0,1,400.69,220Z"/><path class="cls-6" d="M407.2,223.72l-4.25-2.46c-.34-.2-.3-.54.1-.77l1.39-.8a1.48,1.48,0,0,1,1.33-.06L410,222.1c.34.2.3.54-.1.77l-1.39.8A1.48,1.48,0,0,1,407.2,223.72Z"/><path class="cls-6" d="M413.71,227.48,409.45,225c-.34-.2-.3-.54.1-.77l1.39-.8a1.48,1.48,0,0,1,1.33-.06l4.25,2.45c.34.2.3.54-.1.77l-1.39.8A1.48,1.48,0,0,1,413.71,227.48Z"/><path class="cls-6" d="M450,248.45,445.78,246c-.34-.2-.3-.54.1-.77l1.39-.8a1.48,1.48,0,0,1,1.33-.06l4.25,2.46c.34.2.3.54-.1.77l-1.39.8A1.48,1.48,0,0,1,450,248.45Z"/><path class="cls-6" d="M456.54,252.21l-4.25-2.45c-.34-.2-.3-.54.1-.77l1.39-.8a1.48,1.48,0,0,1,1.33-.06l4.25,2.46c.34.2.3.54-.1.77l-1.39.8A1.48,1.48,0,0,1,456.54,252.21Z"/><path class="cls-6" d="M463,256l-4.25-2.45c-.34-.2-.3-.54.1-.77l1.39-.8a1.48,1.48,0,0,1,1.33-.06l4.25,2.45c.34.2.3.54-.1.77l-1.39.8A1.48,1.48,0,0,1,463,256Z"/><path class="cls-6" d="M469.55,259.72l-4.25-2.45c-.34-.2-.3-.54.1-.77l1.39-.8a1.48,1.48,0,0,1,1.33-.06l4.25,2.46c.34.2.3.54-.1.77l-1.39.8A1.48,1.48,0,0,1,469.55,259.72Z"/><path class="cls-6" d="M405.11,230.27l-4.25-2.45c-.34-.2-.3-.54.1-.77l4.21-2.43a1.48,1.48,0,0,1,1.33-.06l4.25,2.46c.34.2.3.54-.1.77l-4.21,2.43A1.48,1.48,0,0,1,405.11,230.27Z"/><path class="cls-6" d="M411.68,234.07l-4.25-2.46c-.34-.2-.3-.54.1-.77l4.21-2.43a1.48,1.48,0,0,1,1.33-.06l4.25,2.45c.34.2.3.54-.1.77L413,234A1.48,1.48,0,0,1,411.68,234.07Z"/><path class="cls-6" d="M418.24,237.86,414,235.4c-.34-.2-.3-.54.1-.77l4.21-2.43a1.48,1.48,0,0,1,1.33-.06l4.25,2.46c.34.2.3.54-.1.77l-4.21,2.43A1.48,1.48,0,0,1,418.24,237.86Z"/><path class="cls-6" d="M424.81,241.65l-4.25-2.45c-.34-.2-.3-.54.1-.77l4.21-2.43a1.48,1.48,0,0,1,1.33-.06l4.25,2.45c.34.2.3.54-.1.77l-4.21,2.43A1.48,1.48,0,0,1,424.81,241.65Z"/><path class="cls-6" d="M431.38,245.44,427.12,243c-.34-.2-.3-.54.1-.77l4.21-2.43a1.48,1.48,0,0,1,1.33-.06l4.25,2.45c.34.2.3.54-.1.77l-4.21,2.43A1.48,1.48,0,0,1,431.38,245.44Z"/><path class="cls-6" d="M437.94,249.23l-4.25-2.45c-.34-.2-.3-.54.1-.77l4.21-2.43a1.48,1.48,0,0,1,1.33-.06l4.25,2.45c.34.2.3.54-.1.77l-4.21,2.43A1.48,1.48,0,0,1,437.94,249.23Z"/><path class="cls-6" d="M444.51,253l-4.25-2.45c-.34-.2-.3-.54.1-.77l4.21-2.43a1.48,1.48,0,0,1,1.33-.06l4.25,2.46c.34.2.3.54-.1.77L445.84,253A1.48,1.48,0,0,1,444.51,253Z"/><path class="cls-6" d="M451.08,256.81l-4.25-2.46c-.34-.2-.3-.54.1-.77l4.21-2.43a1.48,1.48,0,0,1,1.33-.06l4.25,2.46c.34.2.3.54-.1.77l-4.21,2.43A1.48,1.48,0,0,1,451.08,256.81Z"/><path class="cls-6" d="M457.64,260.6l-4.25-2.45c-.34-.2-.3-.54.1-.77l4.21-2.43a1.48,1.48,0,0,1,1.33-.06l4.25,2.45c.34.2.3.54-.1.77L459,260.55A1.48,1.48,0,0,1,457.64,260.6Z"/><path class="cls-6" d="M367.57,230.74,355,223.51c-.34-.2-.3-.54.1-.77l4.21-2.43a1.48,1.48,0,0,1,1.33-.06l12.52,7.23c.34.2.3.54-.1.77l-4.21,2.43A1.48,1.48,0,0,1,367.57,230.74Z"/><path class="cls-6" d="M448.24,277.32l-12.52-7.23c-.34-.2-.3-.54.1-.77l4.21-2.43a1.48,1.48,0,0,1,1.33-.06l12.52,7.23c.34.2.3.54-.1.77l-4.21,2.43A1.48,1.48,0,0,1,448.24,277.32Z"/><path class="cls-6" d="M422,270.53l-4.25-2.45c-.34-.2-.3-.54.1-.77l5-2.9a1.48,1.48,0,0,1,1.33-.06l4.25,2.45c.34.2.3.54-.1.77l-5,2.9A1.48,1.48,0,0,1,422,270.53Z"/><path class="cls-6" d="M374.29,243l-6.8-3.93c-.34-.2-.3-.54.1-.77l5-2.9a1.48,1.48,0,0,1,1.33-.06l6.8,3.93c.34.2.3.54-.1.77l-5,2.9A1.48,1.48,0,0,1,374.29,243Z"/><path class="cls-6" d="M415.65,266.88l-6.8-3.93c-.34-.2-.3-.54.1-.77l5-2.9a1.48,1.48,0,0,1,1.33-.06l6.8,3.93c.34.2.3.54-.1.77l-5,2.9A1.48,1.48,0,0,1,415.65,266.88Z"/><path class="cls-6" d="M383.77,248.47l-6.8-3.93c-.34-.2-.3-.54.1-.77l5-2.9a1.48,1.48,0,0,1,1.33-.06l6.8,3.93c.34.2.3.54-.1.77l-5,2.9A1.48,1.48,0,0,1,383.77,248.47Z"/><path class="cls-6" d="M383.46,240.85,413,257.92a.4.4,0,0,1,0,.77l-5.12,3a1.47,1.47,0,0,1-1.33,0L377,244.57Z"/><path class="cls-6" d="M440.33,277.41l4.74,2.73c.28.16.24.44-.08.63L442.94,282a1.21,1.21,0,0,1-1.09,0l-4.74-2.73c-.28-.16-.24-.44.08-.63l2.05-1.19A1.21,1.21,0,0,1,440.33,277.41Z"/><path class="cls-6" d="M433.71,273.58l4.74,2.73c.28.16.24.44-.08.63l-2.05,1.19a1.21,1.21,0,0,1-1.09,0l-4.74-2.73c-.28-.16-.24-.44.08-.63l2.05-1.19A1.21,1.21,0,0,1,433.71,273.58Z"/><path class="cls-6" d="M427.14,269.79l4.74,2.73c.28.16.24.44-.08.63l-2.05,1.19a1.21,1.21,0,0,1-1.09,0l-4.74-2.73c-.28-.16-.24-.44.08-.63l2.05-1.19A1.21,1.21,0,0,1,427.14,269.79Z"/><path class="cls-6" d="M437.34,271.49l4.74,2.73c.28.16.24.44-.08.63L439.94,276a1.21,1.21,0,0,1-1.09,0l-4.74-2.73c-.28-.16-.24-.44.08-.63l2.05-1.19A1.21,1.21,0,0,1,437.34,271.49Z"/></g><path class="cls-3" d="M504.33,169.32a2,2,0,0,1-1-.28,2.9,2.9,0,0,1-1.39-2.93,1.47,1.47,0,0,1,.83-1.06,1.76,1.76,0,0,1,1.58.17,2.9,2.9,0,0,1,1.39,2.93,1.42,1.42,0,0,1-1.42,1.17Zm-1-3.93a1,1,0,0,0-.41.08,1,1,0,0,0-.57.74,2.42,2.42,0,0,0,1.17,2.43,1.31,1.31,0,0,0,1.17.14,1,1,0,0,0,.57-.74,2.42,2.42,0,0,0-1.17-2.43A1.55,1.55,0,0,0,503.37,165.39Z"/><path class="cls-3" d="M509.74,172.45a2,2,0,0,1-1-.28,2.9,2.9,0,0,1-1.39-2.93,1.47,1.47,0,0,1,.83-1.06,1.76,1.76,0,0,1,1.58.17,2.9,2.9,0,0,1,1.39,2.93,1.42,1.42,0,0,1-1.42,1.17Zm-1-3.93a1,1,0,0,0-.41.08,1,1,0,0,0-.57.74,2.42,2.42,0,0,0,1.17,2.43,1.31,1.31,0,0,0,1.17.14,1,1,0,0,0,.57-.74,2.42,2.42,0,0,0-1.17-2.43A1.54,1.54,0,0,0,508.78,168.51Z"/><path class="cls-3" d="M516.35,174.35a1.29,1.29,0,0,1-2.07.75,2.66,2.66,0,0,1-1.28-2.68,1.29,1.29,0,0,1,2.07-.75A2.66,2.66,0,0,1,516.35,174.35Z"/><polygon class="cls-3" points="412.54 114.6 409.64 112.93 409.87 111.59 412.76 113.26 412.54 114.6"/><polygon class="cls-3" points="416.75 117.03 413.85 115.36 414.07 114.02 416.97 115.69 416.75 117.03"/><polygon class="cls-3" points="408.37 112.2 402.02 108.53 402.25 107.19 408.6 110.86 408.37 112.2"/><polygon class="cls-3" points="409.17 137.46 404.32 134.66 404.51 133.54 409.36 136.34 409.17 137.46"/><polygon class="cls-3" points="413.31 139.85 410.88 138.45 411.07 137.33 413.49 138.73 413.31 139.85"/><polygon class="cls-3" points="410.16 140.91 408.1 139.72 408.28 138.6 410.35 139.79 410.16 140.91"/><polygon class="cls-3" points="413.62 142.91 411.2 141.51 411.38 140.39 413.81 141.79 413.62 142.91"/><polygon class="cls-3" points="417.18 147.85 407.65 142.35 407.84 141.23 417.37 146.73 417.18 147.85"/><polygon class="cls-3" points="408.92 169.84 399.4 164.34 399.59 163.22 409.11 168.72 408.92 169.84"/><polygon class="cls-3" points="412.58 171.95 410.16 170.55 410.35 169.43 412.77 170.83 412.58 171.95"/><polygon class="cls-3" points="409.28 146.17 407.21 144.97 407.4 143.85 409.47 145.05 409.28 146.17"/><polygon class="cls-3" points="412.74 148.16 410.31 146.76 410.5 145.65 412.93 147.04 412.74 148.16"/><polygon class="cls-3" points="412.01 150.63 406.77 147.6 406.96 146.48 412.2 149.5 412.01 150.63"/><polygon class="cls-3" points="415.51 152.65 413.09 151.25 413.28 150.13 415.7 151.53 415.51 152.65"/><polygon class="cls-3" points="419.04 154.68 416.61 153.28 416.8 152.16 419.22 153.56 419.04 154.68"/><polygon class="cls-3" points="424.72 157.96 420.14 155.32 420.32 154.2 424.91 156.84 424.72 157.96"/><polygon class="cls-3" points="421.09 161.63 418.67 160.23 418.86 159.11 421.28 160.51 421.09 161.63"/><polygon class="cls-3" points="426.78 164.91 422.19 162.27 422.38 161.15 426.96 163.79 426.78 164.91"/><polygon class="cls-3" points="408.32 154.25 405.89 152.86 406.08 151.74 408.5 153.13 408.32 154.25"/><polygon class="cls-3" points="411.84 156.29 409.42 154.89 409.6 153.77 412.03 155.17 411.84 156.29"/><polygon class="cls-3" points="417.52 159.57 412.94 156.92 413.13 155.8 417.71 158.45 417.52 159.57"/><polygon class="cls-3" points="424.97 160.99 422.55 159.59 422.74 158.47 425.16 159.87 424.97 160.99"/><polygon class="cls-3" points="428.5 163.02 426.07 161.63 426.26 160.5 428.68 161.9 428.5 163.02"/><polygon class="cls-3" points="434.18 166.31 429.6 163.66 429.78 162.54 434.37 165.19 434.18 166.31"/><polygon class="cls-3" points="416.38 174.14 413.95 172.74 414.14 171.62 416.56 173.02 416.38 174.14"/><polygon class="cls-3" points="422.06 177.42 417.48 174.78 417.66 173.66 422.25 176.3 422.06 177.42"/><polygon class="cls-3" points="407.44 159.51 405.01 158.11 405.2 156.99 407.62 158.39 407.44 159.51"/><polygon class="cls-3" points="413.12 162.79 408.54 160.14 408.72 159.02 413.31 161.67 413.12 162.79"/><polygon class="cls-3" points="419.02 178.55 416.59 177.15 416.78 176.03 419.2 177.43 419.02 178.55"/><polygon class="cls-3" points="424.7 181.83 420.12 179.18 420.3 178.06 424.89 180.71 424.7 181.83"/><polygon class="cls-3" points="424.42 152.03 422 150.63 422.19 149.51 424.61 150.91 424.42 152.03"/><polygon class="cls-3" points="420.76 149.91 418.33 148.51 418.52 147.39 420.95 148.79 420.76 149.91"/><polygon class="cls-3" points="430.11 155.31 425.52 152.66 425.71 151.54 430.3 154.19 430.11 155.31"/><polygon class="cls-3" points="408.52 151.49 406.33 150.23 406.52 149.11 408.71 150.37 408.52 151.49"/><polygon class="cls-3" points="415 155.24 409.69 152.17 409.88 151.05 415.19 154.11 415 155.24"/><polygon class="cls-3" points="421.49 158.98 416.17 155.91 416.36 154.79 421.68 157.86 421.49 158.98"/><polygon class="cls-3" points="433.48 157.26 431.29 155.99 431.48 154.87 433.66 156.13 433.48 157.26"/><polygon class="cls-3" points="439.96 161 434.64 157.93 434.83 156.81 440.15 159.88 439.96 161"/><polygon class="cls-3" points="446.44 164.74 441.13 161.67 441.31 160.55 446.63 163.62 446.44 164.74"/><polygon class="cls-3" points="410.81 158.58 405.5 155.51 405.69 154.39 411 157.46 410.81 158.58"/><polygon class="cls-3" points="413.62 160.2 411.98 159.25 412.17 158.13 413.8 159.07 413.62 160.2"/><polygon class="cls-3" points="416.42 161.82 414.79 160.87 414.98 159.75 416.61 160.7 416.42 161.82"/><polygon class="cls-3" points="421.61 164.81 417.6 162.5 417.79 161.38 421.8 163.69 421.61 164.81"/><polygon class="cls-3" points="427.43 159.53 425.8 158.59 425.99 157.47 427.62 158.41 427.43 159.53"/><polygon class="cls-3" points="432.62 162.53 428.61 160.21 428.79 159.09 432.81 161.41 432.62 162.53"/><polygon class="cls-3" points="433.71 163.16 429.7 160.84 429.88 159.72 433.9 162.03 433.71 163.16"/><polygon class="cls-3" points="412.34 177.57 407.1 174.55 407.29 173.43 412.52 176.45 412.34 177.57"/><polygon class="cls-3" points="415.84 179.59 413.42 178.19 413.61 177.07 416.03 178.47 415.84 179.59"/><polygon class="cls-3" points="419.36 181.63 416.94 180.23 417.13 179.11 419.55 180.51 419.36 181.63"/><polygon class="cls-3" points="425.05 184.91 420.46 182.26 420.65 181.14 425.24 183.79 425.05 184.91"/><polygon class="cls-3" points="428.68 187.01 426.26 185.61 426.45 184.49 428.87 185.89 428.68 187.01"/><polygon class="cls-3" points="434.37 190.29 429.78 187.64 429.97 186.52 434.56 189.17 434.37 190.29"/><polygon class="cls-3" points="416.93 185.99 414.51 184.59 414.69 183.47 417.12 184.87 416.93 185.99"/><polygon class="cls-3" points="422.62 189.27 418.03 186.62 418.22 185.5 422.8 188.15 422.62 189.27"/><polygon class="cls-3" points="404.27 178.68 401.85 177.28 402.04 176.16 404.46 177.56 404.27 178.68"/><polygon class="cls-3" points="407.8 180.71 405.37 179.31 405.56 178.19 407.98 179.59 407.8 180.71"/><polygon class="cls-3" points="413.48 183.99 408.89 181.35 409.08 180.23 413.67 182.87 413.48 183.99"/><polygon class="cls-3" points="408.85 178.44 406.66 177.17 406.85 176.05 409.03 177.32 408.85 178.44"/><polygon class="cls-3" points="415.33 182.18 410.02 179.11 410.2 177.99 415.52 181.06 415.33 182.18"/><polygon class="cls-3" points="421.81 185.92 416.5 182.85 416.69 181.74 422 184.8 421.81 185.92"/><polygon class="cls-3" points="402.48 180.53 397.17 177.46 397.36 176.34 402.67 179.41 402.48 180.53"/><polygon class="cls-3" points="405.29 182.14 403.65 181.2 403.84 180.08 405.47 181.02 405.29 182.14"/><polygon class="cls-3" points="408.09 183.76 406.46 182.82 406.65 181.7 408.28 182.64 408.09 183.76"/><polygon class="cls-3" points="413.28 186.76 409.27 184.44 409.46 183.32 413.47 185.64 413.28 186.76"/><polygon class="cls-3" points="414.37 187.39 410.36 185.07 410.55 183.95 414.56 186.27 414.37 187.39"/><polygon class="cls-3" points="404.88 170.38 403.25 169.44 403.43 168.32 405.06 169.26 404.88 170.38"/><polygon class="cls-3" points="410.07 173.38 406.05 171.06 406.24 169.94 410.26 172.26 410.07 173.38"/><polygon class="cls-3" points="415.37 176.44 411.36 174.12 411.54 173 415.56 175.32 415.37 176.44"/><polygon class="cls-3" points="435.81 194 433.38 192.6 433.57 191.48 435.99 192.88 435.81 194"/><polygon class="cls-3" points="441.49 197.28 436.91 194.64 437.09 193.52 441.68 196.16 441.49 197.28"/><polygon class="cls-3" points="426.86 188.84 422.84 186.52 423.03 185.4 427.05 187.72 426.86 188.84"/><polygon class="cls-3" points="432.16 191.9 428.15 189.58 428.33 188.46 432.35 190.78 432.16 191.9"/><polygon class="cls-3" points="402.04 159.27 400.41 158.33 400.59 157.21 402.23 158.15 402.04 159.27"/><polygon class="cls-3" points="407.23 162.27 403.21 159.95 403.4 158.83 407.42 161.15 407.23 162.27"/><polygon class="cls-3" points="412.53 165.33 408.52 163.01 408.7 161.89 412.72 164.21 412.53 165.33"/><path class="cls-3" d="M492.65,206.17a2.26,2.26,0,0,1-1.12-.33l-32.46-18.74a4.45,4.45,0,0,1-1.91-4.31l2.08-12.38a2.31,2.31,0,0,1,1.19-1.78,2,2,0,0,1,1.88.16l32.46,18.74a4.45,4.45,0,0,1,1.91,4.31l-2.08,12.38A2.3,2.3,0,0,1,493.4,206,1.75,1.75,0,0,1,492.65,206.17Zm-31.47-37.25a1.3,1.3,0,0,0-.56.12,1.86,1.86,0,0,0-.94,1.44l-2.08,12.38a4,4,0,0,0,1.69,3.84l32.46,18.74a1.55,1.55,0,0,0,1.45.14,1.86,1.86,0,0,0,.94-1.45l2.08-12.38a4,4,0,0,0-1.69-3.84l-32.46-18.74A1.8,1.8,0,0,0,461.18,168.92Z"/><path class="cls-3" d="M489.08,227.45a2.25,2.25,0,0,1-1.12-.32L455.5,208.39a4.46,4.46,0,0,1-1.91-4.31l2.08-12.38a2.3,2.3,0,0,1,1.19-1.78,2,2,0,0,1,1.88.16l32.46,18.74a4.45,4.45,0,0,1,1.91,4.31L491,225.5a2.31,2.31,0,0,1-1.19,1.78A1.75,1.75,0,0,1,489.08,227.45Zm-.89-.72a1.55,1.55,0,0,0,1.45.14,1.86,1.86,0,0,0,.94-1.45L492.65,213A4,4,0,0,0,491,209.2l-32.46-18.74a1.55,1.55,0,0,0-1.46-.14,1.86,1.86,0,0,0-.93,1.44L454,204.15a4,4,0,0,0,1.69,3.84Z"/><path class="cls-18" d="M462,185.77c.57.33,1.09.21,1.28-.31L467,175.12c.43-1.18,2.2-.11,2.57,1.55l2.33,10.41a3,3,0,0,0,1.3,1.86l.56.32c.54.31,1,.22,1.24-.23l.77-1.63c.48-1,2.07-.06,2.5,1.5h0a3,3,0,0,0,1.26,1.73l.49.28c.59.34,1.11.2,1.29-.35l.7-2.16c.4-1.22,2.17-.2,2.57,1.47l2.33,9.63a3,3,0,0,0,1.31,1.83Z"/><path class="cls-3" d="M484.16,222.55a3.24,3.24,0,0,1-1.42-2l-2.33-9.63c-.25-1-1.08-1.81-1.66-1.84a.46.46,0,0,0-.48.38l-.7,2.16a1,1,0,0,1-.56.63,1.24,1.24,0,0,1-1.06-.15l-.49-.28A3.23,3.23,0,0,1,474.1,210a2.34,2.34,0,0,0-1.6-1.75.44.44,0,0,0-.48.29l-.77,1.63a.91.91,0,0,1-.55.5,1.26,1.26,0,0,1-1-.17l-.56-.32a3.25,3.25,0,0,1-1.4-2l-2.33-10.41a2.38,2.38,0,0,0-1.65-1.88.47.47,0,0,0-.49.35l-3.79,10.34a.94.94,0,0,1-.56.59,1.25,1.25,0,0,1-1-.16l.23-.39a.8.8,0,0,0,.66.13.49.49,0,0,0,.29-.32L462.84,196a.9.9,0,0,1,.94-.65,2.78,2.78,0,0,1,2.07,2.23L468.18,208a2.8,2.8,0,0,0,1.19,1.72l.56.32a.85.85,0,0,0,.64.13.46.46,0,0,0,.28-.26l.77-1.63a.89.89,0,0,1,.93-.54,2.75,2.75,0,0,1,2,2.08,2.79,2.79,0,0,0,1.16,1.6l.49.28a.81.81,0,0,0,.67.12.5.5,0,0,0,.29-.34l.7-2.16a.91.91,0,0,1,.89-.69h0a2.75,2.75,0,0,1,2.08,2.18l2.33,9.63a2.79,2.79,0,0,0,1.2,1.69Z"/><path class="cls-3" d="M471.14,158.37a2.84,2.84,0,0,1-1.42-.4l-25.37-14.65a4.52,4.52,0,0,1-2-4.86,2.71,2.71,0,0,1,1.54-1.87,2.6,2.6,0,0,1,2.32.23l25.38,14.65a4.52,4.52,0,0,1,2,4.86A2.7,2.7,0,0,1,472,158.2,2.37,2.37,0,0,1,471.14,158.37Zm-26.3-21.5a1.9,1.9,0,0,0-.73.14,2.26,2.26,0,0,0-1.27,1.56,4,4,0,0,0,1.74,4.35l25.38,14.65a2.15,2.15,0,0,0,1.92.2,2.26,2.26,0,0,0,1.27-1.56,4,4,0,0,0-1.74-4.35L446,137.21A2.39,2.39,0,0,0,444.84,136.87Z"/></g></g></svg>