<svg xmlns="http://www.w3.org/2000/svg" xmlns:xlink="http://www.w3.org/1999/xlink" viewBox="0 0 600 450"><defs><style>.cls-1{isolation:isolate;}.cls-2{fill:url(#Áĺçűě_ííűé_ăđŕäčĺíň_18);}.cls-3{fill:url(#Áĺçűě_ííűé_ăđŕäčĺíň_28);}.cls-4{fill:url(#Áĺçűě_ííűé_ăđŕäčĺíň_28-2);}.cls-11,.cls-5{fill:#0c0f38;}.cls-5,.cls-6{opacity:0.8;}.cls-10,.cls-6,.cls-8{fill:#d4088c;}.cls-6,.cls-7,.cls-8{mix-blend-mode:lighten;}.cls-15,.cls-7{fill:#6ee8fc;}.cls-9{fill:#6ee1f8;}.cls-12,.cls-62{opacity:0.4;}.cls-13{fill:url(#Áĺçűě_ííűé_ăđŕäčĺíň_377);}.cls-14{fill:url(#Áĺçűě_ííűé_ăđŕäčĺíň_300);}.cls-16{fill:#480689;}.cls-17{opacity:0.5;}.cls-18{fill:url(#Áĺçűě_ííűé_ăđŕäčĺíň_377-2);}.cls-19{fill:url(#Áĺçűě_ííűé_ăđŕäčĺíň_300-2);}.cls-20{opacity:0.7;}.cls-21{fill:url(#Áĺçűě_ííűé_ăđŕäčĺíň_377-3);}.cls-22{fill:url(#Áĺçűě_ííűé_ăđŕäčĺíň_300-3);}.cls-23{fill:url(#Áĺçűě_ííűé_ăđŕäčĺíň_377-4);}.cls-24{fill:url(#Áĺçűě_ííűé_ăđŕäčĺíň_73);}.cls-25{fill:url(#Áĺçűě_ííűé_ăđŕäčĺíň_88);}.cls-26{fill:#25bfec;}.cls-27{fill:url(#Áĺçűě_ííűé_ăđŕäčĺíň_377-5);}.cls-28{fill:url(#Áĺçűě_ííűé_ăđŕäčĺíň_300-4);}.cls-29{fill:url(#Áĺçűě_ííűé_ăđŕäčĺíň_377-6);}.cls-30{fill:url(#Áĺçűě_ííűé_ăđŕäčĺíň_300-5);}.cls-31{fill:url(#Áĺçűě_ííűé_ăđŕäčĺíň_377-7);}.cls-32{fill:url(#Áĺçűě_ííűé_ăđŕäčĺíň_300-6);}.cls-33{fill:url(#Áĺçűě_ííűé_ăđŕäčĺíň_377-8);}.cls-34{fill:url(#Áĺçűě_ííűé_ăđŕäčĺíň_73-2);}.cls-35{fill:url(#Áĺçűě_ííűé_ăđŕäčĺíň_88-2);}.cls-36,.cls-61,.cls-62{fill:#6de0f6;}.cls-37{fill:#267fe5;}.cls-38{fill:url(#Áĺçűě_ííűé_ăđŕäčĺíň_377-9);}.cls-39{fill:url(#Áĺçűě_ííűé_ăđŕäčĺíň_300-7);}.cls-40{fill:url(#Áĺçűě_ííűé_ăđŕäčĺíň_377-10);}.cls-41{fill:url(#Áĺçűě_ííűé_ăđŕäčĺíň_300-8);}.cls-42{fill:url(#Áĺçűě_ííűé_ăđŕäčĺíň_377-11);}.cls-43{fill:url(#Áĺçűě_ííűé_ăđŕäčĺíň_300-9);}.cls-44{fill:url(#Áĺçűě_ííűé_ăđŕäčĺíň_377-12);}.cls-45{fill:url(#Áĺçűě_ííűé_ăđŕäčĺíň_73-3);}.cls-46{fill:url(#Áĺçűě_ííűé_ăđŕäčĺíň_88-3);}.cls-47{fill:url(#Áĺçűě_ííűé_ăđŕäčĺíň_377-13);}.cls-48{fill:url(#Áĺçűě_ííűé_ăđŕäčĺíň_300-10);}.cls-49{fill:url(#Áĺçűě_ííűé_ăđŕäčĺíň_377-14);}.cls-50{fill:url(#Áĺçűě_ííűé_ăđŕäčĺíň_300-11);}.cls-51{fill:url(#Áĺçűě_ííűé_ăđŕäčĺíň_377-15);}.cls-52{fill:url(#Áĺçűě_ííűé_ăđŕäčĺíň_300-12);}.cls-53{fill:url(#Áĺçűě_ííűé_ăđŕäčĺíň_377-16);}.cls-54{fill:url(#Áĺçűě_ííűé_ăđŕäčĺíň_73-4);}.cls-55{fill:url(#Áĺçűě_ííűé_ăđŕäčĺíň_88-4);}.cls-56{fill:url(#Áĺçűě_ííűé_ăđŕäčĺíň_300-13);}.cls-57{fill:url(#Áĺçűě_ííűé_ăđŕäčĺíň_73-5);}.cls-58{fill:url(#Áĺçűě_ííűé_ăđŕäčĺíň_300-14);}.cls-59{fill:url(#Áĺçűě_ííűé_ăđŕäčĺíň_300-15);}.cls-60{fill:url(#Áĺçűě_ííűé_ăđŕäčĺíň_42);}.cls-61{opacity:0.1;}</style><linearGradient id="Áĺçűě_ííűé_ăđŕäčĺíň_18" x1="340.52" y1="1011.38" x2="387.54" y2="1011.38" gradientTransform="translate(511.29 1287.76) rotate(180)" gradientUnits="userSpaceOnUse"><stop offset="0" stop-color="#d4088c"/><stop offset="0.04" stop-color="#cc088c"/><stop offset="0.46" stop-color="#85078a"/><stop offset="0.76" stop-color="#590689"/><stop offset="0.91" stop-color="#480689"/></linearGradient><linearGradient id="Áĺçűě_ííűé_ăđŕäčĺíň_28" x1="220.72" y1="1115.02" x2="240.19" y2="1115.02" gradientTransform="translate(408.15 1225.28) rotate(180)" gradientUnits="userSpaceOnUse"><stop offset="0" stop-color="#6ee8fc"/><stop offset="0.16" stop-color="#6ae2fb"/><stop offset="0.37" stop-color="#5ed1f7"/><stop offset="0.61" stop-color="#4bb5f1"/><stop offset="0.87" stop-color="#308ee8"/><stop offset="0.96" stop-color="#267fe5"/></linearGradient><linearGradient id="Áĺçűě_ííűé_ăđŕäčĺíň_28-2" x1="82.77" y1="798.78" x2="126.55" y2="798.78" gradientTransform="translate(1255.39 102.57) rotate(90)" xlink:href="#Áĺçűě_ííűé_ăđŕäčĺíň_28"/><linearGradient id="Áĺçűě_ííűé_ăđŕäčĺíň_377" x1="244.68" y1="208.12" x2="356.69" y2="208.12" gradientUnits="userSpaceOnUse"><stop offset="0" stop-color="#a31fa9"/><stop offset="0.07" stop-color="#8b17a0"/><stop offset="0.15" stop-color="#740f98"/><stop offset="0.24" stop-color="#640a92"/><stop offset="0.34" stop-color="#5b078f"/><stop offset="0.48" stop-color="#58068e"/><stop offset="0.63" stop-color="#4d22a3"/><stop offset="0.94" stop-color="#3168da"/><stop offset="1" stop-color="#2c75e4"/></linearGradient><linearGradient id="Áĺçűě_ííűé_ăđŕäčĺíň_300" x1="556.32" y1="754.16" x2="609.16" y2="708.4" gradientTransform="matrix(0.87, 0.5, -1, 0.58, 525, -518.49)" gradientUnits="userSpaceOnUse"><stop offset="0" stop-color="#8d139b"/><stop offset="0.17" stop-color="#851ba1"/><stop offset="0.43" stop-color="#6e33b2"/><stop offset="0.76" stop-color="#4958cd"/><stop offset="1" stop-color="#2979e4"/></linearGradient><linearGradient id="Áĺçűě_ííűé_ăđŕäčĺíň_377-2" x1="244.68" y1="190.21" x2="356.69" y2="190.21" xlink:href="#Áĺçűě_ííűé_ăđŕäčĺíň_377"/><linearGradient id="Áĺçűě_ííűé_ăđŕäčĺíň_300-2" x1="538.41" y1="738.64" x2="591.25" y2="692.88" xlink:href="#Áĺçűě_ííűé_ăđŕäčĺíň_300"/><linearGradient id="Áĺçűě_ííűé_ăđŕäčĺíň_377-3" x1="244.68" y1="172.29" x2="356.69" y2="172.29" xlink:href="#Áĺçűě_ííűé_ăđŕäčĺíň_377"/><linearGradient id="Áĺçűě_ííűé_ăđŕäčĺíň_300-3" x1="520.49" y1="723.13" x2="573.33" y2="677.37" xlink:href="#Áĺçűě_ííűé_ăđŕäčĺíň_300"/><linearGradient id="Áĺçűě_ííűé_ăđŕäčĺíň_377-4" x1="244.68" y1="154.37" x2="356.69" y2="154.37" xlink:href="#Áĺçűě_ííűé_ăđŕäčĺíň_377"/><linearGradient id="Áĺçűě_ííűé_ăđŕäčĺíň_73" x1="502.57" y1="707.61" x2="555.41" y2="661.85" gradientTransform="matrix(0.87, 0.5, -1, 0.58, 525, -518.49)" gradientUnits="userSpaceOnUse"><stop offset="0" stop-color="#267fe5"/><stop offset="0.17" stop-color="#2c87e7"/><stop offset="0.44" stop-color="#3d9feb"/><stop offset="0.78" stop-color="#59c4f2"/><stop offset="1" stop-color="#6ee1f8"/></linearGradient><linearGradient id="Áĺçűě_ííűé_ăđŕäčĺíň_88" x1="264.78" y1="141.37" x2="333.9" y2="141.37" gradientUnits="userSpaceOnUse"><stop offset="0" stop-color="#6de0f6"/><stop offset="0.16" stop-color="#68d8f5"/><stop offset="0.41" stop-color="#5ac0f1"/><stop offset="0.73" stop-color="#439bea"/><stop offset="1" stop-color="#2c75e4"/></linearGradient><linearGradient id="Áĺçűě_ííűé_ăđŕäčĺíň_377-5" x1="307.4" y1="247.35" x2="419.41" y2="247.35" xlink:href="#Áĺçűě_ííűé_ăđŕäčĺíň_377"/><linearGradient id="Áĺçűě_ííűé_ăđŕäčĺíň_300-4" x1="631.76" y1="756.76" x2="684.6" y2="711" xlink:href="#Áĺçűě_ííűé_ăđŕäčĺíň_300"/><linearGradient id="Áĺçűě_ííűé_ăđŕäčĺíň_377-6" x1="307.4" y1="229.43" x2="419.41" y2="229.43" xlink:href="#Áĺçűě_ííűé_ăđŕäčĺíň_377"/><linearGradient id="Áĺçűě_ííűé_ăđŕäčĺíň_300-5" x1="613.84" y1="741.25" x2="666.68" y2="695.49" xlink:href="#Áĺçűě_ííűé_ăđŕäčĺíň_300"/><linearGradient id="Áĺçűě_ííűé_ăđŕäčĺíň_377-7" x1="307.4" y1="211.51" x2="419.41" y2="211.51" xlink:href="#Áĺçűě_ííűé_ăđŕäčĺíň_377"/><linearGradient id="Áĺçűě_ííűé_ăđŕäčĺíň_300-6" x1="595.92" y1="725.73" x2="648.76" y2="679.97" xlink:href="#Áĺçűě_ííűé_ăđŕäčĺíň_300"/><linearGradient id="Áĺçűě_ííűé_ăđŕäčĺíň_377-8" x1="307.4" y1="193.59" x2="419.41" y2="193.59" xlink:href="#Áĺçűě_ííűé_ăđŕäčĺíň_377"/><linearGradient id="Áĺçűě_ííűé_ăđŕäčĺíň_73-2" x1="578.01" y1="710.22" x2="630.85" y2="664.46" xlink:href="#Áĺçűě_ííűé_ăđŕäčĺíň_73"/><linearGradient id="Áĺçűě_ííűé_ăđŕäčĺíň_88-2" x1="327.5" y1="180.59" x2="396.62" y2="180.59" xlink:href="#Áĺçűě_ííűé_ăđŕäčĺíň_88"/><linearGradient id="Áĺçűě_ííűé_ăđŕäčĺíň_377-9" x1="181.59" y1="244.13" x2="293.61" y2="244.13" xlink:href="#Áĺçűě_ííűé_ăđŕäčĺíň_377"/><linearGradient id="Áĺçűě_ííűé_ăđŕäčĺíň_300-7" x1="555.91" y1="816.88" x2="608.74" y2="771.12" xlink:href="#Áĺçűě_ííűé_ăđŕäčĺíň_300"/><linearGradient id="Áĺçűě_ííűé_ăđŕäčĺíň_377-10" x1="181.59" y1="226.22" x2="293.61" y2="226.22" xlink:href="#Áĺçűě_ííűé_ăđŕäčĺíň_377"/><linearGradient id="Áĺçűě_ííűé_ăđŕäčĺíň_300-8" x1="537.99" y1="801.37" x2="590.83" y2="755.61" xlink:href="#Áĺçűě_ííűé_ăđŕäčĺíň_300"/><linearGradient id="Áĺçűě_ííűé_ăđŕäčĺíň_377-11" x1="181.59" y1="208.3" x2="293.61" y2="208.3" xlink:href="#Áĺçűě_ííűé_ăđŕäčĺíň_377"/><linearGradient id="Áĺçűě_ííűé_ăđŕäčĺíň_300-9" x1="520.07" y1="785.85" x2="572.91" y2="740.09" xlink:href="#Áĺçűě_ííűé_ăđŕäčĺíň_300"/><linearGradient id="Áĺçűě_ííűé_ăđŕäčĺíň_377-12" x1="181.59" y1="190.38" x2="293.61" y2="190.38" xlink:href="#Áĺçűě_ííűé_ăđŕäčĺíň_377"/><linearGradient id="Áĺçűě_ííűé_ăđŕäčĺíň_73-3" x1="502.15" y1="770.34" x2="554.99" y2="724.58" xlink:href="#Áĺçűě_ííűé_ăđŕäčĺíň_73"/><linearGradient id="Áĺçűě_ííűé_ăđŕäčĺíň_88-3" x1="201.69" y1="177.37" x2="270.81" y2="177.37" xlink:href="#Áĺçűě_ííűé_ăđŕäčĺíň_88"/><linearGradient id="Áĺçűě_ííűé_ăđŕäčĺíň_377-13" x1="244.31" y1="283.35" x2="356.33" y2="283.35" xlink:href="#Áĺçűě_ííűé_ăđŕäčĺíň_377"/><linearGradient id="Áĺçűě_ííűé_ăđŕäčĺíň_300-10" x1="631.34" y1="819.49" x2="684.18" y2="773.73" xlink:href="#Áĺçűě_ííűé_ăđŕäčĺíň_300"/><linearGradient id="Áĺçűě_ííűé_ăđŕäčĺíň_377-14" x1="244.31" y1="265.44" x2="356.33" y2="265.44" xlink:href="#Áĺçűě_ííűé_ăđŕäčĺíň_377"/><linearGradient id="Áĺçűě_ííűé_ăđŕäčĺíň_300-11" x1="613.42" y1="803.97" x2="666.26" y2="758.21" xlink:href="#Áĺçűě_ííűé_ăđŕäčĺíň_300"/><linearGradient id="Áĺçűě_ííűé_ăđŕäčĺíň_377-15" x1="244.31" y1="247.52" x2="356.33" y2="247.52" xlink:href="#Áĺçűě_ííűé_ăđŕäčĺíň_377"/><linearGradient id="Áĺçűě_ííűé_ăđŕäčĺíň_300-12" x1="595.51" y1="788.46" x2="648.34" y2="742.7" xlink:href="#Áĺçűě_ííűé_ăđŕäčĺíň_300"/><linearGradient id="Áĺçűě_ííűé_ăđŕäčĺíň_377-16" x1="244.31" y1="229.6" x2="356.33" y2="229.6" xlink:href="#Áĺçűě_ííűé_ăđŕäčĺíň_377"/><linearGradient id="Áĺçűě_ííűé_ăđŕäčĺíň_73-4" x1="577.59" y1="772.94" x2="630.43" y2="727.18" xlink:href="#Áĺçűě_ííűé_ăđŕäčĺíň_73"/><linearGradient id="Áĺçűě_ííűé_ăđŕäčĺíň_88-4" x1="264.55" y1="216.6" x2="333.4" y2="216.6" xlink:href="#Áĺçűě_ííűé_ăđŕäčĺíň_88"/><linearGradient id="Áĺçűě_ííűé_ăđŕäčĺíň_300-13" x1="502.57" y1="707.61" x2="555.41" y2="661.85" xlink:href="#Áĺçűě_ííűé_ăđŕäčĺíň_300"/><linearGradient id="Áĺçűě_ííűé_ăđŕäčĺíň_73-5" x1="511.37" y1="699.99" x2="546.98" y2="669.16" xlink:href="#Áĺçűě_ííűé_ăđŕäčĺíň_73"/><linearGradient id="Áĺçűě_ííűé_ăđŕäčĺíň_300-14" x1="578.01" y1="710.22" x2="630.85" y2="664.46" xlink:href="#Áĺçűě_ííűé_ăđŕäčĺíň_300"/><linearGradient id="Áĺçűě_ííűé_ăđŕäčĺíň_300-15" x1="502.15" y1="770.34" x2="554.99" y2="724.58" xlink:href="#Áĺçűě_ííűé_ăđŕäčĺíň_300"/><linearGradient id="Áĺçűě_ííűé_ăđŕäčĺíň_42" x1="591.4" y1="765.76" x2="618.15" y2="732.89" gradientTransform="matrix(0.87, 0.5, -1, 0.58, 525, -518.49)" gradientUnits="userSpaceOnUse"><stop offset="0" stop-color="#a31fa9"/><stop offset="0.05" stop-color="#8b17a0"/><stop offset="0.11" stop-color="#740f98"/><stop offset="0.18" stop-color="#640a92"/><stop offset="0.26" stop-color="#5b078f"/><stop offset="0.36" stop-color="#58068e"/><stop offset="0.54" stop-color="#4d22a3"/><stop offset="0.93" stop-color="#3168da"/><stop offset="1" stop-color="#2c75e4"/></linearGradient></defs><title>Zeichenfläche 16</title><g class="cls-1"><g id="Ńëîé_1" data-name="Ńëîé 1"><circle class="cls-2" cx="147.27" cy="276.39" r="23.51" transform="translate(-152.3 185.09) rotate(-45)"/><circle class="cls-3" cx="177.7" cy="110.27" r="9.74"/><circle class="cls-4" cx="456.63" cy="205.11" r="17.5" transform="translate(69.76 522.77) rotate(-63.58)"/><path class="cls-5" d="M461.11,276c-7,1.37-14.66-.82-17-4.88s1.42-8.46,8.46-9.83,14.66.82,17,4.88S468.15,274.62,461.11,276Z"/><path class="cls-5" d="M153.5,355.22c-9.79,1.9-20.39-1.14-23.69-6.79s2-11.78,11.77-13.67,20.39,1.14,23.69,6.8S163.29,353.32,153.5,355.22Z"/><path class="cls-5" d="M179.84,149.62c-3.51.68-7.32-.41-8.5-2.44s.71-4.23,4.22-4.91,7.32.41,8.5,2.44S183.35,148.94,179.84,149.62Z"/><circle class="cls-6" cx="242.02" cy="69.76" r="2.49"/><circle class="cls-6" cx="198.3" cy="323.39" r="3.01"/><circle class="cls-7" cx="179.24" cy="310.09" r="1.55"/><circle class="cls-7" cx="441.78" cy="252.99" r="1.6"/><circle class="cls-7" cx="145.29" cy="145.05" r="2.25"/><circle class="cls-7" cx="313.5" cy="62.99" r="2.25"/><circle class="cls-7" cx="155.46" cy="140.07" r="1.25"/><circle class="cls-8" cx="369.76" cy="71.02" r="1.47"/><polygon class="cls-9" points="155 218.85 154.46 216.93 158.74 215.73 157.54 211.45 159.47 210.91 161.2 217.12 155 218.85"/><polygon class="cls-9" points="151.22 225.56 150.68 223.64 154.96 222.44 153.76 218.16 155.69 217.62 157.43 223.83 151.22 225.56"/><polygon class="cls-9" points="155.23 223.4 153.49 217.2 159.7 215.46 160.24 217.39 155.96 218.58 157.16 222.86 155.23 223.4"/><path class="cls-9" d="M302.92,75.78A4.76,4.76,0,1,1,307.68,71,4.77,4.77,0,0,1,302.92,75.78Zm0-7.52A2.76,2.76,0,1,0,305.68,71,2.76,2.76,0,0,0,302.92,68.26Z"/><path class="cls-9" d="M407.33,313.94l-5.4-5.4,5.4-5.4,5.4,5.4Zm-2.57-5.4,2.57,2.57,2.57-2.57L407.33,306Z"/><rect class="cls-10" x="421.38" y="116.29" width="2" height="8.18" transform="translate(38.6 333.94) rotate(-45)"/><rect class="cls-10" x="418.29" y="119.38" width="8.18" height="2" transform="translate(38.59 333.93) rotate(-45)"/><path class="cls-11" d="M294.32,249l-39.07-22.56c-2.78-1.6-2.43-4.41.78-6.26l37.51-21.66c3.21-1.85,8.06-2.05,10.84-.45l39.07,22.56c2.78,1.6,2.43,4.41-.78,6.26l-37.51,21.66C302,250.37,297.1,250.57,294.32,249Z"/><g class="cls-12"><path class="cls-13" d="M345.32,195.12H325.94l-21.57-12.45c-2.78-1.6-7.63-1.4-10.84.45l-20.79,12H253.38v13h0a3.14,3.14,0,0,0,1.86,2.9l39.07,22.56c2.78,1.6,7.63,1.4,10.84-.45l37.51-21.66c1.67-1,2.55-2.18,2.64-3.35h0Z"/><path class="cls-10" d="M254.61,209h0V196H274l20.79-12c3.21-1.85,8.06-2.05,10.84-.45L327.16,196h18.15v-.9H325.94l-21.57-12.45c-2.78-1.6-7.63-1.4-10.84.45l-20.79,12H253.38v13h0a3.14,3.14,0,0,0,1.86,2.9l.22.13A2.73,2.73,0,0,1,254.61,209Z"/><path class="cls-14" d="M294.31,220.58,255.24,198c-2.78-1.6-2.43-4.41.78-6.26l37.51-21.66c3.21-1.85,8.06-2.05,10.84-.45l39.07,22.56c2.78,1.6,2.43,4.41-.78,6.26l-37.51,21.66C301.94,222,297.09,222.18,294.31,220.58Z"/><path class="cls-15" d="M343.44,192.21l-39.07-22.56a10.09,10.09,0,0,0-5.47-1.06,9.07,9.07,0,0,1,3.94,1.06l39.07,22.56c2.78,1.6,2.43,4.41-.78,6.26l-37.51,21.66a12.36,12.36,0,0,1-5.37,1.51,12.75,12.75,0,0,0,6.9-1.51l37.51-21.66C345.87,196.62,346.22,193.82,343.44,192.21Z"/><path class="cls-16" d="M299.1,215.21a7.49,7.49,0,0,1-3.67-.84l-29.09-16.79a2.73,2.73,0,0,1-1.56-2.31,3.65,3.65,0,0,1,2.14-2.92l27.93-16.12c2.47-1.43,6.24-1.58,8.4-.33l29.09,16.79A2.73,2.73,0,0,1,333.9,195a3.65,3.65,0,0,1-2.14,2.92L303.83,214A9.72,9.72,0,0,1,299.1,215.21Zm.48-39.52a9,9,0,0,0-4.4,1.1l-27.93,16.12a3,3,0,0,0-1.81,2.35,2.1,2.1,0,0,0,1.23,1.73l29.09,16.79c2,1.14,5.44,1,7.73-.33l27.93-16.12a3,3,0,0,0,1.81-2.35,2.1,2.1,0,0,0-1.23-1.73l-29.09-16.79A6.81,6.81,0,0,0,299.58,175.69Z"/><path class="cls-10" d="M296.07,220.58,257,198c-2.78-1.6-2.43-4.41.78-6.26l37.51-21.66a12.33,12.33,0,0,1,5.28-1.5,12.78,12.78,0,0,0-7,1.5L256,191.76c-3.21,1.85-3.56,4.65-.78,6.26l39.07,22.56a10.14,10.14,0,0,0,5.56,1.05A9,9,0,0,1,296.07,220.58Z"/></g><g class="cls-17"><path class="cls-18" d="M345.32,177.2H325.94l-21.57-12.45c-2.78-1.6-7.63-1.4-10.84.45l-20.79,12H253.38v13h0a3.14,3.14,0,0,0,1.86,2.9l39.07,22.56c2.78,1.6,7.63,1.4,10.84-.45l37.51-21.66c1.67-1,2.55-2.18,2.64-3.35h0Z"/><path class="cls-10" d="M254.61,191.1h0v-13H274l20.79-12c3.21-1.85,8.06-2.05,10.84-.45l21.57,12.45h18.15v-.9H325.94l-21.57-12.45c-2.78-1.6-7.63-1.4-10.84.45l-20.79,12H253.38v13h0a3.14,3.14,0,0,0,1.86,2.9l.22.13A2.73,2.73,0,0,1,254.61,191.1Z"/><path class="cls-19" d="M294.31,202.66,255.24,180.1c-2.78-1.6-2.43-4.41.78-6.26l37.51-21.66c3.21-1.85,8.06-2.05,10.84-.45l39.07,22.56c2.78,1.6,2.43,4.41-.78,6.26l-37.51,21.66C301.94,204.06,297.09,204.26,294.31,202.66Z"/><path class="cls-15" d="M343.44,174.3l-39.07-22.56a10.08,10.08,0,0,0-5.47-1.06,9.07,9.07,0,0,1,3.94,1.06l39.07,22.56c2.78,1.6,2.43,4.41-.78,6.26l-37.51,21.66a12.36,12.36,0,0,1-5.37,1.51,12.75,12.75,0,0,0,6.9-1.51l37.51-21.66C345.87,178.7,346.22,175.9,343.44,174.3Z"/><path class="cls-16" d="M299.1,197.29a7.49,7.49,0,0,1-3.67-.84l-29.09-16.79a2.73,2.73,0,0,1-1.56-2.31,3.65,3.65,0,0,1,2.14-2.92l27.93-16.12c2.48-1.43,6.25-1.58,8.4-.33l29.09,16.79a2.73,2.73,0,0,1,1.56,2.31,3.65,3.65,0,0,1-2.14,2.92l-27.93,16.12A9.72,9.72,0,0,1,299.1,197.29Zm-3.34-1.42c2,1.14,5.44,1,7.73-.33l27.93-16.12a3,3,0,0,0,1.81-2.35,2.1,2.1,0,0,0-1.23-1.73l-29.09-16.79c-2-1.14-5.44-1-7.73.33L267.26,175a3,3,0,0,0-1.81,2.35,2.1,2.1,0,0,0,1.23,1.73Z"/><path class="cls-10" d="M296.07,202.66,257,180.1c-2.78-1.6-2.43-4.41.78-6.26l37.51-21.66a12.33,12.33,0,0,1,5.28-1.5,12.78,12.78,0,0,0-7,1.5L256,173.85c-3.21,1.85-3.56,4.65-.78,6.26l39.07,22.56a10.14,10.14,0,0,0,5.56,1.05A9,9,0,0,1,296.07,202.66Z"/></g><g class="cls-20"><path class="cls-21" d="M345.32,159.28H325.94l-21.57-12.45c-2.78-1.6-7.63-1.4-10.84.45l-20.79,12H253.38v13h0a3.14,3.14,0,0,0,1.86,2.9l39.07,22.56c2.78,1.6,7.63,1.4,10.84-.45l37.51-21.66c1.67-1,2.55-2.18,2.64-3.35h0Z"/><path class="cls-10" d="M254.61,173.19h0v-13H274l20.79-12c3.21-1.85,8.06-2.05,10.84-.45l21.57,12.45h18.15v-.9H325.94l-21.57-12.45c-2.78-1.6-7.63-1.4-10.84.45l-20.79,12H253.38v13h0a3.14,3.14,0,0,0,1.86,2.9l.22.13A2.73,2.73,0,0,1,254.61,173.19Z"/><path class="cls-22" d="M294.31,184.74l-39.07-22.56c-2.78-1.6-2.43-4.41.78-6.26l37.51-21.66c3.21-1.85,8.06-2.05,10.84-.45l39.07,22.56c2.78,1.6,2.43,4.41-.78,6.26l-37.51,21.66C301.94,186.15,297.09,186.35,294.31,184.74Z"/><path class="cls-15" d="M343.44,156.38l-39.07-22.56a10.09,10.09,0,0,0-5.47-1.06,9.07,9.07,0,0,1,3.94,1.06l39.07,22.56c2.78,1.6,2.43,4.41-.78,6.26l-37.51,21.66a12.36,12.36,0,0,1-5.37,1.51,12.75,12.75,0,0,0,6.9-1.51l37.51-21.66C345.87,160.78,346.22,158,343.44,156.38Z"/><path class="cls-16" d="M299.1,179.37a7.49,7.49,0,0,1-3.67-.84l-29.09-16.79a2.73,2.73,0,0,1-1.56-2.31,3.65,3.65,0,0,1,2.14-2.92l27.93-16.12c2.47-1.43,6.24-1.58,8.4-.33l29.09,16.79a2.73,2.73,0,0,1,1.56,2.31,3.65,3.65,0,0,1-2.14,2.92l-27.93,16.12A9.72,9.72,0,0,1,299.1,179.37Zm-3.34-1.42c2,1.14,5.44,1,7.73-.33l27.93-16.12a3,3,0,0,0,1.81-2.35,2.1,2.1,0,0,0-1.23-1.73l-29.09-16.79c-2-1.14-5.44-1-7.73.33l-27.93,16.12a3,3,0,0,0-1.81,2.35,2.1,2.1,0,0,0,1.23,1.73Z"/><path class="cls-10" d="M296.07,184.74,257,162.19c-2.78-1.6-2.43-4.41.78-6.26l37.51-21.66a12.33,12.33,0,0,1,5.28-1.5,12.78,12.78,0,0,0-7,1.5L256,155.93c-3.21,1.85-3.56,4.65-.78,6.26l39.07,22.56a10.14,10.14,0,0,0,5.56,1.05A9,9,0,0,1,296.07,184.74Z"/></g><path class="cls-23" d="M345.32,141.37H325.94l-21.57-12.45c-2.78-1.6-7.63-1.4-10.84.45l-20.79,12H253.38v13h0a3.14,3.14,0,0,0,1.86,2.9l39.07,22.56c2.78,1.6,7.63,1.4,10.84-.45l37.51-21.66c1.67-1,2.55-2.18,2.64-3.35h0Z"/><path class="cls-10" d="M254.61,155.27h0v-13H274l20.79-12c3.21-1.85,8.06-2.05,10.84-.45l21.57,12.45h18.15v-.9H325.94l-21.57-12.45c-2.78-1.6-7.63-1.4-10.84.45l-20.79,12H253.38v13h0a3.14,3.14,0,0,0,1.86,2.9l.22.13A2.73,2.73,0,0,1,254.61,155.27Z"/><path class="cls-24" d="M294.31,166.83l-39.07-22.56c-2.78-1.6-2.43-4.41.78-6.26l37.51-21.66c3.21-1.85,8.06-2.05,10.84-.45l39.07,22.56c2.78,1.6,2.43,4.41-.78,6.26l-37.51,21.66C301.94,168.23,297.09,168.43,294.31,166.83Z"/><path class="cls-15" d="M343.44,138.46l-39.07-22.56a10.08,10.08,0,0,0-5.47-1.06,9.07,9.07,0,0,1,3.94,1.06l39.07,22.56c2.78,1.6,2.43,4.41-.78,6.26l-37.51,21.66a12.36,12.36,0,0,1-5.37,1.51,12.75,12.75,0,0,0,6.9-1.51l37.51-21.66C345.87,142.87,346.22,140.07,343.44,138.46Z"/><path class="cls-25" d="M299.1,161.45a7.49,7.49,0,0,1-3.67-.84l-29.09-16.79a2.73,2.73,0,0,1-1.56-2.31,3.65,3.65,0,0,1,2.14-2.92l27.93-16.12c2.47-1.43,6.24-1.58,8.4-.33l29.09,16.79a2.73,2.73,0,0,1,1.56,2.31,3.65,3.65,0,0,1-2.14,2.92l-27.93,16.12A9.72,9.72,0,0,1,299.1,161.45ZM295.77,160c2,1.14,5.44,1,7.73-.33l27.93-16.12a3,3,0,0,0,1.81-2.35,2.1,2.1,0,0,0-1.23-1.73L302.92,122.7c-2-1.14-5.44-1-7.73.33l-27.93,16.12a3,3,0,0,0-1.81,2.35,2.1,2.1,0,0,0,1.23,1.73Z"/><path class="cls-26" d="M296.07,166.83,257,144.27c-2.78-1.6-2.43-4.41.78-6.26l37.51-21.66a12.33,12.33,0,0,1,5.28-1.5,12.78,12.78,0,0,0-7,1.5L256,138c-3.21,1.85-3.56,4.65-.78,6.26l39.07,22.56a10.14,10.14,0,0,0,5.56,1.05A9,9,0,0,1,296.07,166.83Z"/><g class="cls-12"><path class="cls-27" d="M408,234.34H388.66l-21.57-12.45c-2.78-1.6-7.63-1.4-10.84.45l-20.79,12H316.1v13h0a3.14,3.14,0,0,0,1.86,2.9L357,272.81c2.78,1.6,7.63,1.4,10.84-.45l37.51-21.66c1.67-1,2.55-2.18,2.64-3.35h0Z"/><path class="cls-10" d="M317.33,248.24h0v-13h19.37l20.79-12c3.21-1.85,8.06-2.05,10.84-.45l21.57,12.45H408v-.9H388.66l-21.57-12.45c-2.78-1.6-7.63-1.4-10.84.45l-20.79,12H316.1v13h0a3.14,3.14,0,0,0,1.86,2.9l.22.13A2.73,2.73,0,0,1,317.33,248.24Z"/><path class="cls-28" d="M357,259.8,318,237.24c-2.78-1.6-2.43-4.41.78-6.26l37.51-21.66c3.21-1.85,8.06-2.05,10.84-.45l39.07,22.56c2.78,1.6,2.43,4.41-.78,6.26l-37.51,21.66C364.66,261.2,359.81,261.4,357,259.8Z"/><path class="cls-15" d="M406.16,231.43l-39.07-22.56a10.09,10.09,0,0,0-5.47-1.06,9.07,9.07,0,0,1,3.94,1.06l39.07,22.56c2.78,1.6,2.43,4.41-.78,6.26l-37.51,21.66a12.36,12.36,0,0,1-5.37,1.51,12.75,12.75,0,0,0,6.9-1.51l37.51-21.66C408.59,235.84,408.94,233,406.16,231.43Z"/><path class="cls-16" d="M361.82,254.43a7.48,7.48,0,0,1-3.67-.84l-29.09-16.79a2.73,2.73,0,0,1-1.56-2.31,3.65,3.65,0,0,1,2.14-2.92l27.93-16.12c2.47-1.43,6.24-1.58,8.4-.33l29.09,16.79a2.73,2.73,0,0,1,1.56,2.31,3.65,3.65,0,0,1-2.14,2.92l-27.93,16.12A9.74,9.74,0,0,1,361.82,254.43Zm.48-39.52a9,9,0,0,0-4.4,1.1L330,232.13a3,3,0,0,0-1.81,2.35,2.1,2.1,0,0,0,1.23,1.73L358.49,253c2,1.14,5.44,1,7.73-.33l27.93-16.12A3,3,0,0,0,396,234.2a2.1,2.1,0,0,0-1.23-1.73l-29.09-16.79A6.81,6.81,0,0,0,362.3,214.91Z"/><path class="cls-10" d="M358.79,259.8l-39.07-22.56c-2.78-1.6-2.43-4.41.78-6.26L358,209.33a12.33,12.33,0,0,1,5.28-1.5,12.78,12.78,0,0,0-7,1.5L318.74,231c-3.21,1.85-3.56,4.65-.78,6.26L357,259.8a10.14,10.14,0,0,0,5.56,1.05A9,9,0,0,1,358.79,259.8Z"/></g><g class="cls-17"><path class="cls-29" d="M408,216.42H388.66L367.09,204c-2.78-1.6-7.63-1.4-10.84.45l-20.79,12H316.1v13h0a3.14,3.14,0,0,0,1.86,2.9L357,254.89c2.78,1.6,7.63,1.4,10.84-.45l37.51-21.66c1.67-1,2.55-2.18,2.64-3.35h0Z"/><path class="cls-10" d="M317.33,230.32h0v-13h19.37l20.79-12c3.21-1.85,8.06-2.05,10.84-.45l21.57,12.45H408v-.9H388.66L367.09,204c-2.78-1.6-7.63-1.4-10.84.45l-20.79,12H316.1v13h0a3.14,3.14,0,0,0,1.86,2.9l.22.13A2.73,2.73,0,0,1,317.33,230.32Z"/><path class="cls-30" d="M357,241.88,318,219.32c-2.78-1.6-2.43-4.41.78-6.26l37.51-21.66c3.21-1.85,8.06-2.05,10.84-.45l39.07,22.56c2.78,1.6,2.43,4.41-.78,6.26l-37.51,21.66C364.66,243.28,359.81,243.48,357,241.88Z"/><path class="cls-15" d="M406.16,213.52,367.09,191a10.08,10.08,0,0,0-5.47-1.06,9.07,9.07,0,0,1,3.94,1.06l39.07,22.56c2.78,1.6,2.43,4.41-.78,6.26l-37.51,21.66a12.36,12.36,0,0,1-5.37,1.51,12.75,12.75,0,0,0,6.9-1.51l37.51-21.66C408.59,217.92,408.94,215.12,406.16,213.52Z"/><path class="cls-16" d="M361.82,236.51a7.49,7.49,0,0,1-3.67-.84l-29.09-16.79a2.73,2.73,0,0,1-1.56-2.31,3.65,3.65,0,0,1,2.14-2.92l27.93-16.12c2.48-1.43,6.24-1.58,8.4-.33L395.06,214a2.73,2.73,0,0,1,1.56,2.31,3.65,3.65,0,0,1-2.14,2.92l-27.93,16.12A9.72,9.72,0,0,1,361.82,236.51Zm-3.34-1.42c2,1.14,5.44,1,7.73-.33l27.93-16.12a3,3,0,0,0,1.81-2.35,2.1,2.1,0,0,0-1.23-1.73l-29.09-16.79c-2-1.14-5.44-1-7.73.33L330,214.21a3,3,0,0,0-1.81,2.35,2.1,2.1,0,0,0,1.23,1.73Z"/><path class="cls-10" d="M358.79,241.88l-39.07-22.56c-2.78-1.6-2.43-4.41.78-6.26L358,191.41a12.33,12.33,0,0,1,5.28-1.5,12.78,12.78,0,0,0-7,1.5l-37.51,21.66c-3.21,1.85-3.56,4.65-.78,6.26L357,241.88a10.14,10.14,0,0,0,5.56,1.05A9,9,0,0,1,358.79,241.88Z"/></g><g class="cls-20"><path class="cls-31" d="M408,198.5H388.66l-21.57-12.45c-2.78-1.6-7.63-1.4-10.84.45l-20.79,12H316.1v13h0a3.14,3.14,0,0,0,1.86,2.9L357,237c2.78,1.6,7.63,1.4,10.84-.45l37.51-21.66c1.67-1,2.55-2.18,2.64-3.35h0Z"/><path class="cls-10" d="M317.33,212.41h0v-13h19.37l20.79-12c3.21-1.85,8.06-2.05,10.84-.45l21.57,12.45H408v-.9H388.66l-21.57-12.45c-2.78-1.6-7.63-1.4-10.84.45l-20.79,12H316.1v13h0a3.14,3.14,0,0,0,1.86,2.9l.22.13A2.73,2.73,0,0,1,317.33,212.41Z"/><path class="cls-32" d="M357,224,318,201.41c-2.78-1.6-2.43-4.41.78-6.26l37.51-21.66c3.21-1.85,8.06-2.05,10.84-.45l39.07,22.56c2.78,1.6,2.43,4.41-.78,6.26l-37.51,21.66C364.66,225.37,359.81,225.57,357,224Z"/><path class="cls-15" d="M406.16,195.6,367.09,173a10.09,10.09,0,0,0-5.47-1.06,9.07,9.07,0,0,1,3.94,1.06l39.07,22.56c2.78,1.6,2.43,4.41-.78,6.26l-37.51,21.66A12.36,12.36,0,0,1,361,225a12.75,12.75,0,0,0,6.9-1.51l37.51-21.66C408.59,200,408.94,197.2,406.16,195.6Z"/><path class="cls-16" d="M361.82,218.59a7.49,7.49,0,0,1-3.67-.84L329.07,201a2.73,2.73,0,0,1-1.56-2.31,3.65,3.65,0,0,1,2.14-2.92l27.93-16.12c2.47-1.43,6.24-1.58,8.4-.33l29.09,16.79a2.73,2.73,0,0,1,1.56,2.31,3.65,3.65,0,0,1-2.14,2.92l-27.93,16.12A9.72,9.72,0,0,1,361.82,218.59Zm-3.34-1.42c2,1.14,5.44,1,7.73-.33l27.93-16.12a3,3,0,0,0,1.81-2.35,2.1,2.1,0,0,0-1.23-1.73l-29.09-16.79c-2-1.14-5.44-1-7.73.33L330,196.3a3,3,0,0,0-1.81,2.35,2.1,2.1,0,0,0,1.23,1.73Z"/><path class="cls-10" d="M358.79,224l-39.07-22.56c-2.78-1.6-2.43-4.41.78-6.26L358,173.49a12.33,12.33,0,0,1,5.28-1.5,12.78,12.78,0,0,0-7,1.5l-37.51,21.66c-3.21,1.85-3.56,4.65-.78,6.26L357,224a10.14,10.14,0,0,0,5.56,1.05A9,9,0,0,1,358.79,224Z"/></g><path class="cls-33" d="M408,180.59H388.66l-21.57-12.45c-2.78-1.6-7.63-1.4-10.84.45l-20.79,12H316.1v13h0a3.14,3.14,0,0,0,1.86,2.9L357,219.05c2.78,1.6,7.63,1.4,10.84-.45l37.51-21.66c1.67-1,2.55-2.18,2.64-3.35h0Z"/><path class="cls-10" d="M317.33,194.49h0v-13h19.37l20.79-12c3.21-1.85,8.06-2.05,10.84-.45l21.57,12.45H408v-.9H388.66l-21.57-12.45c-2.78-1.6-7.63-1.4-10.84.45l-20.79,12H316.1v13h0a3.14,3.14,0,0,0,1.86,2.9l.22.13A2.73,2.73,0,0,1,317.33,194.49Z"/><path class="cls-34" d="M357,206,318,183.49c-2.78-1.6-2.43-4.41.78-6.26l37.51-21.66c3.21-1.85,8.06-2.05,10.84-.45l39.07,22.56c2.78,1.6,2.43,4.41-.78,6.26L367.87,205.6C364.66,207.45,359.81,207.65,357,206Z"/><path class="cls-15" d="M406.16,177.68l-39.07-22.56a10.08,10.08,0,0,0-5.47-1.06,9.07,9.07,0,0,1,3.94,1.06l39.07,22.56c2.78,1.6,2.43,4.41-.78,6.26L366.34,205.6A12.36,12.36,0,0,1,361,207.1a12.75,12.75,0,0,0,6.9-1.51l37.51-21.66C408.59,182.09,408.94,179.29,406.16,177.68Z"/><path class="cls-35" d="M361.82,200.67a7.49,7.49,0,0,1-3.67-.84L329.07,183a2.73,2.73,0,0,1-1.56-2.31,3.65,3.65,0,0,1,2.14-2.92l27.93-16.12c2.48-1.43,6.24-1.58,8.4-.33l29.09,16.79a2.73,2.73,0,0,1,1.56,2.31,3.65,3.65,0,0,1-2.14,2.92L366.55,199.5A9.72,9.72,0,0,1,361.82,200.67Zm-3.34-1.42c2,1.14,5.44,1,7.73-.33l27.93-16.12a3,3,0,0,0,1.81-2.35,2.1,2.1,0,0,0-1.23-1.73l-29.09-16.79c-2-1.14-5.44-1-7.73.33L330,178.38a3,3,0,0,0-1.81,2.35,2.1,2.1,0,0,0,1.23,1.73Z"/><path class="cls-26" d="M358.79,206l-39.07-22.56c-2.78-1.6-2.43-4.41.78-6.26L358,155.58a12.33,12.33,0,0,1,5.28-1.5,12.78,12.78,0,0,0-7,1.5l-37.51,21.66c-3.21,1.85-3.56,4.65-.78,6.26L357,206a10.14,10.14,0,0,0,5.56,1.05A9,9,0,0,1,358.79,206Z"/><path class="cls-36" d="M369,213.29l33-19.12a1.31,1.31,0,0,0,.55-1v-1.56c0-.4-.25-.59-.55-.41l-33,19.12a1.31,1.31,0,0,0-.55,1v1.56C368.44,213.28,368.68,213.46,369,213.29Z"/><path class="cls-37" d="M401.31,193.76a1.31,1.31,0,0,0,.55-1v-1.46l.18-.1c.3-.17.55,0,.55.41v1.56a1.31,1.31,0,0,1-.55,1l-33,19.12c-.3.17-.55,0-.55-.41v-.1Z"/><g class="cls-12"><path class="cls-38" d="M282.23,231.13H262.85l-21.57-12.45c-2.78-1.6-7.63-1.4-10.84.45l-20.79,12H190.29v13h0a3.14,3.14,0,0,0,1.86,2.9l39.07,22.56c2.78,1.6,7.63,1.4,10.84-.45l37.51-21.66c1.67-1,2.55-2.18,2.64-3.35h0Z"/><path class="cls-10" d="M191.52,245h0V232h19.37l20.79-12c3.21-1.85,8.06-2.05,10.84-.45L264.07,232h18.15v-.9H262.85l-21.57-12.45c-2.78-1.6-7.63-1.4-10.84.45l-20.79,12H190.29v13h0a3.14,3.14,0,0,0,1.86,2.9l.22.13A2.73,2.73,0,0,1,191.52,245Z"/><path class="cls-39" d="M231.23,256.59,192.16,234c-2.78-1.6-2.43-4.41.78-6.26l37.51-21.66c3.21-1.85,8.06-2.05,10.84-.45l39.07,22.56c2.78,1.6,2.43,4.41-.78,6.26l-37.51,21.66C238.86,258,234,258.19,231.23,256.59Z"/><path class="cls-15" d="M280.35,228.22l-39.07-22.56a10.08,10.08,0,0,0-5.47-1.06,9.07,9.07,0,0,1,3.94,1.06l39.07,22.56c2.78,1.6,2.43,4.41-.78,6.26l-37.51,21.66a12.36,12.36,0,0,1-5.37,1.51,12.75,12.75,0,0,0,6.9-1.51l37.51-21.66C282.78,232.63,283.13,229.83,280.35,228.22Z"/><path class="cls-16" d="M236,251.21a7.48,7.48,0,0,1-3.67-.84l-29.09-16.79a2.72,2.72,0,0,1-1.56-2.31,3.65,3.65,0,0,1,2.14-2.92l27.93-16.12c2.48-1.43,6.25-1.58,8.4-.33l29.09,16.79a2.73,2.73,0,0,1,1.56,2.31,3.65,3.65,0,0,1-2.14,2.92L240.75,250A9.72,9.72,0,0,1,236,251.21Zm-3.34-1.42c2,1.14,5.44,1,7.73-.34l27.93-16.12a3,3,0,0,0,1.81-2.35,2.1,2.1,0,0,0-1.23-1.74l-29.09-16.79c-2-1.14-5.44-1-7.73.33l-27.93,16.12a3,3,0,0,0-1.81,2.35,2.1,2.1,0,0,0,1.23,1.73Z"/><path class="cls-10" d="M233,256.59,193.91,234c-2.78-1.6-2.43-4.41.78-6.26l37.51-21.66a12.33,12.33,0,0,1,5.28-1.5,12.78,12.78,0,0,0-7,1.5l-37.51,21.66c-3.21,1.85-3.56,4.65-.78,6.26l39.07,22.56a10.14,10.14,0,0,0,5.56,1.05A9,9,0,0,1,233,256.59Z"/></g><g class="cls-17"><path class="cls-40" d="M282.23,213.21H262.85l-21.57-12.45c-2.78-1.6-7.63-1.4-10.84.45l-20.79,12H190.29v13h0a3.14,3.14,0,0,0,1.86,2.9l39.07,22.56c2.78,1.6,7.63,1.4,10.84-.45l37.51-21.66c1.67-1,2.55-2.18,2.64-3.35h0Z"/><path class="cls-10" d="M191.52,227.11h0v-13h19.37l20.79-12c3.21-1.85,8.06-2.05,10.84-.45l21.57,12.45h18.15v-.9H262.85l-21.57-12.45c-2.78-1.6-7.63-1.4-10.84.45l-20.79,12H190.29v13h0a3.14,3.14,0,0,0,1.86,2.9l.22.13A2.73,2.73,0,0,1,191.52,227.11Z"/><path class="cls-41" d="M231.23,238.67l-39.07-22.56c-2.78-1.6-2.43-4.41.78-6.26l37.51-21.66c3.21-1.85,8.06-2.05,10.84-.45l39.07,22.56c2.78,1.6,2.43,4.41-.78,6.26l-37.51,21.66C238.86,240.07,234,240.27,231.23,238.67Z"/><path class="cls-15" d="M280.35,210.31l-39.07-22.56a10.08,10.08,0,0,0-5.47-1.06,9.07,9.07,0,0,1,3.94,1.06l39.07,22.56c2.78,1.6,2.43,4.41-.78,6.26l-37.51,21.66a12.36,12.36,0,0,1-5.37,1.51,12.75,12.75,0,0,0,6.9-1.51l37.51-21.66C282.78,214.71,283.13,211.91,280.35,210.31Z"/><path class="cls-16" d="M236,233.3a7.49,7.49,0,0,1-3.67-.84l-29.09-16.79a2.73,2.73,0,0,1-1.56-2.31,3.65,3.65,0,0,1,2.14-2.92l27.93-16.12c2.48-1.43,6.25-1.58,8.4-.33l29.09,16.79a2.73,2.73,0,0,1,1.56,2.31,3.65,3.65,0,0,1-2.14,2.92l-27.93,16.12A9.72,9.72,0,0,1,236,233.3Zm.48-39.52a9,9,0,0,0-4.4,1.1L204.17,211a3,3,0,0,0-1.81,2.35,2.1,2.1,0,0,0,1.23,1.73l29.09,16.79c2,1.14,5.44,1,7.73-.33l27.93-16.12a3,3,0,0,0,1.81-2.35,2.1,2.1,0,0,0-1.23-1.73l-29.09-16.79A6.81,6.81,0,0,0,236.49,193.78Z"/><path class="cls-10" d="M233,238.67l-39.07-22.56c-2.78-1.6-2.43-4.41.78-6.26L232.2,188.2a12.33,12.33,0,0,1,5.28-1.5,12.78,12.78,0,0,0-7,1.5l-37.51,21.66c-3.21,1.85-3.56,4.65-.78,6.26l39.07,22.56a10.14,10.14,0,0,0,5.56,1.05A9,9,0,0,1,233,238.67Z"/></g><g class="cls-20"><path class="cls-42" d="M282.23,195.29H262.85l-21.57-12.45c-2.78-1.6-7.63-1.4-10.84.45l-20.79,12H190.29v13h0a3.14,3.14,0,0,0,1.86,2.9l39.07,22.56c2.78,1.6,7.63,1.4,10.84-.45l37.51-21.66c1.67-1,2.55-2.18,2.64-3.35h0Z"/><path class="cls-10" d="M191.52,209.2h0v-13h19.37l20.79-12c3.21-1.85,8.06-2.05,10.84-.45l21.57,12.45h18.15v-.9H262.85l-21.57-12.45c-2.78-1.6-7.63-1.4-10.84.45l-20.79,12H190.29v13h0a3.14,3.14,0,0,0,1.86,2.9l.22.13A2.73,2.73,0,0,1,191.52,209.2Z"/><path class="cls-43" d="M231.23,220.75l-39.07-22.56c-2.78-1.6-2.43-4.41.78-6.26l37.51-21.66c3.21-1.85,8.06-2.05,10.84-.45l39.07,22.56c2.78,1.6,2.43,4.41-.78,6.26L242.06,220.3C238.86,222.15,234,222.36,231.23,220.75Z"/><path class="cls-15" d="M280.35,192.39l-39.07-22.56a10.08,10.08,0,0,0-5.47-1.06,9.07,9.07,0,0,1,3.94,1.06l39.07,22.56c2.78,1.6,2.43,4.41-.78,6.26L240.53,220.3a12.36,12.36,0,0,1-5.37,1.51,12.75,12.75,0,0,0,6.9-1.51l37.51-21.66C282.78,196.79,283.13,194,280.35,192.39Z"/><path class="cls-16" d="M236,215.38a7.49,7.49,0,0,1-3.67-.84l-29.09-16.79a2.73,2.73,0,0,1-1.56-2.31,3.65,3.65,0,0,1,2.14-2.92l27.93-16.12c2.48-1.43,6.24-1.58,8.4-.33l29.09,16.79a2.73,2.73,0,0,1,1.56,2.31,3.65,3.65,0,0,1-2.14,2.92L240.75,214.2A9.72,9.72,0,0,1,236,215.38Zm.48-39.52a9,9,0,0,0-4.4,1.1l-27.93,16.12a3,3,0,0,0-1.81,2.35,2.1,2.1,0,0,0,1.23,1.73L232.68,214c2,1.14,5.44,1,7.73-.33l27.93-16.12a3,3,0,0,0,1.81-2.35,2.1,2.1,0,0,0-1.23-1.73l-29.09-16.79A6.81,6.81,0,0,0,236.49,175.86Z"/><path class="cls-10" d="M233,220.75l-39.07-22.56c-2.78-1.6-2.43-4.41.78-6.26l37.51-21.66a12.33,12.33,0,0,1,5.28-1.5,12.78,12.78,0,0,0-7,1.5l-37.51,21.66c-3.21,1.85-3.56,4.65-.78,6.26l39.07,22.56a10.14,10.14,0,0,0,5.56,1.05A9,9,0,0,1,233,220.75Z"/></g><path class="cls-44" d="M282.23,177.37H262.85l-21.57-12.45c-2.78-1.6-7.63-1.4-10.84.45l-20.79,12H190.29v13h0a3.14,3.14,0,0,0,1.86,2.9l39.07,22.56c2.78,1.6,7.63,1.4,10.84-.45l37.51-21.66c1.67-1,2.55-2.18,2.64-3.35h0Z"/><path class="cls-10" d="M191.52,191.28h0v-13h19.37l20.79-12c3.21-1.85,8.06-2.05,10.84-.45l21.57,12.45h18.15v-.9H262.85l-21.57-12.45c-2.78-1.6-7.63-1.4-10.84.45l-20.79,12H190.29v13h0a3.14,3.14,0,0,0,1.86,2.9l.22.13A2.73,2.73,0,0,1,191.52,191.28Z"/><path class="cls-45" d="M231.23,202.83l-39.07-22.56c-2.78-1.6-2.43-4.41.78-6.26l37.51-21.66c3.21-1.85,8.06-2.05,10.84-.45l39.07,22.56c2.78,1.6,2.43,4.41-.78,6.26l-37.51,21.66C238.86,204.24,234,204.44,231.23,202.83Z"/><path class="cls-15" d="M280.35,174.47l-39.07-22.56a10.08,10.08,0,0,0-5.47-1.06,9.07,9.07,0,0,1,3.94,1.06l39.07,22.56c2.78,1.6,2.43,4.41-.78,6.26l-37.51,21.66a12.36,12.36,0,0,1-5.37,1.51,12.75,12.75,0,0,0,6.9-1.51l37.51-21.66C282.78,178.88,283.13,176.07,280.35,174.47Z"/><path class="cls-46" d="M236,197.46a7.48,7.48,0,0,1-3.67-.84l-29.09-16.79a2.73,2.73,0,0,1-1.56-2.31,3.65,3.65,0,0,1,2.14-2.92l27.93-16.12c2.48-1.43,6.25-1.58,8.4-.33l29.09,16.79a2.73,2.73,0,0,1,1.56,2.31,3.65,3.65,0,0,1-2.14,2.92l-27.93,16.12A9.72,9.72,0,0,1,236,197.46ZM232.68,196c2,1.14,5.44,1,7.73-.33l27.93-16.12a3,3,0,0,0,1.81-2.35,2.1,2.1,0,0,0-1.23-1.73l-29.09-16.79c-2-1.14-5.44-1-7.73.33l-27.93,16.12a3,3,0,0,0-1.81,2.35,2.1,2.1,0,0,0,1.23,1.73Z"/><path class="cls-26" d="M233,202.83l-39.07-22.56c-2.78-1.6-2.43-4.41.78-6.26l37.51-21.66a12.33,12.33,0,0,1,5.28-1.5,12.78,12.78,0,0,0-7,1.5L192.93,174c-3.21,1.85-3.56,4.65-.78,6.26l39.07,22.56a10.14,10.14,0,0,0,5.56,1.05A9,9,0,0,1,233,202.83Z"/><path class="cls-36" d="M229.49,210.08l-33-19.12a1.31,1.31,0,0,1-.55-1v-1.56c0-.4.25-.59.55-.41l33,19.12a1.31,1.31,0,0,1,.55,1v1.56C230,210.07,229.8,210.25,229.49,210.08Z"/><path class="cls-37" d="M197.17,190.55a1.31,1.31,0,0,1-.55-1V188l-.18-.1c-.3-.17-.55,0-.55.41v1.56a1.31,1.31,0,0,0,.55,1l33,19.12c.3.17.55,0,.55-.41v-.1Z"/><g class="cls-12"><path class="cls-47" d="M344.95,270.35H325.57L304,257.89c-2.78-1.6-7.63-1.4-10.84.45l-20.79,12H253v13h0a3.14,3.14,0,0,0,1.86,2.9l39.07,22.56c2.78,1.6,7.63,1.4,10.84-.45l37.51-21.66c1.67-1,2.55-2.18,2.64-3.35h0Z"/><path class="cls-10" d="M254.24,284.25h0v-13H273.6l20.79-12c3.21-1.85,8.06-2.05,10.84-.45l21.57,12.45h18.15v-.9H325.57L304,257.89c-2.78-1.6-7.63-1.4-10.84.45l-20.79,12H253v13h0a3.14,3.14,0,0,0,1.86,2.9l.22.13A2.73,2.73,0,0,1,254.24,284.25Z"/><path class="cls-48" d="M293.95,295.81l-39.07-22.56c-2.78-1.6-2.43-4.41.78-6.26l37.51-21.66c3.21-1.85,8.06-2.05,10.84-.45l39.07,22.56c2.78,1.6,2.43,4.41-.78,6.26l-37.51,21.66C301.58,297.21,296.72,297.41,293.95,295.81Z"/><path class="cls-15" d="M343.07,267.44,304,244.89a10.08,10.08,0,0,0-5.47-1.06,9.07,9.07,0,0,1,3.94,1.06l39.07,22.56c2.78,1.6,2.43,4.41-.78,6.26l-37.51,21.66a12.36,12.36,0,0,1-5.37,1.51,12.75,12.75,0,0,0,6.9-1.51l37.51-21.66C345.5,271.85,345.85,269,343.07,267.44Z"/><path class="cls-16" d="M298.73,290.43a7.48,7.48,0,0,1-3.67-.84L266,272.8a2.73,2.73,0,0,1-1.56-2.31,3.65,3.65,0,0,1,2.14-2.92l27.93-16.12c2.47-1.43,6.24-1.58,8.4-.34L332,267.9a2.73,2.73,0,0,1,1.56,2.31,3.65,3.65,0,0,1-2.14,2.92l-27.93,16.12A9.72,9.72,0,0,1,298.73,290.43ZM295.4,289c2,1.14,5.44,1,7.73-.33l27.93-16.12a3,3,0,0,0,1.81-2.35,2.1,2.1,0,0,0-1.23-1.73l-29.09-16.79c-2-1.14-5.44-1-7.73.33l-27.93,16.12a3,3,0,0,0-1.81,2.35,2.09,2.09,0,0,0,1.23,1.73Z"/><path class="cls-10" d="M295.7,295.81l-39.07-22.56c-2.78-1.6-2.43-4.41.78-6.26l37.51-21.66a12.33,12.33,0,0,1,5.28-1.5,12.78,12.78,0,0,0-7,1.5L255.66,267c-3.21,1.85-3.56,4.65-.78,6.26l39.07,22.56a10.14,10.14,0,0,0,5.56,1.05A9,9,0,0,1,295.7,295.81Z"/></g><g class="cls-17"><path class="cls-49" d="M344.95,252.43H325.57L304,240c-2.78-1.6-7.63-1.4-10.84.45l-20.79,12H253v13h0a3.14,3.14,0,0,0,1.86,2.9l39.07,22.56c2.78,1.6,7.63,1.4,10.84-.45l37.51-21.66c1.67-1,2.55-2.18,2.64-3.35h0Z"/><path class="cls-10" d="M254.24,266.33h0v-13H273.6l20.79-12c3.21-1.85,8.06-2.05,10.84-.45l21.57,12.45h18.15v-.9H325.57L304,240c-2.78-1.6-7.63-1.4-10.84.45l-20.79,12H253v13h0a3.14,3.14,0,0,0,1.86,2.9l.22.13A2.73,2.73,0,0,1,254.24,266.33Z"/><path class="cls-50" d="M293.95,277.89l-39.07-22.56c-2.78-1.6-2.43-4.41.78-6.26l37.51-21.66c3.21-1.85,8.06-2.05,10.84-.45l39.07,22.56c2.78,1.6,2.43,4.41-.78,6.26l-37.51,21.66C301.58,279.29,296.72,279.49,293.95,277.89Z"/><path class="cls-15" d="M343.07,249.53,304,227a10.08,10.08,0,0,0-5.47-1.06,9.07,9.07,0,0,1,3.94,1.06l39.07,22.56c2.78,1.6,2.43,4.41-.78,6.26l-37.51,21.66a12.36,12.36,0,0,1-5.37,1.51,12.75,12.75,0,0,0,6.9-1.51l37.51-21.66C345.5,253.93,345.85,251.13,343.07,249.53Z"/><path class="cls-16" d="M298.73,272.52a7.49,7.49,0,0,1-3.67-.84L266,254.88a2.73,2.73,0,0,1-1.56-2.31,3.65,3.65,0,0,1,2.14-2.92l27.93-16.12c2.48-1.43,6.25-1.58,8.4-.33L332,250a2.73,2.73,0,0,1,1.56,2.31,3.65,3.65,0,0,1-2.14,2.92l-27.93,16.12A9.72,9.72,0,0,1,298.73,272.52Zm.48-39.52a9,9,0,0,0-4.4,1.1l-27.93,16.12a3,3,0,0,0-1.81,2.35,2.09,2.09,0,0,0,1.23,1.73l29.09,16.79c2,1.14,5.44,1,7.73-.33l27.93-16.12a3,3,0,0,0,1.81-2.35,2.1,2.1,0,0,0-1.23-1.73l-29.09-16.79A6.8,6.8,0,0,0,299.22,233Z"/><path class="cls-10" d="M295.7,277.89l-39.07-22.56c-2.78-1.6-2.43-4.41.78-6.26l37.51-21.66a12.33,12.33,0,0,1,5.28-1.5,12.78,12.78,0,0,0-7,1.5l-37.51,21.66c-3.21,1.85-3.56,4.65-.78,6.26l39.07,22.56a10.14,10.14,0,0,0,5.56,1.05A9,9,0,0,1,295.7,277.89Z"/></g><g class="cls-20"><path class="cls-51" d="M344.95,234.51H325.57L304,222.06c-2.78-1.6-7.63-1.4-10.84.45l-20.79,12H253v13h0a3.14,3.14,0,0,0,1.86,2.9L293.95,273c2.78,1.6,7.63,1.4,10.84-.45l37.51-21.66c1.67-1,2.55-2.18,2.64-3.35h0Z"/><path class="cls-10" d="M254.24,248.42h0v-13H273.6l20.79-12c3.21-1.85,8.06-2.05,10.84-.45l21.57,12.45h18.15v-.9H325.57L304,222.06c-2.78-1.6-7.63-1.4-10.84.45l-20.79,12H253v13h0a3.14,3.14,0,0,0,1.86,2.9l.22.13A2.73,2.73,0,0,1,254.24,248.42Z"/><path class="cls-52" d="M293.95,260l-39.07-22.56c-2.78-1.6-2.43-4.41.78-6.26l37.51-21.66c3.21-1.85,8.06-2.05,10.84-.45l39.07,22.56c2.78,1.6,2.43,4.41-.78,6.26l-37.51,21.66C301.58,261.37,296.72,261.58,293.95,260Z"/><path class="cls-15" d="M343.07,231.61,304,209.05a10.08,10.08,0,0,0-5.47-1.06,9.07,9.07,0,0,1,3.94,1.06l39.07,22.56c2.78,1.6,2.43,4.41-.78,6.26l-37.51,21.66a12.36,12.36,0,0,1-5.37,1.51,12.75,12.75,0,0,0,6.9-1.51l37.51-21.66C345.5,236,345.85,233.21,343.07,231.61Z"/><path class="cls-16" d="M298.73,254.6a7.48,7.48,0,0,1-3.67-.84L266,237a2.73,2.73,0,0,1-1.56-2.31,3.65,3.65,0,0,1,2.14-2.92l27.93-16.12c2.47-1.43,6.24-1.58,8.4-.33L332,232.06a2.73,2.73,0,0,1,1.56,2.31,3.65,3.65,0,0,1-2.14,2.92l-27.93,16.12A9.74,9.74,0,0,1,298.73,254.6Zm.48-39.52a9,9,0,0,0-4.4,1.1L266.89,232.3a3,3,0,0,0-1.81,2.35,2.1,2.1,0,0,0,1.23,1.73l29.09,16.79c2,1.14,5.44,1,7.73-.33l27.93-16.12a3,3,0,0,0,1.81-2.35,2.1,2.1,0,0,0-1.23-1.73l-29.09-16.79A6.81,6.81,0,0,0,299.22,215.08Z"/><path class="cls-10" d="M295.7,260l-39.07-22.56c-2.78-1.6-2.43-4.41.78-6.26l37.51-21.66a12.33,12.33,0,0,1,5.28-1.5,12.78,12.78,0,0,0-7,1.5l-37.51,21.66c-3.21,1.85-3.56,4.65-.78,6.26L293.95,260A10.14,10.14,0,0,0,299.5,261,9,9,0,0,1,295.7,260Z"/></g><path class="cls-53" d="M344.95,216.59H325.57L304,204.14c-2.78-1.6-7.63-1.4-10.84.45l-20.79,12H253v13h0a3.14,3.14,0,0,0,1.86,2.9l39.07,22.56c2.78,1.6,7.63,1.4,10.84-.45L342.29,233c1.67-1,2.55-2.18,2.64-3.35h0Z"/><path class="cls-10" d="M254.24,230.5h0v-13H273.6l20.79-12c3.21-1.85,8.06-2.05,10.84-.45l21.57,12.45h18.15v-.9H325.57L304,204.14c-2.78-1.6-7.63-1.4-10.84.45l-20.79,12H253v13h0a3.14,3.14,0,0,0,1.86,2.9l.22.13A2.73,2.73,0,0,1,254.24,230.5Z"/><path class="cls-54" d="M293.95,242.05,254.88,219.5c-2.78-1.6-2.43-4.41.78-6.26l37.51-21.66c3.21-1.85,8.06-2.05,10.84-.45l39.07,22.56c2.78,1.6,2.43,4.41-.78,6.26l-37.51,21.66C301.58,243.46,296.72,243.66,293.95,242.05Z"/><path class="cls-15" d="M343.07,213.69,304,191.14a10.08,10.08,0,0,0-5.47-1.06,9.07,9.07,0,0,1,3.94,1.06l39.07,22.56c2.78,1.6,2.43,4.41-.78,6.26l-37.51,21.66a12.36,12.36,0,0,1-5.37,1.51,12.75,12.75,0,0,0,6.9-1.51l37.51-21.66C345.5,218.1,345.85,215.3,343.07,213.69Z"/><path class="cls-55" d="M298.73,236.55a7.35,7.35,0,0,1-3.6-.83L266,218.93a2.6,2.6,0,0,1-1.5-2.2,3.53,3.53,0,0,1,2.08-2.81l27.93-16.12c2.44-1.41,6.15-1.56,8.27-.33l29.09,16.79a2.6,2.6,0,0,1,1.5,2.2,3.53,3.53,0,0,1-2.08,2.81L303.4,235.39A9.6,9.6,0,0,1,298.73,236.55Zm.48-39.52a9.17,9.17,0,0,0-4.46,1.12l-27.93,16.12a3.15,3.15,0,0,0-1.87,2.46,2.22,2.22,0,0,0,1.3,1.85l29.09,16.79c2,1.16,5.54,1,7.87-.34l27.93-16.12a3.15,3.15,0,0,0,1.88-2.46,2.22,2.22,0,0,0-1.3-1.85l-29.09-16.79A6.94,6.94,0,0,0,299.22,197Z"/><path class="cls-26" d="M295.7,242.05,256.63,219.5c-2.78-1.6-2.43-4.41.78-6.26l37.51-21.66a12.33,12.33,0,0,1,5.28-1.5,12.78,12.78,0,0,0-7,1.5l-37.51,21.66c-3.21,1.85-3.56,4.65-.78,6.26l39.07,22.56a10.14,10.14,0,0,0,5.56,1.05A9,9,0,0,1,295.7,242.05Z"/><path class="cls-36" d="M305.9,249.3l33-19.12a1.31,1.31,0,0,0,.55-1v-1.56c0-.4-.25-.59-.55-.41l-33,19.12a1.31,1.31,0,0,0-.55,1v1.56C305.35,249.29,305.6,249.47,305.9,249.3Z"/><path class="cls-37" d="M338.22,229.77a1.31,1.31,0,0,0,.55-1v-1.46l.18-.1c.3-.17.55,0,.55.41v1.56a1.31,1.31,0,0,1-.55,1l-33,19.12c-.3.17-.55,0-.55-.41v-.1Z"/><path class="cls-36" d="M292.29,249.3l-33-19.12a1.31,1.31,0,0,1-.55-1v-1.56c0-.4.25-.59.55-.41l33,19.12a1.31,1.31,0,0,1,.55,1v1.56C292.84,249.29,292.59,249.47,292.29,249.3Z"/><path class="cls-37" d="M260,229.77a1.31,1.31,0,0,1-.55-1v-1.46l-.18-.1c-.3-.17-.55,0-.55.41v1.56a1.31,1.31,0,0,0,.55,1l33,19.12c.3.17.55,0,.55-.41v-.1Z"/><path class="cls-56" d="M294.31,166.83l-39.07-22.56c-2.78-1.6-2.43-4.41.78-6.26l37.51-21.66c3.21-1.85,8.06-2.05,10.84-.45l39.07,22.56c2.78,1.6,2.43,4.41-.78,6.26l-37.51,21.66C301.94,168.23,297.09,168.43,294.31,166.83Z"/><path class="cls-57" d="M296,158.52l-26.33-15.2c-1.87-1.08-1.64-3,.52-4.22l25.28-14.59a8.12,8.12,0,0,1,7.3-.3l26.33,15.2c1.87,1.08,1.64,3-.52,4.22l-25.28,14.59A8.12,8.12,0,0,1,296,158.52Z"/><path class="cls-58" d="M357,206,318,183.49c-2.78-1.6-2.43-4.41.78-6.26l37.51-21.66c3.21-1.85,8.06-2.05,10.84-.45l39.07,22.56c2.78,1.6,2.43,4.41-.78,6.26L367.87,205.6C364.66,207.45,359.81,207.65,357,206Z"/><path class="cls-59" d="M231.23,202.83l-39.07-22.56c-2.78-1.6-2.43-4.41.78-6.26l37.51-21.66c3.21-1.85,8.06-2.05,10.84-.45l39.07,22.56c2.78,1.6,2.43,4.41-.78,6.26l-37.51,21.66C238.86,204.24,234,204.44,231.23,202.83Z"/><path class="cls-54" d="M293.95,242.05,254.88,219.5c-2.78-1.6-2.43-4.41.78-6.26l37.51-21.66c3.21-1.85,8.06-2.05,10.84-.45l39.07,22.56c2.78,1.6,2.43,4.41-.78,6.26l-37.51,21.66C301.58,243.46,296.72,243.66,293.95,242.05Z"/><path class="cls-60" d="M296,231.74l-23.24-13.42c-1.65-1-1.44-2.62.46-3.72l22.31-12.88a7.16,7.16,0,0,1,6.45-.27l23.24,13.42c1.65,1,1.44,2.62-.46,3.72l-22.31,12.88A7.16,7.16,0,0,1,296,231.74Z"/><polygon class="cls-36" points="362.12 164.49 360.27 163.42 362.12 162.35 363.98 163.42 362.12 164.49"/><polygon class="cls-61" points="365.83 166.63 363.98 165.56 365.83 164.49 367.69 165.56 365.83 166.63"/><polygon class="cls-62" points="369.54 168.77 367.69 167.7 369.54 166.63 371.4 167.7 369.54 168.77"/><polygon class="cls-36" points="373.25 170.91 371.4 169.84 373.25 168.77 375.11 169.84 373.25 170.91"/><polygon class="cls-62" points="376.96 173.06 375.11 171.98 376.96 170.91 378.82 171.98 376.96 173.06"/><polygon class="cls-36" points="380.67 175.2 378.82 174.13 380.67 173.06 382.53 174.13 380.67 175.2"/><polygon class="cls-36" points="384.38 177.34 382.53 176.27 384.38 175.2 386.24 176.27 384.38 177.34"/><polygon class="cls-36" points="388.09 179.48 386.24 178.41 388.09 177.34 389.95 178.41 388.09 179.48"/><polygon class="cls-61" points="391.8 181.62 389.95 180.55 391.8 179.48 393.66 180.55 391.8 181.62"/><polygon class="cls-36" points="358.4 166.64 356.54 165.57 358.4 164.5 360.25 165.57 358.4 166.64"/><polygon class="cls-36" points="362.11 168.78 360.25 167.71 362.11 166.64 363.96 167.71 362.11 168.78"/><polygon class="cls-36" points="365.82 170.92 363.96 169.85 365.82 168.78 367.67 169.85 365.82 170.92"/><polygon class="cls-36" points="369.53 173.06 367.67 171.99 369.53 170.92 371.38 171.99 369.53 173.06"/><polygon class="cls-36" points="373.24 175.21 371.38 174.13 373.24 173.06 375.09 174.13 373.24 175.21"/><polygon class="cls-36" points="376.95 177.35 375.09 176.28 376.95 175.21 378.8 176.28 376.95 177.35"/><polygon class="cls-36" points="380.66 179.49 378.8 178.42 380.66 177.35 382.51 178.42 380.66 179.49"/><polygon class="cls-36" points="384.37 181.63 382.51 180.56 384.37 179.49 386.22 180.56 384.37 181.63"/><polygon class="cls-36" points="388.08 183.77 386.22 182.7 388.08 181.63 389.93 182.7 388.08 183.77"/><polygon class="cls-36" points="354.67 168.79 352.82 167.72 354.67 166.65 356.53 167.72 354.67 168.79"/><polygon class="cls-36" points="358.38 170.93 356.53 169.86 358.38 168.79 360.24 169.86 358.38 170.93"/><polygon class="cls-36" points="362.09 173.07 360.24 172 362.09 170.93 363.95 172 362.09 173.07"/><polygon class="cls-61" points="365.8 175.22 363.95 174.14 365.8 173.07 367.66 174.14 365.8 175.22"/><polygon class="cls-62" points="369.51 177.36 367.66 176.28 369.51 175.22 371.37 176.28 369.51 177.36"/><polygon class="cls-62" points="373.22 179.5 371.37 178.43 373.22 177.36 375.08 178.43 373.22 179.5"/><polygon class="cls-36" points="376.93 181.64 375.08 180.57 376.93 179.5 378.79 180.57 376.93 181.64"/><polygon class="cls-36" points="380.64 183.78 378.79 182.71 380.64 181.64 382.5 182.71 380.64 183.78"/><polygon class="cls-36" points="384.35 185.92 382.5 184.85 384.35 183.78 386.21 184.85 384.35 185.92"/><polygon class="cls-62" points="350.95 170.94 349.09 169.87 350.95 168.8 352.8 169.87 350.95 170.94"/><polygon class="cls-62" points="354.66 173.08 352.8 172.01 354.66 170.94 356.51 172.01 354.66 173.08"/><polygon class="cls-61" points="358.37 175.22 356.51 174.15 358.37 173.08 360.22 174.15 358.37 175.22"/><polygon class="cls-36" points="362.08 177.37 360.22 176.29 362.08 175.22 363.93 176.29 362.08 177.37"/><polygon class="cls-36" points="365.79 179.51 363.93 178.44 365.79 177.37 367.64 178.44 365.79 179.51"/><polygon class="cls-36" points="369.5 181.65 367.64 180.58 369.5 179.51 371.35 180.58 369.5 181.65"/><polygon class="cls-62" points="373.21 183.79 371.35 182.72 373.21 181.65 375.06 182.72 373.21 183.79"/><polygon class="cls-36" points="376.92 185.93 375.06 184.86 376.92 183.79 378.77 184.86 376.92 185.93"/><polygon class="cls-36" points="380.63 188.07 378.77 187 380.63 185.93 382.48 187 380.63 188.07"/><polygon class="cls-36" points="347.22 173.09 345.37 172.02 347.22 170.95 349.08 172.02 347.22 173.09"/><polygon class="cls-36" points="350.93 175.23 349.08 174.16 350.93 173.09 352.79 174.16 350.93 175.23"/><polygon class="cls-36" points="354.64 177.37 352.79 176.3 354.64 175.23 356.5 176.3 354.64 177.37"/><polygon class="cls-36" points="358.35 179.52 356.5 178.44 358.35 177.37 360.21 178.44 358.35 179.52"/><polygon class="cls-36" points="362.06 181.66 360.21 180.59 362.06 179.52 363.92 180.59 362.06 181.66"/><polygon class="cls-36" points="365.77 183.8 363.92 182.73 365.77 181.66 367.63 182.73 365.77 183.8"/><polygon class="cls-36" points="369.48 185.94 367.63 184.87 369.48 183.8 371.34 184.87 369.48 185.94"/><polygon class="cls-36" points="373.19 188.08 371.34 187.01 373.19 185.94 375.05 187.01 373.19 188.08"/><polygon class="cls-36" points="376.9 190.22 375.05 189.15 376.9 188.08 378.76 189.15 376.9 190.22"/><polygon class="cls-36" points="343.5 175.24 341.64 174.17 343.5 173.1 345.35 174.17 343.5 175.24"/><polygon class="cls-36" points="347.21 177.38 345.35 176.31 347.21 175.24 349.06 176.31 347.21 177.38"/><polygon class="cls-62" points="350.92 179.52 349.06 178.45 350.92 177.38 352.77 178.45 350.92 179.52"/><polygon class="cls-36" points="354.63 181.67 352.77 180.59 354.63 179.52 356.48 180.59 354.63 181.67"/><polygon class="cls-61" points="358.34 183.81 356.48 182.74 358.34 181.67 360.19 182.74 358.34 183.81"/><polygon class="cls-36" points="362.05 185.95 360.19 184.88 362.05 183.81 363.9 184.88 362.05 185.95"/><polygon class="cls-36" points="365.76 188.09 363.9 187.02 365.76 185.95 367.61 187.02 365.76 188.09"/><polygon class="cls-36" points="369.47 190.23 367.61 189.16 369.47 188.09 371.32 189.16 369.47 190.23"/><polygon class="cls-36" points="373.18 192.38 371.32 191.31 373.18 190.23 375.03 191.31 373.18 192.38"/><polygon class="cls-36" points="339.77 177.39 337.92 176.32 339.77 175.25 341.63 176.32 339.77 177.39"/><polygon class="cls-36" points="343.48 179.53 341.63 178.46 343.48 177.39 345.34 178.46 343.48 179.53"/><polygon class="cls-62" points="347.19 181.68 345.34 180.6 347.19 179.53 349.05 180.6 347.19 181.68"/><polygon class="cls-36" points="350.9 183.82 349.05 182.75 350.9 181.68 352.76 182.75 350.9 183.82"/><polygon class="cls-36" points="354.61 185.96 352.76 184.89 354.61 183.82 356.47 184.89 354.61 185.96"/><polygon class="cls-61" points="358.32 188.1 356.47 187.03 358.32 185.96 360.18 187.03 358.32 188.1"/><polygon class="cls-62" points="362.03 190.24 360.18 189.17 362.03 188.1 363.89 189.17 362.03 190.24"/><polygon class="cls-36" points="365.74 192.38 363.89 191.31 365.74 190.24 367.6 191.31 365.74 192.38"/><polygon class="cls-61" points="369.45 194.53 367.6 193.46 369.45 192.38 371.31 193.46 369.45 194.53"/><polygon class="cls-36" points="336.05 179.54 334.19 178.47 336.05 177.4 337.9 178.47 336.05 179.54"/><polygon class="cls-62" points="339.76 181.68 337.9 180.61 339.76 179.54 341.61 180.61 339.76 181.68"/><polygon class="cls-36" points="343.47 183.82 341.61 182.75 343.47 181.68 345.32 182.75 343.47 183.82"/><polygon class="cls-36" points="347.18 185.97 345.32 184.9 347.18 183.82 349.03 184.9 347.18 185.97"/><polygon class="cls-36" points="350.89 188.11 349.03 187.04 350.89 185.97 352.74 187.04 350.89 188.11"/><polygon class="cls-36" points="354.6 190.25 352.74 189.18 354.6 188.11 356.45 189.18 354.6 190.25"/><polygon class="cls-36" points="358.31 192.39 356.45 191.32 358.31 190.25 360.16 191.32 358.31 192.39"/><polygon class="cls-62" points="362.02 194.53 360.16 193.46 362.02 192.39 363.87 193.46 362.02 194.53"/><polygon class="cls-36" points="365.73 196.68 363.87 195.6 365.73 194.53 367.58 195.61 365.73 196.68"/><polygon class="cls-36" points="332.32 181.69 330.47 180.62 332.32 179.55 334.18 180.62 332.32 181.69"/><polygon class="cls-61" points="336.03 183.83 334.18 182.76 336.03 181.69 337.89 182.76 336.03 183.83"/><polygon class="cls-36" points="339.74 185.98 337.89 184.91 339.74 183.83 341.6 184.91 339.74 185.98"/><polygon class="cls-36" points="343.45 188.12 341.6 187.05 343.45 185.98 345.31 187.05 343.45 188.12"/><polygon class="cls-36" points="347.16 190.26 345.31 189.19 347.16 188.12 349.02 189.19 347.16 190.26"/><polygon class="cls-36" points="350.87 192.4 349.02 191.33 350.87 190.26 352.73 191.33 350.87 192.4"/><polygon class="cls-62" points="354.58 194.54 352.73 193.47 354.58 192.4 356.44 193.47 354.58 194.54"/><polygon class="cls-36" points="358.29 196.69 356.44 195.61 358.29 194.54 360.15 195.61 358.29 196.69"/><polygon class="cls-36" points="362 198.83 360.15 197.76 362 196.69 363.86 197.76 362 198.83"/><path class="cls-16" d="M361.82,200.74a7.37,7.37,0,0,1-3.62-.83l-29.47-17a2.57,2.57,0,0,1-1.48-2.17,3.51,3.51,0,0,1,2.07-2.79l28.29-16.34c2.45-1.42,6.18-1.57,8.31-.34l29.47,17a2.57,2.57,0,0,1,1.48,2.17,3.51,3.51,0,0,1-2.07,2.79l-28.29,16.34A9.65,9.65,0,0,1,361.82,200.74Zm.49-40a9.36,9.36,0,0,0-4.56,1.14l-28.29,16.34a3.26,3.26,0,0,0-1.93,2.55,2.31,2.31,0,0,0,1.35,1.93l29.47,17c2.05,1.19,5.66,1,8-.34L394.67,183a3.26,3.26,0,0,0,1.93-2.55,2.31,2.31,0,0,0-1.35-1.93l-29.47-17A7.1,7.1,0,0,0,362.31,160.7Z"/><circle class="cls-8" cx="130.19" cy="192.97" r="1.47"/></g></g></svg>