<svg id="Ebene_1" data-name="Ebene 1" xmlns="http://www.w3.org/2000/svg" xmlns:xlink="http://www.w3.org/1999/xlink" viewBox="0 0 40 40"><defs><style>.cls-1{fill:#302c62;}.cls-1,.cls-2,.cls-3,.cls-4,.cls-5,.cls-6{fill-rule:evenodd;}.cls-2{fill:url(#linear-gradient);}.cls-3{fill:#fff;}.cls-4{fill:url(#linear-gradient-2);}.cls-5{fill:url(#linear-gradient-3);}.cls-6{fill:url(#linear-gradient-4);}</style><linearGradient id="linear-gradient" x1="19.14" y1="44.85" x2="20.52" y2="-3.86" gradientUnits="userSpaceOnUse"><stop offset="0" stop-color="#e5007e"/><stop offset="1" stop-color="#fdcc4c"/></linearGradient><linearGradient id="linear-gradient-2" x1="17.91" y1="26.48" x2="23.46" y2="-29.36" xlink:href="#linear-gradient"/><linearGradient id="linear-gradient-3" x1="19.74" y1="23.79" x2="19.74" y2="-4.32" xlink:href="#linear-gradient"/><linearGradient id="linear-gradient-4" x1="17.38" y1="40.95" x2="20.55" y2="7.16" gradientUnits="userSpaceOnUse"><stop offset="0" stop-color="#e5332a"/><stop offset="0.16" stop-color="#ca3044"/><stop offset="0.27" stop-color="#b52e58"/><stop offset="1" stop-color="#662482"/></linearGradient></defs><title>Zeichenfläche 1</title><path class="cls-1" d="M13.39,27.93s-5,1.16-4.93,4.93,2.46,6.9,2.85,6.9,0-6.33,4.15-6.62,3.14-.34,3.14-.34Z"/><path class="cls-1" d="M26.2,27.93s5,1.16,4.93,4.93-2.46,6.9-2.85,6.9,0-6.33-4.15-6.62S21,32.81,21,32.81Z"/><path class="cls-2" d="M11.24,24a44,44,0,0,0,4.35,9.72H23.9a44.05,44.05,0,0,0,4.31-9.61,67.34,67.34,0,0,1-8,.47A67.67,67.67,0,0,1,11.24,24Z"/><path class="cls-3" d="M11.87,8c-2.43,4.87-2.27,10.49-.62,16a67.67,67.67,0,0,0,8.92.58,67.34,67.34,0,0,0,8-.47c1.67-5.56,1.86-11.21-.57-16.1A33.35,33.35,0,0,1,19.74,9a33.39,33.39,0,0,1-7.9-.92Z"/><path class="cls-4" d="M19.74,0a19.42,19.42,0,0,0-7.9,8.06,33.39,33.39,0,0,0,7.9.92,33.35,33.35,0,0,0,7.89-.92A19.43,19.43,0,0,0,19.74,0Z"/><path class="cls-5" d="M19.74,21.11a5.38,5.38,0,1,0-5.38-5.38,5.39,5.39,0,0,0,5.38,5.38Z"/><path class="cls-6" d="M19.74,19.79a4.06,4.06,0,1,0-4.07-4.06,4.07,4.07,0,0,0,4.07,4.06Z"/><path class="cls-1" d="M19.75,28c-1.85.36-1.33,3.84-1.16,5.06.08.56.58,7,1.16,7s1.08-6.43,1.16-7c.16-1.09.55-4.73-1.16-5.06Z"/></svg>