<svg xmlns="http://www.w3.org/2000/svg" xmlns:xlink="http://www.w3.org/1999/xlink" width="421.619" height="986.545" viewBox="0 0 421.619 986.545"><defs><filter id="a" x="249.776" y="439.049" width="171.844" height="265.306" filterUnits="userSpaceOnUse"><feOffset dx="2" dy="2" input="SourceAlpha"/><feGaussianBlur stdDeviation="1" result="b"/><feFlood flood-opacity="0.251"/><feComposite operator="in" in2="b"/><feComposite in="SourceGraphic"/></filter></defs><g transform="matrix(0.966, -0.259, 0.259, 0.966, -350.148, 128.506)"><g transform="translate(314.066 644.231)"><image width="175.565" height="328.23" transform="translate(0 0)" opacity="0.25" xlink:href="Gruppe%20113-image.png" style="mix-blend-mode:multiply;isolation:isolate"/><g transform="translate(18.738 16.344)"><path d="M362.343,185.969l-.184,0-.164-.092-.027.088-25.342-.639s-73.46,28.362-61.5,154.093c9.551,100.431,11.474,120.634,11.864,124.7l-.252.933s0,0,.3-.421l.05.512.256-.929c2.374-3.323,14.193-19.821,72.936-101.842,73.521-102.69,24.271-164.129,24.271-164.129L362.32,186.057Z" transform="translate(-273.813 -185.323)" fill="#64ffda"/><path d="M344.63,189.159l-.145-.011-.138-.061-.011.046-20.111-1.388s-57.126,15.886-42.8,99.341c11.436,66.666,13.738,80.075,14.2,82.77l-.161.608.222-.268c.057.34.061.344.061.344l.161-.608c1.759-2.1,10.492-12.533,53.876-64.421,54.328-64.945,12.927-107.4,12.927-107.4l-18.089-8.9Z" transform="translate(-258.837 -178.487)" fill="#fff"/><path d="M329.269,191.276l0-.027-.107-.015-.107-.046-.008.031-15.4-2.1s-42.387,4.546-25.854,49.621c13.2,36,15.86,43.243,16.395,44.7l-.088.31.153-.126.065.18.084-.3c1.2-1,7.135-5.922,36.644-30.408C378,222.434,343.63,197.2,343.63,197.2Z" transform="translate(-245.124 -174.614)" fill="#64ffda"/></g></g><g transform="matrix(0.97, 0.26, -0.26, 0.97, 371.48, -33.5)" filter="url(#a)"><path d="M315.61,282.673s31.842,2.3,39.03,95.946c145.127-126.755,14.369-239.654,14.369-239.654S330.881,198.84,315.61,282.673Z" transform="matrix(0.97, -0.26, 0.26, 0.97, -90.05, 415.32)" fill="#673ab7"/></g><g transform="translate(338.075 17)"><g transform="translate(15.471 16.418)"><g transform="translate(11.038 570.278)"><path d="M283.679,237.179l96.964,26.14,38.662-67.063L282.124,170.447Z" transform="translate(-282.124 -170.447)" fill="#b7b6e6"/><path d="M290.253,239.3l17.89,4.821,18.726-66.78-25.657-4.825Z" transform="translate(-259.175 -164.606)" fill="#dad9f2"/><path d="M297.34,241.832,306,244.166l18.4-68.291-8.843-1.67Z" transform="translate(-239.165 -159.835)" fill="#dad9f2"/></g><path d="M290.324,168.7a4.093,4.093,0,0,0-5.047,2.826l-5.395,20.008a4.1,4.1,0,0,0,2.944,4.986L418.165,233a4.089,4.089,0,0,0,5.047-2.826l5.395-20.012a4.1,4.1,0,0,0-2.944-4.982Z" transform="translate(-277.8 394.478)" fill="#a059de"/><path d="M280.559,597.049l150.468,40.563S620.414,352.528,514.982,21.294C514.982,21.294,258.712,246.885,280.559,597.049Z" transform="translate(-279.237 -21.294)" fill="#b7b6e6"/><path d="M315.024,137.324c31.911,2.78,83.084,10.522,128.346,32.1A675.645,675.645,0,0,0,413.941,21.294S367.008,62.61,315.024,137.324Z" transform="translate(-178.195 -21.294)" fill="#673ab7"/><path d="M280.553,208.522l150.468,40.563s10.113-15.229,24.359-42.719L279.28,158.9Q279.016,183.27,280.553,208.522Z" transform="translate(-279.231 367.233)" fill="#5b319a"/><path d="M303.666,613.364l58.388,15.741s185-278.5,87.5-604.8C477.977,337.15,303.666,613.364,303.666,613.364Z" transform="translate(-210.264 -12.787)" fill="silver" style="mix-blend-mode:multiply;isolation:isolate"/><g transform="translate(30.788 122.631)"><path d="M315.565,55.9a3.435,3.435,0,1,0,4.213-2.416A3.44,3.44,0,0,0,315.565,55.9Z" transform="translate(-207.789 -53.367)" fill="#5b319a"/><path d="M287.409,160.37a3.433,3.433,0,1,0,4.209-2.424A3.431,3.431,0,0,0,287.409,160.37Z" transform="translate(-287.29 241.569)" fill="#5b319a"/><path d="M291.409,161.446a3.434,3.434,0,1,0,4.206-2.42A3.427,3.427,0,0,0,291.409,161.446Z" transform="translate(-275.996 244.615)" fill="#5b319a"/><path d="M295.408,162.524a3.433,3.433,0,1,0,4.21-2.42A3.438,3.438,0,0,0,295.408,162.524Z" transform="translate(-264.705 247.658)" fill="#5b319a"/><path d="M299.408,163.6a3.432,3.432,0,1,0,4.21-2.42A3.444,3.444,0,0,0,299.408,163.6Z" transform="translate(-253.411 250.702)" fill="#5b319a"/><path d="M303.408,164.683a3.433,3.433,0,1,0,4.206-2.424A3.432,3.432,0,0,0,303.408,164.683Z" transform="translate(-242.117 253.747)" fill="#5b319a"/><path d="M307.408,165.757a3.432,3.432,0,1,0,4.206-2.42A3.433,3.433,0,0,0,307.408,165.757Z" transform="translate(-230.824 256.79)" fill="#5b319a"/><path d="M311.407,166.833a3.433,3.433,0,1,0,4.21-2.416A3.428,3.428,0,0,0,311.407,166.833Z" transform="translate(-219.533 259.836)" fill="#5b319a"/><path d="M319.7,56.474a3.433,3.433,0,1,0,4.21-2.42A3.427,3.427,0,0,0,319.7,56.474Z" transform="translate(-196.107 -51.765)" fill="#5b319a"/><path d="M324.2,57.3a3.434,3.434,0,1,0,4.214-2.424A3.438,3.438,0,0,0,324.2,57.3Z" transform="translate(-183.417 -49.426)" fill="#5b319a"/><path d="M328.678,57.963a3.434,3.434,0,1,0,4.206-2.42A3.437,3.437,0,0,0,328.678,57.963Z" transform="translate(-170.772 -47.565)" fill="#5b319a"/><path d="M333.334,59.218a3.433,3.433,0,1,0,4.209-2.42A3.443,3.443,0,0,0,333.334,59.218Z" transform="translate(-157.619 -44.018)" fill="#5b319a"/><path d="M337.612,60.371a3.432,3.432,0,1,0,4.21-2.42A3.432,3.432,0,0,0,337.612,60.371Z" transform="translate(-145.544 -40.762)" fill="#5b319a"/><path d="M341.495,61.969a3.435,3.435,0,1,0,4.213-2.424A3.433,3.433,0,0,0,341.495,61.969Z" transform="translate(-134.58 -36.262)" fill="#5b319a"/><path d="M345.548,63.44a3.432,3.432,0,1,0,4.206-2.42A3.438,3.438,0,0,0,345.548,63.44Z" transform="translate(-123.137 -32.097)" fill="#5b319a"/></g></g></g><g transform="translate(447.615 258.589)"><image width="163.56" height="163.56" transform="translate(0 0)" opacity="0.25" xlink:href="Gruppe%20113-image2.png" style="mix-blend-mode:multiply;isolation:isolate"/><g transform="translate(17.931 17.192)"><path d="M310.495,126.575a56.615,56.615,0,1,0,69.4-39.924A56.622,56.622,0,0,0,310.495,126.575Z" transform="translate(-308.53 -84.682)" fill="#5b319a"/><path d="M313.784,119.646A42.124,42.124,0,1,0,365.42,89.934,42.119,42.119,0,0,0,313.784,119.646Z" transform="translate(-297.826 -73.98)" fill="#b6dbff"/><path d="M313.783,119.646A42.036,42.036,0,0,0,320.856,156,42.112,42.112,0,0,1,393.28,114.3a42.113,42.113,0,0,0-79.5,5.349Z" transform="translate(-297.824 -73.98)" fill="#80adb2"/></g></g><g transform="translate(252.543 426.651)"><image width="324.246" height="316.617" transform="translate(0 0)" opacity="0.25" xlink:href="Gruppe%20113-image3.png" style="mix-blend-mode:multiply;isolation:isolate"/><g transform="translate(19.36 15.552)"><path d="M315.511,249.288c15.435,43.729,13.917,67.492-1.078,115.373C399,180.4,366.677,139.754,366.677,139.754,352.457,148.483,319.2,214.908,315.511,249.288Z" transform="translate(-98.222 -95.612)" fill="#673ab7"/><path d="M271.41,342.621c53.28-77.345,81.96-63.332,81.96-63.332,28.932-80.151,26.068-151.08,26.068-151.08S209.646,160.1,271.41,342.621Z" transform="translate(-257.884 -128.209)" fill="#673ab7"/></g></g></g></svg>