<svg xmlns="http://www.w3.org/2000/svg" xmlns:xlink="http://www.w3.org/1999/xlink" viewBox="0 0 300 300"><defs><style>.cls-1{isolation:isolate;}.cls-16,.cls-2,.cls-28,.cls-40,.cls-63{opacity:0.3;}.cls-2{fill:url(#linear-gradient);}.cls-3{opacity:0.34;fill:url(#linear-gradient-2);}.cls-4{opacity:0.37;fill:url(#linear-gradient-3);}.cls-5{opacity:0.41;fill:url(#linear-gradient-4);}.cls-6{opacity:0.45;fill:url(#linear-gradient-5);}.cls-7{opacity:0.48;fill:url(#linear-gradient-6);}.cls-8{opacity:0.52;fill:url(#linear-gradient-7);}.cls-9{opacity:0.55;fill:url(#linear-gradient-8);}.cls-10{opacity:0.59;fill:url(#linear-gradient-9);}.cls-11{opacity:0.63;fill:url(#linear-gradient-10);}.cls-12{opacity:0.66;fill:url(#linear-gradient-11);}.cls-13,.cls-43,.cls-65{opacity:0.7;}.cls-13{fill:url(#linear-gradient-12);}.cls-14,.cls-27{opacity:0.8;}.cls-14,.cls-15,.cls-46,.cls-47,.cls-48,.cls-49,.cls-50,.cls-51,.cls-52,.cls-53,.cls-54,.cls-55,.cls-56,.cls-57,.cls-69{mix-blend-mode:screen;}.cls-14{fill:url(#New_Gradient_Swatch_1);}.cls-15{fill:url(#New_Gradient_Swatch_1-2);}.cls-16{fill:url(#linear-gradient-13);}.cls-17{opacity:0.35;fill:url(#linear-gradient-14);}.cls-18{opacity:0.39;fill:url(#linear-gradient-15);}.cls-19{opacity:0.44;fill:url(#linear-gradient-16);}.cls-20{opacity:0.48;fill:url(#linear-gradient-17);}.cls-21{opacity:0.53;fill:url(#linear-gradient-18);}.cls-22{opacity:0.57;fill:url(#linear-gradient-19);}.cls-23{opacity:0.62;fill:url(#linear-gradient-20);}.cls-24{opacity:0.66;fill:url(#linear-gradient-21);}.cls-25{opacity:0.71;fill:url(#linear-gradient-22);}.cls-26{opacity:0.75;fill:url(#linear-gradient-23);}.cls-27{fill:url(#linear-gradient-24);}.cls-28{fill:url(#linear-gradient-25);}.cls-29{opacity:0.35;fill:url(#linear-gradient-26);}.cls-30{opacity:0.41;fill:url(#linear-gradient-27);}.cls-31{opacity:0.46;fill:url(#linear-gradient-28);}.cls-32{opacity:0.52;fill:url(#linear-gradient-29);}.cls-33{opacity:0.57;fill:url(#linear-gradient-30);}.cls-34{opacity:0.63;fill:url(#linear-gradient-31);}.cls-35{opacity:0.68;fill:url(#linear-gradient-32);}.cls-36{opacity:0.74;fill:url(#linear-gradient-33);}.cls-37{opacity:0.79;fill:url(#linear-gradient-34);}.cls-38{opacity:0.85;fill:url(#linear-gradient-35);}.cls-39{opacity:0.9;fill:url(#linear-gradient-36);}.cls-40{fill:url(#linear-gradient-37);}.cls-41{opacity:0.4;fill:url(#linear-gradient-38);}.cls-42,.cls-60,.cls-64{opacity:0.5;}.cls-42{fill:url(#linear-gradient-39);}.cls-43{fill:url(#linear-gradient-40);}.cls-44{fill:url(#New_Gradient_Swatch_copy_13);}.cls-45{fill:url(#New_Gradient_Swatch_copy_13-2);}.cls-46{fill:url(#linear-gradient-41);}.cls-47{fill:url(#Unbenannter_Verlauf_11);}.cls-48{fill:url(#Unbenannter_Verlauf_10);}.cls-49{fill:url(#Unbenannter_Verlauf_9);}.cls-50{fill:url(#Unbenannter_Verlauf_8);}.cls-51{fill:url(#Unbenannter_Verlauf_7);}.cls-52{fill:url(#Unbenannter_Verlauf_6);}.cls-53{fill:url(#Unbenannter_Verlauf_5);}.cls-54{fill:url(#Unbenannter_Verlauf_4);}.cls-55{fill:url(#Unbenannter_Verlauf_3);}.cls-56{fill:url(#Unbenannter_Verlauf_2);}.cls-57{fill:url(#linear-gradient-42);}.cls-58{fill:url(#linear-gradient-43);}.cls-59{fill:url(#linear-gradient-44);}.cls-60{fill:#c7bcd6;}.cls-60,.cls-64{mix-blend-mode:multiply;}.cls-61{fill:url(#linear-gradient-45);}.cls-62{fill:url(#linear-gradient-46);}.cls-63{fill:url(#linear-gradient-47);}.cls-64{fill:url(#radial-gradient);}.cls-65,.cls-71,.cls-74,.cls-77{mix-blend-mode:color-dodge;}.cls-65{fill:url(#radial-gradient-2);}.cls-66{fill:url(#linear-gradient-48);}.cls-67{fill:url(#linear-gradient-49);}.cls-68{fill:url(#New_Gradient_Swatch_copy_7);}.cls-69{fill:url(#White_Black_1);}.cls-70{fill:url(#linear-gradient-50);}.cls-71{fill:url(#Radial_Gradient_1);}.cls-72{fill:url(#linear-gradient-51);}.cls-73{fill:url(#New_Gradient_Swatch_copy_13-3);}.cls-74{fill:url(#Radial_Gradient_1-2);}.cls-75{fill:url(#linear-gradient-52);}.cls-76{fill:url(#New_Gradient_Swatch_copy_13-4);}.cls-77{fill:url(#Radial_Gradient_1-3);}</style><linearGradient id="linear-gradient" x1="185.73" y1="195.28" x2="140.16" y2="262.77" gradientUnits="userSpaceOnUse"><stop offset="0.01" stop-color="#fff"/><stop offset="0.21" stop-color="#f9f5fb"/><stop offset="0.56" stop-color="#e9dbf2"/><stop offset="0.97" stop-color="#d1b4e3"/></linearGradient><linearGradient id="linear-gradient-2" x1="185.47" y1="196.1" x2="140.86" y2="262.19" xlink:href="#linear-gradient"/><linearGradient id="linear-gradient-3" x1="185.22" y1="196.91" x2="141.52" y2="261.64" xlink:href="#linear-gradient"/><linearGradient id="linear-gradient-4" x1="184.98" y1="197.69" x2="142.14" y2="261.14" xlink:href="#linear-gradient"/><linearGradient id="linear-gradient-5" x1="184.75" y1="198.44" x2="142.71" y2="260.7" xlink:href="#linear-gradient"/><linearGradient id="linear-gradient-6" x1="184.51" y1="199.16" x2="143.24" y2="260.29" xlink:href="#linear-gradient"/><linearGradient id="linear-gradient-7" x1="184.13" y1="199.75" x2="143.56" y2="259.84" xlink:href="#linear-gradient"/><linearGradient id="linear-gradient-8" x1="183.66" y1="200.21" x2="143.69" y2="259.41" xlink:href="#linear-gradient"/><linearGradient id="linear-gradient-9" x1="183.11" y1="200.56" x2="143.63" y2="259.02" xlink:href="#linear-gradient"/><linearGradient id="linear-gradient-10" x1="182.56" y1="200.82" x2="143.44" y2="258.75" xlink:href="#linear-gradient"/><linearGradient id="linear-gradient-11" x1="181.77" y1="200.85" x2="142.9" y2="258.42" xlink:href="#linear-gradient"/><linearGradient id="linear-gradient-12" x1="180.89" y1="200.79" x2="142.22" y2="258.07" xlink:href="#linear-gradient"/><linearGradient id="New_Gradient_Swatch_1" x1="157.59" y1="281.32" x2="145.67" y2="176.34" gradientUnits="userSpaceOnUse"><stop offset="0" stop-color="#fff"/><stop offset="1"/></linearGradient><linearGradient id="New_Gradient_Swatch_1-2" x1="157.22" y1="278.28" x2="147.73" y2="194.71" xlink:href="#New_Gradient_Swatch_1"/><linearGradient id="linear-gradient-13" x1="145.83" y1="188.29" x2="157.56" y2="295.67" xlink:href="#linear-gradient"/><linearGradient id="linear-gradient-14" x1="145.98" y1="189.42" x2="157.51" y2="295.07" xlink:href="#linear-gradient"/><linearGradient id="linear-gradient-15" x1="146.12" y1="190.56" x2="157.46" y2="294.48" xlink:href="#linear-gradient"/><linearGradient id="linear-gradient-16" x1="146.25" y1="191.69" x2="157.41" y2="293.89" xlink:href="#linear-gradient"/><linearGradient id="linear-gradient-17" x1="146.38" y1="192.82" x2="157.35" y2="293.3" xlink:href="#linear-gradient"/><linearGradient id="linear-gradient-18" x1="146.51" y1="193.95" x2="157.29" y2="292.72" xlink:href="#linear-gradient"/><linearGradient id="linear-gradient-19" x1="146.63" y1="195.08" x2="157.23" y2="292.13" xlink:href="#linear-gradient"/><linearGradient id="linear-gradient-20" x1="146.75" y1="196.21" x2="157.16" y2="291.55" xlink:href="#linear-gradient"/><linearGradient id="linear-gradient-21" x1="146.87" y1="197.34" x2="157.09" y2="290.97" xlink:href="#linear-gradient"/><linearGradient id="linear-gradient-22" x1="146.98" y1="198.46" x2="157.01" y2="290.39" xlink:href="#linear-gradient"/><linearGradient id="linear-gradient-23" x1="147.09" y1="199.59" x2="156.94" y2="289.81" xlink:href="#linear-gradient"/><linearGradient id="linear-gradient-24" x1="147.19" y1="200.72" x2="156.85" y2="289.24" xlink:href="#linear-gradient"/><linearGradient id="linear-gradient-25" x1="158.59" y1="238.5" x2="166.23" y2="308.66" xlink:href="#linear-gradient"/><linearGradient id="linear-gradient-26" x1="158.37" y1="239.26" x2="165.8" y2="307.53" xlink:href="#linear-gradient"/><linearGradient id="linear-gradient-27" x1="158.16" y1="239.96" x2="165.4" y2="306.42" xlink:href="#linear-gradient"/><linearGradient id="linear-gradient-28" x1="157.95" y1="240.6" x2="165.01" y2="305.34" xlink:href="#linear-gradient"/><linearGradient id="linear-gradient-29" x1="157.77" y1="241.18" x2="164.64" y2="304.28" xlink:href="#linear-gradient"/><linearGradient id="linear-gradient-30" x1="157.6" y1="241.71" x2="164.3" y2="303.25" xlink:href="#linear-gradient"/><linearGradient id="linear-gradient-31" x1="157.46" y1="242.19" x2="164" y2="302.23" xlink:href="#linear-gradient"/><linearGradient id="linear-gradient-32" x1="157.38" y1="242.62" x2="163.76" y2="301.22" xlink:href="#linear-gradient"/><linearGradient id="linear-gradient-33" x1="157.45" y1="243.02" x2="163.68" y2="300.22" xlink:href="#linear-gradient"/><linearGradient id="linear-gradient-34" x1="157.64" y1="243.38" x2="163.72" y2="299.2" xlink:href="#linear-gradient"/><linearGradient id="linear-gradient-35" x1="158.02" y1="243.71" x2="163.95" y2="298.17" xlink:href="#linear-gradient"/><linearGradient id="linear-gradient-36" x1="158.75" y1="243.98" x2="164.53" y2="297.12" xlink:href="#linear-gradient"/><linearGradient id="linear-gradient-37" x1="157.36" y1="239.82" x2="104.74" y2="317.76" xlink:href="#linear-gradient"/><linearGradient id="linear-gradient-38" x1="155.67" y1="240.6" x2="107.17" y2="312.43" xlink:href="#linear-gradient"/><linearGradient id="linear-gradient-39" x1="155" y1="239.27" x2="109.26" y2="307.01" xlink:href="#linear-gradient"/><linearGradient id="linear-gradient-40" x1="154.23" y1="240.71" x2="113.13" y2="301.6" xlink:href="#linear-gradient"/><linearGradient id="New_Gradient_Swatch_copy_13" x1="185.82" y1="134.72" x2="245.73" y2="116.78" gradientUnits="userSpaceOnUse"><stop offset="0.04" stop-color="#6b24d6"/><stop offset="0.29" stop-color="#7733dc"/><stop offset="0.79" stop-color="#975ced"/><stop offset="1" stop-color="#a56ef4"/></linearGradient><linearGradient id="New_Gradient_Swatch_copy_13-2" x1="66.87" y1="141.8" x2="138.66" y2="125.71" gradientTransform="matrix(-1, 0, 0, 1, 220.72, 0)" xlink:href="#New_Gradient_Swatch_copy_13"/><linearGradient id="linear-gradient-41" x1="153.22" y1="186.34" x2="153.22" y2="226.81" gradientUnits="userSpaceOnUse"><stop offset="0" stop-color="#f8299a"/><stop offset="0.1" stop-color="#c9217d"/><stop offset="0.23" stop-color="#94195c"/><stop offset="0.36" stop-color="#671140"/><stop offset="0.49" stop-color="#420b29"/><stop offset="0.62" stop-color="#250617"/><stop offset="0.75" stop-color="#10030a"/><stop offset="0.88" stop-color="#040103"/><stop offset="1"/></linearGradient><linearGradient id="Unbenannter_Verlauf_11" x1="153.22" y1="186.39" x2="153.22" y2="226.22" gradientUnits="userSpaceOnUse"><stop offset="0" stop-color="#f93a9b"/><stop offset="0.08" stop-color="#d63285"/><stop offset="0.22" stop-color="#9e2562"/><stop offset="0.36" stop-color="#6e1a44"/><stop offset="0.49" stop-color="#46102c"/><stop offset="0.63" stop-color="#270919"/><stop offset="0.76" stop-color="#12040b"/><stop offset="0.88" stop-color="#040103"/><stop offset="1"/></linearGradient><linearGradient id="Unbenannter_Verlauf_10" x1="153.22" y1="186.44" x2="153.22" y2="225.63" gradientUnits="userSpaceOnUse"><stop offset="0" stop-color="#f94b9c"/><stop offset="0.05" stop-color="#e4458f"/><stop offset="0.2" stop-color="#a9336a"/><stop offset="0.35" stop-color="#752349"/><stop offset="0.49" stop-color="#4b172f"/><stop offset="0.63" stop-color="#2a0d1b"/><stop offset="0.77" stop-color="#13060c"/><stop offset="0.89" stop-color="#050103"/><stop offset="1"/></linearGradient><linearGradient id="Unbenannter_Verlauf_9" x1="153.22" y1="186.49" x2="153.22" y2="225.04" gradientUnits="userSpaceOnUse"><stop offset="0" stop-color="#fa5c9e"/><stop offset="0.01" stop-color="#f55a9b"/><stop offset="0.17" stop-color="#b54373"/><stop offset="0.33" stop-color="#7e2e50"/><stop offset="0.49" stop-color="#511e33"/><stop offset="0.64" stop-color="#2e111d"/><stop offset="0.77" stop-color="#15080d"/><stop offset="0.9" stop-color="#050203"/><stop offset="1"/></linearGradient><linearGradient id="Unbenannter_Verlauf_8" x1="153.22" y1="186.54" x2="153.22" y2="224.45" gradientUnits="userSpaceOnUse"><stop offset="0" stop-color="#fb6d9f"/><stop offset="0.14" stop-color="#c3557c"/><stop offset="0.32" stop-color="#893b57"/><stop offset="0.48" stop-color="#582638"/><stop offset="0.64" stop-color="#32161f"/><stop offset="0.78" stop-color="#160a0e"/><stop offset="0.9" stop-color="#060304"/><stop offset="1"/></linearGradient><linearGradient id="Unbenannter_Verlauf_7" x1="153.22" y1="186.59" x2="153.22" y2="223.86" gradientUnits="userSpaceOnUse"><stop offset="0" stop-color="#fb7ea0"/><stop offset="0.1" stop-color="#d56b88"/><stop offset="0.29" stop-color="#954b5f"/><stop offset="0.47" stop-color="#60303d"/><stop offset="0.63" stop-color="#361b23"/><stop offset="0.78" stop-color="#190c10"/><stop offset="0.91" stop-color="#060304"/><stop offset="1"/></linearGradient><linearGradient id="Unbenannter_Verlauf_6" x1="153.22" y1="186.64" x2="153.22" y2="223.26" gradientUnits="userSpaceOnUse"><stop offset="0" stop-color="#fc8fa1"/><stop offset="0.05" stop-color="#eb8596"/><stop offset="0.25" stop-color="#a45d69"/><stop offset="0.45" stop-color="#6a3c44"/><stop offset="0.62" stop-color="#3c2226"/><stop offset="0.78" stop-color="#1b0f11"/><stop offset="0.91" stop-color="#070405"/><stop offset="1"/></linearGradient><linearGradient id="Unbenannter_Verlauf_5" x1="153.22" y1="186.69" x2="153.22" y2="222.67" gradientUnits="userSpaceOnUse"><stop offset="0" stop-color="#fca0a2"/><stop offset="0.21" stop-color="#b67475"/><stop offset="0.42" stop-color="#764b4c"/><stop offset="0.61" stop-color="#432b2b"/><stop offset="0.78" stop-color="#1f1314"/><stop offset="0.91" stop-color="#080505"/><stop offset="1"/></linearGradient><linearGradient id="Unbenannter_Verlauf_4" x1="153.22" y1="186.74" x2="153.22" y2="222.08" gradientUnits="userSpaceOnUse"><stop offset="0" stop-color="#fdb1a3"/><stop offset="0.14" stop-color="#cf9185"/><stop offset="0.38" stop-color="#865e56"/><stop offset="0.59" stop-color="#4c3531"/><stop offset="0.77" stop-color="#231816"/><stop offset="0.91" stop-color="#090706"/><stop offset="1"/></linearGradient><linearGradient id="Unbenannter_Verlauf_3" x1="153.22" y1="186.79" x2="153.22" y2="221.49" gradientUnits="userSpaceOnUse"><stop offset="0" stop-color="#fec2a5"/><stop offset="0.05" stop-color="#efb69b"/><stop offset="0.32" stop-color="#9b7665"/><stop offset="0.56" stop-color="#584439"/><stop offset="0.76" stop-color="#291f1a"/><stop offset="0.91" stop-color="#0b0807"/><stop offset="1"/></linearGradient><linearGradient id="Unbenannter_Verlauf_2" x1="153.22" y1="186.85" x2="153.22" y2="220.9" gradientUnits="userSpaceOnUse"><stop offset="0" stop-color="#fed3a6"/><stop offset="0.23" stop-color="#b79877"/><stop offset="0.51" stop-color="#695745"/><stop offset="0.74" stop-color="#302820"/><stop offset="0.91" stop-color="#0d0b09"/><stop offset="1"/></linearGradient><linearGradient id="linear-gradient-42" x1="153.22" y1="186.9" x2="153.22" y2="220.31" gradientUnits="userSpaceOnUse"><stop offset="0" stop-color="#ffe4a7"/><stop offset="0.1" stop-color="#e1ca94"/><stop offset="0.43" stop-color="#827455"/><stop offset="0.71" stop-color="#3c3627"/><stop offset="0.9" stop-color="#110f0b"/><stop offset="1"/></linearGradient><linearGradient id="linear-gradient-43" x1="142.86" y1="179.51" x2="163.44" y2="179.51" gradientUnits="userSpaceOnUse"><stop offset="0.02" stop-color="#45108a"/><stop offset="0.29" stop-color="#3d065f"/><stop offset="1" stop-color="#12054e"/><stop offset="1" stop-color="#10054d"/></linearGradient><linearGradient id="linear-gradient-44" x1="128.48" y1="163.59" x2="177.64" y2="163.59" gradientUnits="userSpaceOnUse"><stop offset="0" stop-color="#5c1ccc"/><stop offset="0.03" stop-color="#6323d0"/><stop offset="0.07" stop-color="#7538da"/><stop offset="0.12" stop-color="#9259ea"/><stop offset="0.14" stop-color="#a56ef4"/><stop offset="0.23" stop-color="#c994ff"/><stop offset="0.28" stop-color="#ae7af0"/><stop offset="0.38" stop-color="#7945d1"/><stop offset="0.54" stop-color="#4916a1"/><stop offset="0.62" stop-color="#4b17a4"/><stop offset="0.69" stop-color="#521aaf"/><stop offset="0.76" stop-color="#5d1ec1"/><stop offset="0.82" stop-color="#6b24d6"/><stop offset="0.94" stop-color="#5b1dbd"/><stop offset="1" stop-color="#531ab0"/></linearGradient><linearGradient id="linear-gradient-45" x1="113.9" y1="87.05" x2="192.04" y2="87.05" gradientUnits="userSpaceOnUse"><stop offset="0.01" stop-color="#c1a1d5"/><stop offset="0.04" stop-color="#c8abda"/><stop offset="0.1" stop-color="#dac6e6"/><stop offset="0.18" stop-color="#f7f2f9"/><stop offset="0.2" stop-color="#fff"/><stop offset="0.23" stop-color="#f9f5fb"/><stop offset="0.29" stop-color="#e9dbf2"/><stop offset="0.36" stop-color="#d1b4e3"/><stop offset="0.43" stop-color="#b395d6"/><stop offset="0.49" stop-color="#9c7dcb"/><stop offset="0.56" stop-color="#8e6ec5"/><stop offset="0.61" stop-color="#8969c3"/><stop offset="0.76" stop-color="#9471c6"/><stop offset="1" stop-color="#b086cc"/></linearGradient><linearGradient id="linear-gradient-46" x1="138.24" y1="21.71" x2="179.43" y2="38.4" gradientUnits="userSpaceOnUse"><stop offset="0" stop-color="#5c1ccc"/><stop offset="0.04" stop-color="#6323d0"/><stop offset="0.09" stop-color="#7538da"/><stop offset="0.16" stop-color="#9259ea"/><stop offset="0.19" stop-color="#a56ef4"/><stop offset="0.34" stop-color="#7945d1"/><stop offset="0.44" stop-color="#6d37c7"/><stop offset="0.6" stop-color="#5e27ba"/><stop offset="0.77" stop-color="#561db2"/><stop offset="1" stop-color="#531ab0"/></linearGradient><linearGradient id="linear-gradient-47" x1="171.3" y1="19.58" x2="118.1" y2="45.63" xlink:href="#linear-gradient-46"/><radialGradient id="radial-gradient" cx="153.22" cy="-2960.97" r="55.45" gradientTransform="translate(0 4824.6) scale(1 1.6)" gradientUnits="userSpaceOnUse"><stop offset="0.53" stop-color="#fff"/><stop offset="0.6" stop-color="#fbfafd"/><stop offset="0.68" stop-color="#efecf6"/><stop offset="0.76" stop-color="#dcd5ea"/><stop offset="0.85" stop-color="#c0b4da"/><stop offset="0.95" stop-color="#9e8bc5"/><stop offset="1" stop-color="#8770b8"/></radialGradient><radialGradient id="radial-gradient-2" cx="20043.11" cy="10303.19" r="66.31" gradientTransform="matrix(-0.22, 0.06, -0.24, -0.97, 7098.53, 8973.7)" gradientUnits="userSpaceOnUse"><stop offset="0" stop-color="#972a74"/><stop offset="0.02" stop-color="#8c276c"/><stop offset="0.11" stop-color="#671d4f"/><stop offset="0.21" stop-color="#471437"/><stop offset="0.32" stop-color="#2d0d23"/><stop offset="0.43" stop-color="#190713"/><stop offset="0.57" stop-color="#0b0308"/><stop offset="0.73" stop-color="#020102"/><stop offset="1"/></radialGradient><linearGradient id="linear-gradient-48" x1="124.32" y1="84.98" x2="145.56" y2="121.77" xlink:href="#linear-gradient-44"/><linearGradient id="linear-gradient-49" x1="115.64" y1="105.91" x2="145.27" y2="105.91" gradientUnits="userSpaceOnUse"><stop offset="0.04" stop-color="#a56ef4"/><stop offset="0.36" stop-color="#c994ff"/><stop offset="0.54" stop-color="#b379f5"/><stop offset="0.91" stop-color="#7935dc"/><stop offset="1" stop-color="#6b24d6"/></linearGradient><linearGradient id="New_Gradient_Swatch_copy_7" x1="138.65" y1="120.09" x2="121.81" y2="90.92" gradientUnits="userSpaceOnUse"><stop offset="0.04" stop-color="#138bbd"/><stop offset="0.23" stop-color="#169ac7"/><stop offset="0.59" stop-color="#1fc3df"/><stop offset="1" stop-color="#2af6ff"/></linearGradient><linearGradient id="White_Black_1" x1="118.8" y1="88.59" x2="134.33" y2="108.08" xlink:href="#New_Gradient_Swatch_1"/><linearGradient id="linear-gradient-50" x1="135.47" y1="122.44" x2="118.71" y2="93.42" gradientUnits="userSpaceOnUse"><stop offset="0" stop-color="#5c1ccc"/><stop offset="0.23" stop-color="#ba85ff"/><stop offset="0.38" stop-color="#7945d1"/><stop offset="0.54" stop-color="#4916a1"/><stop offset="0.61" stop-color="#4b17a4"/><stop offset="0.68" stop-color="#521aaf"/><stop offset="0.74" stop-color="#5d1ec1"/><stop offset="0.79" stop-color="#6b24d6"/><stop offset="0.93" stop-color="#5b1dbd"/><stop offset="1" stop-color="#531ab0"/></linearGradient><radialGradient id="Radial_Gradient_1" cx="133.37" cy="105.5" r="15.9" xlink:href="#New_Gradient_Swatch_1"/><linearGradient id="linear-gradient-51" x1="111.8" y1="188.99" x2="132.19" y2="126.6" gradientUnits="userSpaceOnUse"><stop offset="0.2" stop-color="#7734dc"/><stop offset="0.39" stop-color="#8c4fe7"/><stop offset="0.59" stop-color="#a56ef4"/><stop offset="0.67" stop-color="#ba8aff"/><stop offset="0.8" stop-color="#a067f1"/><stop offset="1" stop-color="#9155ea"/></linearGradient><linearGradient id="New_Gradient_Swatch_copy_13-3" x1="111.31" y1="167.86" x2="181.29" y2="146.91" xlink:href="#New_Gradient_Swatch_copy_13"/><radialGradient id="Radial_Gradient_1-2" cx="-387.62" cy="-461.87" r="26.22" gradientTransform="translate(478.95 569.48) scale(0.89)" xlink:href="#New_Gradient_Swatch_1"/><linearGradient id="linear-gradient-52" x1="188.35" y1="169.26" x2="177.23" y2="136.36" gradientUnits="userSpaceOnUse"><stop offset="0.04" stop-color="#6b24d6"/><stop offset="0.19" stop-color="#7733dc"/><stop offset="0.2" stop-color="#7734dc"/><stop offset="0.39" stop-color="#8c4fe7"/><stop offset="0.59" stop-color="#a56ef4"/><stop offset="0.67" stop-color="#ba8aff"/><stop offset="0.8" stop-color="#a067f1"/><stop offset="1" stop-color="#9155ea"/></linearGradient><linearGradient id="New_Gradient_Swatch_copy_13-4" x1="83.12" y1="176.74" x2="192.35" y2="152.26" gradientTransform="matrix(-1, 0, 0, 1, 321.33, 0)" xlink:href="#New_Gradient_Swatch_copy_13"/><radialGradient id="Radial_Gradient_1-3" cx="174.59" cy="155.65" r="23.32" xlink:href="#New_Gradient_Swatch_1"/></defs><title>Zeichenfläche 1</title><g class="cls-1"><g id="Ebene_1" data-name="Ebene 1"><path class="cls-2" d="M199.47,236.19c-.6,0-1.19,0-1.77.08a6.45,6.45,0,0,0,.16-1.37c0-5.62-7.31-10.17-16.33-10.17a22.11,22.11,0,0,0-11.61,3c-2.89-4-9.3-6.76-16.77-6.76-6.51,0-12.22,2.11-15.49,5.29a20,20,0,0,0-10.56-2.77c-7.41,0-13.53,3.4-14.6,7.83-.68-.06-1.38-.1-2.08-.1-8.51,0-15.41,4.3-15.41,9.59s6.9,9.59,15.41,9.59c7.94,0,14.48-3.74,15.31-8.55.45,0,.91,0,1.37,0a19.67,19.67,0,0,0,10.87-3c3.32,3,8.88,5,15.18,5,5.66,0,10.71-1.59,14.09-4.09,2.79,3.13,8.14,5.25,14.29,5.25a25.6,25.6,0,0,0,4.72-.43c.18,4.46,6,8,13.23,8s13.24-3.69,13.24-8.24S206.78,236.19,199.47,236.19Z"/><path class="cls-3" d="M111.06,231.2c.65,0,1.31,0,2,0,.89-3.27,4.76-6,9.9-6.95a22.74,22.74,0,0,1,4.45-.38,21.31,21.31,0,0,1,6.59,1.09,20.37,20.37,0,0,1,3.68,1.65,23.3,23.3,0,0,1,3.26-2.28,24.52,24.52,0,0,1,12.23-3,23.72,23.72,0,0,1,13.12,3.57,18.66,18.66,0,0,1,3.66,3.19,28.24,28.24,0,0,1,2.59-1.27,23,23,0,0,1,9-1.75c7,0,12.86,2.81,15,6.5h0a3.08,3.08,0,0,1,.16.31,8,8,0,0,1,.76,3.13,7.12,7.12,0,0,1-.12,1.33c.55,0,1.1,0,1.68,0a29.47,29.47,0,0,1,4.87.71l.43.1c.51.12,1,.27,1.45.43,4,1.34,6.54,3.92,6.54,6.69,0,2.44-2,4.79-5.32,6.17a19.29,19.29,0,0,1-8.18,1.33,21.35,21.35,0,0,1-4.14-.77,28.5,28.5,0,0,1-3.27-1.06l-.86-.36a11.3,11.3,0,0,1-3-2,6.07,6.07,0,0,1-2-3.63,24.78,24.78,0,0,1-4.7.23c-.59,0-1.16-.08-1.72-.16-1.44-.19-2.86-.45-4.21-.75-1.09-.24-2.12-.51-3.08-.82a14.58,14.58,0,0,1-5.3-3,18.81,18.81,0,0,1-4.32,2.16,26.4,26.4,0,0,1-9.85,1.4c-.68,0-1.35-.09-2-.17-1.25-.16-2.49-.36-3.69-.58-1-.19-2-.39-2.92-.63a18.33,18.33,0,0,1-6.59-3.11l-.5.29c-.29.16-.59.31-.9.46l-.24.11a30.1,30.1,0,0,1-6.64,2.13,19.73,19.73,0,0,1-2.39.29c-.45,0-.9,0-1.35,0a8.72,8.72,0,0,1-4.68,5.36,22.25,22.25,0,0,1-10.85,2.17c-7.74-.21-13.46-4.29-13.08-9.12a6.31,6.31,0,0,1,1.06-3.1,7.87,7.87,0,0,1,.52-.69C100.45,233.57,105.46,231.44,111.06,231.2Z"/><path class="cls-4" d="M111.71,231.17c.59-.06,1.21-.1,1.86-.13.94-3.07,4.73-5.65,9.78-6.52a22.42,22.42,0,0,1,4.33-.32,20.44,20.44,0,0,1,6.38,1.15,27.81,27.81,0,0,1,3.59,1.57c1-.72,2.1-1.46,3.3-2.2a23.64,23.64,0,0,1,12.19-3.09c5.38,0,10.06,1.5,13.06,3.67a33.14,33.14,0,0,1,3.71,3.08c.81-.4,1.69-.81,2.61-1.23a22.23,22.23,0,0,1,9-1.79c7,0,12.69,2.85,14.57,6.35h0a1.88,1.88,0,0,1,.14.31,10,10,0,0,1,.69,3.07,8.14,8.14,0,0,1-.07,1.29c.51,0,1,.07,1.58.13,1.62.19,3.25.5,4.77.81l.43.09c.51.11,1,.24,1.44.38,4.09,1.24,6.69,3.77,6.69,6.32,0,2.26-2.1,4.62-5.59,5.85a19.06,19.06,0,0,1-8.16.89,25,25,0,0,1-3.92-1.08c-1.13-.35-2.24-.7-3.26-1.07l-.87-.32a11.74,11.74,0,0,1-3.1-1.72,6.13,6.13,0,0,1-2.29-3.32,23.77,23.77,0,0,1-4.68,0c-.59-.06-1.15-.15-1.68-.26l-4.18-.85c-1.09-.22-2.13-.41-3.08-.63a14.91,14.91,0,0,1-5.37-2.44,19,19,0,0,1-4.39,2,25.78,25.78,0,0,1-9.87,1c-.68-.06-1.33-.16-2-.28-1.23-.23-2.47-.46-3.67-.65-1-.17-2-.31-2.92-.47a18.23,18.23,0,0,1-6.67-2.6l-.51.26c-.3.14-.6.28-.92.41l-.25.1c-2,.79-4.31,1.74-6.49,2.35a15.72,15.72,0,0,1-2.31.45c-.44.05-.88.07-1.33.1a8.71,8.71,0,0,1-5,5,23.24,23.24,0,0,1-10.78,1.51c-7-.41-11.52-4.23-10.75-8.65A6.26,6.26,0,0,1,98.92,237a7.82,7.82,0,0,1,.51-.62C101.88,233.69,106.61,231.65,111.71,231.17Z"/><path class="cls-5" d="M112.36,231.14c.54-.08,1.12-.17,1.74-.25,1-2.87,4.7-5.32,9.66-6.09a22.08,22.08,0,0,1,4.21-.25,19.57,19.57,0,0,1,6.17,1.2c1.25.48,2.44,1,3.5,1.49,1-.64,2.16-1.36,3.34-2.12A22.8,22.8,0,0,1,153.14,222c5.49,0,10.16,1.58,13,3.78,1.37,1.06,2.68,2.09,3.77,3,.83-.36,1.72-.75,2.63-1.18a21.52,21.52,0,0,1,9-1.84c7,0,12.51,2.89,14.19,6.19h0a1.35,1.35,0,0,1,.12.3,13.43,13.43,0,0,1,.62,3,9.82,9.82,0,0,1,0,1.26c.48.07,1,.14,1.49.24,1.55.29,3.16.64,4.68.92l.43.08c.51.09,1,.21,1.43.33,4.22,1.13,6.84,3.63,6.84,6,0,2.07-2.17,4.44-5.86,5.54a18.16,18.16,0,0,1-8.14.46,34.45,34.45,0,0,1-3.71-1.39c-1.11-.39-2.22-.75-3.26-1.07l-.88-.27a12.31,12.31,0,0,1-3.18-1.49,6.36,6.36,0,0,1-2.54-3,22.63,22.63,0,0,1-4.66-.19,14.89,14.89,0,0,1-1.65-.36c-1.36-.37-2.78-.71-4.14-.95-1.09-.19-2.13-.32-3.08-.45a15.3,15.3,0,0,1-5.44-1.88,19.24,19.24,0,0,1-4.46,1.83,25.14,25.14,0,0,1-9.88.63,17.82,17.82,0,0,1-1.94-.38,36.87,36.87,0,0,0-3.65-.73c-1-.15-2-.23-2.92-.32a18,18,0,0,1-6.74-2.08l-.52.23c-.3.13-.61.25-.93.36l-.26.09c-2.09.71-4.33,1.79-6.34,2.57a12.27,12.27,0,0,1-2.22.61c-.43.08-.87.12-1.32.17a8.82,8.82,0,0,1-5.23,4.61c-3.68,1.39-7.6,1.17-10.72.86-6.17-.61-9.59-4.13-8.43-8.17a6.29,6.29,0,0,1,1.18-2.46c.16-.18.32-.37.5-.55C103.31,233.8,107.77,231.85,112.36,231.14Z"/><path class="cls-6" d="M113,231.11c.48-.11,1-.24,1.63-.36,1-2.67,4.67-5,9.54-5.67a21.72,21.72,0,0,1,4.09-.18,18.7,18.7,0,0,1,6,1.26c1.2.49,2.37,1,3.41,1.4a37.19,37.19,0,0,0,3.37-2,22,22,0,0,1,12.12-3.25c5.59,0,10.27,1.68,12.95,3.88,1.33,1.1,2.67,2.1,3.83,2.88.84-.31,1.74-.69,2.65-1.13a20.85,20.85,0,0,1,9-1.89c7,0,12.34,2.93,13.8,6h0a1.06,1.06,0,0,1,.1.3,21.16,21.16,0,0,1,.55,2.94c0,.42,0,.82,0,1.22l1.4.35c1.48.39,3.07.78,4.58,1l.43.07c.51.07,1,.18,1.42.28,4.36,1,7,3.48,7,5.59,0,1.88-2.23,4.27-6.13,5.23a23.75,23.75,0,0,1-8.13,0,32,32,0,0,0-3.49-1.7,28.4,28.4,0,0,0-3.26-1.08l-.89-.23a13,13,0,0,1-3.25-1.26,6.78,6.78,0,0,1-2.78-2.69,21.42,21.42,0,0,1-4.64-.39,12.7,12.7,0,0,1-1.61-.46,23.35,23.35,0,0,0-4.11-1,27.7,27.7,0,0,0-3.08-.27,15.71,15.71,0,0,1-5.5-1.33,19.56,19.56,0,0,1-4.53,1.67,24.47,24.47,0,0,1-9.89.25,15.69,15.69,0,0,1-1.91-.49,20.59,20.59,0,0,0-3.63-.81,24.43,24.43,0,0,0-2.92-.17,17.66,17.66,0,0,1-6.82-1.56l-.53.2c-.31.11-.63.22-.95.31l-.26.07a34.49,34.49,0,0,0-6.19,2.79,9.62,9.62,0,0,1-2.14.77c-.42.1-.85.17-1.3.23a9.08,9.08,0,0,1-5.51,4.24c-4,1.26-7.92.61-10.65.2-5.38-.81-8.36-4.33-6.1-7.7a4.51,4.51,0,0,1,1.24-2.14c.16-.16.32-.32.49-.48C104.75,233.92,108.93,232.05,113,231.11Z"/><path class="cls-7" d="M113.66,231.08c.43-.14.93-.32,1.51-.48,1.1-2.47,4.64-4.66,9.42-5.24a21.33,21.33,0,0,1,4-.11,17.84,17.84,0,0,1,5.76,1.32c1.16.5,2.29.94,3.32,1.32a19.6,19.6,0,0,0,3.41-2,21.25,21.25,0,0,1,12.08-3.33c5.7,0,10.38,1.77,12.89,4a22.38,22.38,0,0,0,3.88,2.77,17.35,17.35,0,0,0,2.66-1.08,20.22,20.22,0,0,1,8.94-1.94c7,0,12.17,3,13.42,5.89h0a.89.89,0,0,1,.08.29c.15.94.38,1.9.48,2.87,0,.4.06.8.08,1.18.41.15.84.3,1.3.46a23.9,23.9,0,0,0,4.49,1.13l.43.05c.52.06,1,.14,1.41.23,4.5.89,7.13,3.33,7.13,5.23,0,1.7-2.29,4.09-6.41,4.91a22,22,0,0,1-8.11-.42,15.8,15.8,0,0,0-3.27-2,17.12,17.12,0,0,0-3.26-1.09l-.9-.18a13.83,13.83,0,0,1-3.32-1,7.46,7.46,0,0,1-3-2.38,20.18,20.18,0,0,1-4.62-.6,11,11,0,0,1-1.58-.56,15.42,15.42,0,0,0-4.08-1.15,16.34,16.34,0,0,0-3.08-.08,16,16,0,0,1-5.57-.78,19.94,19.94,0,0,1-4.6,1.51,23.81,23.81,0,0,1-9.91-.13,14.07,14.07,0,0,1-1.87-.59,14.28,14.28,0,0,0-3.61-.89,15.56,15.56,0,0,0-2.92,0,17.2,17.2,0,0,1-6.89-1l-.54.18c-.32.1-.64.18-1,.26l-.27.06a19,19,0,0,0-6,3,7.68,7.68,0,0,1-2.06.93c-.4.12-.83.21-1.28.3a9.48,9.48,0,0,1-5.79,3.86c-4.31,1.11-8.22.07-10.59-.45-4.58-1-6.6-4.34-3.77-7.23a4.19,4.19,0,0,1,1.3-1.83c.15-.13.31-.28.49-.41A37.31,37.31,0,0,1,113.66,231.08Z"/><path class="cls-8" d="M114.31,231c.37-.17.84-.39,1.4-.59,1.15-2.27,4.61-4.33,9.3-4.81a20.91,20.91,0,0,1,3.85,0,17,17,0,0,1,5.55,1.38,27.41,27.41,0,0,0,3.24,1.23,13.29,13.29,0,0,0,3.45-1.88c2.5-1.86,6.71-3.41,12-3.41,5.8,0,10.48,1.87,12.84,4.09a14.21,14.21,0,0,0,3.94,2.67,12.35,12.35,0,0,0,2.68-1,19.62,19.62,0,0,1,8.93-2c7,0,12,3,13,5.73h0a.79.79,0,0,1,.06.29c.08.92.29,1.86.41,2.8,0,.39.08.77.12,1.14.37.19.78.37,1.21.57a15.5,15.5,0,0,0,4.39,1.24l.43,0c.52,0,1,.11,1.4.18,4.64.77,7.28,3.19,7.28,4.86,0,1.51-2.36,3.91-6.68,4.6a19.47,19.47,0,0,1-8.1-.85,10.39,10.39,0,0,0-3.05-2.32,12.29,12.29,0,0,0-3.26-1.1c-.31-.06-.61-.1-.91-.14a14.79,14.79,0,0,1-3.39-.8,8.44,8.44,0,0,1-3.28-2.07,19,19,0,0,1-4.6-.81,9.79,9.79,0,0,1-1.54-.66,11.1,11.1,0,0,0-7.14-1.14,16.27,16.27,0,0,1-5.64-.23,20.38,20.38,0,0,1-4.67,1.35,23.15,23.15,0,0,1-9.92-.51,12.85,12.85,0,0,1-1.84-.7,10.94,10.94,0,0,0-3.59-1,11.37,11.37,0,0,0-2.92.14,16.67,16.67,0,0,1-7-.52l-.55.15c-.32.08-.65.15-1,.21l-.28.05a12.93,12.93,0,0,0-5.89,3.23,6.3,6.3,0,0,1-2,1.09,12.43,12.43,0,0,1-1.27.37,10,10,0,0,1-6.06,3.49c-4.63,1-8.52-.48-10.52-1.11-3.77-1.19-4.84-4.34-1.44-6.75a4,4,0,0,1,1.36-1.51c.15-.11.31-.23.48-.34A83.64,83.64,0,0,1,114.31,231Z"/><path class="cls-9" d="M115,231a10.32,10.32,0,0,1,1.29-.71c1.2-2.07,4.58-4,9.18-4.38a20.45,20.45,0,0,1,3.73,0,16.13,16.13,0,0,1,5.35,1.43,16.44,16.44,0,0,0,3.15,1.15,10.05,10.05,0,0,0,3.48-1.79c2.37-1.86,6.57-3.49,12-3.49,5.91,0,10.58,2,12.78,4.19a10.42,10.42,0,0,0,4,2.57,9.61,9.61,0,0,0,2.7-1,19.06,19.06,0,0,1,8.91-2c7,0,11.82,3.05,12.65,5.58h0a.74.74,0,0,1,0,.28,23,23,0,0,0,.34,2.74c.06.38.11.75.17,1.11a12.55,12.55,0,0,0,1.12.67,11.31,11.31,0,0,0,4.3,1.35l.43,0c.52,0,1,.08,1.39.13,4.79.63,7.43,3,7.43,4.5s-2.42,3.74-6.95,4.29a16.7,16.7,0,0,1-8.08-1.29,7.88,7.88,0,0,0-2.83-2.63,9.6,9.6,0,0,0-3.25-1.1c-.31,0-.62-.07-.92-.09a15.85,15.85,0,0,1-3.47-.57,9.81,9.81,0,0,1-3.53-1.76,17.81,17.81,0,0,1-4.58-1,8.85,8.85,0,0,1-1.51-.76,9.17,9.17,0,0,0-4-1.35,9,9,0,0,0-3.09.29,16.35,16.35,0,0,1-5.71.33,20.88,20.88,0,0,1-4.73,1.18,22.51,22.51,0,0,1-9.94-.89,11.94,11.94,0,0,1-1.81-.8,8.78,8.78,0,0,0-6.49-.75,16.1,16.1,0,0,1-7,0l-.56.12c-.33.06-.66.12-1,.16l-.28,0a9.76,9.76,0,0,0-5.73,3.44,5.32,5.32,0,0,1-1.89,1.25,11.63,11.63,0,0,1-1.25.44,10.8,10.8,0,0,1-6.34,3.12,17.77,17.77,0,0,1-10.46-1.76c-2.95-1.34-3.08-4.35.89-6.28a4.08,4.08,0,0,1,1.41-1.19l.47-.26C109.08,234.29,112.44,232.61,115,231Z"/><path class="cls-10" d="M115.61,231a6.47,6.47,0,0,1,1.17-.82c1.25-1.87,4.55-3.67,9.06-4a19.94,19.94,0,0,1,3.61.09,15.29,15.29,0,0,1,5.14,1.49,11.33,11.33,0,0,0,3.06,1.07,8.1,8.1,0,0,0,3.52-1.71c2.25-1.86,6.43-3.57,12-3.57,6,0,10.68,2.07,12.72,4.3a8.25,8.25,0,0,0,4.05,2.46,7.88,7.88,0,0,0,2.72-.94,18.52,18.52,0,0,1,8.89-2.08c6.94,0,11.65,3.09,12.27,5.42h0a.74.74,0,0,1,0,.27,12.91,12.91,0,0,0,.27,2.67c.07.37.14.72.22,1.07a9.05,9.05,0,0,0,5.23,2.24l.43,0c.52,0,1,0,1.38.08,4.93.49,7.58,2.89,7.58,4.13s-2.48,3.56-7.22,4a14.13,14.13,0,0,1-8.07-1.73,6.54,6.54,0,0,0-2.61-2.94,7.9,7.9,0,0,0-3.25-1.11,8,8,0,0,0-.93,0,17,17,0,0,1-3.54-.34,11.62,11.62,0,0,1-3.78-1.44,16.73,16.73,0,0,1-4.56-1.22,8.15,8.15,0,0,1-1.47-.86,7.62,7.62,0,0,0-4-1.45,7.35,7.35,0,0,0-3.09.47,16.3,16.3,0,0,1-5.78.88,21.44,21.44,0,0,1-4.8,1,21.9,21.9,0,0,1-10-1.27,11.26,11.26,0,0,1-1.78-.91,7.42,7.42,0,0,0-6.48-.68,15.55,15.55,0,0,1-7.12.52l-.57.09c-.34,0-.68.09-1,.11l-.29,0A7.86,7.86,0,0,0,123,240a4.63,4.63,0,0,1-1.8,1.41,11,11,0,0,1-1.23.51,11.76,11.76,0,0,1-6.62,2.75A15.61,15.61,0,0,1,103,242.24c-2.12-1.45-1.31-4.36,3.22-5.81a4.56,4.56,0,0,1,1.47-.87l.46-.19A27.1,27.1,0,0,0,115.61,231Z"/><path class="cls-11" d="M116.26,231a4.39,4.39,0,0,1,1.06-.94c1.3-1.67,4.52-3.33,8.94-3.53a19.38,19.38,0,0,1,3.48.15,14.45,14.45,0,0,1,4.93,1.55,8.4,8.4,0,0,0,3,1,6.8,6.8,0,0,0,3.56-1.63c2.13-1.85,6.29-3.65,11.94-3.65,6.12,0,10.77,2.17,12.67,4.4a6.86,6.86,0,0,0,4.11,2.36,6.7,6.7,0,0,0,2.74-.9,18,18,0,0,1,8.87-2.12c6.93,0,11.47,3.13,11.89,5.27h0a.81.81,0,0,1,0,.27,8.81,8.81,0,0,0,.2,2.61,9.83,9.83,0,0,0,.27,1,6.8,6.8,0,0,0,.93.89,7.18,7.18,0,0,0,4.11,1.56h.43c.53,0,1,0,1.37,0,5.07.33,7.73,2.75,7.73,3.77s-2.55,3.39-7.49,3.66-7.47-1.67-8.05-2.16a5.8,5.8,0,0,0-2.4-3.25,6.67,6.67,0,0,0-4.19-1.12,18.16,18.16,0,0,1-3.61-.11,13.91,13.91,0,0,1-4-1.13,15.74,15.74,0,0,1-4.54-1.43,7.63,7.63,0,0,1-1.44-1,6.57,6.57,0,0,0-4-1.55,6.34,6.34,0,0,0-3.09.65,16.17,16.17,0,0,1-5.85,1.43,22,22,0,0,1-4.87.86,21.32,21.32,0,0,1-10-1.65,10.78,10.78,0,0,1-1.75-1,6.51,6.51,0,0,0-3.54-1.19,6.43,6.43,0,0,0-2.92.59,15,15,0,0,1-7.2,1l-.58.06c-.35,0-.69.05-1,.06h-.3a6.62,6.62,0,0,0-5.43,3.88,4.14,4.14,0,0,1-1.72,1.57,10.39,10.39,0,0,1-1.22.58,13,13,0,0,1-6.89,2.37c-5.6.41-9.36-2-10.33-3.07-1.32-1.47.67-3.55,5.54-5.33a11.49,11.49,0,0,1,1.53-.56l.45-.12A13.29,13.29,0,0,0,116.26,231Z"/><path class="cls-12" d="M116.91,230.92a3.24,3.24,0,0,1,.95-1.05c1.35-1.47,4.49-3,8.82-3.1A18.75,18.75,0,0,1,130,227a13.63,13.63,0,0,1,4.73,1.61,6.51,6.51,0,0,0,2.88.9,5.89,5.89,0,0,0,3.59-1.55c2-1.85,6.15-3.73,11.9-3.73,6.23,0,10.86,2.28,12.61,4.5a5.9,5.9,0,0,0,4.17,2.26,5.84,5.84,0,0,0,2.75-.85,17.53,17.53,0,0,1,8.85-2.17c6.91,0,11.3,3.17,11.51,5.12h0a1,1,0,0,1,0,.26,6.59,6.59,0,0,0,.13,2.54,6.83,6.83,0,0,0,.32,1,5.76,5.76,0,0,0,.84,1,6,6,0,0,0,4,1.67h.43c.53,0,1,0,1.36,0,5.21.17,7.88,2.6,7.88,3.4s-2.61,3.21-7.76,3.35-7.73-2.05-8-2.6a5.41,5.41,0,0,0-2.18-3.56,5.87,5.87,0,0,0-3.25-1.13,5.78,5.78,0,0,0-.95,0,19.32,19.32,0,0,1-3.68.12,16.7,16.7,0,0,1-4.28-.82,14.86,14.86,0,0,1-4.53-1.64,7.26,7.26,0,0,1-1.41-1.05A5.79,5.79,0,0,0,168,234a5.66,5.66,0,0,0-3.1.84,16,16,0,0,1-5.91,2,22.72,22.72,0,0,1-4.94.7,20.78,20.78,0,0,1-10-2,10.53,10.53,0,0,1-1.72-1.12,5.75,5.75,0,0,0-6.44-.53,14.59,14.59,0,0,1-7.27,1.56l-.59,0c-.35,0-.7,0-1,0h-.3a5.79,5.79,0,0,0-5.28,4.1,3.79,3.79,0,0,1-1.64,1.73,9.92,9.92,0,0,1-1.2.65,14.46,14.46,0,0,1-7.17,2c-5.91.21-9.72-2.42-10.26-3.73s2.27-3.92,7.87-4.86a15.91,15.91,0,0,1,1.59-.24L111,235A7.92,7.92,0,0,0,116.91,230.92Z"/><path class="cls-13" d="M199.47,245.8c-5.36,0-8-2.44-8-3a5.21,5.21,0,0,0-6.17-4.91,20.46,20.46,0,0,1-3.76.34c-5,0-8.85-1.76-10.4-3.5a5.21,5.21,0,0,0-7-.72c-2.6,1.92-6.7,3.07-11,3.07-4.73,0-9.21-1.39-11.68-3.63A5.21,5.21,0,0,0,135,233a14.57,14.57,0,0,1-8,2.09c-.36,0-.71,0-1.06,0h-.31a5.21,5.21,0,0,0-5.13,4.32c-.26,1.48-4,4.23-10.18,4.23s-10.2-2.88-10.2-4.38,4-4.38,10.2-4.38c.47,0,1,0,1.65.08l.44,0a5.21,5.21,0,0,0,5.06-4c.32-1.34,3.88-3.84,9.53-3.84a14.89,14.89,0,0,1,7.76,2,5.21,5.21,0,0,0,6.42-.66c1.9-1.84,6-3.81,11.86-3.81,6.33,0,10.95,2.39,12.55,4.61a5.21,5.21,0,0,0,7,1.35,17.07,17.07,0,0,1,8.83-2.22c6.9,0,11.12,3.21,11.12,5h0a2,2,0,0,1,0,.26,5.21,5.21,0,0,0,5.09,6.32l.43,0c.53,0,1-.06,1.35-.06,5.35,0,8,2.46,8,3S204.82,245.8,199.47,245.8Z"/><path class="cls-14" d="M143.42,179.31c-12.16,38.55-14.06,53.67-33.8,65.51C68.31,269.62,192.41,274,205.4,263.77s-20.9-16.55-26.51-35.71c-9.58-32.7-16-49.43-16-49.43Z"/><path class="cls-15" d="M145.7,180.93c-9.73,37.86-11.25,52.7-27,64.33-33,24.35,66.23,28.69,76.62,18.6s-16.72-16.25-21.21-35.07c-7.66-32.11-12.81-48.54-12.81-48.54Z"/><path class="cls-16" d="M221.31,257.81c0-6.33-8.24-11.46-18.41-11.46l-.72,0c0-.12,0-.25,0-.37,0-6.33-8.24-11.46-18.41-11.46-.58,0-1.16,0-1.73.05-.65-2.79-5.49-5-11.38-5-6.33,0-11.46,2.51-11.46,5.6,0,2.56,3.52,4.72,8.33,5.38a8.25,8.25,0,0,0-2.16,5.38c0,3.78,2.95,7.12,7.47,9.2a24,24,0,0,0-10.75,5.13,18.24,18.24,0,0,0-8.62-1.92,19.76,19.76,0,0,0-7.39,1.32c-3.17-6.13-12.39-10.56-23.29-10.56-.5,0-1,0-1.49,0a10,10,0,0,0-3.33-4.8c3.75-.92,6.32-2.81,6.32-5,0-3.09-5.13-5.6-11.46-5.6s-11.46,2.51-11.46,5.6a2.75,2.75,0,0,0,0,.4c-9.33.56-16.63,5.45-16.63,11.41,0,3.92,3.17,7.37,8,9.44a3.42,3.42,0,0,0-1,2.33c0,2.39,3.06,4.42,7.36,5.23,2.51,6.1,10.94,10.73,21.25,11.36,2,1.68,5.68,2.82,9.94,2.82a22.76,22.76,0,0,0,3.27-.23c2.82,4.07,9.31,6.92,16.88,6.92,5.82,0,11-1.69,14.35-4.32a22.32,22.32,0,0,0,4.05.37c4.49,0,8.36-1.26,10.24-3.1.41,0,.81,0,1.22,0,10,0,15.92-4.09,19.16-7.65l.64,0c6.33,0,11.46-2.51,11.46-5.6a2.79,2.79,0,0,0,0-.46C216.32,267.15,221.31,264.32,221.31,257.81Z"/><path class="cls-17" d="M101.43,239.91a4.87,4.87,0,0,1,2.4-3.22,14.61,14.61,0,0,1,2.53-1.4,19.93,19.93,0,0,1,6.5-1,22,22,0,0,1,3.62.29,11.37,11.37,0,0,1,4.32,1.88,5.68,5.68,0,0,1,2.64,3.77,3.29,3.29,0,0,1-.9,2.43,8.36,8.36,0,0,1-4.25,2.67l.16.13q.51.39,1,.81a9.32,9.32,0,0,1,2.43,3.45c.5,0,1,0,1.49,0a32.75,32.75,0,0,1,14.46,3.41,40.81,40.81,0,0,1,4.82,3c.55.4,1.07.8,1.54,1.21a13.61,13.61,0,0,1,2.47,2.82,14.79,14.79,0,0,1,1.44-.46,20.41,20.41,0,0,1,6-.63c.9,0,1.79.11,2.64.2a29.37,29.37,0,0,1,3.7.61,13,13,0,0,1,2.21.75,21,21,0,0,1,5.95-3.5c1.52-.6,3.12-1.18,4.75-1.67-.38-.22-.75-.46-1.11-.7a19.08,19.08,0,0,1-4.69-4.34,7.71,7.71,0,0,1-1.58-4.17,6.34,6.34,0,0,1,.16-1.87,7.13,7.13,0,0,1,.85-2,13.71,13.71,0,0,1,1.05-1.5,19.09,19.09,0,0,1-3.33-1.13,9.32,9.32,0,0,1-4.37-3.29,2.75,2.75,0,0,1-.36-1.13c.09-1.49,1.47-2.84,3.64-3.76a19,19,0,0,1,7.57-1.3,22.32,22.32,0,0,1,2.46.19c4.07.64,7.39,2.33,8.34,4.32a2.72,2.72,0,0,1,.14.38c.55,0,1.11-.05,1.67-.05h.5c9.68.15,17.35,5,17.45,10.91,0,.12,0,.24,0,.36l.67,0,.18,0c1.28.14,2.58.37,3.87.64s2.64.59,3.88.95c.22.06.49.13.7.21,5.88,1.78,9.84,5.54,9.84,9.69,0,6-4.54,8.83-9.34,10.09a2.58,2.58,0,0,1,0,.42,2.71,2.71,0,0,1-.29,1.1c-1.19,2.36-5.53,4.23-10.54,4.42h-.64A18.89,18.89,0,0,1,196,277c-.14.09-.33.19-.48.28-1.06.63-2.25,1.22-3.51,1.81a27.36,27.36,0,0,1-11.27,2.44c-.42,0-.82,0-1.23,0a9,9,0,0,1-2.22,1.34l-.39.16-.49.18-.13,0a28.12,28.12,0,0,1-3.54,1,20.14,20.14,0,0,1-3.59.38,21.69,21.69,0,0,1-2.78-.13q-.67-.07-1.31-.19-.6.4-1.25.76l-.75.39c-.89.45-1.85.89-2.85,1.31a25.68,25.68,0,0,1-9.64,1.83h-1a23.19,23.19,0,0,1-12.11-3.49,21,21,0,0,1-3.53-3l-.41-.46a22.13,22.13,0,0,1-2.69.22h-.55a19.27,19.27,0,0,1-6.7-1.13,13.1,13.1,0,0,1-3.16-1.69c-7.6-.47-14.06-3.13-17.78-6.82a19.81,19.81,0,0,1-3.19-4q-.15-.25-.28-.51a17.67,17.67,0,0,1-1.82-.45A14.13,14.13,0,0,1,95,266.06c-1.67-1.07-2.82-2.36-2.93-3.73a3,3,0,0,1,.83-2.18c-3.44-1.49-6-3.71-7-6.26a6.91,6.91,0,0,1-.51-2.83c.16-5.6,7.11-10.25,16.11-10.79A2.09,2.09,0,0,1,101.43,239.91Z"/><path class="cls-18" d="M101.46,240.42a5.86,5.86,0,0,1,2.53-3.08,20.85,20.85,0,0,1,2.39-1.53,19.22,19.22,0,0,1,6.47-1.06,21.31,21.31,0,0,1,3.63.3,8.82,8.82,0,0,1,3.53,2.07,7.68,7.68,0,0,1,2.55,3.91,3.14,3.14,0,0,1-.64,2.41,6.59,6.59,0,0,1-3.32,2.78l.17.11c.35.23.69.48,1,.73a9.56,9.56,0,0,1,2.63,3.14c.5,0,1,0,1.49,0A30.43,30.43,0,0,1,138.18,254c1.67,1,3.33,2,4.8,3,.56.36,1.1.7,1.58,1a13.78,13.78,0,0,1,2.61,2.45,14.67,14.67,0,0,1,1.45-.42,19.69,19.69,0,0,1,6-.44c.89.07,1.78.16,2.63.24,1.33.13,2.59.25,3.68.41a13.26,13.26,0,0,1,2.19.53,21,21,0,0,1,6-3.4c1.54-.58,3.12-1.22,4.65-1.82-.32-.24-.64-.5-1-.77a34.08,34.08,0,0,1-4.52-4.44,7.67,7.67,0,0,1-1.79-4,5.61,5.61,0,0,1,.07-1.86,6.36,6.36,0,0,1,.86-2c.32-.51.67-1,1-1.5a23.33,23.33,0,0,1-3-1.39,12.86,12.86,0,0,1-4.35-3.29,2.65,2.65,0,0,1-.45-1c.18-1.36,1.54-2.61,3.64-3.42a18.69,18.69,0,0,1,7.32-1.09A21.21,21.21,0,0,1,174,231c3.74.78,6.94,2.43,8,4.23a2.47,2.47,0,0,1,.16.34c.53,0,1.07-.05,1.61-.05h.48c9.42.14,16.8,4.84,17,10.37,0,.12,0,.23,0,.34l.61.06.16,0c1.14.28,2.36.62,3.63,1s2.61.67,3.87,1c.2.06.51.12.7.18,6.08,1.6,10.18,5.36,10.18,9.35,0,5.55-4.08,8.33-8.91,9.61a2.38,2.38,0,0,1,0,.39,2.53,2.53,0,0,1-.33,1c-1.27,2.19-5.34,4-9.87,4.44l-.63,0a16.81,16.81,0,0,1-4.24,3c-.12.08-.36.17-.5.25-1.08.59-2.31,1.16-3.54,1.8a26,26,0,0,1-11.25,2.76c-.42,0-.82,0-1.24,0a9.65,9.65,0,0,1-2.28,1.22l-.39.14-.5.16-.13,0c-1.1.33-2.3.72-3.55,1a18,18,0,0,1-3.59.48,21,21,0,0,1-2.8-.09q-.68-.07-1.32-.17c-.41.23-.85.46-1.29.66l-.77.35-2.88,1.29a24.56,24.56,0,0,1-9.68,2h-1a22.07,22.07,0,0,1-12.16-3.61c-1.33-1-2.58-2-3.61-2.88l-.45-.41a21.62,21.62,0,0,1-2.68.22h-.55a16.9,16.9,0,0,1-9.78-2.81c-7.74-.48-14.2-3.25-17.68-7a36.42,36.42,0,0,1-3.25-3.95q-.16-.23-.31-.47a16.89,16.89,0,0,1-1.82-.46,16.8,16.8,0,0,1-2.11-1.38c-1.53-1.14-2.72-2.42-2.94-3.73a2.63,2.63,0,0,1,.62-2c-3.31-1.46-5.73-3.61-6.67-6a6.38,6.38,0,0,1-.41-2.7c.31-5.24,6.93-9.65,15.59-10.18A1.6,1.6,0,0,1,101.46,240.42Z"/><path class="cls-19" d="M101.49,240.93a7.52,7.52,0,0,1,2.67-3c.72-.56,1.48-1.14,2.25-1.67a18.5,18.5,0,0,1,6.44-1.09,20.69,20.69,0,0,1,3.63.31,7.62,7.62,0,0,1,2.73,2.27,11.9,11.9,0,0,1,2.46,4.05,3,3,0,0,1-.38,2.39c-.74,1.36-1.39,2.49-2.39,2.89l.17.1c.36.21.71.42,1,.64a10.07,10.07,0,0,1,2.83,2.82c.5,0,1,0,1.49,0a28.42,28.42,0,0,1,14.11,4.17c1.6,1.08,3.27,2.11,4.78,2.94.57.31,1.12.6,1.63.89a14,14,0,0,1,2.75,2.08,14.66,14.66,0,0,1,1.46-.38,18.92,18.92,0,0,1,6-.25c.88.11,1.77.22,2.62.29,1.32.11,2.58.16,3.65.22a13.57,13.57,0,0,1,2.16.31,21,21,0,0,1,6.05-3.3,42.93,42.93,0,0,0,4.55-2l-.82-.83c-1.44-1.47-3-3.08-4.35-4.53a7.68,7.68,0,0,1-2-3.88,5,5,0,0,1,0-1.85,5.72,5.72,0,0,1,.86-2c.33-.5.67-1,1-1.51-.85-.45-1.74-1-2.67-1.64a21.11,21.11,0,0,1-4.33-3.29,2.65,2.65,0,0,1-.54-.95c.27-1.24,1.61-2.38,3.64-3.08a18.4,18.4,0,0,1,7.06-.88,19.78,19.78,0,0,1,2.26.3c3.4.92,6.49,2.52,7.66,4.15a2.31,2.31,0,0,1,.18.3c.51,0,1,0,1.56-.05h.47c9.17.12,16.26,4.64,16.57,9.82,0,.11,0,.22,0,.33l.55.1.14.06c1,.41,2.15.88,3.39,1.3s2.59.75,3.85,1.07c.18,0,.54.1.7.16,6.29,1.42,10.52,5.18,10.52,9,0,5.07-3.63,7.82-8.47,9.13a2.18,2.18,0,0,1,0,.35,2.37,2.37,0,0,1-.36.91c-1.35,2-5.16,3.87-9.21,4.45l-.63.07a15.37,15.37,0,0,1-4.39,2.75c-.11.07-.38.15-.51.22-1.12.56-2.37,1.11-3.58,1.79a24.74,24.74,0,0,1-11.24,3.08c-.42,0-.83,0-1.25,0a10.56,10.56,0,0,1-2.35,1.1l-.4.12-.51.14-.14,0c-1.13.29-2.34.72-3.56,1.08a16.07,16.07,0,0,1-3.6.58,20.38,20.38,0,0,1-2.82-.05q-.68-.06-1.34-.16c-.43.2-.87.39-1.33.56l-.79.3c-.94.36-1.94.79-2.92,1.26a23.46,23.46,0,0,1-9.73,2.1h-1c-5.18-.11-9.54-1.66-12.21-3.73-1.3-1-2.58-2-3.68-2.81l-.48-.36a21.11,21.11,0,0,1-2.66.21h-.55a17.29,17.29,0,0,1-6.57-1.22,32,32,0,0,1-3.14-1.6c-7.88-.49-14.33-3.38-17.58-7.08-1.18-1.35-2.33-2.69-3.32-3.86q-.18-.21-.34-.43a16.11,16.11,0,0,1-1.81-.47c-.63-.45-1.23-1-1.86-1.54-1.38-1.21-2.62-2.47-3-3.73a2.32,2.32,0,0,1,.4-1.87c-3.18-1.43-5.49-3.51-6.32-5.81a5.87,5.87,0,0,1-.3-2.57c.46-4.88,6.75-9.05,15.07-9.56A1.25,1.25,0,0,1,101.49,240.93Z"/><path class="cls-20" d="M101.52,241.44a10.73,10.73,0,0,1,2.8-2.82c.72-.59,1.43-1.22,2.12-1.8a17.76,17.76,0,0,1,6.42-1.12,20.09,20.09,0,0,1,3.64.32,8.82,8.82,0,0,1,1.94,2.46,25.87,25.87,0,0,1,2.37,4.19,3,3,0,0,1-.12,2.37c-.62,1.46-.88,2.65-1.47,3l.17.09c.37.18.73.36,1.07.56a10.9,10.9,0,0,1,3,2.5c.5,0,1,0,1.49.06,5.87.4,10.83,2.18,13.94,4.55a27.25,27.25,0,0,0,4.76,2.93c.58.27,1.15.51,1.67.73a14.22,14.22,0,0,1,2.88,1.71,14.76,14.76,0,0,1,1.47-.34,18.14,18.14,0,0,1,6-.06c.87.15,1.75.27,2.61.34a29.63,29.63,0,0,0,3.63,0,13.89,13.89,0,0,1,2.13.09,21,21,0,0,1,6.1-3.2,22.34,22.34,0,0,0,4.44-2.12c-.21-.28-.43-.59-.68-.9a48.32,48.32,0,0,0-4.18-4.62,7.74,7.74,0,0,1-2.22-3.73,4.54,4.54,0,0,1-.11-1.84,5.19,5.19,0,0,1,.87-2c.34-.5.68-1,1-1.52-.69-.54-1.46-1.23-2.34-1.89-1.6-1.2-3.26-2.32-4.3-3.3a2.76,2.76,0,0,1-.62-.86c.36-1.11,1.68-2.14,3.64-2.75a17.55,17.55,0,0,1,9-.33c3.07,1.06,6,2.62,7.31,4.06a2.25,2.25,0,0,1,.19.26c.49,0,1,0,1.5-.05h.45c8.91.11,15.73,4.44,16.13,9.28,0,.11,0,.21,0,.32l.49.14.12.08a20.66,20.66,0,0,0,3.15,1.63,25.06,25.06,0,0,0,3.84,1.14c.17,0,.56.09.71.14,6.49,1.24,10.85,5,10.85,8.66,0,4.59-3.17,7.31-8,8.65a2,2,0,0,1,0,.32,2.26,2.26,0,0,1-.39.82c-1.43,1.86-5,3.69-8.55,4.47l-.63.1a14.38,14.38,0,0,1-4.55,2.53c-.1.07-.41.13-.53.19a30.69,30.69,0,0,0-3.61,1.78,23.63,23.63,0,0,1-11.22,3.4c-.42,0-.83,0-1.26,0a11.67,11.67,0,0,1-2.42,1l-.41.11-.52.12-.14,0a33.49,33.49,0,0,0-3.57,1.13,14.44,14.44,0,0,1-3.6.68,19.58,19.58,0,0,1-2.83,0c-.46,0-.91-.08-1.35-.15-.45.17-.9.33-1.37.46l-.81.25a20.41,20.41,0,0,0-3,1.24,22.54,22.54,0,0,1-9.77,2.24h-1c-5.34-.1-9.74-1.74-12.26-3.85a32.35,32.35,0,0,0-3.76-2.74l-.51-.31a20.62,20.62,0,0,1-2.64.21h-.54a16.36,16.36,0,0,1-6.51-1.26c-1.14-.54-2.21-1.09-3.13-1.55-8-.5-14.46-3.52-17.48-7.22a48.44,48.44,0,0,0-3.39-3.77l-.37-.39a15.34,15.34,0,0,1-1.81-.48c-.51-.51-1-1.11-1.6-1.7a13.4,13.4,0,0,1-3-3.73,2.08,2.08,0,0,1,.19-1.72c-3.05-1.4-5.24-3.41-6-5.58a5.38,5.38,0,0,1-.19-2.44c.61-4.52,6.57-8.45,14.56-8.95A1,1,0,0,1,101.52,241.44Z"/><path class="cls-21" d="M101.56,241.95a19.25,19.25,0,0,1,2.93-2.69c.71-.62,1.37-1.29,2-1.94a17,17,0,0,1,6.39-1.15,19.51,19.51,0,0,1,3.64.33c.28.42.56,1.42,1.15,2.65.68,1.43,1.6,3,2.27,4.33a3,3,0,0,1,.13,2.35c-.49,1.58-.37,2.81-.54,3.12l.18.07c.38.15.75.31,1.1.48a12.13,12.13,0,0,1,3.23,2.19c.5,0,1,0,1.49.09,6,.51,10.89,2.46,13.77,4.93a17.16,17.16,0,0,0,4.74,2.91c.6.23,1.18.41,1.72.57a14.35,14.35,0,0,1,3,1.34,15,15,0,0,1,1.48-.3,17.36,17.36,0,0,1,6,.13,17.85,17.85,0,0,0,2.6.38,17,17,0,0,0,3.61-.17,14.16,14.16,0,0,1,2.11-.12,21.08,21.08,0,0,1,6.16-3.1,15,15,0,0,0,4.34-2.27c-.16-.3-.33-.63-.53-1a21.34,21.34,0,0,0-4-4.72,7.87,7.87,0,0,1-2.43-3.58,4.16,4.16,0,0,1-.2-1.83,4.76,4.76,0,0,1,.87-2c.35-.49.68-1,1-1.53a19.59,19.59,0,0,0-2-2.14c-1.46-1.29-3.12-2.42-4.28-3.3a3,3,0,0,1-.71-.77c.45-1,1.76-1.9,3.65-2.41a17.82,17.82,0,0,1,6.55-.47,16.12,16.12,0,0,1,2.06.4,30.05,30.05,0,0,1,7,4,2.35,2.35,0,0,1,.21.22c.48,0,1,0,1.44,0h.44c8.66.09,15.19,4.25,15.69,8.74,0,.1,0,.2,0,.3l.43.18.1.1a12,12,0,0,0,2.91,2,16.75,16.75,0,0,0,3.83,1.2c.15,0,.58.07.71.11,6.7,1.07,11.19,4.83,11.19,8.32,0,4.11-2.72,6.8-7.61,8.17a2,2,0,0,1-.07.28,2.2,2.2,0,0,1-.43.73c-1.52,1.7-4.8,3.51-7.88,4.48l-.62.13a13.73,13.73,0,0,1-4.7,2.32c-.08.06-.43.12-.54.16a19.38,19.38,0,0,0-3.64,1.77,22.63,22.63,0,0,1-11.2,3.72c-.42,0-.84,0-1.27.05a13,13,0,0,1-2.48.86l-.42.09-.52.1-.14,0a19.26,19.26,0,0,0-3.58,1.18,13,13,0,0,1-3.61.78,19.12,19.12,0,0,1-2.85,0c-.46,0-.92-.08-1.37-.14-.46.14-.93.27-1.41.37l-.83.2a13.91,13.91,0,0,0-3,1.22,21.72,21.72,0,0,1-9.82,2.38h-1c-5.49-.08-9.93-1.83-12.3-4a17.64,17.64,0,0,0-3.83-2.67l-.55-.26a20.14,20.14,0,0,1-2.62.21h-.54a15.48,15.48,0,0,1-6.44-1.31c-1.1-.56-2.17-1.1-3.12-1.5-8.17-.51-14.59-3.65-17.37-7.35a21.9,21.9,0,0,0-3.46-3.68l-.4-.36a14.59,14.59,0,0,1-1.8-.49c-.39-.56-.82-1.22-1.34-1.86a26.73,26.73,0,0,1-3-3.73,1.92,1.92,0,0,1,0-1.56c-2.92-1.37-5-3.31-5.62-5.36a4.92,4.92,0,0,1-.08-2.31c.75-4.16,6.39-7.85,14-8.33A.86.86,0,0,1,101.56,241.95Z"/><path class="cls-22" d="M101.59,242.46c.68-.74,1.93-1.51,3.06-2.56a15.08,15.08,0,0,0,1.84-2.07,16.3,16.3,0,0,1,6.37-1.18,19,19,0,0,1,3.65.34,6.88,6.88,0,0,0,.35,2.85A22.13,22.13,0,0,0,119,244.3a3.14,3.14,0,0,1,.39,2.34,4.39,4.39,0,0,0,.38,3.23l.18.06c.39.12.76.25,1.13.39a13.88,13.88,0,0,1,3.43,1.87c.5,0,1,.06,1.49.11,6.07.62,11,2.75,13.6,5.32a12.45,12.45,0,0,0,4.73,2.9,12.29,12.29,0,0,0,1.76.41,14.31,14.31,0,0,1,3.16,1c.48-.11,1-.2,1.49-.26a16.59,16.59,0,0,1,6,.31,12.87,12.87,0,0,0,2.59.43A11.84,11.84,0,0,0,163,262a14.3,14.3,0,0,1,2.08-.34,21.13,21.13,0,0,1,6.21-3,11.21,11.21,0,0,0,4.23-2.42,9.56,9.56,0,0,0-.39-1,13.66,13.66,0,0,0-3.84-4.81,8.06,8.06,0,0,1-2.65-3.44,3.85,3.85,0,0,1-.28-1.82,4.39,4.39,0,0,1,.88-2,16.38,16.38,0,0,0,1-1.53,10.22,10.22,0,0,0-1.67-2.4,21.76,21.76,0,0,0-4.26-3.3,3.47,3.47,0,0,1-.8-.68,5.84,5.84,0,0,1,3.65-2.07,17.51,17.51,0,0,1,6.3-.26,14.07,14.07,0,0,1,2,.45c2.4,1.35,5.09,2.81,6.63,3.89a2.71,2.71,0,0,1,.22.18c.46,0,.92,0,1.38,0H184c8.41.08,14.67,4.05,15.25,8.19,0,.1,0,.19,0,.29l.37.22.08.12a8.47,8.47,0,0,0,2.66,2.28,12.56,12.56,0,0,0,3.81,1.27c.13,0,.61.06.71.09,6.91.89,11.52,4.65,11.52,8,0,3.63-2.27,6.29-7.17,7.68a2,2,0,0,1-.1.25,2.23,2.23,0,0,1-.46.64,29.19,29.19,0,0,1-7.22,4.5l-.62.16a13.33,13.33,0,0,1-4.85,2.1c-.07,0-.46.1-.56.13a14.1,14.1,0,0,0-3.68,1.76,21.72,21.72,0,0,1-11.19,4c-.42,0-.84.05-1.28.07a14.64,14.64,0,0,1-2.55.74l-.43.07-.53.08-.15,0a13.47,13.47,0,0,0-3.59,1.23,11.86,11.86,0,0,1-3.61.87,18.72,18.72,0,0,1-2.87.06c-.47,0-.93-.07-1.38-.12-.48.11-1,.2-1.45.27q-.42.06-.85.15a10.64,10.64,0,0,0-3,1.2,21,21,0,0,1-9.86,2.51h-1c-5.65-.07-10.12-1.93-12.35-4.08a12.21,12.21,0,0,0-3.91-2.6l-.58-.2a19.66,19.66,0,0,1-2.61.2H130a14.65,14.65,0,0,1-6.37-1.35,22.68,22.68,0,0,0-3.11-1.46c-8.31-.51-14.71-3.79-17.27-7.48a14.1,14.1,0,0,0-3.52-3.59l-.44-.32a13.85,13.85,0,0,1-1.8-.51,12,12,0,0,0-1.09-2c-1-1.39-2.25-2.62-3-3.73a1.88,1.88,0,0,1-.24-1.41c-2.79-1.34-4.75-3.21-5.27-5.13a4.49,4.49,0,0,1,0-2.18c.88-3.79,6.21-7.25,13.52-7.72A.81.81,0,0,1,101.59,242.46Z"/><path class="cls-23" d="M101.62,243a29.55,29.55,0,0,0,3.2-2.43,10.28,10.28,0,0,0,1.7-2.21,15.58,15.58,0,0,1,6.34-1.21,18.43,18.43,0,0,1,3.65.35,3.87,3.87,0,0,0-.44,3,12.17,12.17,0,0,0,2.09,4.61,3.33,3.33,0,0,1,.65,2.32c-.18,1.82.65,3.14,1.31,3.34l.18,0c.39.1.78.19,1.17.31a16.27,16.27,0,0,1,3.63,1.55c.5,0,1,.08,1.49.14,6.16.73,11,3,13.43,5.7a9.74,9.74,0,0,0,4.71,2.88,8.91,8.91,0,0,0,1.81.25,14.13,14.13,0,0,1,3.3.61c.48-.09,1-.17,1.5-.22a15.85,15.85,0,0,1,6,.5,10,10,0,0,0,2.58.47,9.13,9.13,0,0,0,3.56-.55,14.27,14.27,0,0,1,2.05-.56,21.19,21.19,0,0,1,6.26-2.9,9,9,0,0,0,4.13-2.57,6.86,6.86,0,0,0-.24-1.1,10.08,10.08,0,0,0-3.67-4.91,8.32,8.32,0,0,1-2.86-3.29,3.59,3.59,0,0,1-.37-1.81,4.08,4.08,0,0,1,.89-2,11.42,11.42,0,0,0,1-1.54,7.11,7.11,0,0,0-1.34-2.65,13,13,0,0,0-4.24-3.3,4.22,4.22,0,0,1-.89-.59,6.47,6.47,0,0,1,3.65-1.74,17.17,17.17,0,0,1,6,0,12,12,0,0,1,1.85.5,56.62,56.62,0,0,0,6.28,3.81l.24.15c.44,0,.88,0,1.33,0h.4c8.15.06,14.14,3.85,14.81,7.65,0,.09,0,.18,0,.27l.31.26.06.14a6.74,6.74,0,0,0,2.42,2.61,10,10,0,0,0,3.8,1.33c.11,0,.63,0,.71.07,7.11.71,11.86,4.47,11.86,7.63s-1.81,5.78-6.74,7.2a2.13,2.13,0,0,1-.12.21,2.39,2.39,0,0,1-.49.54c-1.73,1.36-4.43,3.15-6.55,4.51l-.62.19a13.15,13.15,0,0,1-5,1.88c-.06,0-.49.07-.58.1a11,11,0,0,0-3.71,1.75A20.9,20.9,0,0,1,183,278.56c-.42,0-.85.07-1.29.09a16.58,16.58,0,0,1-2.62.62l-.44.05-.54.06-.15,0a10.33,10.33,0,0,0-3.6,1.28,10.85,10.85,0,0,1-3.62,1,18.59,18.59,0,0,1-2.89.1q-.71,0-1.4-.11c-.49.08-1,.14-1.49.17a8.19,8.19,0,0,0-.87.11,8.67,8.67,0,0,0-3.06,1.18,20.31,20.31,0,0,1-9.91,2.65h-1c-5.8-.06-10.31-2-12.4-4.2a9.38,9.38,0,0,0-4-2.52c-.21-.06-.41-.11-.62-.15a19.2,19.2,0,0,1-2.59.2H130a13.85,13.85,0,0,1-6.31-1.39,14,14,0,0,0-3.1-1.41c-8.46-.52-14.83-3.94-17.17-7.61a10.4,10.4,0,0,0-3.59-3.5l-.47-.28a13.14,13.14,0,0,1-1.79-.52,7.93,7.93,0,0,0-.83-2.17,25.56,25.56,0,0,0-3-3.73,2,2,0,0,1-.46-1.26c-2.66-1.31-4.5-3.11-4.92-4.91a4.07,4.07,0,0,1,.13-2.06c1-3.43,6-6.65,13-7.11A.86.86,0,0,1,101.62,243Z"/><path class="cls-24" d="M101.65,243.48a12.92,12.92,0,0,0,3.33-2.3,7.92,7.92,0,0,0,1.56-2.34,14.86,14.86,0,0,1,6.32-1.24,17.91,17.91,0,0,1,3.66.36,3.54,3.54,0,0,0-1.23,3.23,8.67,8.67,0,0,0,2,4.75,3.61,3.61,0,0,1,.9,2.3c0,1.94,1.16,3.3,2.23,3.45l.19,0c.4.07.8.14,1.2.22a19.44,19.44,0,0,1,3.83,1.24c.5,0,1,.09,1.49.16,6.26.84,11.07,3.33,13.25,6.08a8,8,0,0,0,4.69,2.86,7.14,7.14,0,0,0,1.85.09,13.85,13.85,0,0,1,3.44.24c.49-.08,1-.15,1.51-.18a15.15,15.15,0,0,1,6,.69,8.16,8.16,0,0,0,2.57.52,7.49,7.49,0,0,0,3.54-.74,14.1,14.1,0,0,1,2-.78,21.26,21.26,0,0,1,6.31-2.8,7.51,7.51,0,0,0,4-2.72,5.69,5.69,0,0,0-.1-1.16,8,8,0,0,0-3.5-5,8.65,8.65,0,0,1-3.08-3.14,3.39,3.39,0,0,1-.46-1.8,3.81,3.81,0,0,1,.89-2,8.78,8.78,0,0,0,1-1.55,5.81,5.81,0,0,0-1-2.9,9.34,9.34,0,0,0-4.22-3.31,5.41,5.41,0,0,1-1-.5,7.48,7.48,0,0,1,3.65-1.4,16.78,16.78,0,0,1,5.79.16,10.14,10.14,0,0,1,1.75.55,19.3,19.3,0,0,0,5.94,3.72l.25.11c.42,0,.84,0,1.27,0h.39c7.9,0,13.63,3.66,14.36,7.1,0,.09,0,.17,0,.26a3.63,3.63,0,0,1,.25.3l0,.16a5.85,5.85,0,0,0,2.18,2.94,8.32,8.32,0,0,0,3.78,1.39c.1,0,.65,0,.72,0,7.32.53,12.19,4.3,12.19,7.28,0,2.68-1.36,5.27-6.31,6.72l-.15.17a2.8,2.8,0,0,1-.53.45,43.7,43.7,0,0,0-5.89,4.53l-.62.22a13.15,13.15,0,0,1-5.16,1.67s-.52.05-.59.07a9,9,0,0,0-3.75,1.73,20.17,20.17,0,0,1-11.15,4.68c-.43,0-.86.08-1.3.11a18.89,18.89,0,0,1-2.68.5l-.44,0-.55,0h-.16a8.34,8.34,0,0,0-3.61,1.33,10,10,0,0,1-3.62,1.07,18.21,18.21,0,0,1-2.91.13q-.71,0-1.41-.1c-.51,0-1,.07-1.53.07a6.94,6.94,0,0,0-.89.06,7.36,7.36,0,0,0-3.09,1.16,19.71,19.71,0,0,1-10,2.79h-1c-6,0-10.5-2.12-12.45-4.32a7.7,7.7,0,0,0-4.06-2.45,5.82,5.82,0,0,0-.65-.1,18.75,18.75,0,0,1-2.57.19h-.53a13.09,13.09,0,0,1-6.24-1.44,10,10,0,0,0-3.08-1.37c-8.6-.53-14.95-4.08-17.06-7.75a8.23,8.23,0,0,0-3.66-3.41l-.5-.24a12.46,12.46,0,0,1-1.79-.53,6.26,6.26,0,0,0-.58-2.33,12.78,12.78,0,0,0-3-3.73,2.51,2.51,0,0,1-.67-1.1c-2.53-1.28-4.26-3-4.57-4.68a3.7,3.7,0,0,1,.24-1.93c1.11-3.07,5.84-6.05,12.49-6.49A1.09,1.09,0,0,1,101.65,243.48Z"/><path class="cls-25" d="M101.68,244a8.37,8.37,0,0,0,3.46-2.17,6.57,6.57,0,0,0,1.42-2.48,14.16,14.16,0,0,1,6.29-1.27,17.42,17.42,0,0,1,3.66.37,3.84,3.84,0,0,0-2,3.43,6.91,6.91,0,0,0,1.9,4.89,4,4,0,0,1,1.16,2.28,3.75,3.75,0,0,0,3.16,3.56l.19,0c.41,0,.82.08,1.23.14a23.46,23.46,0,0,1,4,.92c.5.05,1,.11,1.49.18,6.35,1,11.11,3.63,13.08,6.46a6.77,6.77,0,0,0,4.67,2.85,6.13,6.13,0,0,0,1.89-.07,13.57,13.57,0,0,1,3.58-.13c.49-.07,1-.12,1.52-.14a14.49,14.49,0,0,1,6.06.88,6.87,6.87,0,0,0,2.56.57,6.43,6.43,0,0,0,3.52-.94,13.84,13.84,0,0,1,2-1,21.34,21.34,0,0,1,6.36-2.7,6.49,6.49,0,0,0,3.92-2.87,5.21,5.21,0,0,0,0-1.23,6.73,6.73,0,0,0-3.34-5.1,9.06,9.06,0,0,1-3.29-3,3.22,3.22,0,0,1-.55-1.8,3.57,3.57,0,0,1,.9-2,7.13,7.13,0,0,0,1-1.56,5.26,5.26,0,0,0-.67-3.16,7.33,7.33,0,0,0-4.2-3.31,7.28,7.28,0,0,1-1.06-.41,9.1,9.1,0,0,1,3.66-1.06,16.31,16.31,0,0,1,5.54.37,8.44,8.44,0,0,1,1.65.61,10.82,10.82,0,0,0,5.59,3.64l.27.07c.4,0,.8,0,1.21,0h.37c7.65,0,13.11,3.46,13.92,6.56,0,.08,0,.17.05.25a2.72,2.72,0,0,1,.19.34c0,.06,0,.12,0,.18a5.4,5.4,0,0,0,1.94,3.27,7.06,7.06,0,0,0,3.77,1.46c.08,0,.68,0,.72,0,7.52.36,12.53,4.12,12.53,6.94,0,2.2-.91,4.77-5.87,6.24l-.17.14a3.76,3.76,0,0,1-.56.36,14.72,14.72,0,0,0-5.22,4.54l-.61.25a13.33,13.33,0,0,1-5.31,1.45s-.54,0-.61,0a7.44,7.44,0,0,0-3.78,1.72,19.58,19.58,0,0,1-11.13,5c-.43.05-.86.09-1.31.13a21.62,21.62,0,0,1-2.75.38l-.45,0-.56,0h-.16a7,7,0,0,0-3.62,1.38,9.22,9.22,0,0,1-3.63,1.17,17.84,17.84,0,0,1-2.93.17c-.48,0-1,0-1.43-.09s-1.05,0-1.57,0a6.05,6.05,0,0,0-.91,0,6.4,6.4,0,0,0-3.13,1.14,19.2,19.2,0,0,1-10,2.92l-1.05,0c-6.11,0-10.68-2.22-12.5-4.44a6.58,6.58,0,0,0-4.13-2.38,5.4,5.4,0,0,0-.68,0,18.3,18.3,0,0,1-2.55.19h-.52a12.37,12.37,0,0,1-6.18-1.48,7.74,7.74,0,0,0-3.07-1.32c-8.74-.54-15.06-4.23-17-7.88a6.86,6.86,0,0,0-3.72-3.32l-.53-.2a11.81,11.81,0,0,1-1.78-.54,5.52,5.52,0,0,0-.32-2.49,8.52,8.52,0,0,0-3-3.72,3.72,3.72,0,0,1-.89-.95c-2.4-1.25-4-2.91-4.21-4.45a3.37,3.37,0,0,1,.35-1.8c1.21-2.72,5.66-5.46,12-5.88Z"/><path class="cls-26" d="M101.72,244.5a6.32,6.32,0,0,0,3.59-2,5.73,5.73,0,0,0,1.28-2.62,13.48,13.48,0,0,1,6.26-1.31,17,17,0,0,1,3.67.38,4.43,4.43,0,0,0-2.82,3.62,5.88,5.88,0,0,0,1.81,5,4.46,4.46,0,0,1,1.42,2.26,4.4,4.4,0,0,0,4.08,3.68h.19l1.27.06a28.64,28.64,0,0,1,4.23.6q.76.09,1.49.21c6.45,1.08,11.15,3.92,12.91,6.84a5.88,5.88,0,0,0,4.65,2.83,5.54,5.54,0,0,0,1.94-.23,13.37,13.37,0,0,1,3.72-.5c.5-.06,1-.09,1.53-.1a13.88,13.88,0,0,1,6.07,1.07,5.92,5.92,0,0,0,2.55.61,5.71,5.71,0,0,0,3.49-1.13,13.57,13.57,0,0,1,2-1.21,21.43,21.43,0,0,1,6.42-2.6,5.76,5.76,0,0,0,3.82-3,5.09,5.09,0,0,0,.19-1.3,5.84,5.84,0,0,0-3.17-5.19,9.55,9.55,0,0,1-3.5-2.84,3.09,3.09,0,0,1-.64-1.79,3.35,3.35,0,0,1,.9-2,6,6,0,0,0,.94-1.56,5.12,5.12,0,0,0-.34-3.41,6.07,6.07,0,0,0-4.18-3.31,10.24,10.24,0,0,1-1.15-.32,11.79,11.79,0,0,1,3.66-.73,15.73,15.73,0,0,1,5.28.58,7,7,0,0,1,1.54.66,7.17,7.17,0,0,0,5.25,3.55l.28,0,1.15,0h.36c7.39,0,12.61,3.25,13.48,6,0,.08,0,.16.06.23a2.29,2.29,0,0,1,.14.38c0,.07,0,.13,0,.2a5.22,5.22,0,0,0,1.7,3.59,6.09,6.09,0,0,0,3.76,1.52h.72c7.73.18,12.86,3.94,12.86,6.6,0,1.72-.45,4.26-5.44,5.76l-.19.1a6.35,6.35,0,0,1-.6.26,8,8,0,0,0-4.56,4.56c-.17.09-.37.18-.61.28a13.67,13.67,0,0,1-5.46,1.23h-.62a6.23,6.23,0,0,0-3.82,1.71A19,19,0,0,1,184.15,277c-.43.06-.87.11-1.32.15a25.19,25.19,0,0,1-2.81.26h-1.2a6,6,0,0,0-3.63,1.43,8.56,8.56,0,0,1-3.63,1.27,17.47,17.47,0,0,1-2.95.21c-.48,0-1,0-1.44-.07s-1.08-.06-1.61-.12a5.55,5.55,0,0,0-.93,0,5.72,5.72,0,0,0-3.16,1.12,18.68,18.68,0,0,1-10,3.06l-1.06,0c-6.27,0-10.86-2.32-12.55-4.56a5.79,5.79,0,0,0-4.21-2.31,5.23,5.23,0,0,0-.72,0,17.87,17.87,0,0,1-2.54.18h-.52a11.68,11.68,0,0,1-6.11-1.53,6.25,6.25,0,0,0-3.06-1.28c-8.89-.55-15.16-4.37-16.86-8A5.9,5.9,0,0,0,100,263.6l-.56-.16a11.19,11.19,0,0,1-1.78-.55,5.23,5.23,0,0,0-.07-2.65,6.43,6.43,0,0,0-3-3.72,6.68,6.68,0,0,1-1.1-.8c-2.28-1.22-3.76-2.81-3.86-4.23a3.07,3.07,0,0,1,.45-1.67c1.31-2.37,5.48-4.86,11.45-5.26Z"/><path class="cls-27" d="M150.46,283.86c-6.42,0-11-2.43-12.6-4.68a5.22,5.22,0,0,0-5-2.19,17.44,17.44,0,0,1-2.52.18c-3.45,0-5.82-.94-6.56-1.58a5.21,5.21,0,0,0-3.05-1.23c-9-.56-15.26-4.52-16.75-8.15a5.21,5.21,0,0,0-3.86-3.14,11.36,11.36,0,0,1-2.37-.69,5.21,5.21,0,0,0-2.86-6.53C92,254.62,90,252.75,90,251.21c0-2.3,4.46-5.77,11.73-6.21a5.21,5.21,0,0,0,4.87-4.66,12.81,12.81,0,0,1,6.24-1.34,16.5,16.5,0,0,1,3.68.39,5.21,5.21,0,0,0-1.89,9,5,5,0,0,1,1.68,2.24,5.21,5.21,0,0,0,5,3.79h.2l1.3,0c9.62,0,16.67,3.9,18.66,7.74a5.21,5.21,0,0,0,6.61,2.42,14.62,14.62,0,0,1,5.4-.93,13.31,13.31,0,0,1,6.08,1.26,5.21,5.21,0,0,0,6-.66,19,19,0,0,1,8.42-3.93,5.21,5.21,0,0,0,1.05-9.82c-2.7-1.25-4.45-3-4.45-4.47a3.18,3.18,0,0,1,.91-2,5.21,5.21,0,0,0-3.24-8.55c-.45-.06-.86-.14-1.24-.22a16.46,16.46,0,0,1,3.66-.39c3.57,0,5.81,1,6.47,1.49a5.21,5.21,0,0,0,4.91,3.47h.3c.47,0,.95,0,1.43,0,7.78,0,13,3.62,13.19,6.11,0,.07,0,.14,0,.22a5.21,5.21,0,0,0,5.2,5.51l.72,0c7.93,0,13.2,3.76,13.2,6.25,0,1.3,0,4-5.86,5.52a5.21,5.21,0,0,0-3.9,4.57,12.85,12.85,0,0,1-6.23,1.33l-.64,0a5.21,5.21,0,0,0-3.85,1.7c-2.47,2.71-7.14,5.95-15.31,5.95l-.47,0-.58,0h-.17a5.21,5.21,0,0,0-3.64,1.48c-.54.53-2.87,1.62-6.61,1.62a17.11,17.11,0,0,1-3.1-.28,5.21,5.21,0,0,0-4.15,1C159,282.65,154.85,283.86,150.46,283.86Z"/><path class="cls-28" d="M193.87,249.65c-8.33,0-15.37,3.45-17.63,8.18q-.77.28-1.49.61a36.1,36.1,0,0,0-26.36.16,21.61,21.61,0,0,0-2.12-.88c-.23-6.21-8.36-11.2-18.39-11.2s-18.41,5.13-18.41,11.46c0,4.29,3.79,8,9.4,10,.23,6.21,8.36,11.2,18.39,11.2a29.08,29.08,0,0,0,4.45-.35c4.23,4.11,11.62,6.83,20,6.83s15.69-2.68,19.94-6.73a29.26,29.26,0,0,0,3.85.26c8.33,0,15.37-3.45,17.63-8.18,5.44-2,9.11-5.66,9.11-9.88C212.28,254.78,204,249.65,193.87,249.65Z"/><path class="cls-29" d="M109.9,257.91c0-3.85,3.45-7.4,8.68-9.25a26,26,0,0,1,10.29-1.42,21.16,21.16,0,0,1,2.77.38,50.62,50.62,0,0,1,5.09,1.37q.74.23,1.44.51c.64.25,1.26.5,1.86.76s1.11.49,1.62.75c3.28,1.68,5.49,4.16,6,7a22.39,22.39,0,0,1,2.14.8,32.78,32.78,0,0,1,8.76-1.91l2-.14c.84-.05,1.7-.09,2.57-.12l1.21,0c1.36,0,2.68,0,3.91.07a31.86,31.86,0,0,1,7.67,1.47q.72-.32,1.49-.59a10.53,10.53,0,0,1,3.2-3.4c3.73-2.56,9.06-3.67,14.47-3.51,9.24.27,16.52,5,16.22,10.87a9.22,9.22,0,0,1-3.24,6.17,17,17,0,0,1-5.53,3.29c-2.27,4.44-9,7.68-17,7.68a28.62,28.62,0,0,1-3.18-.18l-.67-.08a33,33,0,0,1-3.18,2.32c-4.22,2.73-10.19,4.42-16.76,4.42s-12.61-1.71-16.84-4.47a32.58,32.58,0,0,1-3.2-2.36l-.77.11a28.14,28.14,0,0,1-3.68.25c-6.66,0-12.38-2.23-15.32-5.4a10.64,10.64,0,0,1-2.91-5.77C113.57,265.56,109.9,262,109.9,257.91Z"/><path class="cls-30" d="M110.32,257.84c0-3.72,3.63-7.3,9.14-9a25.19,25.19,0,0,1,10.41-.94,15,15,0,0,1,2.67.61c1.55.5,3.23,1.17,4.93,1.71.5.16,1,.33,1.46.52l1.9.74c.58.22,1.14.43,1.66.64,3.3,1.34,5.67,3.53,6.5,6,.75.21,1.46.46,2.15.73a32.69,32.69,0,0,1,8.76-1.52l2-.09,2.52-.16,1.2-.07c1.35,0,2.64-.26,3.81-.2a41,41,0,0,1,7.56.89q.72-.31,1.5-.57a10.39,10.39,0,0,1,3.36-3.11c4.11-2.38,9.47-2.85,14.34-2.53,8.31.54,14.64,4.88,14,10.28a9.87,9.87,0,0,1-3.21,5.81,16,16,0,0,1-5.23,3.21c-2.28,4.15-8.7,7.18-16.33,7.18a28.08,28.08,0,0,1-3.18-.18l-.67-.07c-1,.71-2.08,1.46-3.22,2.23-4.14,2.78-10.14,4.5-16.72,4.5S149,282.81,144.86,280c-1.15-.78-2.25-1.55-3.24-2.27l-.78.1a27.64,27.64,0,0,1-3.67.25c-6.79,0-12.48-2.35-15.11-5.48a14,14,0,0,1-3-5.67C113.87,265.11,110.32,261.67,110.32,257.84Z"/><path class="cls-31" d="M110.75,257.77c0-3.58,3.81-7.19,9.59-8.65a24.3,24.3,0,0,1,10.52-.45,11,11,0,0,1,2.57.85,38.74,38.74,0,0,0,4.77,2c.5.16,1,.34,1.48.54.65.27,1.3.5,1.93.71s1.17.36,1.7.52a11.62,11.62,0,0,1,7,5.13c.75.19,1.47.41,2.16.66a32.51,32.51,0,0,1,8.76-1.14c.65,0,1.32,0,2,0s1.66-.1,2.48-.19l1.19-.11c1.34-.1,2.59-.33,3.71-.47a26.91,26.91,0,0,1,7.45.31q.73-.3,1.5-.55a10.49,10.49,0,0,1,3.52-2.82c4.51-2.2,9.86-2,14.22-1.56,7.36.81,12.75,4.76,11.84,9.7a10.91,10.91,0,0,1-3.18,5.46,15,15,0,0,1-4.92,3.14c-2.29,3.85-8.4,6.68-15.67,6.68a27.57,27.57,0,0,1-3.18-.18l-.68-.07c-1,.63-2.14,1.36-3.26,2.14-4.06,2.84-10.09,4.59-16.67,4.59s-12.69-1.78-16.75-4.65c-1.13-.8-2.25-1.54-3.28-2.18l-.78.1a27.17,27.17,0,0,1-3.67.26c-6.91,0-12.58-2.47-14.89-5.56a21.32,21.32,0,0,1-3-5.56C114.17,264.66,110.75,261.37,110.75,257.77Z"/><path class="cls-32" d="M111.18,257.7c0-3.44,4-7.08,10-8.35a23.4,23.4,0,0,1,10.64,0,8.36,8.36,0,0,1,2.46,1.09,19.14,19.14,0,0,0,4.61,2.38c.51.16,1,.35,1.5.55a17.73,17.73,0,0,0,2,.69c.6.17,1.19.29,1.74.4a13,13,0,0,1,7.57,4.22c.75.17,1.48.36,2.18.59a32.24,32.24,0,0,1,8.76-.75c.65,0,1.31,0,2,0s1.63-.11,2.44-.23l1.19-.16a27.16,27.16,0,0,0,3.61-.74,23.61,23.61,0,0,1,7.34-.28q.73-.29,1.51-.53a10.83,10.83,0,0,1,3.69-2.53c4.93-2,10.25-1.22,14.09-.58,6.41,1.07,10.86,4.63,9.65,9.11a12.72,12.72,0,0,1-3.14,5.11,14,14,0,0,1-4.62,3.07c-2.29,3.56-8.1,6.18-15,6.18a27.08,27.08,0,0,1-3.18-.19l-.68-.07a26.34,26.34,0,0,0-3.31,2.06c-4,2.89-10,4.68-16.63,4.68s-12.73-1.81-16.71-4.74a26.52,26.52,0,0,0-3.33-2.09l-.78.09a26.71,26.71,0,0,1-3.67.26c-7,0-12.68-2.61-14.68-5.63a48.6,48.6,0,0,1-3.08-5.46C114.48,264.21,111.18,261.07,111.18,257.7Z"/><path class="cls-33" d="M111.6,257.63c0-3.31,4.17-7,10.49-8.05a22.52,22.52,0,0,1,10.75.52,6.7,6.7,0,0,1,2.36,1.32,12.58,12.58,0,0,0,4.45,2.71c.51.17,1,.36,1.51.57a12.59,12.59,0,0,0,2,.66,14.23,14.23,0,0,0,1.78.29,14.87,14.87,0,0,1,8.11,3.31c.75.14,1.48.31,2.19.51a31.88,31.88,0,0,1,8.76-.36,14.21,14.21,0,0,0,2,.07,17,17,0,0,0,2.4-.26l1.18-.2a16.58,16.58,0,0,0,3.51-1,20.43,20.43,0,0,1,7.22-.86q.73-.28,1.52-.51a11.43,11.43,0,0,1,3.85-2.23c5.35-1.77,10.62-.41,14,.39,5.44,1.32,9,4.51,7.45,8.52a16.28,16.28,0,0,1-3.11,4.76,12.93,12.93,0,0,1-4.32,3c-2.3,3.27-7.8,5.68-14.36,5.68a26.61,26.61,0,0,1-3.18-.19l-.68-.07a16.34,16.34,0,0,0-3.35,2c-3.9,2.94-10,4.77-16.59,4.77s-12.77-1.85-16.67-4.82a16.39,16.39,0,0,0-3.37-2l-.78.09a26.28,26.28,0,0,1-3.67.26c-7.16,0-12.77-2.75-14.46-5.71-1.06-1.86-2.18-3.85-3.14-5.35C114.78,263.76,111.6,260.77,111.6,257.63Z"/><path class="cls-34" d="M112,257.56c0-3.17,4.35-6.85,10.94-7.75a21.67,21.67,0,0,1,10.87,1,5.64,5.64,0,0,1,2.25,1.56,9.42,9.42,0,0,0,4.29,3c.51.17,1,.36,1.53.59a9.88,9.88,0,0,0,2,.63,15.37,15.37,0,0,0,1.83.17,19.64,19.64,0,0,1,8.64,2.4c.76.12,1.49.27,2.21.44a31.44,31.44,0,0,1,8.76,0,11,11,0,0,0,2,.12,12.69,12.69,0,0,0,2.36-.29l1.17-.24a11.7,11.7,0,0,0,3.41-1.29,17.66,17.66,0,0,1,7.11-1.44q.73-.27,1.52-.49a12.32,12.32,0,0,1,4-1.94c5.79-1.53,11,.38,13.84,1.37,4.46,1.54,7.09,4.39,5.26,7.93a25.68,25.68,0,0,1-3.08,4.4,11.89,11.89,0,0,1-4,2.92c-2.3,3-7.5,5.18-13.71,5.18a26.15,26.15,0,0,1-3.17-.19l-.68-.06a11.86,11.86,0,0,0-3.39,1.88c-3.82,3-9.93,4.85-16.55,4.85s-12.81-1.88-16.62-4.91a11.88,11.88,0,0,0-3.41-1.92l-.79.08a25.86,25.86,0,0,1-3.67.27c-7.28,0-12.85-2.89-14.25-5.79a27.1,27.1,0,0,0-3.2-5.25C115.08,263.31,112,260.47,112,257.56Z"/><path class="cls-35" d="M112.46,257.49c0-3,4.54-6.74,11.39-7.45a20.86,20.86,0,0,1,11,1.49,5,5,0,0,1,2.15,1.8,7.65,7.65,0,0,0,4.13,3.38c.52.17,1,.37,1.55.6a7.94,7.94,0,0,0,3.95.66,19.93,19.93,0,0,1,9.18,1.49q1.14.14,2.22.37a30.92,30.92,0,0,1,8.76.41,9,9,0,0,0,2,.18,10,10,0,0,0,2.31-.33c.38-.1.77-.2,1.16-.29a9,9,0,0,0,3.31-1.56,15.39,15.39,0,0,1,7-2q.73-.26,1.53-.47a13.56,13.56,0,0,1,4.17-1.65c6.22-1.26,11.3,1.16,13.71,2.35,3.45,1.71,5.21,4.26,3.07,7.34-.81,1.18-1.91,2.6-3,4.05a10.81,10.81,0,0,1-3.71,2.84c-2.31,2.68-7.2,4.68-13.06,4.68a25.71,25.71,0,0,1-3.17-.2l-.68-.06a9.33,9.33,0,0,0-3.43,1.79c-3.74,3-9.88,4.94-16.51,4.94s-12.85-1.92-16.58-5a9.34,9.34,0,0,0-3.46-1.83c-.26,0-.52,0-.79.08a25.46,25.46,0,0,1-3.66.27c-7.41,0-12.92-3-14-5.87a14.81,14.81,0,0,0-3.25-5.14C115.38,262.86,112.46,260.17,112.46,257.49Z"/><path class="cls-36" d="M112.88,257.41c0-2.9,4.72-6.62,11.84-7.15a20.1,20.1,0,0,1,11.1,2,4.56,4.56,0,0,1,2,2,6.58,6.58,0,0,0,4,3.72c.52.18,1,.38,1.56.62a7.08,7.08,0,0,0,2.12.58,6.93,6.93,0,0,0,1.91-.06,22.69,22.69,0,0,1,9.71.58q1.14.11,2.23.3a30.36,30.36,0,0,1,8.76.79,7.57,7.57,0,0,0,2,.23,8.24,8.24,0,0,0,2.27-.36c.38-.12.76-.23,1.15-.33a7.36,7.36,0,0,0,3.21-1.83c1.26-1.18,3.77-2.14,6.89-2.6q.74-.25,1.53-.45a15.22,15.22,0,0,1,4.34-1.36c6.66-1,12,1.51,13.58,3.32,2.77,1.24,3.32,4.14.88,6.75a38.23,38.23,0,0,0-3,3.7,9.78,9.78,0,0,1-3.4,2.77c-2.32,2.39-6.89,4.18-12.4,4.18a25.29,25.29,0,0,1-3.17-.2q-.34,0-.68-.06a7.72,7.72,0,0,0-3.47,1.7c-3.66,3.1-9.83,5-16.46,5s-12.88-1.95-16.54-5.09a7.72,7.72,0,0,0-3.5-1.74,7.59,7.59,0,0,0-.79.07,25.07,25.07,0,0,1-3.66.28c-7.53,0-13-3.2-13.82-5.95a10.11,10.11,0,0,0-3.31-5C115.68,262.41,112.88,259.87,112.88,257.41Z"/><path class="cls-37" d="M113.31,257.34c0-2.76,4.9-6.5,12.3-6.85,4.82-.23,8.82.89,11.22,2.46a4.32,4.32,0,0,1,1.94,2.27,5.91,5.91,0,0,0,3.81,4.06c.53.18,1,.39,1.58.63a6.25,6.25,0,0,0,2.16.55,6.08,6.08,0,0,0,2-.18,25.26,25.26,0,0,1,10.25-.34q1.14.07,2.25.22a29.76,29.76,0,0,1,8.76,1.18,6.56,6.56,0,0,0,2,.28,7,7,0,0,0,2.23-.4c.37-.13.75-.26,1.15-.37a6.32,6.32,0,0,0,3.11-2.1c1.09-1.33,3.56-2.54,6.78-3.19q.74-.24,1.54-.43a17.36,17.36,0,0,1,4.5-1.07c7.09-.67,12.37,2.26,13.45,4.3,1.85,1.4,1.43,4-1.31,6.16a13.87,13.87,0,0,0-3,3.35,8.78,8.78,0,0,1-3.1,2.7c-2.32,2.1-6.59,3.68-11.75,3.68a24.88,24.88,0,0,1-3.17-.2,4.61,4.61,0,0,0-4.2,1.56c-3.58,3.16-9.78,5.12-16.42,5.12s-12.92-2-16.49-5.18a4.61,4.61,0,0,0-4.33-1.58,24.7,24.7,0,0,1-3.66.28c-7.66,0-13-3.36-13.61-6a7.66,7.66,0,0,0-3.37-4.93C116,262,113.31,259.57,113.31,257.34Z"/><path class="cls-38" d="M113.74,257.27c0-2.63,5.08-6.37,12.75-6.55,5-.11,9.06,1.25,11.33,2.95a4.2,4.2,0,0,1,1.83,2.51,5.48,5.48,0,0,0,3.64,4.39,16.82,16.82,0,0,1,1.6.65,5.66,5.66,0,0,0,2.19.53,5.56,5.56,0,0,0,2-.3,27.46,27.46,0,0,1,10.79-1.25q1.15,0,2.26.15a29.14,29.14,0,0,1,8.76,1.56,5.8,5.8,0,0,0,2,.33,6,6,0,0,0,2.19-.43q.55-.22,1.14-.42a5.64,5.64,0,0,0,3-2.37c.93-1.48,3.35-2.95,6.67-3.77q.74-.23,1.55-.41a20.12,20.12,0,0,1,4.66-.78c7.52-.34,12.45,3.12,13.33,5.28.68,1.68-.45,3.89-3.5,5.58a7.86,7.86,0,0,0-2.94,3,7.77,7.77,0,0,1-2.8,2.62c-2.33,1.81-6.29,3.17-11.1,3.17a24.48,24.48,0,0,1-3.17-.21,4.89,4.89,0,0,0-4.24,1.48c-3.5,3.21-9.73,5.2-16.38,5.2s-13-2-16.45-5.27a4.89,4.89,0,0,0-4.38-1.49,24.34,24.34,0,0,1-3.66.29c-7.78,0-13.06-3.51-13.39-6.1a6.18,6.18,0,0,0-3.43-4.83C116.29,261.51,113.74,259.27,113.74,257.27Z"/><path class="cls-39" d="M161.22,279.66c-6.72,0-13-2.05-16.41-5.36a5.21,5.21,0,0,0-4.43-1.41,24,24,0,0,1-3.65.29c-7.91,0-13.09-3.66-13.18-6.18a5.21,5.21,0,0,0-3.48-4.73c-3.48-1.22-5.91-3.31-5.91-5.07,0-2.49,5.26-6.25,13.2-6.25s13.09,3.66,13.18,6.18a5.21,5.21,0,0,0,3.48,4.73,16.59,16.59,0,0,1,1.62.67,5.21,5.21,0,0,0,4.26.09,30.91,30.91,0,0,1,22.36-.13,5.21,5.21,0,0,0,4.11-.08q.55-.25,1.13-.46a5.21,5.21,0,0,0,2.91-2.64c1.21-2.53,6.16-5.22,12.94-5.22,7.93,0,13.2,3.76,13.2,6.25,0,1.71-2.34,3.76-5.69,5A5.21,5.21,0,0,0,198,268c-1.21,2.53-6.16,5.22-12.94,5.22a24.1,24.1,0,0,1-3.17-.21,5.21,5.21,0,0,0-4.29,1.4C174.14,277.63,167.88,279.66,161.22,279.66Z"/><path class="cls-40" d="M198.89,243.37a4.45,4.45,0,0,0,.56-2.12c0-3.69-4.81-6.69-10.74-6.69l-.55,0a5.46,5.46,0,0,0,.18-1.31c0-4.73-6.16-8.56-13.75-8.56a20.86,20.86,0,0,0-5.76.8,14.65,14.65,0,0,0-7.47-1.89c-3.93,0-7.36,1.32-9.23,3.28a19.65,19.65,0,0,0-8.91-2c-5.45,0-10.17,1.95-12.47,4.79a15.64,15.64,0,0,0-5.94-1.12c-5.93,0-10.74,3-10.74,6.69a4.35,4.35,0,0,0,.35,1.67,21.14,21.14,0,0,0-7-1.15c-7.86,0-14.22,4-14.22,8.86A6.48,6.48,0,0,0,95.07,249c-2.83,1.77-4.58,4.22-4.58,6.91,0,5,6,9.13,13.81,9.74.09,5,6.66,9.11,14.77,9.11,5.48,0,10.26-1.86,12.81-4.62,3.28,3.34,9.18,5.57,15.92,5.57,5.82,0,11-1.66,14.45-4.26a26.43,26.43,0,0,0,11.6,2.53c9.82,0,17.85-4.72,18.6-10.71h.14c9.17,0,16.61-4.63,16.61-10.34C209.21,248.61,204.95,244.91,198.89,243.37ZM159.41,255a26.43,26.43,0,0,0-11.6-2.53c-7.84,0-14.54,3-17.31,7.27a17.89,17.89,0,0,0-8.52-3.18c0-.2,0-.41,0-.61a7.8,7.8,0,0,0-3.26-6,7,7,0,0,0,2.88-5.33,6,6,0,0,0-1-3.21,16.49,16.49,0,0,0,4.13.51,14,14,0,0,0,8.22-2.39,18.68,18.68,0,0,0,10.19,2.76c6.23,0,11.5-2.54,13.3-6a16.14,16.14,0,0,0,4.84.72l.84,0c2.22,2.88,6.92,4.87,12.39,4.87a21.67,21.67,0,0,0,3.41-.28,5.73,5.73,0,0,0,2.73,4.15,10.13,10.13,0,0,0-4.39,5.12c-.82-.07-1.64-.12-2.49-.12C168,250.72,162.84,252.38,159.41,255Z"/><path class="cls-41" d="M146.74,272.44c-5.63,0-10.88-1.78-13.69-4.64a3.12,3.12,0,0,0-2.23-.93h0a3.12,3.12,0,0,0-2.25,1c-2,2.2-6.16,3.62-10.52,3.62-6.8,0-11.6-3.18-11.65-6a3.13,3.13,0,0,0-2.88-3.06c-6.75-.52-10.93-3.84-10.93-6.62,0-1.47,1.13-3,3.11-4.27a3.13,3.13,0,0,0,.65-4.76,3.41,3.41,0,0,1-1-2.26c0-2.71,4.75-5.73,11.1-5.73a18.13,18.13,0,0,1,6,1,3.13,3.13,0,0,0,3.93-4.14,1.29,1.29,0,0,1-.11-.48c0-1.42,3-3.56,7.61-3.56a12.5,12.5,0,0,1,4.74.88,3.12,3.12,0,0,0,3.62-.92c1.79-2.21,5.73-3.63,10-3.63a16.63,16.63,0,0,1,7.48,1.65,3.13,3.13,0,0,0,3.7-.62c1-1.07,3.45-2.31,7-2.31a11.67,11.67,0,0,1,5.85,1.44,3.13,3.13,0,0,0,2.48.33,17.65,17.65,0,0,1,4.89-.67c6.08,0,10.62,2.87,10.62,5.43a2.46,2.46,0,0,1-.09.56,3.13,3.13,0,0,0,3,3.87l.55,0c4.58,0,7.61,2.14,7.61,3.56a1.37,1.37,0,0,1-.19.64,3.13,3.13,0,0,0,2,4.51c4.69,1.2,8,3.89,8,6.54,0,3.41-5.54,7.21-13.48,7.21h-.15a3.13,3.13,0,0,0-3.1,2.73c-.48,3.84-6.55,8-15.5,8a23.5,23.5,0,0,1-10.22-2.2,3.13,3.13,0,0,0-3.28.31C156.27,271.12,151.69,272.44,146.74,272.44Zm-27.13-34.28a3.13,3.13,0,0,0-2.65,4.78,2.89,2.89,0,0,1,.5,1.55,4.13,4.13,0,0,1-1.74,2.92,3.13,3.13,0,0,0,0,4.84,4.94,4.94,0,0,1,2.1,3.54l0,.3a3.13,3.13,0,0,0,2.73,3.41,14.82,14.82,0,0,1,7,2.57,3.13,3.13,0,0,0,4.51-.79c1.89-2.91,7.17-5.85,14.69-5.85a23.51,23.51,0,0,1,10.22,2.2,3.12,3.12,0,0,0,3.28-.31c3-2.3,7.61-3.62,12.56-3.62.66,0,1.37,0,2.23.1h.26a3.13,3.13,0,0,0,3-2.14,7.18,7.18,0,0,1,3.1-3.47,3.13,3.13,0,0,0,.1-5.21,2.84,2.84,0,0,1-1.4-1.81,3.13,3.13,0,0,0-3.12-2.89,3.2,3.2,0,0,0-.49,0,18.66,18.66,0,0,1-2.92.24c-4.9,0-8.51-1.83-9.91-3.65a3.13,3.13,0,0,0-2.48-1.22H161l-.69,0a13,13,0,0,1-3.9-.58,3.13,3.13,0,0,0-3.72,1.55c-1.12,2.16-5.09,4.35-10.53,4.35a15.69,15.69,0,0,1-8.46-2.24,3.12,3.12,0,0,0-3.59.09,11.08,11.08,0,0,1-6.36,1.78,13.34,13.34,0,0,1-3.35-.41A3.1,3.1,0,0,0,119.61,238.15Z"/><path class="cls-42" d="M146.49,268.42c-5,0-9.81-1.58-12.21-4a5.21,5.21,0,0,0-3.71-1.56h-.08a5.21,5.21,0,0,0-3.74,1.67c-1.36,1.47-4.66,2.95-9,2.95-6.17,0-9.54-2.83-9.57-4a5.21,5.21,0,0,0-4.81-5.11c-5.83-.45-9-3.24-9-4.54,0-.71.84-1.69,2.14-2.5a5.21,5.21,0,0,0,1.08-7.93,1.61,1.61,0,0,1-.5-.86c0-.94,3.1-3.65,9-3.65a16,16,0,0,1,5.26.85,5.22,5.22,0,0,0,2.81.18,5.2,5.2,0,0,0,.76,2.16,1,1,0,0,1,.18.45c0,.24-.31.75-1,1.31a5.21,5.21,0,0,0,0,8.06,3.27,3.27,0,0,1,1.33,1.83l0,.18a5.21,5.21,0,0,0,4.54,5.69,12.94,12.94,0,0,1,6,2.17,5.21,5.21,0,0,0,7.51-1.31c1.53-2.36,6.24-4.9,12.94-4.9a21.39,21.39,0,0,1,9.29,2,5.21,5.21,0,0,0,5.46-.52c2.64-2,6.86-3.2,11.3-3.2.61,0,1.26,0,2.05.1l.44,0a5.21,5.21,0,0,0,4.94-3.57,5.28,5.28,0,0,1,2.25-2.37,5.21,5.21,0,0,0,.17-8.68,2.56,2.56,0,0,1-.52-.46,5.21,5.21,0,0,0-6-4.56,16.38,16.38,0,0,1-2.59.21c-4.17,0-7.21-1.47-8.26-2.84a5.21,5.21,0,0,0-4.13-2h-.27l-.57,0a11.06,11.06,0,0,1-3.27-.48,5.19,5.19,0,0,0-3.19,0,5.18,5.18,0,0,0,1-.82,8.14,8.14,0,0,1,5.46-1.67,9.57,9.57,0,0,1,4.78,1.14,5.21,5.21,0,0,0,4.13.55,15.63,15.63,0,0,1,4.32-.59c5.51,0,8.54,2.52,8.54,3.35h0l0,.07a5.21,5.21,0,0,0,5.06,6.45l.55,0a8.48,8.48,0,0,1,5.38,1.56,5.21,5.21,0,0,0,3.51,7.08c4,1,6.4,3.13,6.4,4.52,0,1.8-4.3,5.11-11.32,5.13h-.22a5.21,5.21,0,0,0-5.17,4.56c-.32,2.57-5.59,6.15-13.43,6.15a21.37,21.37,0,0,1-9.29-2,5.21,5.21,0,0,0-5.46.52C155.15,267.22,150.93,268.42,146.49,268.42ZM141.9,235a13.58,13.58,0,0,1-7.31-1.89,5.2,5.2,0,0,0-2.82-.87,5.2,5.2,0,0,0,1.7-1.37c1.12-1.38,4.23-2.86,8.43-2.86a14.52,14.52,0,0,1,6.52,1.42,5.21,5.21,0,0,0,4,.32,5.19,5.19,0,0,0-1.86,2C149.91,233.09,146.69,235,141.9,235Zm-18.41-.37a11.19,11.19,0,0,1-2.82-.35,5.23,5.23,0,0,0-2.39-.06,5.19,5.19,0,0,0-.2-1,8.39,8.39,0,0,1,5.41-1.59,10.31,10.31,0,0,1,3.95.72,5.19,5.19,0,0,0,1.93.4,5.19,5.19,0,0,0-.76.47A9,9,0,0,1,123.49,234.65Z"/><path class="cls-43" d="M146.49,265.29c-4.09,0-8.19-1.27-10-3.08l-.21-.21c1-1.19,4.4-3.3,10.19-3.3a18.21,18.21,0,0,1,7.91,1.66,8.34,8.34,0,0,0,8.73-.83c2.09-1.58,5.69-2.57,9.41-2.57.52,0,1.09,0,1.79.09l.7,0a8.32,8.32,0,0,0,7.87-5.6,4,4,0,0,1,1-.83,8.35,8.35,0,0,0,3.37-9.84h.23a7.66,7.66,0,0,1,1.75.2,8.33,8.33,0,0,0,6.27,8.35,10.65,10.65,0,0,1,3.45,1.49,13.56,13.56,0,0,1-7.55,2h-.27a8.35,8.35,0,0,0-8.26,7.18c-.51,1-4.21,3.53-10.35,3.53a18.2,18.2,0,0,1-7.91-1.66,8.34,8.34,0,0,0-8.74.83C153.82,264.31,150.21,265.29,146.49,265.29Zm-28.73-.95c-3.67,0-5.78-1.17-6.5-1.75a8.3,8.3,0,0,0-7.64-7.33,12.32,12.32,0,0,1-5.2-1.44A8.34,8.34,0,0,0,101.11,243a11.75,11.75,0,0,1,5-1,12.88,12.88,0,0,1,4.22.68l.47.15a8.34,8.34,0,0,0,1.4,11.49l.13.11a8.28,8.28,0,0,0,7.31,8.27,12.52,12.52,0,0,1,3,.75A13.27,13.27,0,0,1,117.76,264.34Zm24.14-32.45a13.32,13.32,0,0,1-3.15-.37,13,13,0,0,1,3.15-.37,13.35,13.35,0,0,1,3.14.37A13,13,0,0,1,141.9,231.89Zm31.37-.48a13.22,13.22,0,0,1-2.45-.22,12.94,12.94,0,0,1,2.45-.23,13.22,13.22,0,0,1,2.48.22l-.39.05A13.26,13.26,0,0,1,173.28,231.41Z"/><path class="cls-44" d="M178.05,142.25l22,11.7V139.14a11.5,11.5,0,0,0-1.15-5.35l-9.49-18c-2-3.88-6.46-4.57-11.32-1.77h0Z"/><path class="cls-45" d="M128.38,142.25l-22,11.7V139.14a11.5,11.5,0,0,1,1.15-5.35l9.49-18c2-3.88,6.46-4.57,11.32-1.77h0Z"/><path class="cls-46" d="M164.89,192.3c0,12.43-5.23,45-11.67,45s-11.67-32.53-11.67-45c0-10.94,5.23-13.58,11.67-13.58S164.89,181.36,164.89,192.3Z"/><path class="cls-47" d="M164.27,192.15c0,12.13-4.95,44.35-11,44.35s-11-32.22-11-44.35c0-10.68,4.95-13.25,11-13.25S164.27,181.47,164.27,192.15Z"/><path class="cls-48" d="M163.64,192c0,11.84-4.67,43.75-10.43,43.75S142.79,203.84,142.79,192c0-10.42,4.67-12.93,10.43-12.93S163.64,181.58,163.64,192Z"/><path class="cls-49" d="M163,191.85c0,11.54-4.39,43.14-9.8,43.14s-9.8-31.6-9.8-43.14c0-10.16,4.39-12.61,9.8-12.61S163,181.69,163,191.85Z"/><path class="cls-50" d="M162.4,191.7c0,11.25-4.11,42.53-9.18,42.53S144,202.95,144,191.7c0-9.9,4.11-12.29,9.18-12.29S162.4,181.8,162.4,191.7Z"/><path class="cls-51" d="M161.77,191.55c0,11-3.83,41.93-8.56,41.93s-8.56-31-8.56-41.93c0-9.64,3.83-12,8.56-12S161.77,181.91,161.77,191.55Z"/><path class="cls-52" d="M161.15,191.4c0,10.66-3.55,41.32-7.93,41.32s-7.93-30.67-7.93-41.32c0-9.38,3.55-11.64,7.93-11.64S161.15,182,161.15,191.4Z"/><path class="cls-53" d="M160.53,191.25c0,10.36-3.27,40.72-7.31,40.72s-7.31-30.36-7.31-40.72c0-9.12,3.27-11.32,7.31-11.32S160.53,182.13,160.53,191.25Z"/><path class="cls-54" d="M159.9,191.1c0,10.06-3,40.11-6.69,40.11s-6.69-30-6.69-40.11c0-8.86,3-11,6.69-11S159.9,182.24,159.9,191.1Z"/><path class="cls-55" d="M159.28,190.94c0,9.77-2.71,39.5-6.06,39.5s-6.06-29.73-6.06-39.5c0-8.6,2.71-10.67,6.06-10.67S159.28,182.34,159.28,190.94Z"/><path class="cls-56" d="M158.66,190.79c0,9.47-2.44,38.9-5.44,38.9s-5.44-29.42-5.44-38.9c0-8.34,2.44-10.35,5.44-10.35S158.66,182.45,158.66,190.79Z"/><path class="cls-57" d="M158,190.64c0,9.18-2.16,38.29-4.82,38.29s-4.82-29.11-4.82-38.29c0-8.08,2.16-10,4.82-10S158,182.56,158,190.64Z"/><path class="cls-58" d="M163.67,175H142.76v3h0s0,.06,0,.08c0,3.36,4.68,6.09,10.46,6.09s10.46-2.73,10.46-6.09c0,0,0-.06,0-.08h0Z"/><path class="cls-59" d="M178.19,148.79h-50v14.84h0c0,.07,0,.13,0,.2,0,8,11.18,14.54,25,14.54s25-6.51,25-14.54c0-.07,0-.13,0-.2h0Z"/><path class="cls-60" d="M178.19,149.31h-50v11.83h0c0,.05,0,.11,0,.16,0,6.4,11.18,11.6,25,11.6s25-5.19,25-11.6c0-.05,0-.11,0-.16h0Z"/><path class="cls-61" d="M192.27,99.67a87.71,87.71,0,0,0-14.48-60.25q-.76-1.11-1.56-2.19l-23-31.53-23,31.53q-.79,1.09-1.56,2.19a87.71,87.71,0,0,0-14.48,60.25L120,148.83h0c0,.09,0,.18,0,.27,0,10.67,14.85,19.32,33.17,19.32s33.17-8.65,33.17-19.32c0-.09,0-.18,0-.27h0Z"/><path class="cls-62" d="M176.23,37.22l-23-31.53-23,31.53-.38.53c4,5.22,13,8.86,23.4,8.86s19.41-3.64,23.39-8.86Z"/><path class="cls-63" d="M176.23,37.22l-23-31.53-23,31.53-.38.53c4,5.22,13,8.86,23.4,8.86s19.41-3.64,23.39-8.86Z"/><path class="cls-64" d="M192.27,99.67a87.71,87.71,0,0,0-14.48-60.25q-.76-1.11-1.56-2.19l-23-31.53-23,31.53q-.79,1.09-1.56,2.19a87.71,87.71,0,0,0-14.48,60.25L120,148.83h0c0,.09,0,.18,0,.27,0,10.67,14.85,19.32,33.17,19.32s33.17-8.65,33.17-19.32c0-.09,0-.18,0-.27h0Z"/><path class="cls-65" d="M168.81,72.35c-6.6-26.5-20.26-57-17-58.49C157.51,11.26,181.39,41,188,67.48c5.81,23.33-.74,81.41-6.78,82.91S174.61,95.67,168.81,72.35Z"/><path class="cls-66" d="M148.19,112.73c0,4.59-1.58,7.83-4.15,9.41l-2.55,1.61c-2.68,1.5-1-1.9-5-4.25-8.18-4.72-14.81-16.16-14.81-25.55,0-4.64-4.29-4.68-1.66-6.23L123,86c2.67-1.45,6.32-1.18,10.34,1.14C141.56,91.9,148.19,103.34,148.19,112.73Z"/><path class="cls-67" d="M145.27,114.46c0,9.39-6.63,13.17-14.81,8.45s-14.81-16.16-14.81-25.55,6.63-13.17,14.81-8.45S145.27,105.07,145.27,114.46Z"/><path class="cls-68" d="M142.49,112.85c0,7.62-5.39,10.69-12,6.86s-12-13.12-12-20.75,5.39-10.69,12-6.86S142.49,105.23,142.49,112.85Z"/><path class="cls-69" d="M140,109c0,5.74-4.05,8-9.05,5.16s-9.05-9.88-9.05-15.61,4.05-8,9.05-5.16S140,103.31,140,109Z"/><path class="cls-70" d="M132.82,118.72c-6.64-3.84-12-13.12-12-20.75,0-3.51,1.15-6.06,3-7.41-3.25.59-5.4,3.59-5.4,8.4,0,7.62,5.39,16.91,12,20.75,3.58,2.07,6.79,2.13,9,.55A9.91,9.91,0,0,1,132.82,118.72Z"/><path class="cls-71" d="M130.89,88.53c-3.92-2.26-8-2.11-9.86-1.22A12.57,12.57,0,0,1,130.32,89c8.18,4.72,14.81,16.16,14.81,25.55,0,4.89-2.23,8.35-5.1,9.79,3-1.12,5.68-4.63,5.68-10.21C145.7,104.69,139.07,93.26,130.89,88.53Z"/><path class="cls-72" d="M128.63,162.55,111.15,196l-3.54-2.09V179.76a20.82,20.82,0,0,1,1.1-6.39l9.08-27.75c2-6,6.18-11.52,10.83-14.2h0l3.4,2.05Z"/><path class="cls-73" d="M132.16,164.64l-21,31.39V181.85a20.82,20.82,0,0,1,1.1-6.39l9.08-27.75c2-6,6.18-11.52,10.83-14.2h0Z"/><path class="cls-74" d="M111.46,182.24a20.82,20.82,0,0,1,1.1-6.39l9.08-27.75c1.87-5.71,5.81-11,10.22-13.82v-.85h0c-4.65,2.69-8.88,8.23-10.83,14.2l-9.08,27.75a20.82,20.82,0,0,0-1.1,6.39v14.17l.62-.92Z"/><path class="cls-75" d="M177.81,162.55,195.29,196l3.54-2.09V179.76a20.82,20.82,0,0,0-1.1-6.39l-9.08-27.75c-2-6-6.18-11.52-10.83-14.2h0l-3.4,2.05Z"/><path class="cls-76" d="M174.27,164.64l21,31.39V181.85a20.82,20.82,0,0,0-1.1-6.39l-9.08-27.75c-2-6-6.18-11.52-10.83-14.2h0Z"/><path class="cls-77" d="M194.65,175.46l-9.08-27.75c-2-6-6.18-11.52-10.83-14.2h0v.18a27.1,27.1,0,0,1,9.73,13.5l9.08,27.75a20.82,20.82,0,0,1,1.1,6.39v13.05l1.1,1.64V181.85A20.82,20.82,0,0,0,194.65,175.46Z"/></g></g></svg>