<svg xmlns="http://www.w3.org/2000/svg" xmlns:xlink="http://www.w3.org/1999/xlink" viewBox="0 0 750 1334"><defs><style>.cls-1,.cls-3{mask:url(#mask);}.cls-1{filter:url(#luminosity-noclip-4);}.cls-10,.cls-2,.cls-43,.cls-48,.cls-5,.cls-51,.cls-54,.cls-58{mix-blend-mode:multiply;}.cls-2{fill:url(#linear-gradient);}.cls-4{mask:url(#mask-3);filter:url(#luminosity-noclip-6);}.cls-5{fill:url(#linear-gradient-3);}.cls-59,.cls-6{fill:none;}.cls-16,.cls-7{fill:#333;}.cls-7{clip-path:url(#clip-path);}.cls-8{fill:#e3ebdf;}.cls-9{isolation:isolate;}.cls-10,.cls-38{opacity:0.13;}.cls-11{fill:#f0f6f7;}.cls-12{fill:#416369;}.cls-13{fill:#b4d9de;opacity:0.49;}.cls-14,.cls-21,.cls-47{fill:#fff;}.cls-14{opacity:0.02;}.cls-15{fill:#2e2e2e;}.cls-17{fill:#3b3b3b;}.cls-18{mask:url(#mask-4);}.cls-19,.cls-23{opacity:0.23;}.cls-19{fill:url(#linear-gradient-4);}.cls-20{opacity:0.11;}.cls-22{fill:#d1d1d1;}.cls-24{mask:url(#mask-6);}.cls-25{fill:url(#linear-gradient-6);}.cls-26{fill:#e1e8e8;}.cls-27{fill:#cae4e6;}.cls-28{fill:#222626;}.cls-29{clip-path:url(#clip-path-2);}.cls-30{opacity:0.94;}.cls-31{fill:#545751;}.cls-32,.cls-33,.cls-34,.cls-35,.cls-36,.cls-37{fill:#595648;stroke-linecap:round;stroke-width:6.61px;}.cls-32{stroke:#595648;}.cls-32,.cls-33,.cls-34,.cls-35,.cls-36,.cls-37,.cls-41,.cls-59{stroke-miterlimit:10;}.cls-33{stroke:#bf1455;}.cls-34{stroke:#4ca5b8;}.cls-35{stroke:#8962c9;}.cls-36{stroke:#c4ba5d;}.cls-37{stroke:#679918;}.cls-39,.cls-40{fill:#313838;}.cls-39{opacity:0.22;}.cls-41{fill:#d2d6d6;stroke:#ccc;stroke-width:2.28px;}.cls-42{clip-path:url(#clip-path-3);}.cls-43{fill:#909fab;}.cls-43,.cls-51{opacity:0.14;}.cls-44{fill:#664c1c;}.cls-45{fill:#523600;}.cls-46{fill:#a8a499;opacity:0.09;}.cls-47{opacity:0.21;}.cls-48,.cls-54{fill:#8fa0b5;}.cls-48{opacity:0.28;}.cls-49{fill:#ebad78;}.cls-50{fill:#e8aa75;}.cls-51{fill:#a64d00;}.cls-52{fill:#e6a56c;}.cls-53{fill:#0dcef5;}.cls-54{opacity:0.16;}.cls-55{fill:#31d7f5;}.cls-56{fill:#e8a872;}.cls-57{fill:#edf5f5;}.cls-58{opacity:0.06;}.cls-59{stroke:#c9c9c9;stroke-width:1.04px;}.cls-60{fill:#c9c9c9;}.cls-61{filter:url(#luminosity-noclip-3);}.cls-62{filter:url(#luminosity-noclip);}</style><filter id="luminosity-noclip" x="654.52" y="-8859" width="54.66" height="32766" filterUnits="userSpaceOnUse" color-interpolation-filters="sRGB"><feFlood flood-color="#fff" result="bg"/><feBlend in="SourceGraphic" in2="bg"/></filter><mask id="mask" x="654.52" y="-8859" width="54.66" height="32766" maskUnits="userSpaceOnUse"><g class="cls-62"/></mask><linearGradient id="linear-gradient" x1="1112.86" y1="1717.64" x2="1112.86" y2="1757.88" gradientTransform="translate(1483.28 -973.23) rotate(55.51)" gradientUnits="userSpaceOnUse"><stop offset="0" stop-color="#f7f7f7"/><stop offset="1"/></linearGradient><filter id="luminosity-noclip-3" x="701.5" y="-8859" width="52.82" height="32766" filterUnits="userSpaceOnUse" color-interpolation-filters="sRGB"><feFlood flood-color="#fff" result="bg"/><feBlend in="SourceGraphic" in2="bg"/></filter><mask id="mask-3" x="701.5" y="-8859" width="52.82" height="32766" maskUnits="userSpaceOnUse"><g class="cls-61"/></mask><linearGradient id="linear-gradient-3" x1="1192.3" y1="1717.64" x2="1192.3" y2="1757.88" xlink:href="#linear-gradient"/><clipPath id="clip-path"><path id="SVGID" class="cls-6" d="M553.7,1000.56H207.56a13.75,13.75,0,0,1-13.34-12.72L184,852.05c-.59-7.88,4.83-14.3,12.12-14.3h369c7.29,0,12.71,6.42,12.12,14.3L567,987.84A13.75,13.75,0,0,1,553.7,1000.56Z"/></clipPath><filter id="luminosity-noclip-4" x="654.52" y="897.16" width="54.66" height="57.1" filterUnits="userSpaceOnUse" color-interpolation-filters="sRGB"><feFlood flood-color="#fff" result="bg"/><feBlend in="SourceGraphic" in2="bg"/></filter><mask id="mask-4" x="654.52" y="897.16" width="54.66" height="57.1" maskUnits="userSpaceOnUse"><g class="cls-1"><path class="cls-2" d="M673,949.72l-1.14-1.28a113,113,0,0,1-15.77-22.95h0c-2.66-5.13-1.87-11.12,1.93-14.66L669.64,900c4.83-4.51,12.74-3.48,17.35,2.25l1.77,2.2a180.17,180.17,0,0,1,14.57,21l3.87,6.53c4.26,7.18,1.3,15.94-6,17.84l-15.79,4.11A12.6,12.6,0,0,1,673,949.72Z"/></g></mask><linearGradient id="linear-gradient-4" x1="1112.86" y1="1717.64" x2="1112.86" y2="1757.88" gradientTransform="translate(1483.28 -973.23) rotate(55.51)" gradientUnits="userSpaceOnUse"><stop offset="0" stop-color="#fff"/><stop offset="1" stop-color="#fff"/></linearGradient><filter id="luminosity-noclip-6" x="701.5" y="962.75" width="52.82" height="59.74" filterUnits="userSpaceOnUse" color-interpolation-filters="sRGB"><feFlood flood-color="#fff" result="bg"/><feBlend in="SourceGraphic" in2="bg"/></filter><mask id="mask-6" x="701.5" y="962.75" width="52.82" height="59.74" maskUnits="userSpaceOnUse"><g class="cls-4"><path class="cls-5" d="M703.06,993.49l.79,1.52A113,113,0,0,0,719.62,1018h0c3.83,4.32,9.71,5.73,14.38,3.46l14.3-7c5.94-2.89,7.82-10.65,4.12-17L751,995a180.21,180.21,0,0,0-14.38-21.13l-4.71-6c-5.17-6.55-14.41-6.93-18.81-.78l-9.5,13.26A12.6,12.6,0,0,0,703.06,993.49Z"/></g></mask><linearGradient id="linear-gradient-6" x1="1192.3" y1="1717.64" x2="1192.3" y2="1757.88" xlink:href="#linear-gradient-4"/><clipPath id="clip-path-2"><path id="SVGID-2" data-name="SVGID" class="cls-7" d="M553.7,1000.56H207.56a13.75,13.75,0,0,1-13.34-12.72L184,852.05c-.59-7.88,4.83-14.3,12.12-14.3h369c7.29,0,12.71,6.42,12.12,14.3L567,987.84A13.75,13.75,0,0,1,553.7,1000.56Z"/></clipPath><clipPath id="clip-path-3"><circle id="SVGID-3" data-name="SVGID" class="cls-8" cx="49.67" cy="1101.17" r="74.6"/></clipPath></defs><title>Zeichenfläche 1</title><g class="cls-9"><g id="Ebene_1" data-name="Ebene 1"><path class="cls-10" d="M121.87,1350l-51.4,36.4a8.88,8.88,0,0,1-12.41-2.15l-75-107a8.88,8.88,0,0,1,2.14-12.35l51.4-36.4A8.89,8.89,0,0,1,49,1230.64l75,107A8.88,8.88,0,0,1,121.87,1350Z"/><path class="cls-11" d="M119.06,1343.05l-49.7,35.2a8.56,8.56,0,0,1-12-2l-72-102.73a8.56,8.56,0,0,1,2.11-11.89l49.7-35.2a8.56,8.56,0,0,1,12,2l72,102.73A8.56,8.56,0,0,1,119.06,1343.05Z"/><polygon class="cls-12" points="112.74 1323.84 54.35 1365.19 -6.91 1277.82 51.48 1236.47 112.74 1323.84"/><path class="cls-13" d="M24.77,1248.85l-12,8.52a1.36,1.36,0,0,1-1.9-.33h0a1.37,1.37,0,0,1,.33-1.91l12-8.52a1.36,1.36,0,0,1,1.9.33h0A1.37,1.37,0,0,1,24.77,1248.85Z"/><polygon class="cls-14" points="52.15 1237.52 53.76 1366.26 -6.64 1278.29 52.15 1237.52"/><path class="cls-10" d="M763,1018.07l-2.92-5-8.57-14.85c-2.44-4.22-5.08-8.41-7.85-12.44-2.44-3.55-5-7.05-7.7-10.42L718.23,953l-.31-.42q-.15-.21-.28-.44l-14.51-24.57c-2.19-3.7-4.53-7.38-7-10.92-2.77-4-5.73-8-8.79-11.79l-10.79-13.32L672.94,887a1.47,1.47,0,0,0-1.94-.39l-6.66,4.57a1.45,1.45,0,0,0-.37,1.9l2.85,5.33a1,1,0,0,1-.15,1.2l-10.31,9.63a10.84,10.84,0,0,0-7,.5l-5.68,2.48a3.11,3.11,0,0,0-1.82,2.25,4.13,4.13,0,0,0,2.48,4.61l4.78,1.95a17.09,17.09,0,0,0,2.38,10.16l3.5,5.92c1,1.63,2,3.24,3.06,4.8,1.44,2.09,3,4.14,4.61,6.1l5.93,7.14a14.1,14.1,0,0,0,13.23,5.21L700.27,957l.15.3a23.75,23.75,0,0,0,3.3,5,23.76,23.76,0,0,0,3.5,4.88l.28.3-9.79,16a14.11,14.11,0,0,0,.11,14.22l4.54,8.1c1.24,2.21,2.6,4.4,4,6.49,1.07,1.56,2.21,3.1,3.38,4.58l4.27,5.39a17.09,17.09,0,0,0,8.58,5.85l.11,5.1a4.09,4.09,0,0,0,.72,2.23h0a4.11,4.11,0,0,0,2.69,1.73,3.11,3.11,0,0,0,2.76-.89l4.35-4.41a10.83,10.83,0,0,0,3-6.25l12.75-6.2a1,1,0,0,1,1.17.29l4,4.57a1.45,1.45,0,0,0,1.9.34l6.66-4.57A1.47,1.47,0,0,0,763,1018.07Zm-37.6-30.75,1.11,1.41,20.92,26.8a9.65,9.65,0,0,1-2.47,1.72l-8.88,4.32q-.06-.32-.14-.63A310.3,310.3,0,0,0,725.41,987.32Zm14.76.13c2.55,3.7,5,7.55,7.24,11.44l.6,1-26-31.57-.85-1a12.59,12.59,0,0,1,7.19,4.58l4.71,6C735.55,981,737.93,984.19,740.17,987.46Zm-17.6,37.14a12.66,12.66,0,0,1-5.36-3.62,112.06,112.06,0,0,1-15.64-22.76l-.79-1.52a11.86,11.86,0,0,1,.51-12.26l9.57-13.37,3.52,3.79.14.2a41.78,41.78,0,0,1,7.48,22.8Zm-45.51-92.16a41.78,41.78,0,0,1,18.6,15.16l.14.2,2.31,4.72-15.9,4.14a11.86,11.86,0,0,1-11.62-3.92l-1.14-1.28A112.05,112.05,0,0,1,653.8,928.7a12.65,12.65,0,0,1-1.45-6.35Zm-16.55-21.29-.47-.31,7.19-6.71a9.65,9.65,0,0,1,2.49-1.69L687.2,931.5l.92,1.54A310.32,310.32,0,0,0,660.51,911.14Zm39.24,18.18,3.87,6.53a12.59,12.59,0,0,1,1.7,8.37l-.7-1.25-20.14-35.51.78,1c2.82,3.5,5.53,7.15,8.08,10.86C695.57,922.54,697.73,925.92,699.75,929.32Z"/><path class="cls-15" d="M675.21,883.9l-7.57,5.2,23.14,38.5q3.38,5.62,6.26,11.5l7,14.32a22.83,22.83,0,0,0,3.35,5l7.48,8.51a43.31,43.31,0,0,1,10.86,27.43l.74,35.32c.05,2.6,3.14,4.14,4.84,2.42l4.35-4.41a10.68,10.68,0,0,0,2.5-10.18h0a312.37,312.37,0,0,0-31.25-77.75Z"/><path class="cls-16" d="M765.26,1014.95l-7.57,5.2L730,984.74q-4-5.17-8.49-10L710.7,963.1a22.83,22.83,0,0,1-3.49-4.93l-5.27-10a43.31,43.31,0,0,0-21.71-20l-32.71-13.35c-2.41-1-2.74-4.41-.52-5.38l5.68-2.48a10.68,10.68,0,0,1,10.4,1.32h0a312.38,312.38,0,0,1,61.37,57Z"/><path class="cls-17" d="M765.32,1014.91l-2.93-5L753.82,995a187.91,187.91,0,0,0-15.47-22.74l-17.74-22.36q-.18-.23-.35-.47T720,949l-14.51-24.57a187.91,187.91,0,0,0-15.68-22.6L679,888.46l-3.65-4.54a.68.68,0,0,0-.91-.18l-6.66,4.57a.68.68,0,0,0-.17.89l2.85,5.33a1.78,1.78,0,0,1-.27,2.15l-13.25,12.37c-4.74,4.42-5.5,12-1.82,18.24l3.5,5.92A83.15,83.15,0,0,0,666.19,944l5.93,7.14A13.33,13.33,0,0,0,684.59,956l22.65-4.17a5.84,5.84,0,0,1,5.75,2.59h0a5.84,5.84,0,0,1,.36,6.3l-12,19.65a13.33,13.33,0,0,0,.11,13.4l4.54,8.1a83.18,83.18,0,0,0,7.34,11l4.27,5.39c4.48,5.66,11.85,7.68,17.68,4.84l16.3-7.93a1.77,1.77,0,0,1,2.1.52l4,4.57a.68.68,0,0,0,.89.16l6.66-4.57A.68.68,0,0,0,765.32,1014.91ZM701.2,949.8l-15.79,4.11A12.6,12.6,0,0,1,673,949.72l-1.14-1.28a113,113,0,0,1-15.77-22.95c-2.66-5.13-1.87-11.12,1.93-14.66L669.64,900c4.83-4.51,12.74-3.48,17.35,2.25l1.77,2.2a180.19,180.19,0,0,1,14.57,21l3.87,6.53C711.47,939.13,708.52,947.89,701.2,949.8Zm47.1,64.66-14.3,7c-4.67,2.27-10.55.86-14.38-3.46A113,113,0,0,1,703.85,995l-.79-1.52a12.6,12.6,0,0,1,.55-13.09l9.5-13.26c4.4-6.15,13.64-5.77,18.81.78l4.71,6A180.21,180.21,0,0,1,751,995l1.42,2.44C756.12,1003.81,754.24,1011.56,748.3,1014.45Z"/><g class="cls-18"><path class="cls-19" d="M673,949.72l-1.14-1.28a113,113,0,0,1-15.77-22.95h0c-2.66-5.13-1.87-11.12,1.93-14.66L669.64,900c4.83-4.51,12.74-3.48,17.35,2.25l1.77,2.2a180.17,180.17,0,0,1,14.57,21l3.87,6.53c4.26,7.18,1.3,15.94-6,17.84l-15.79,4.11A12.6,12.6,0,0,1,673,949.72Z"/></g><g class="cls-20"><path class="cls-21" d="M696.89,915.34l-.61.42h0c2.24,3.26,4.4,6.64,6.42,10l3.87,6.53a12.32,12.32,0,0,1,1.25,10.2,9.8,9.8,0,0,1-6.88,6.5l-15.79,4.11a11.86,11.86,0,0,1-11.62-3.92l-1.14-1.28a112.09,112.09,0,0,1-15.64-22.76c-2.48-4.78-1.74-10.42,1.8-13.73l11.63-10.85a9.92,9.92,0,0,1,8.2-2.54,12.41,12.41,0,0,1,8,4.65l1.77,2.2c2.82,3.5,5.53,7.15,8.08,10.86l.61-.42m0,0q-3.85-5.61-8.12-10.91l-1.77-2.2c-4.61-5.73-12.52-6.76-17.35-2.25L658,910.83c-3.8,3.54-4.58,9.54-1.93,14.66h0a113,113,0,0,0,15.77,22.95l1.14,1.28a12.6,12.6,0,0,0,12.42,4.18l15.79-4.11c7.32-1.91,10.28-10.66,6-17.84l-3.87-6.53q-3.06-5.15-6.45-10.09Z"/></g><path class="cls-22" d="M676.16,894l-3-5.17a.57.57,0,0,1,.13-.76h0a.57.57,0,0,1,.75.15l3.74,4.69a1,1,0,0,1-.13,1.5h0A1,1,0,0,1,676.16,894Z"/><g class="cls-20"><path class="cls-21" d="M703.06,993.49l.79,1.52A113,113,0,0,0,719.62,1018h0c3.83,4.32,9.71,5.73,14.38,3.46l14.3-7c5.94-2.89,7.82-10.65,4.12-17L751,995a180.21,180.21,0,0,0-14.38-21.13l-4.71-6c-5.17-6.55-14.41-6.93-18.81-.78l-9.5,13.26A12.6,12.6,0,0,0,703.06,993.49Z"/></g><g class="cls-18"><path class="cls-19" d="M673,949.72l-1.14-1.28a113,113,0,0,1-15.77-22.95h0c-2.66-5.13-1.87-11.12,1.93-14.66L669.64,900c4.83-4.51,12.74-3.48,17.35,2.25l1.77,2.2a180.17,180.17,0,0,1,14.57,21l3.87,6.53c4.26,7.18,1.3,15.94-6,17.84l-15.79,4.11A12.6,12.6,0,0,1,673,949.72Z"/></g><g class="cls-23"><g class="cls-24"><path class="cls-25" d="M703.06,993.49l.79,1.52A113,113,0,0,0,719.62,1018h0c3.83,4.32,9.71,5.73,14.38,3.46l14.3-7c5.94-2.89,7.82-10.65,4.12-17L751,995a180.21,180.21,0,0,0-14.38-21.13l-4.71-6c-5.17-6.55-14.41-6.93-18.81-.78l-9.5,13.26A12.6,12.6,0,0,0,703.06,993.49Z"/></g></g><g class="cls-20"><path class="cls-21" d="M743.12,983.93c2.55,3.7,5,7.55,7.24,11.44l1.42,2.44a12.41,12.41,0,0,1,1.45,9.18,9.92,9.92,0,0,1-5.31,6.74l-14.3,7c-4.35,2.12-9.89.79-13.46-3.24a112.09,112.09,0,0,1-15.64-22.76l-.79-1.52a11.86,11.86,0,0,1,.51-12.26l9.5-13.26a9.8,9.8,0,0,1,8.53-4.09,12.31,12.31,0,0,1,9.07,4.82l4.71,6c2.45,3.1,4.83,6.33,7.07,9.59m.61-.42q-3.39-4.94-7.11-9.64l-4.71-6c-5.17-6.55-14.41-6.93-18.81-.78l-9.5,13.26a12.6,12.6,0,0,0-.55,13.09l.79,1.52A113,113,0,0,0,719.62,1018h0c3.83,4.32,9.71,5.73,14.38,3.46l14.3-7c5.94-2.89,7.82-10.65,4.12-17L751,995q-3.42-5.88-7.27-11.49Z"/></g><path class="cls-10" d="M346.22,1026.93c-8.12-13.56-15.89,152-21.61,146.25L186.33,1033.84a12.62,12.62,0,0,0-5.46,10.39v253.66a12.64,12.64,0,0,0,12.64,12.64h395.9A12.64,12.64,0,0,0,602,1297.9V1044.49a17.55,17.55,0,0,0-17.55-17.55Z"/><path class="cls-26" d="M578.57,1296.37H182.67A12.64,12.64,0,0,1,170,1283.72V1030.06a12.64,12.64,0,0,1,12.64-12.64h395.9a12.64,12.64,0,0,1,12.64,12.64v253.66A12.64,12.64,0,0,1,578.57,1296.37Z"/><path class="cls-27" d="M579.47,1010.37H181.78a13.85,13.85,0,0,1-13.42-12.62L153.53,825.28c-.69-8,4.71-14.6,12.08-14.6H595.66c7.36,0,12.77,6.56,12.08,14.6L592.89,997.75A13.86,13.86,0,0,1,579.47,1010.37Z"/><path class="cls-28" d="M578.92,1017.16H182.33A13.8,13.8,0,0,1,169,1004.6L154.2,833.13c-.69-8,4.7-14.51,12-14.51H595c7.34,0,12.73,6.52,12,14.51L592.3,1004.61A13.8,13.8,0,0,1,578.92,1017.16Z"/><path id="SVGID-4" data-name="SVGID" class="cls-16" d="M553.7,1000.56H207.56a13.75,13.75,0,0,1-13.34-12.72L184,852.05c-.59-7.88,4.83-14.3,12.12-14.3h369c7.29,0,12.71,6.42,12.12,14.3L567,987.84A13.75,13.75,0,0,1,553.7,1000.56Z"/><g class="cls-29"><g class="cls-30"><polygon class="cls-31" points="203.01 853.55 196.18 853.55 195.63 846.69 202.48 846.69 203.01 853.55"/><polygon class="cls-31" points="203.74 863.04 196.94 863.04 196.39 856.24 203.22 856.24 203.74 863.04"/><polygon class="cls-31" points="204.46 872.45 197.69 872.45 197.15 865.71 203.94 865.71 204.46 872.45"/><polygon class="cls-31" points="205.18 881.77 198.44 881.77 197.9 875.09 204.67 875.09 205.18 881.77"/><polygon class="cls-31" points="205.89 891.02 199.18 891.02 198.65 884.39 205.38 884.39 205.89 891.02"/><polygon class="cls-31" points="206.6 900.18 199.91 900.18 199.38 893.62 206.09 893.62 206.6 900.18"/><polygon class="cls-31" points="207.3 909.27 200.64 909.27 200.12 902.76 206.8 902.76 207.3 909.27"/><polygon class="cls-31" points="208 918.4 201.37 918.4 200.85 911.94 207.5 911.94 208 918.4"/><line class="cls-32" x1="214.64" y1="850.13" x2="272.19" y2="850.13"/><line class="cls-32" x1="282.93" y1="850.13" x2="318.44" y2="850.13"/><line class="cls-32" x1="218.64" y1="906.02" x2="274.71" y2="906.02"/><line class="cls-32" x1="285.18" y1="906.02" x2="468.4" y2="906.02"/><line class="cls-32" x1="215.32" y1="859.65" x2="236.89" y2="859.65"/><line class="cls-32" x1="248.16" y1="859.65" x2="294.2" y2="859.65"/><line class="cls-32" x1="304.95" y1="859.65" x2="333.57" y2="859.65"/><line class="cls-33" x1="216.77" y1="879.84" x2="257.44" y2="879.84"/><line class="cls-32" x1="267.9" y1="879.84" x2="294.91" y2="879.84"/><line class="cls-32" x1="305.56" y1="879.84" x2="350.51" y2="879.84"/><line class="cls-33" x1="217.33" y1="887.71" x2="240.06" y2="887.71"/><line class="cls-32" x1="249.74" y1="887.71" x2="272.46" y2="887.71"/><line class="cls-32" x1="281.73" y1="887.71" x2="316.96" y2="887.71"/><line class="cls-33" x1="217.99" y1="896.91" x2="270.17" y2="896.91"/><line class="cls-34" x1="282.11" y1="896.91" x2="387.55" y2="896.91"/><polygon class="cls-31" points="208.71 927.58 202.11 927.58 201.59 921.18 208.22 921.18 208.71 927.58"/><polygon class="cls-31" points="209.39 936.43 202.82 936.43 202.31 930.09 208.9 930.09 209.39 936.43"/><polygon class="cls-31" points="210.06 945.21 203.52 945.21 203.01 938.92 209.58 938.92 210.06 945.21"/><polygon class="cls-31" points="210.74 953.92 204.22 953.92 203.72 947.68 210.25 947.68 210.74 953.92"/><polygon class="cls-31" points="211.4 962.55 204.91 962.55 204.41 956.37 210.92 956.37 211.4 962.55"/><polygon class="cls-31" points="212.06 971.12 205.59 971.12 205.1 964.98 211.59 964.98 212.06 971.12"/><polygon class="cls-31" points="212.71 979.61 206.28 979.61 205.79 973.53 212.25 973.53 212.71 979.61"/><line class="cls-33" x1="219.95" y1="924.38" x2="275.54" y2="924.38"/><line class="cls-35" x1="285.91" y1="924.38" x2="320.21" y2="924.38"/><line class="cls-34" x1="330.08" y1="924.38" x2="385.78" y2="924.38"/><line class="cls-36" x1="395.69" y1="924.38" x2="493.05" y2="924.38"/><line class="cls-32" x1="223.69" y1="976.57" x2="277.89" y2="976.57"/><line class="cls-32" x1="288.01" y1="976.57" x2="386.9" y2="976.57"/><line class="cls-33" x1="220.59" y1="933.26" x2="241.42" y2="933.26"/><line class="cls-37" x1="252.31" y1="933.26" x2="296.79" y2="933.26"/><line class="cls-36" x1="307.17" y1="933.26" x2="334.81" y2="933.26"/><line class="cls-33" x1="221.94" y1="952.11" x2="261.24" y2="952.11"/><line class="cls-36" x1="271.35" y1="952.11" x2="297.45" y2="952.11"/><line class="cls-32" x1="307.74" y1="952.11" x2="351.18" y2="952.11"/><line class="cls-33" x1="222.46" y1="959.47" x2="244.43" y2="959.47"/><line class="cls-34" x1="253.78" y1="959.47" x2="275.75" y2="959.47"/><line class="cls-32" x1="284.7" y1="959.47" x2="318.75" y2="959.47"/><line class="cls-33" x1="223.08" y1="968.05" x2="273.51" y2="968.05"/><line class="cls-34" x1="285.06" y1="968.05" x2="439.65" y2="968.05"/><line class="cls-36" x1="450.54" y1="968.05" x2="535.27" y2="968.05"/><polygon class="cls-31" points="213.41 988.7 207 988.7 206.52 982.67 212.95 982.67 213.41 988.7"/><polygon class="cls-31" points="214.06 997.05 207.67 997.05 207.19 991.07 213.59 991.07 214.06 997.05"/><polygon class="cls-31" points="214.69 1005.33 208.34 1005.33 207.86 999.39 214.24 999.39 214.69 1005.33"/><polygon class="cls-31" points="215.32 1013.54 208.99 1013.54 208.52 1007.66 214.87 1007.66 215.32 1013.54"/><polygon class="cls-31" points="215.95 1021.69 209.65 1021.69 209.18 1015.85 215.5 1015.85 215.95 1021.69"/><polygon class="cls-31" points="216.57 1029.77 210.29 1029.77 209.83 1023.98 216.13 1023.98 216.57 1029.77"/><polygon class="cls-31" points="217.19 1037.78 210.94 1037.78 210.48 1032.04 216.75 1032.04 217.19 1037.78"/><line class="cls-33" x1="224.34" y1="985.69" x2="278.3" y2="985.69"/><line class="cls-36" x1="288.37" y1="985.69" x2="472.6" y2="985.69"/><line class="cls-32" x1="227.86" y1="1034.92" x2="343.45" y2="1034.92"/><line class="cls-32" x1="356.22" y1="1034.92" x2="401.64" y2="1034.92"/><line class="cls-32" x1="224.94" y1="994.06" x2="245.16" y2="994.06"/><line class="cls-32" x1="255.73" y1="994.06" x2="298.92" y2="994.06"/><line class="cls-32" x1="309" y1="994.06" x2="335.84" y2="994.06"/><line class="cls-33" x1="226.21" y1="1011.84" x2="264.38" y2="1011.84"/><line class="cls-32" x1="274.2" y1="1011.84" x2="299.55" y2="1011.84"/><line class="cls-32" x1="309.54" y1="1011.84" x2="351.73" y2="1011.84"/><line class="cls-33" x1="226.7" y1="1018.77" x2="248.04" y2="1018.77"/><line class="cls-37" x1="257.13" y1="1018.77" x2="278.46" y2="1018.77"/><line class="cls-32" x1="287.16" y1="1018.77" x2="320.23" y2="1018.77"/><line class="cls-33" x1="227.28" y1="1026.88" x2="276.28" y2="1026.88"/><line class="cls-34" x1="287.5" y1="1026.88" x2="386.49" y2="1026.88"/></g><g class="cls-38"><polygon class="cls-21" points="327.12 1029.53 311.55 1015.71 454.8 820.18 470.37 834 327.12 1029.53"/><polygon class="cls-21" points="423.16 1088.9 347.1 1021.36 550.19 744.17 626.25 811.72 423.16 1088.9"/></g></g><path class="cls-39" d="M421.15,1296.37H340.09a8.9,8.9,0,0,1,8.9-8.9h63.26a8.9,8.9,0,0,1,8.9,8.9Z"/><rect class="cls-40" x="237.21" y="1017.43" width="286.84" height="9.5"/><rect class="cls-39" x="237.21" y="1026.85" width="286.84" height="7.16"/><path class="cls-41" d="M431.88,1271.36H329.36a7.08,7.08,0,0,1-7.08-7.08V1200.1a7.08,7.08,0,0,1,7.08-7.08H431.88a7.08,7.08,0,0,1,7.08,7.08v64.18A7.08,7.08,0,0,1,431.88,1271.36Z"/><rect class="cls-40" x="195.09" y="1057.15" width="23.34" height="23.34" rx="6.27" ry="6.27"/><rect class="cls-40" x="225.04" y="1057.15" width="23.34" height="23.34" rx="6.27" ry="6.27"/><rect class="cls-40" x="254.98" y="1057.15" width="23.34" height="23.34" rx="6.27" ry="6.27"/><rect class="cls-40" x="284.93" y="1057.16" width="23.34" height="23.34" rx="6.27" ry="6.27"/><rect class="cls-40" x="314.87" y="1057.16" width="23.34" height="23.34" rx="6.27" ry="6.27"/><rect class="cls-40" x="344.82" y="1057.16" width="23.34" height="23.34" rx="6.27" ry="6.27"/><rect class="cls-40" x="374.76" y="1057.16" width="23.34" height="23.34" rx="6.27" ry="6.27"/><rect class="cls-40" x="404.71" y="1057.16" width="23.34" height="23.34" rx="6.27" ry="6.27"/><rect class="cls-40" x="434.65" y="1057.16" width="23.34" height="23.34" rx="6.27" ry="6.27"/><rect class="cls-40" x="464.6" y="1057.16" width="23.34" height="23.34" rx="6.27" ry="6.27"/><rect class="cls-40" x="494.55" y="1057.16" width="23.34" height="23.34" rx="6.27" ry="6.27"/><rect class="cls-40" x="524.49" y="1057.16" width="41.67" height="23.34" rx="6.27" ry="6.27"/><rect class="cls-40" x="195.09" y="1086.6" width="41.67" height="23.34" rx="6.27" ry="6.27"/><rect class="cls-40" x="243.37" y="1086.6" width="23.34" height="23.34" rx="6.27" ry="6.27"/><rect class="cls-40" x="273.32" y="1086.61" width="23.34" height="23.34" rx="6.27" ry="6.27"/><rect class="cls-40" x="303.26" y="1086.61" width="23.34" height="23.34" rx="6.27" ry="6.27"/><rect class="cls-40" x="333.21" y="1086.61" width="23.34" height="23.34" rx="6.27" ry="6.27"/><rect class="cls-40" x="363.15" y="1086.61" width="23.34" height="23.34" rx="6.27" ry="6.27"/><rect class="cls-40" x="393.1" y="1086.61" width="23.34" height="23.34" rx="6.27" ry="6.27"/><rect class="cls-40" x="423.04" y="1086.61" width="23.34" height="23.34" rx="6.27" ry="6.27"/><rect class="cls-40" x="452.99" y="1086.61" width="23.34" height="23.34" rx="6.27" ry="6.27"/><rect class="cls-40" x="482.94" y="1086.61" width="23.34" height="23.34" rx="6.27" ry="6.27"/><rect class="cls-40" x="512.88" y="1086.61" width="23.34" height="23.34" rx="6.27" ry="6.27"/><rect class="cls-40" x="542.83" y="1086.61" width="23.34" height="23.34" rx="6.27" ry="6.27"/><path class="cls-40" d="M246.35,1139.39H199.67a4.58,4.58,0,0,1-4.58-4.58v-14.17a4.58,4.58,0,0,1,4.58-4.58h46.67a4.58,4.58,0,0,1,4.58,4.58v14.17A4.58,4.58,0,0,1,246.35,1139.39Z"/><rect class="cls-40" x="257.54" y="1116.05" width="23.34" height="23.34" rx="6.27" ry="6.27"/><rect class="cls-40" x="287.48" y="1116.06" width="23.34" height="23.34" rx="6.27" ry="6.27"/><rect class="cls-40" x="317.43" y="1116.06" width="23.34" height="23.34" rx="6.27" ry="6.27"/><rect class="cls-40" x="347.38" y="1116.06" width="23.34" height="23.34" rx="6.27" ry="6.27"/><rect class="cls-40" x="377.32" y="1116.06" width="23.34" height="23.34" rx="6.27" ry="6.27"/><rect class="cls-40" x="407.27" y="1116.06" width="23.34" height="23.34" rx="6.27" ry="6.27"/><rect class="cls-40" x="437.21" y="1116.06" width="23.34" height="23.34" rx="6.27" ry="6.27"/><rect class="cls-40" x="467.16" y="1116.06" width="23.34" height="23.34" rx="6.27" ry="6.27"/><rect class="cls-40" x="497.1" y="1116.06" width="23.34" height="23.34" rx="6.27" ry="6.27"/><rect class="cls-40" x="527.05" y="1116.06" width="39.05" height="23.34" rx="6.27" ry="6.27"/><rect class="cls-40" x="195.09" y="1145.5" width="23.34" height="23.34" rx="6.27" ry="6.27"/><rect class="cls-40" x="225.03" y="1145.5" width="23.34" height="23.34" rx="6.27" ry="6.27"/><rect class="cls-40" x="254.98" y="1145.5" width="23.34" height="23.34" rx="6.27" ry="6.27"/><path class="cls-40" d="M413.27,1168.85H288a3.11,3.11,0,0,1-3.11-3.11v-17.13a3.11,3.11,0,0,1,3.11-3.11H413.27a3.11,3.11,0,0,1,3.11,3.11v17.13A3.11,3.11,0,0,1,413.27,1168.85Z"/><rect class="cls-40" x="422.98" y="1145.51" width="23.34" height="23.34" rx="6.27" ry="6.27"/><rect class="cls-40" x="452.93" y="1145.51" width="23.34" height="23.34" rx="6.27" ry="6.27"/><rect class="cls-40" x="482.87" y="1157.18" width="23.34" height="11.67" rx="1.87" ry="1.87"/><rect class="cls-40" x="512.82" y="1145.51" width="23.34" height="23.34" rx="6.27" ry="6.27"/><rect class="cls-40" x="542.77" y="1157.18" width="23.34" height="11.67" rx="1.87" ry="1.87"/><path class="cls-10" d="M580.89,1098.29H183.11c-8.12,0-12.69-1.59-12.7-4.42l-.35-72.7c0-1.38,6.74-3.74,10.71-3.74H578.54c8.12,0,12.69,6.67,12.7,9.5l.32,61.06c0,4.45-4.79,9.66-9.79,10.23A7.85,7.85,0,0,1,580.89,1098.29Z"/><circle id="SVGID-5" data-name="SVGID" class="cls-8" cx="49.67" cy="1101.17" r="74.6"/><g class="cls-42"><polygon class="cls-43" points="32.82 1190.11 122.93 1152.7 88.63 1080.78 6.1 1115.05 32.82 1190.11"/></g><path class="cls-21" d="M26.88,1163.28l10.34-19.53-8.89-4.7L18,1158.58a5,5,0,0,0,2.09,6.8h0A5,5,0,0,0,26.88,1163.28Z"/><circle class="cls-21" cx="49.67" cy="1101.17" r="48.78"/><circle class="cls-44" cx="49.67" cy="1101.17" r="41.86"/><path class="cls-45" d="M85.69,1106.5c-5.4,16.55-13.84,27.72-36.85,27.72s-38.75-13.42-38.75-35.3,16.37-39.61,39.38-39.61S92.51,1085.6,85.69,1106.5Z"/><path class="cls-46" d="M78.05,1079.41c3.9,12.49-11.54,13.4-28.91,18.82s-30.09,13.31-34,.82,7-27,24.39-32.44S74.15,1066.92,78.05,1079.41Z"/><circle class="cls-44" cx="55.71" cy="1134.22" r="3.19"/><circle class="cls-44" cx="60.94" cy="1132.93" r="2.86"/><circle class="cls-44" cx="65.65" cy="1132.93" r="2.86"/><circle class="cls-44" cx="68.5" cy="1131.02" r="1.91"/><circle class="cls-45" cx="55.71" cy="1134.22" r="1.57"/><circle class="cls-45" cx="60.94" cy="1132.93" r="1.91"/><circle class="cls-45" cx="65.65" cy="1132.93" r="1.91"/><circle class="cls-45" cx="69.51" cy="1131.02" r="1.02"/><path class="cls-47" d="M-86.81,1027.06h0A17.05,17.05,0,0,1-69.76,1010H16a17.05,17.05,0,0,1,17.05,17.05h0A17.05,17.05,0,0,1,16,1044.11h-.8A10.26,10.26,0,0,0,5,1054.37v.62a10.26,10.26,0,0,0,10.26,10.26H39.4a10.26,10.26,0,0,1,10.26,10.26v.84a10.26,10.26,0,0,1-10.26,10.26H-29.44a10.26,10.26,0,0,1-10.26-10.26v-.84a10.26,10.26,0,0,1,10.26-10.26h0A10.26,10.26,0,0,0-19.18,1055v-.62a10.26,10.26,0,0,0-10.26-10.26H-69.76A17.05,17.05,0,0,1-86.81,1027.06Z"/><path class="cls-48" d="M672.92,1432.27l-50.56-112.58-1.12-3.42-.11,0,0,0a4.83,4.83,0,0,0,2.52-6.06l-16.5-44.63a4.84,4.84,0,0,0-6.87-2.56l-8.58,4.71-5.55-16,2.05-26.1h0l0-.58a160.25,160.25,0,0,0-1.17-35.61l-.56-9.76L586,1166l.4-7.86,1.52-28.61c0-.29,0-.57,0-.85v-.19a10.84,10.84,0,0,0-3-6.8l-.11-.12c-.17-.17-.34-.33-.52-.48l-.31-.28c-.19-.15-.38-.3-.58-.44l-.28-.21a12.22,12.22,0,0,0-6.25-2.1,15.52,15.52,0,0,0-1.6-.05h-.37a12.28,12.28,0,0,0-10.28,5.14l1.17-12.73c.06-6.63-5.57-12-12.58-12s-12.74,5.41-12.8,12l-4.13,44.82-1-.19,4.43-61.38c.44-6.61-4.87-12.28-11.87-12.66s-13,4.67-13.47,11.28l-4.19,58-1.31-.25-.87-7.88a3.82,3.82,0,0,0,.2-2l-6.67-56.46a11.41,11.41,0,0,0-.16-1.22,12.18,12.18,0,0,0-12.25-9.62c-.39,0-.79,0-1.19.05-7,.65-12.2,6.53-11.67,13.14l7.82,70.63a11.35,11.35,0,0,0,.27,1.63l1.3,50-2.07,7.42-3.37-11.14L475,1171.87l1.37-10.59a19.87,19.87,0,0,0-14.63-21.77l-.94-.25-11.7,30a15,15,0,0,0-.85,7.76c1.95,12.52,8,50.82,10.26,61.28,1.11,5.07,8.39,7.76,12.87,10.37L504,1267.81l15.39,39.56-7.76,4.26a4.84,4.84,0,0,0-2.21,5.92l12.93,35a4.84,4.84,0,0,0,6.42,2.78l3.2-1.35,33,78.85,48.52-3.48.18,2.73Z"/><path class="cls-49" d="M467.51,1211.32,464.9,1200,462,1167l2.08-10.47a19.87,19.87,0,0,0-13.14-22.7l-.92-.31-13.68,29.19a15,15,0,0,0-1.36,7.68c1.11,12.63,4.55,51.23,6.15,61.83.77,5.13,7.86,8.3,12.15,11.21L485.21,1265l-15.13-61Z"/><g id="arm"><path class="cls-50" d="M494.26,1080.8l3.08,71c.09,6.63-5.52,12.15-12.52,12.33h0c-7,.18-12.76-5-12.85-11.67l-3.08-71c-.09-6.63,5.52-12.15,12.52-12.33h0C488.41,1069,494.17,1074.17,494.26,1080.8Z"/><path class="cls-51" d="M481.41,1069.13l3.28,66.18c7-.18,12.55,8.9,12.46,2.27l-2.89-56.78C494.17,1074.17,488.41,1069,481.41,1069.13Z"/><path class="cls-52" d="M521.2,1165.62h0c-1.25,6.51-7.85,10.78-14.75,9.55h0c-6.9-1.24-11.48-7.51-10.23-14h0c1.25-6.51,7.85-10.78,14.75-9.55h0C517.87,1152.84,522.45,1159.12,521.2,1165.62Z"/><path class="cls-50" d="M531.7,1093.3l-10.06,72c-.88,6.57-7.24,11.2-14.2,10.36h0c-7-.85-11.88-6.86-11-13.43l10.06-72c.88-6.57,7.24-11.2,14.2-10.36h0C527.65,1080.72,532.58,1086.73,531.7,1093.3Z"/><path class="cls-51" d="M520.7,1079.87h0c7,.85,11.88,6.86,11,13.43l-7.34,52c-.88,6.57-5.56-5.94-12.52-6.79Z"/><path class="cls-50" d="M556.62,1111.68l-8.56,53.45c-.5,6.61-6.58,11.6-13.58,11.16h0c-7-.45-12.26-6.16-11.76-12.77l8.56-53.45c.5-6.61,6.58-11.6,13.58-11.16h0C551.86,1099.35,557.12,1105.07,556.62,1111.68Z"/><path class="cls-51" d="M544.86,1098.9h0c7,.45,12.26,6.16,11.76,12.77l-7.75,36.65c-.5,6.61-5.64-4.17-12.64-4.62Z"/><path class="cls-50" d="M577.49,1132.23l-5,41.58c-.63,6.6-6.81,11.47-13.8,10.88h0c-7-.59-12.13-6.41-11.5-13l5-41.59c.6-6.22,6.42-10.81,13-10.26l1.46.12C573.24,1120.53,578.09,1126,577.49,1132.23Z"/><path class="cls-49" d="M571.35,1228.18l-3.79,25.9,40.23,146.59-76,14.17L483,1259.39l-12.88-55.33,2.07-50.71h0a11,11,0,0,1,13.46-8.88l87.56,22.78-.7,24.17A160.26,160.26,0,0,1,571.35,1228.18Z"/></g><path class="cls-51" d="M565.57,1120.11l-7.29,74,.18,11.33c.27,17,8.54,40.3-6.25,48.71l0,2.71c3.84,3.83,4.89,10.65,4.43,16l.16,12.18-60.44,32.4,4.5,5.41,54-23.23-9.7,112.69,56.95-16.71-34.49-141.61,3.87-26.48a160.26,160.26,0,0,0,1.21-35.61l.19-21,4.7-39.71c-.18-6.34-4.94-11.08-12-11.38Z"/><polygon class="cls-53" points="639.05 1432.79 584.75 1274.61 497.08 1315.09 535.82 1432.29 639.05 1432.79"/><polygon class="cls-54" points="639.05 1432.79 584.75 1274.61 538.44 1295.99 583.15 1432.79 639.05 1432.79"/><path class="cls-55" d="M601.07,1314.91l-13.49-45.64a4.84,4.84,0,0,0-6.68-3l-91.62,42.59a4.84,4.84,0,0,0-2.6,5.76l10.57,35.76a4.84,4.84,0,0,0,6.22,3.2L598,1320.85A4.84,4.84,0,0,0,601.07,1314.91Z"/><path class="cls-54" d="M601,1314.8l-13.41-45.38a5,5,0,0,0-6.86-3.1l-42.43,20.12,13.06,50.18,46.5-15.72A5,5,0,0,0,601,1314.8Z"/><polygon class="cls-48" points="514.16 1349.91 600.13 1328.06 598.28 1320.8 514.16 1349.91"/><path class="cls-48" d="M348.95,1185.56a14.54,14.54,0,0,0-.57-1.54L342.45,1171l-8.59-22h0l-.15,0-1,.13h0c-11.45,1.56-18.41,14.18-16.82,24.18l1.71,10.7-5.78,32.15,11,6.19-2.52-7.61,1.2-50.46a9.89,9.89,0,0,0-.22-1.18l.12-.42c1.25-1.14,2.51-7.2,3.19-9.27l14.92-53.89h0a9.25,9.25,0,0,0,.43-3.54c-.29-4.08-3.19-8.07-7.66-10.54a19.34,19.34,0,0,0-3.72-1.57c-8.07-2.44-16.25.6-18.28,6.8l-18.25,63.64-2.13.16-3.22-58.31c-.41-6.63-7.47-12.25-15.78-12.56s-14.71,4.83-14.3,11.46l3.12,56.41-3.92-40.15c-1.3-6.63-.88-5.5-9.08-5s-13.79,6.27-12.49,12.9l.62,6.33a13.44,13.44,0,0,0-2.93-3.25l-.14-.12c-.22-.17-.44-.33-.67-.49l-.4-.28c-.24-.16-.49-.3-.74-.45l-.35-.21a17.87,17.87,0,0,0-7.64-2.18c-.62,0-1.25-.08-1.89-.07h-.44c-7.82-.18-13.75,4.74-13.25,11l7.91,34.79c0,.18-.84,5.44-.82,5.62l2.21,14.15c-2.12,11.93-18.44,25.2-17.21,37.52l8,33.45-4.47,15.91-20.61-2.57c-2.84-.35-5.34,1.08-5.88,3.38l-8.3,35.74c-.61,2.64,1.58,5.43,4.83,6.11l7.5,1.58-42.68,117.53h57l67.87,0h.55l26.64-89.26.55-3,.49-1.82-.15,0,0-.16c2.94.51,5.65-.9,6.21-3.31l10.59-45.62c.66-2.83-1.9-5.77-5.41-6.21l-4.77-.6,3.17-11,22.7-10.72c1.66-.67,3.64-1.33,5.62-2.06,4.36-1.61,8.71-3.58,9.6-7,.66-2.55,1.59-6.81,2.64-12,.26-1.29.53-2.63.81-4l.42-2.11c.42-2.14.85-4.36,1.29-6.61,1-5.27,2-10.74,3-15.87l.8-4.3L347,1205l1.05-5.72c.54-3,1-5.49,1.35-7.41a12.49,12.49,0,0,0,.08-3.91A13.69,13.69,0,0,0,348.95,1185.56Zm-119.25-36.27.92,9.44-.23.08-.2,0Z"/><path class="cls-49" d="M302.64,1222.83l4.48-10.74,8.35-32.08-.3-10.67a19.87,19.87,0,0,1,16.76-20.18l1-.15,8.61,31.07a15,15,0,0,1,.06,7.8c-3.21,12.26-13.06,49.75-16.4,59.93-1.62,4.93-9.14,6.87-13.86,9l-35.09,16,25.12-57.58Z"/><g id="arm-2" data-name="arm"><path class="cls-56" d="M330,1100.26l-23.54,67c-2.38,6.18-9.64,9.22-16.21,6.79h0c-6.57-2.44-10-9.42-7.59-15.61l23.54-67c2.38-6.18,9.64-9.22,16.21-6.79h0C329,1087.09,332.36,1094.07,330,1100.26Z"/><path class="cls-52" d="M257.35,1168.79h0c.14,6.62,5.94,11.94,12.95,11.88h0c7-.06,12.58-5.48,12.43-12.11h0c-.14-6.62-5.94-11.94-12.95-11.88h0C262.78,1156.74,257.21,1162.16,257.35,1168.79Z"/><path class="cls-56" d="M285.61,1096.91l-4.41,72.53c-.37,6.62-6.34,11.74-13.34,11.43h0c-7-.3-12.38-5.91-12-12.53l4.41-72.53c.37-6.62,6.34-11.74,13.35-11.43h0C280.6,1084.69,286,1090.3,285.61,1096.91Z"/><path class="cls-51" d="M273.6,1084.39h0c7,.3,12.38,5.91,12,12.53l-3.26,52.39c-.37,6.62-6-5.49-13-5.79Z"/><path class="cls-56" d="M257.82,1112l-1.34,54.12c.38,6.62-5,12.38-12,12.87h0c-7,.49-13-4.47-13.36-11.08l1.34-54.12c-.38-6.62,5-12.38,12-12.87h0C251.46,1100.47,257.43,1105.43,257.82,1112Z"/><path class="cls-51" d="M244.46,1101h0c7-.49,13,4.47,13.36,11.08L255,1149.4c.38,6.62-6.15-3.38-13.14-2.88Z"/><path class="cls-56" d="M233.2,1124.79l-2.66,41.8c-.26,6.62-6.15,11.84-13.16,11.65h0c-7-.19-12.48-5.71-12.22-12.33l2.66-41.8c.25-6.24,5.8-11.15,12.4-11l1.46,0C228.3,1113.34,233.45,1118.55,233.2,1124.79Z"/><path class="cls-49" d="M197.44,1222.06l3.2,33.38L145.38,1415l59.55,17.69,74.44-165,22-52.39,6.44-50.34h0a11,11,0,0,0-11.78-11l-14.1,1.22-11.16-1.25-12.9,3.34-13.33-2.66-13.33,5-12-3.58-13.32,5.77-3.35,23.95A160.26,160.26,0,0,0,197.44,1222.06Z"/><path class="cls-51" d="M267.09,1268.74C239.58,1330.59,199,1432.17,199,1432.17l5.9.5,71.94-160.16,34.42-15.69c4.72-2.15,12.24-4.09,13.86-9,3.34-10.18,13.2-47.67,16.4-59.93a15,15,0,0,0-.06-7.8L332.89,1149l-1,.15c-9.86,1.56,3.83,23,4.11,33l-15,39.15c-.59,3.45-4,17.41-15.63,26.85C290.93,1259.9,267.73,1267.29,267.09,1268.74Z"/><path class="cls-51" d="M322.39,1084.65l-21.56,62.65c3,1.1-1.51,68.75-.4,73.19.37,1.48,6.4-57.61,6.82-57.13,1.1,1.27,3.35-6.86,4.3-9.32L330,1100.26C332.37,1094.07,329,1087.09,322.39,1084.65Z"/></g><path class="cls-51" d="M219.16,1148.27a43.32,43.32,0,0,1,12.4,2.25l1.64-26.7c-.54-6.32-5.56-10.79-12.6-10.69v.22Z"/><polygon class="cls-53" points="118.82 1432.67 185.75 1271.17 267.21 1320.18 224.61 1432.67 118.82 1432.67"/><polygon class="cls-54" points="167.13 1432.67 228.99 1286.79 276.2 1294.18 225.07 1432.67 167.13 1432.67"/><path class="cls-55" d="M267.95,1335.37l13.87-45.52a4.84,4.84,0,0,0-3.91-6.2L178,1268.75a4.84,4.84,0,0,0-5.34,3.37l-10.87,35.66a4.84,4.84,0,0,0,3.43,6.1l96.93,24.76A4.84,4.84,0,0,0,267.95,1335.37Z"/><path class="cls-54" d="M268,1335.26l13.8-45.26a5,5,0,0,0-4-6.36l-36-5-23.06,48.2L262,1338.62A5,5,0,0,0,268,1335.26Z"/><polygon class="cls-48" points="173.78 1316.9 257.82 1345.3 260.22 1338.2 173.78 1316.9"/><g class="cls-10"><rect x="686.96" y="1120.75" width="82.23" height="129.34" rx="41.11" ry="41.11"/></g><rect class="cls-57" x="681.89" y="1113.4" width="82.23" height="129.34" rx="41.11" ry="41.11"/><path class="cls-58" d="M757.29,1131.83a41.3,41.3,0,0,1,.74,7.74v47.11a41.11,41.11,0,0,1-41.11,41.11h0a41.07,41.07,0,0,1-34.29-18.44A41.12,41.12,0,0,0,723,1242.73h0a41.11,41.11,0,0,0,41.11-41.11v-47.11A40.91,40.91,0,0,0,757.29,1131.83Z"/><polyline class="cls-59" points="723 1114.48 723 1154.27 681.89 1154.51"/><line class="cls-59" x1="764.11" y1="1154.27" x2="723" y2="1154.27"/><rect class="cls-60" x="720.38" y="1120.05" width="5.2" height="16.48" rx="2.6" ry="2.6"/></g></g></svg>