<svg xmlns="http://www.w3.org/2000/svg" xmlns:xlink="http://www.w3.org/1999/xlink" viewBox="0 0 1920 1080"><defs><style>.cls-1,.cls-3{mask:url(#mask);}.cls-1{filter:url(#luminosity-noclip-4);}.cls-14,.cls-2,.cls-48,.cls-5,.cls-53,.cls-56,.cls-59,.cls-63{mix-blend-mode:multiply;}.cls-2{fill:url(#linear-gradient);}.cls-4{mask:url(#mask-3);filter:url(#luminosity-noclip-6);}.cls-5{fill:url(#linear-gradient-3);}.cls-6,.cls-64{fill:none;}.cls-21,.cls-7{fill:#333;}.cls-7{clip-path:url(#clip-path);}.cls-8{fill:#e3ebdf;}.cls-9{isolation:isolate;}.cls-10{clip-path:url(#clip-path-2);}.cls-11{fill:#9575cd;}.cls-12{fill:#e1edf7;}.cls-13{fill:#a7ffeb;}.cls-14,.cls-43{opacity:0.13;}.cls-15{fill:#f0f6f7;}.cls-16{fill:#416369;}.cls-17{fill:#b4d9de;}.cls-17,.cls-18{opacity:0.49;}.cls-18,.cls-19,.cls-26,.cls-52{fill:#fff;}.cls-19{opacity:0.02;}.cls-20{fill:#2e2e2e;}.cls-22{fill:#3b3b3b;}.cls-23{mask:url(#mask-4);}.cls-24,.cls-28{opacity:0.23;}.cls-24{fill:url(#linear-gradient-4);}.cls-25{opacity:0.11;}.cls-27{fill:#d1d1d1;}.cls-29{mask:url(#mask-6);}.cls-30{fill:url(#linear-gradient-6);}.cls-31{fill:#e1e8e8;}.cls-32{fill:#cae4e6;}.cls-33{fill:#222626;}.cls-34{clip-path:url(#clip-path-3);}.cls-35{opacity:0.94;}.cls-36{fill:#545751;}.cls-37,.cls-38,.cls-39,.cls-40,.cls-41,.cls-42{fill:#595648;stroke-linecap:round;stroke-width:6.61px;}.cls-37{stroke:#595648;}.cls-37,.cls-38,.cls-39,.cls-40,.cls-41,.cls-42,.cls-46,.cls-64{stroke-miterlimit:10;}.cls-38{stroke:#bf1455;}.cls-39{stroke:#4ca5b8;}.cls-40{stroke:#8962c9;}.cls-41{stroke:#c4ba5d;}.cls-42{stroke:#679918;}.cls-44,.cls-45{fill:#313838;}.cls-44{opacity:0.22;}.cls-46{fill:#d2d6d6;stroke:#ccc;stroke-width:2.28px;}.cls-47{clip-path:url(#clip-path-4);}.cls-48{fill:#909fab;}.cls-48,.cls-56{opacity:0.14;}.cls-49{fill:#664c1c;}.cls-50{fill:#523600;}.cls-51{fill:#a8a499;opacity:0.09;}.cls-52{opacity:0.21;}.cls-53,.cls-59{fill:#8fa0b5;}.cls-53{opacity:0.28;}.cls-54{fill:#ebad78;}.cls-55{fill:#e8aa75;}.cls-56{fill:#a64d00;}.cls-57{fill:#e6a56c;}.cls-58{fill:#0dcef5;}.cls-59{opacity:0.16;}.cls-60{fill:#31d7f5;}.cls-61{fill:#e8a872;}.cls-62{fill:#edf5f5;}.cls-63{opacity:0.06;}.cls-64{stroke:#c9c9c9;stroke-width:1.04px;}.cls-65{fill:#c9c9c9;}.cls-66{filter:url(#luminosity-noclip-3);}.cls-67{filter:url(#luminosity-noclip);}</style><filter id="luminosity-noclip" x="1695.45" y="-8732" width="74.75" height="32766" filterUnits="userSpaceOnUse" color-interpolation-filters="sRGB"><feFlood flood-color="#fff" result="bg"/><feBlend in="SourceGraphic" in2="bg"/></filter><mask id="mask" x="1695.45" y="-8732" width="74.75" height="32766" maskUnits="userSpaceOnUse"><g class="cls-67"/></mask><linearGradient id="linear-gradient" x1="1624.09" y1="967.48" x2="1624.09" y2="1022.51" gradientTransform="translate(1632.32 -1510.47) rotate(55.51)" gradientUnits="userSpaceOnUse"><stop offset="0" stop-color="#f7f7f7"/><stop offset="1"/></linearGradient><filter id="luminosity-noclip-3" x="1759.69" y="-8732" width="72.24" height="32766" filterUnits="userSpaceOnUse" color-interpolation-filters="sRGB"><feFlood flood-color="#fff" result="bg"/><feBlend in="SourceGraphic" in2="bg"/></filter><mask id="mask-3" x="1759.69" y="-8732" width="72.24" height="32766" maskUnits="userSpaceOnUse"><g class="cls-66"/></mask><linearGradient id="linear-gradient-3" x1="1732.73" y1="967.48" x2="1732.73" y2="1022.51" xlink:href="#linear-gradient"/><clipPath id="clip-path"><path id="SVGID" class="cls-6" d="M1557.56,490.69H1084.2c-9.35,0-17.52-7.77-18.24-17.4L1052,287.6c-.81-10.78,6.61-19.56,16.58-19.56l504.64,0c10,0,17.39,8.78,16.58,19.56l-14,185.68C1575.08,482.92,1566.91,490.69,1557.56,490.69Z"/></clipPath><clipPath id="clip-path-2"><rect class="cls-6" x="-609.63" y="5" width="2537.06" height="1077.34"/></clipPath><filter id="luminosity-noclip-4" x="1695.45" y="349.28" width="74.75" height="78.08" filterUnits="userSpaceOnUse" color-interpolation-filters="sRGB"><feFlood flood-color="#fff" result="bg"/><feBlend in="SourceGraphic" in2="bg"/></filter><mask id="mask-4" x="1695.45" y="349.28" width="74.75" height="78.08" maskUnits="userSpaceOnUse"><g class="cls-1"><path class="cls-2" d="M1720.7,421.16l-1.56-1.75A154.55,154.55,0,0,1,1697.58,388h0c-3.63-7-2.56-15.21,2.63-20.05l15.91-14.84c6.61-6.16,17.42-4.76,23.73,3.08l2.42,3a246.4,246.4,0,0,1,19.93,28.72l5.3,8.93c5.82,9.81,1.78,21.79-8.23,24.4l-21.59,5.62C1731.77,428.42,1725.17,426.2,1720.7,421.16Z"/></g></mask><linearGradient id="linear-gradient-4" x1="1624.09" y1="967.48" x2="1624.09" y2="1022.51" gradientTransform="translate(1632.32 -1510.47) rotate(55.51)" gradientUnits="userSpaceOnUse"><stop offset="0" stop-color="#fff"/><stop offset="1" stop-color="#fff"/></linearGradient><filter id="luminosity-noclip-6" x="1759.69" y="438.98" width="72.24" height="81.7" filterUnits="userSpaceOnUse" color-interpolation-filters="sRGB"><feFlood flood-color="#fff" result="bg"/><feBlend in="SourceGraphic" in2="bg"/></filter><mask id="mask-6" x="1759.69" y="438.98" width="72.24" height="81.7" maskUnits="userSpaceOnUse"><g class="cls-4"><path class="cls-5" d="M1761.83,481l1.08,2.08a154.53,154.53,0,0,0,21.56,31.38h0c5.24,5.91,13.28,7.84,19.66,4.73l19.56-9.53c8.12-4,10.69-14.56,5.64-23.26l-1.94-3.34a246.45,246.45,0,0,0-19.67-28.9l-6.43-8.15c-7.07-9-19.7-9.48-25.73-1.07l-13,18.14C1759,468.08,1758.73,475,1761.83,481Z"/></g></mask><linearGradient id="linear-gradient-6" x1="1732.73" y1="967.48" x2="1732.73" y2="1022.51" xlink:href="#linear-gradient-4"/><clipPath id="clip-path-3"><path id="SVGID-2" data-name="SVGID" class="cls-7" d="M1557.56,490.69H1084.2c-9.35,0-17.52-7.77-18.24-17.4L1052,287.6c-.81-10.78,6.61-19.56,16.58-19.56l504.64,0c10,0,17.39,8.78,16.58,19.56l-14,185.68C1575.08,482.92,1566.91,490.69,1557.56,490.69Z"/></clipPath><clipPath id="clip-path-4"><circle id="SVGID-3" data-name="SVGID" class="cls-8" cx="868.27" cy="628.27" r="102.02"/></clipPath></defs><title>Zeichenfläche 1</title><g class="cls-9"><g id="Ebene_2" data-name="Ebene 2"><g class="cls-10"><path class="cls-11" d="M2041.33,1235.58H588.07S537.57,1069,743,946.13,1284,887.4,1401.62,724.3s231.31-324.27,384-436.39,255.76-76.51,255.76-76.51Z"/></g><circle class="cls-12" cx="160.25" cy="998.32" r="22.76"/><circle class="cls-12" cx="1472.13" cy="188.58" r="22.76"/><rect class="cls-13" x="1739.9" y="61.58" width="73.96" height="73.96" rx="17.52" ry="17.52" transform="translate(450.74 1285.32) rotate(-45)"/></g><g id="Ebene_1" data-name="Ebene 1"><path class="cls-14" d="M967,968.61l-70.29,49.78a12.15,12.15,0,0,1-17-2.94L777.12,869.07A12.15,12.15,0,0,1,780,852.17l70.29-49.78a12.15,12.15,0,0,1,17,2.94L969.94,951.72A12.15,12.15,0,0,1,967,968.61Z"/><path class="cls-15" d="M963.16,959.07l-68,48.14a11.71,11.71,0,0,1-16.36-2.77l-98.5-140.49a11.71,11.71,0,0,1,2.88-16.26l68-48.14a11.71,11.71,0,0,1,16.36,2.77L966,942.81A11.71,11.71,0,0,1,963.16,959.07Z"/><polygon class="cls-16" points="954.52 932.79 874.68 989.35 790.9 869.86 870.75 813.31 954.52 932.79"/><path class="cls-17" d="M834.23,830.25,817.78,841.9a1.86,1.86,0,0,1-2.6-.45h0a1.88,1.88,0,0,1,.45-2.61l16.45-11.65a1.86,1.86,0,0,1,2.6.45h0A1.88,1.88,0,0,1,834.23,830.25Z"/><rect class="cls-17" x="914.44" y="963.95" width="14.54" height="14.54" rx="2.08" ry="2.08" transform="translate(-397.38 741.41) rotate(-36.62)"/><rect class="cls-18" x="919.3" y="968.81" width="4.82" height="4.82" rx="0.69" ry="0.69" transform="translate(-397.39 741.44) rotate(-36.62)"/><polygon class="cls-19" points="871.67 814.74 873.87 990.8 791.27 870.51 871.67 814.74"/><path class="cls-14" d="M1843.81,514.64l-4-6.88-11.72-20.31c-3.34-5.78-6.95-11.5-10.73-17-3.33-4.85-6.87-9.64-10.53-14.25l-24.25-30.58q-.22-.28-.42-.57t-.38-.6l-19.84-33.61c-3-5.06-6.19-10.09-9.53-14.94-3.79-5.51-7.83-10.93-12-16.12l-14.75-18.22-5-6.2a2,2,0,0,0-2.65-.53l-9.1,6.25a2,2,0,0,0-.5,2.59l3.89,7.29a1.36,1.36,0,0,1-.2,1.64L1698,365.78a14.82,14.82,0,0,0-9.56.69l-7.76,3.4a4.25,4.25,0,0,0-2.49,3.08,5.64,5.64,0,0,0,3.39,6.31l6.53,2.67a23.37,23.37,0,0,0,3.25,13.9l4.79,8.09c1.32,2.22,2.73,4.43,4.19,6.56,2,2.86,4.09,5.67,6.3,8.34l8.11,9.76c4.64,5.59,11.58,8.32,18.1,7.12l25.2-4.64.2.41a32.47,32.47,0,0,0,4.52,6.86,32.5,32.5,0,0,0,4.78,6.68l.39.41-13.38,21.88c-3.46,5.65-3.4,13.11.16,19.45l6.21,11.07c1.7,3,3.55,6,5.52,8.88,1.46,2.13,3,4.24,4.63,6.27l5.84,7.37a23.38,23.38,0,0,0,11.74,8l.15,7a5.59,5.59,0,0,0,1,3.06h0a5.62,5.62,0,0,0,3.68,2.37,4.25,4.25,0,0,0,3.77-1.22l6-6a14.81,14.81,0,0,0,4.06-8.55l17.44-8.48a1.36,1.36,0,0,1,1.6.4l5.42,6.25a2,2,0,0,0,2.6.46l9.1-6.25A2,2,0,0,0,1843.81,514.64Zm-51.43-42.06,1.52,1.93,28.6,36.65a13.19,13.19,0,0,1-3.38,2.36L1807,519.43q-.09-.44-.19-.86A424.36,424.36,0,0,0,1792.38,472.59Zm20.19.18c3.48,5.07,6.81,10.33,9.9,15.64l.82,1.41-35.49-43.17-1.17-1.41a17.22,17.22,0,0,1,9.84,6.27l6.43,8.15C1806.26,463.9,1809.51,468.31,1812.57,472.77Zm-24.07,50.79a17.32,17.32,0,0,1-7.33-4.94,153.25,153.25,0,0,1-21.39-31.13l-1.08-2.08c-2.88-5.56-2.61-12.14.7-16.76l13.09-18.28,4.82,5.18.19.28A57.13,57.13,0,0,1,1787.74,487Zm-62.24-126a57.14,57.14,0,0,1,25.44,20.74l.19.28L1755,425l-21.74,5.66c-5.5,1.43-11.74-.67-15.9-5.36l-1.56-1.75a153.24,153.24,0,0,1-21.39-31.13,17.3,17.3,0,0,1-2-8.69Zm-22.63-29.11L1703,368l9.84-9.18a13.19,13.19,0,0,1,3.4-2.3l23.89,39.75q.63,1,1.25,2.11A424.38,424.38,0,0,0,1703.63,368.41Zm53.66,24.86,5.3,8.93a17.22,17.22,0,0,1,2.32,11.45l-1-1.71-27.54-48.57,1.06,1.32c3.85,4.79,7.57,9.78,11,14.85C1751.58,384,1754.53,388.62,1757.29,393.27Z"/><path class="cls-20" d="M1723.74,331.15l-10.35,7.11L1745,390.91q4.62,7.68,8.56,15.73l9.58,19.59a31.23,31.23,0,0,0,4.58,6.88L1778,444.75a59.23,59.23,0,0,1,14.85,37.52l1,48.3c.07,3.56,4.29,5.66,6.62,3.3l6-6a14.6,14.6,0,0,0,3.42-13.93h0a427.19,427.19,0,0,0-42.73-106.32Z"/><path class="cls-21" d="M1846.88,510.37l-10.35,7.11-37.8-48.43q-5.52-7.07-11.62-13.63l-14.85-16a31.22,31.22,0,0,1-4.78-6.74l-7.2-13.72a59.23,59.23,0,0,0-29.7-27.32l-44.73-18.26c-3.3-1.35-3.75-6-.71-7.36l7.76-3.4a14.6,14.6,0,0,1,14.23,1.81h0a427.2,427.2,0,0,1,83.92,78Z"/><path class="cls-22" d="M1847,510.31l-4-6.89-11.72-20.31a257,257,0,0,0-21.16-31.1l-24.25-30.58q-.25-.31-.47-.64t-.43-.67l-19.84-33.61a257,257,0,0,0-21.45-30.91l-14.75-18.22-5-6.2a.93.93,0,0,0-1.24-.25l-9.1,6.25a.93.93,0,0,0-.23,1.21l3.89,7.29a2.43,2.43,0,0,1-.36,2.93l-18.12,16.92c-6.48,6.05-7.52,16.45-2.49,24.95l4.79,8.09a113.71,113.71,0,0,0,10.38,14.74l8.11,9.76c4.36,5.25,10.93,7.84,17.05,6.71l31-5.71a8,8,0,0,1,7.86,3.55h0a8,8,0,0,1,.49,8.61l-16.44,26.87c-3.25,5.31-3.19,12.37.15,18.32l6.21,11.07a113.76,113.76,0,0,0,10,15l5.84,7.37c6.13,7.74,16.2,10.5,24.17,6.62l22.29-10.85a2.43,2.43,0,0,1,2.87.71l5.42,6.25a.92.92,0,0,0,1.21.21l9.1-6.25A.93.93,0,0,0,1847,510.31Zm-87.69-89-21.59,5.62c-5.92,1.54-12.51-.68-17-5.72l-1.56-1.75A154.54,154.54,0,0,1,1697.58,388c-3.63-7-2.56-15.21,2.63-20.05l15.91-14.84c6.61-6.16,17.42-4.76,23.73,3.08l2.42,3a246.42,246.42,0,0,1,19.93,28.72l5.3,8.93C1773.33,406.68,1769.29,418.66,1759.27,421.27Zm64.42,88.42-19.56,9.53c-6.38,3.11-14.42,1.17-19.66-4.73a154.53,154.53,0,0,1-21.56-31.38l-1.08-2.08c-3.1-6-2.81-12.94.75-17.91l13-18.14c6-8.41,18.65-7.89,25.73,1.07l6.43,8.15a246.45,246.45,0,0,1,19.67,28.9l1.94,3.34C1834.39,495.13,1831.82,505.73,1823.69,509.69Z"/><g class="cls-23"><path class="cls-24" d="M1720.7,421.16l-1.56-1.75A154.55,154.55,0,0,1,1697.58,388h0c-3.63-7-2.56-15.21,2.63-20.05l15.91-14.84c6.61-6.16,17.42-4.76,23.73,3.08l2.42,3a246.4,246.4,0,0,1,19.93,28.72l5.3,8.93c5.82,9.81,1.78,21.79-8.23,24.4l-21.59,5.62C1731.77,428.42,1725.17,426.2,1720.7,421.16Z"/></g><g class="cls-25"><path class="cls-26" d="M1753.38,374.14l-.83.57h0c3.06,4.46,6,9.08,8.77,13.73l5.3,8.93a16.84,16.84,0,0,1,1.71,13.95,13.4,13.4,0,0,1-9.41,8.89l-21.59,5.62c-5.5,1.43-11.74-.67-15.9-5.36l-1.56-1.75a153.28,153.28,0,0,1-21.39-31.13c-3.39-6.54-2.38-14.25,2.46-18.77L1716.87,354a13.57,13.57,0,0,1,11.21-3.48,17,17,0,0,1,11,6.35l2.42,3c3.85,4.79,7.57,9.78,11,14.85l.83-.57m0,0q-5.27-7.67-11.11-14.92l-2.42-3c-6.31-7.84-17.12-9.24-23.73-3.08L1700.22,368c-5.19,4.84-6.27,13-2.63,20.05h0a154.53,154.53,0,0,0,21.56,31.38l1.56,1.75c4.47,5,11.07,7.26,17,5.72l21.59-5.62c10-2.61,14.05-14.58,8.23-24.4l-5.3-8.93q-4.18-7-8.82-13.8Z"/></g><path class="cls-27" d="M1725,345l-4.16-7.08a.77.77,0,0,1,.18-1h0a.77.77,0,0,1,1,.21l5.11,6.42a1.42,1.42,0,0,1-.18,2.05h0A1.42,1.42,0,0,1,1725,345Z"/><g class="cls-25"><path class="cls-26" d="M1761.83,481l1.08,2.08a154.53,154.53,0,0,0,21.56,31.38h0c5.24,5.91,13.28,7.84,19.66,4.73l19.56-9.53c8.12-4,10.69-14.56,5.64-23.26l-1.94-3.34a246.45,246.45,0,0,0-19.67-28.9l-6.43-8.15c-7.07-9-19.7-9.48-25.73-1.07l-13,18.14C1759,468.08,1758.73,475,1761.83,481Z"/></g><g class="cls-23"><path class="cls-24" d="M1720.7,421.16l-1.56-1.75A154.55,154.55,0,0,1,1697.58,388h0c-3.63-7-2.56-15.21,2.63-20.05l15.91-14.84c6.61-6.16,17.42-4.76,23.73,3.08l2.42,3a246.4,246.4,0,0,1,19.93,28.72l5.3,8.93c5.82,9.81,1.78,21.79-8.23,24.4l-21.59,5.62C1731.77,428.42,1725.17,426.2,1720.7,421.16Z"/></g><g class="cls-28"><g class="cls-29"><path class="cls-30" d="M1761.83,481l1.08,2.08a154.53,154.53,0,0,0,21.56,31.38h0c5.24,5.91,13.28,7.84,19.66,4.73l19.56-9.53c8.12-4,10.69-14.56,5.64-23.26l-1.94-3.34a246.45,246.45,0,0,0-19.67-28.9l-6.43-8.15c-7.07-9-19.7-9.48-25.73-1.07l-13,18.14C1759,468.08,1758.73,475,1761.83,481Z"/></g></g><g class="cls-25"><path class="cls-26" d="M1816.61,467.94c3.48,5.07,6.81,10.33,9.9,15.64l1.94,3.34a17,17,0,0,1,2,12.55,13.57,13.57,0,0,1-7.26,9.22l-19.56,9.53c-6,2.9-13.52,1.08-18.41-4.43a153.29,153.29,0,0,1-21.39-31.13l-1.08-2.08c-2.88-5.56-2.61-12.14.7-16.76l13-18.14a13.4,13.4,0,0,1,11.67-5.6,16.84,16.84,0,0,1,12.41,6.6l6.43,8.15c3.35,4.24,6.6,8.66,9.67,13.12m.83-.57q-4.64-6.75-9.72-13.18l-6.43-8.15c-7.07-9-19.7-9.48-25.73-1.07l-13,18.14c-3.56,5-3.85,11.93-.75,17.91l1.08,2.08a154.54,154.54,0,0,0,21.56,31.38h0c5.24,5.91,13.28,7.84,19.66,4.73l19.56-9.53c8.12-4,10.69-14.56,5.64-23.26l-1.94-3.34q-4.68-8-9.95-15.72Z"/></g><path class="cls-27" d="M1834.46,504.28l5.11,6.42a.77.77,0,0,0,1,.21h0a.77.77,0,0,0,.18-1l-4.16-7.08a1.42,1.42,0,0,0-2-.56h0A1.42,1.42,0,0,0,1834.46,504.28Z"/><path class="cls-14" d="M1273.83,526.75c-11.1-18.54-21.74,207.88-29.55,200L1055.16,536.2a17.26,17.26,0,0,0-7.46,14.22V897.31A17.29,17.29,0,0,0,1065,914.59l541.42,0a17.29,17.29,0,0,0,17.29-17.29V550.76a24,24,0,0,0-24-24Z"/><path class="cls-31" d="M1591.58,895.23l-541.42,0a17.29,17.29,0,0,1-17.29-17.29V531a17.29,17.29,0,0,1,17.29-17.29l541.42,0a17.29,17.29,0,0,1,17.29,17.29V877.94A17.29,17.29,0,0,1,1591.58,895.23Z"/><path class="cls-32" d="M1592.81,504.1l-543.87,0c-9.31,0-17.53-7.7-18.35-17.26L1010.31,251c-.95-11,6.45-20,16.52-20l588.12,0c10.07,0,17.46,9,16.52,20l-20.3,235.84C1610.34,496.4,1602.13,504.1,1592.81,504.1Z"/><path class="cls-33" d="M1592.06,513.39l-542.36,0c-9.29,0-17.48-7.66-18.29-17.16l-20.17-234.49c-.94-10.93,6.43-19.85,16.47-19.85l586.36,0c10,0,17.41,8.91,16.47,19.85l-20.19,234.49C1609.54,505.73,1601.35,513.39,1592.06,513.39Z"/><path id="SVGID-4" data-name="SVGID" class="cls-21" d="M1557.56,490.69H1084.2c-9.35,0-17.52-7.77-18.24-17.4L1052,287.6c-.81-10.78,6.61-19.56,16.58-19.56l504.64,0c10,0,17.39,8.78,16.58,19.56l-14,185.68C1575.08,482.92,1566.91,490.69,1557.56,490.69Z"/><g class="cls-34"><g class="cls-35"><polygon class="cls-36" points="1077.97 289.65 1068.63 289.65 1067.88 280.27 1077.25 280.27 1077.97 289.65"/><polygon class="cls-36" points="1078.97 302.63 1069.67 302.63 1068.92 293.33 1078.26 293.33 1078.97 302.63"/><polygon class="cls-36" points="1079.96 315.49 1070.7 315.49 1069.96 306.27 1079.26 306.27 1079.96 315.49"/><polygon class="cls-36" points="1080.95 328.24 1071.72 328.24 1070.99 319.11 1080.24 319.11 1080.95 328.24"/><polygon class="cls-36" points="1081.92 340.89 1072.73 340.89 1072.01 331.83 1081.22 331.83 1081.92 340.89"/><polygon class="cls-36" points="1082.88 353.42 1073.74 353.42 1073.02 344.44 1082.19 344.44 1082.88 353.42"/><polygon class="cls-36" points="1083.84 365.85 1074.73 365.85 1074.02 356.94 1083.15 356.94 1083.84 365.85"/><polygon class="cls-36" points="1084.8 378.33 1075.73 378.33 1075.03 369.5 1084.12 369.5 1084.8 378.33"/><line class="cls-37" x1="1093.89" y1="284.97" x2="1172.59" y2="284.97"/><line class="cls-37" x1="1187.27" y1="284.97" x2="1235.83" y2="284.97"/><line class="cls-37" x1="1099.35" y1="361.4" x2="1176.03" y2="361.4"/><line class="cls-37" x1="1190.34" y1="361.4" x2="1440.92" y2="361.4"/><line class="cls-37" x1="1094.82" y1="297.98" x2="1124.31" y2="297.98"/><line class="cls-37" x1="1139.72" y1="297.98" x2="1202.68" y2="297.98"/><line class="cls-37" x1="1217.39" y1="297.98" x2="1256.52" y2="297.98"/><line class="cls-38" x1="1096.79" y1="325.6" x2="1152.41" y2="325.6"/><line class="cls-37" x1="1166.72" y1="325.6" x2="1203.65" y2="325.6"/><line class="cls-37" x1="1218.22" y1="325.6" x2="1279.69" y2="325.6"/><line class="cls-38" x1="1097.56" y1="336.36" x2="1128.64" y2="336.36"/><line class="cls-37" x1="1141.88" y1="336.36" x2="1172.96" y2="336.36"/><line class="cls-37" x1="1185.63" y1="336.36" x2="1233.81" y2="336.36"/><line class="cls-38" x1="1098.46" y1="348.94" x2="1169.82" y2="348.94"/><line class="cls-39" x1="1186.16" y1="348.94" x2="1330.34" y2="348.94"/><polygon class="cls-36" points="1085.77 390.88 1076.74 390.88 1076.04 382.13 1085.09 382.13 1085.77 390.88"/><polygon class="cls-36" points="1086.7 402.99 1077.71 402.99 1077.02 394.31 1086.03 394.31 1086.7 402.99"/><polygon class="cls-36" points="1087.62 415 1078.67 415 1077.98 406.39 1086.96 406.39 1087.62 415"/><polygon class="cls-36" points="1088.54 426.91 1079.63 426.91 1078.94 418.38 1087.88 418.38 1088.54 426.91"/><polygon class="cls-36" points="1089.45 438.72 1080.57 438.72 1079.89 430.25 1088.8 430.25 1089.45 438.72"/><polygon class="cls-36" points="1090.35 450.43 1081.51 450.43 1080.84 442.04 1089.71 442.04 1090.35 450.43"/><polygon class="cls-36" points="1091.25 462.04 1082.44 462.04 1081.78 453.72 1090.61 453.72 1091.25 462.04"/><line class="cls-38" x1="1101.15" y1="386.51" x2="1177.16" y2="386.51"/><line class="cls-40" x1="1191.35" y1="386.51" x2="1238.25" y2="386.51"/><line class="cls-39" x1="1251.76" y1="386.51" x2="1327.92" y2="386.51"/><line class="cls-41" x1="1341.48" y1="386.51" x2="1474.62" y2="386.51"/><line class="cls-37" x1="1106.25" y1="457.89" x2="1180.38" y2="457.89"/><line class="cls-37" x1="1194.22" y1="457.89" x2="1329.46" y2="457.89"/><line class="cls-38" x1="1102.02" y1="398.66" x2="1130.51" y2="398.66"/><line class="cls-42" x1="1145.39" y1="398.66" x2="1206.22" y2="398.66"/><line class="cls-41" x1="1220.42" y1="398.66" x2="1258.22" y2="398.66"/><line class="cls-38" x1="1103.86" y1="424.43" x2="1157.6" y2="424.43"/><line class="cls-41" x1="1171.44" y1="424.43" x2="1207.13" y2="424.43"/><line class="cls-37" x1="1221.2" y1="424.43" x2="1280.6" y2="424.43"/><line class="cls-38" x1="1104.58" y1="434.49" x2="1134.62" y2="434.49"/><line class="cls-39" x1="1147.41" y1="434.49" x2="1177.45" y2="434.49"/><line class="cls-37" x1="1189.7" y1="434.49" x2="1236.26" y2="434.49"/><line class="cls-38" x1="1105.42" y1="446.24" x2="1174.39" y2="446.24"/><line class="cls-39" x1="1190.18" y1="446.24" x2="1401.59" y2="446.24"/><line class="cls-41" x1="1416.49" y1="446.24" x2="1532.36" y2="446.24"/><polygon class="cls-36" points="1092.2 474.47 1083.44 474.47 1082.78 466.22 1091.57 466.22 1092.2 474.47"/><polygon class="cls-36" points="1093.08 485.89 1084.35 485.89 1083.7 477.71 1092.45 477.71 1093.08 485.89"/><polygon class="cls-36" points="1093.95 497.21 1085.26 497.21 1084.61 489.1 1093.33 489.1 1093.95 497.21"/><polygon class="cls-36" points="1094.82 508.44 1086.16 508.44 1085.52 500.39 1094.2 500.39 1094.82 508.44"/><polygon class="cls-36" points="1095.67 519.58 1087.05 519.58 1086.41 511.6 1095.06 511.6 1095.67 519.58"/><polygon class="cls-36" points="1096.53 530.63 1087.94 530.63 1087.3 522.72 1095.92 522.72 1096.53 530.63"/><polygon class="cls-36" points="1097.37 541.6 1088.82 541.6 1088.19 533.74 1096.77 533.74 1097.37 541.6"/><line class="cls-38" x1="1107.14" y1="470.35" x2="1180.94" y2="470.35"/><line class="cls-41" x1="1194.72" y1="470.35" x2="1446.66" y2="470.35"/><line class="cls-37" x1="1111.96" y1="537.68" x2="1270.03" y2="537.68"/><line class="cls-37" x1="1287.51" y1="537.68" x2="1349.61" y2="537.68"/><line class="cls-37" x1="1107.96" y1="481.8" x2="1135.62" y2="481.8"/><line class="cls-37" x1="1150.08" y1="481.8" x2="1209.14" y2="481.8"/><line class="cls-37" x1="1222.93" y1="481.8" x2="1259.63" y2="481.8"/><line class="cls-38" x1="1109.7" y1="506.11" x2="1161.9" y2="506.11"/><line class="cls-37" x1="1175.33" y1="506.11" x2="1209.99" y2="506.11"/><line class="cls-37" x1="1223.66" y1="506.11" x2="1281.36" y2="506.11"/><line class="cls-38" x1="1110.38" y1="515.6" x2="1139.55" y2="515.6"/><line class="cls-42" x1="1151.98" y1="515.6" x2="1181.16" y2="515.6"/><line class="cls-37" x1="1193.06" y1="515.6" x2="1238.28" y2="515.6"/><line class="cls-38" x1="1111.17" y1="526.68" x2="1178.17" y2="526.68"/><line class="cls-39" x1="1193.51" y1="526.68" x2="1328.9" y2="526.68"/></g><g class="cls-43"><polygon class="cls-26" points="1247.7 530.31 1226.41 511.4 1422.32 244.01 1443.61 262.92 1247.7 530.31"/><polygon class="cls-26" points="1379.05 611.51 1275.03 519.14 1552.76 140.07 1656.78 232.44 1379.05 611.51"/></g></g><path class="cls-44" d="M1376.3,895.22H1265.44A12.17,12.17,0,0,1,1277.62,883h86.51a12.17,12.17,0,0,1,12.17,12.18Z"/><rect class="cls-45" x="1124.75" y="513.76" width="392.26" height="13"/><rect class="cls-44" x="1124.75" y="526.64" width="392.26" height="9.79"/><path class="cls-46" d="M1391,861h-140.2a9.69,9.69,0,0,1-9.69-9.69V763.57a9.69,9.69,0,0,1,9.69-9.69H1391a9.69,9.69,0,0,1,9.69,9.69v87.77A9.69,9.69,0,0,1,1391,861Z"/><rect class="cls-45" x="1067.14" y="568.09" width="31.92" height="31.92" rx="6.27" ry="6.27"/><rect class="cls-45" x="1108.1" y="568.09" width="31.92" height="31.92" rx="6.27" ry="6.27"/><rect class="cls-45" x="1149.05" y="568.09" width="31.92" height="31.92" rx="6.27" ry="6.27"/><rect class="cls-45" x="1190" y="568.09" width="31.92" height="31.92" rx="6.27" ry="6.27"/><rect class="cls-45" x="1230.95" y="568.09" width="31.92" height="31.92" rx="6.27" ry="6.27"/><rect class="cls-45" x="1271.91" y="568.09" width="31.92" height="31.92" rx="6.27" ry="6.27"/><rect class="cls-45" x="1312.86" y="568.09" width="31.92" height="31.92" rx="6.27" ry="6.27"/><rect class="cls-45" x="1353.81" y="568.09" width="31.92" height="31.92" rx="6.27" ry="6.27"/><rect class="cls-45" x="1394.76" y="568.09" width="31.92" height="31.92" rx="6.27" ry="6.27"/><rect class="cls-45" x="1435.71" y="568.1" width="31.92" height="31.92" rx="6.27" ry="6.27"/><rect class="cls-45" x="1476.67" y="568.1" width="31.92" height="31.92" rx="6.27" ry="6.27"/><rect class="cls-45" x="1517.62" y="568.1" width="56.99" height="31.92" rx="6.27" ry="6.27"/><rect class="cls-45" x="1067.14" y="608.36" width="56.99" height="31.92" rx="6.27" ry="6.27"/><rect class="cls-45" x="1133.17" y="608.36" width="31.92" height="31.92" rx="6.27" ry="6.27"/><rect class="cls-45" x="1174.12" y="608.36" width="31.92" height="31.92" rx="6.27" ry="6.27"/><rect class="cls-45" x="1215.08" y="608.36" width="31.92" height="31.92" rx="6.27" ry="6.27"/><rect class="cls-45" x="1256.03" y="608.36" width="31.92" height="31.92" rx="6.27" ry="6.27"/><rect class="cls-45" x="1296.98" y="608.37" width="31.92" height="31.92" rx="6.27" ry="6.27"/><rect class="cls-45" x="1337.93" y="608.37" width="31.92" height="31.92" rx="6.27" ry="6.27"/><rect class="cls-45" x="1378.89" y="608.37" width="31.92" height="31.92" rx="6.27" ry="6.27"/><rect class="cls-45" x="1419.84" y="608.37" width="31.92" height="31.92" rx="6.27" ry="6.27"/><rect class="cls-45" x="1460.79" y="608.37" width="31.92" height="31.92" rx="6.27" ry="6.27"/><rect class="cls-45" x="1501.74" y="608.37" width="31.92" height="31.92" rx="6.27" ry="6.27"/><rect class="cls-45" x="1542.69" y="608.37" width="31.92" height="31.92" rx="6.27" ry="6.27"/><path class="cls-45" d="M1137.24,680.55h-63.83a6.27,6.27,0,0,1-6.27-6.27V654.9a6.27,6.27,0,0,1,6.27-6.27h63.83a6.27,6.27,0,0,1,6.27,6.27v19.38A6.27,6.27,0,0,1,1137.24,680.55Z"/><rect class="cls-45" x="1152.55" y="648.64" width="31.92" height="31.92" rx="6.27" ry="6.27"/><rect class="cls-45" x="1193.5" y="648.64" width="31.92" height="31.92" rx="6.27" ry="6.27"/><rect class="cls-45" x="1234.45" y="648.64" width="31.92" height="31.92" rx="6.27" ry="6.27"/><rect class="cls-45" x="1275.4" y="648.64" width="31.92" height="31.92" rx="6.27" ry="6.27"/><rect class="cls-45" x="1316.36" y="648.64" width="31.92" height="31.92" rx="6.27" ry="6.27"/><rect class="cls-45" x="1357.31" y="648.64" width="31.92" height="31.92" rx="6.27" ry="6.27"/><rect class="cls-45" x="1398.26" y="648.64" width="31.92" height="31.92" rx="6.27" ry="6.27"/><rect class="cls-45" x="1439.21" y="648.64" width="31.92" height="31.92" rx="6.27" ry="6.27"/><rect class="cls-45" x="1480.17" y="648.64" width="31.92" height="31.92" rx="6.27" ry="6.27"/><rect class="cls-45" x="1521.12" y="648.65" width="53.41" height="31.92" rx="6.27" ry="6.27"/><rect class="cls-45" x="1067.14" y="688.91" width="31.92" height="31.92" rx="6.27" ry="6.27"/><rect class="cls-45" x="1108.09" y="688.91" width="31.92" height="31.92" rx="6.27" ry="6.27"/><rect class="cls-45" x="1149.05" y="688.91" width="31.92" height="31.92" rx="6.27" ry="6.27"/><path class="cls-45" d="M1365.52,720.83H1194.24a4.25,4.25,0,0,1-4.25-4.25V693.16a4.25,4.25,0,0,1,4.25-4.25h171.27a4.25,4.25,0,0,1,4.25,4.25v23.42A4.25,4.25,0,0,1,1365.52,720.83Z"/><rect class="cls-45" x="1378.8" y="688.92" width="31.92" height="31.92" rx="6.27" ry="6.27"/><rect class="cls-45" x="1419.75" y="688.92" width="31.92" height="31.92" rx="6.27" ry="6.27"/><rect class="cls-45" x="1460.71" y="704.88" width="31.92" height="15.96" rx="1.87" ry="1.87"/><rect class="cls-45" x="1501.66" y="688.92" width="31.92" height="31.92" rx="6.27" ry="6.27"/><rect class="cls-45" x="1542.61" y="704.88" width="31.92" height="15.96" rx="1.87" ry="1.87"/><path class="cls-14" d="M1594.75,624.34l-544,0c-11.1,0-17.35-2.17-17.37-6l-.49-99.42c0-1.89,9.21-5.11,14.64-5.11l544,0c11.1,0,17.35,9.13,17.37,13l.44,83.51c0,6.09-6.55,13.21-13.38,14A10.74,10.74,0,0,1,1594.75,624.34Z"/><circle id="SVGID-5" data-name="SVGID" class="cls-8" cx="868.27" cy="628.27" r="102.02"/><g class="cls-47"><polygon class="cls-48" points="845.23 749.91 968.46 698.75 921.56 600.4 808.69 647.26 845.23 749.91"/></g><path class="cls-26" d="M837.1,713.22l14.14-26.71-12.15-6.43-14.14,26.71a6.87,6.87,0,0,0,2.86,9.29h0A6.88,6.88,0,0,0,837.1,713.22Z"/><circle class="cls-26" cx="868.27" cy="628.27" r="66.71"/><circle class="cls-49" cx="868.27" cy="628.27" r="57.25"/><path class="cls-50" d="M917.54,635.57c-7.38,22.63-18.92,37.91-50.39,37.91s-53-18.36-53-48.28S836.54,571,868,571,926.86,607,917.54,635.57Z"/><path class="cls-51" d="M907.09,598.52c5.34,17.08-15.78,18.32-39.54,25.74s-41.15,18.21-46.49,1.12,9.6-36.95,33.35-44.37S901.75,581.44,907.09,598.52Z"/><circle class="cls-49" cx="876.53" cy="673.48" r="4.37"/><circle class="cls-49" cx="883.69" cy="671.71" r="3.91"/><circle class="cls-49" cx="890.12" cy="671.71" r="3.91"/><circle class="cls-49" cx="894.03" cy="669.11" r="2.61"/><circle class="cls-50" cx="876.53" cy="673.48" r="2.14"/><circle class="cls-50" cx="883.69" cy="671.71" r="2.61"/><circle class="cls-50" cx="890.12" cy="671.71" r="2.61"/><circle class="cls-50" cx="895.41" cy="669.11" r="1.39"/><path class="cls-52" d="M681.63,526.93h0A23.32,23.32,0,0,1,705,503.61H822.29a23.32,23.32,0,0,1,23.32,23.32h0a23.32,23.32,0,0,1-23.32,23.32H821.2a14,14,0,0,0-14,14v.85a14,14,0,0,0,14,14h33a14,14,0,0,1,14,14v1.14a14,14,0,0,1-14,14H760.09a14,14,0,0,1-14-14v-1.14a14,14,0,0,1,14-14h0a14,14,0,0,0,14-14v-.85a14,14,0,0,0-14-14H705A23.32,23.32,0,0,1,681.63,526.93Z"/><path class="cls-53" d="M1720.6,1081.08l-69.15-154-1.53-4.68-.15.06,0-.07a6.6,6.6,0,0,0,3.44-8.29l-22.57-61a6.62,6.62,0,0,0-9.39-3.5L1609.5,856l-7.6-21.84,2.81-35.69h0l.06-.79a219.15,219.15,0,0,0-1.6-48.69l-.77-13.35-.71-18.77.55-10.74,2.08-39.13c0-.39,0-.78,0-1.16v-.16s0-.07,0-.1a14.82,14.82,0,0,0-4.17-9.3l-.15-.16c-.23-.23-.47-.45-.71-.66l-.42-.38c-.25-.21-.52-.41-.79-.6l-.38-.28a16.71,16.71,0,0,0-8.55-2.88,21.23,21.23,0,0,0-2.18-.07h-.51a16.79,16.79,0,0,0-14.06,7L1574,640.9c.08-9.06-7.62-16.38-17.21-16.35s-17.42,7.4-17.51,16.46l-5.65,61.29-1.38-.26,6.06-83.94c.6-9-6.67-16.79-16.24-17.31s-17.82,6.39-18.43,15.43l-5.72,79.31-1.8-.34-1.19-10.78a5.22,5.22,0,0,0,.28-2.72l-9.13-77.21a15.61,15.61,0,0,0-.22-1.66c-1.46-7.67-8.5-13.2-16.76-13.15-.54,0-1.08,0-1.62.07-9.54.89-16.69,8.93-16,18l10.69,96.59a15.52,15.52,0,0,0,.36,2.23l1.78,68.36L1461.48,785l-4.61-15.23-6.93-44.8,1.88-14.48a27.18,27.18,0,0,0-20-29.78l-1.29-.34-16,41.08a20.52,20.52,0,0,0-1.16,10.61c2.67,17.13,10.89,69.49,14,83.81,1.52,6.93,11.48,10.61,17.6,14.19l44.66,26.1,21,54.1-10.61,5.82a6.62,6.62,0,0,0-3,8.09L1514.77,972a6.62,6.62,0,0,0,8.78,3.8l4.37-1.85L1573,1081.79l66.36-4.75.25,3.73Z"/><path class="cls-54" d="M1439.7,778.92l-3.58-15.51-3.92-45.17,2.84-14.32a27.18,27.18,0,0,0-18-31l-1.26-.43-18.71,39.92a20.52,20.52,0,0,0-1.86,10.51c1.52,17.27,6.23,70.07,8.4,84.56,1.05,7,10.75,11.35,16.62,15.33l43.65,29.6L1443.21,769Z"/><g id="arm"><path class="cls-55" d="M1476.28,600.42l4.21,97.08c.12,9.06-7.54,16.61-17.13,16.86h0c-9.58.25-17.45-6.89-17.58-16l-4.21-97.08c-.12-9.06,7.54-16.61,17.13-16.86h0C1468.28,584.22,1476.15,591.36,1476.28,600.42Z"/><path class="cls-56" d="M1458.7,584.47l4.49,90.5c9.58-.25,17.16,12.16,17,3.1l-3.95-77.65C1476.15,591.36,1468.28,584.22,1458.7,584.47Z"/><path class="cls-57" d="M1513.12,716.43h0c-1.71,8.9-10.74,14.75-20.18,13.06h0c-9.44-1.69-15.7-10.27-14-19.17h0c1.71-8.9,10.74-14.75,20.18-13.06h0C1508.56,698.94,1514.83,707.53,1513.12,716.43Z"/><path class="cls-55" d="M1527.47,617.51l-13.76,98.41c-1.21,9-9.9,15.32-19.41,14.16h0c-9.52-1.16-16.25-9.38-15-18.36L1493,613.32c1.21-9,9.9-15.32,19.42-14.16h0C1521.94,600.31,1528.68,608.53,1527.47,617.51Z"/><path class="cls-56" d="M1512.43,599.15h0c9.52,1.16,16.25,9.38,15,18.36l-10,71.09c-1.21,9-7.6-8.13-17.12-9.29Z"/><path class="cls-55" d="M1561.55,642.65l-11.71,73.1c-.69,9-9,15.87-18.57,15.26h0c-9.57-.61-16.76-8.43-16.08-17.46l11.71-73.1c.69-9,9-15.87,18.57-15.26h0C1555,625.79,1562.24,633.61,1561.55,642.65Z"/><path class="cls-56" d="M1545.48,625.18h0c9.57.61,16.76,8.43,16.08,17.46L1551,692.76c-.69,9-7.72-5.7-17.29-6.31Z"/><path class="cls-55" d="M1590.1,670.76l-6.86,56.87c-.87,9-9.32,15.68-18.87,14.88h0c-9.55-.8-16.59-8.76-15.72-17.78l6.86-56.87c.82-8.5,8.78-14.78,17.78-14l2,.17C1584.28,654.76,1590.92,662.26,1590.1,670.76Z"/><path class="cls-54" d="M1581.71,802l-5.18,35.42,55,200.48-104,19.38-66.74-212.6L1443.21,769l2.84-69.35h0a15,15,0,0,1,18.41-12.14l119.74,31.16-1,33.06A219.17,219.17,0,0,1,1581.71,802Z"/></g><path class="cls-56" d="M1573.79,654.18l-10,101.24.25,15.49c.37,23.26,11.67,55.12-8.55,66.61l0,3.71c5.25,5.24,6.69,14.56,6.06,21.94l.22,16.66-82.66,44.31,6.16,7.4,73.8-31.76-13.27,154.11,77.88-22.85-47.16-193.66,5.3-36.21a219.16,219.16,0,0,0,1.65-48.69l.27-28.74,6.43-54.3c-.24-8.67-6.76-15.16-16.38-15.57Z"/><polygon class="cls-58" points="1674.28 1081.79 1600.03 865.48 1480.13 920.82 1533.11 1081.11 1674.28 1081.79"/><polygon class="cls-59" points="1674.28 1081.79 1600.03 865.48 1536.69 894.71 1597.84 1081.79 1674.28 1081.79"/><path class="cls-60" d="M1622.35,920.58l-18.44-62.41a6.62,6.62,0,0,0-9.13-4.12l-125.3,58.25a6.62,6.62,0,0,0-3.56,7.87l14.45,48.9a6.62,6.62,0,0,0,8.51,4.38l129.29-44.74A6.62,6.62,0,0,0,1622.35,920.58Z"/><path class="cls-59" d="M1622.31,920.43,1604,858.37a6.79,6.79,0,0,0-9.38-4.24l-58,27.51,17.86,68.62,63.6-21.5A6.78,6.78,0,0,0,1622.31,920.43Z"/><polygon class="cls-53" points="1503.49 968.44 1621.07 938.57 1618.54 928.63 1503.49 968.44"/><path class="cls-53" d="M1277.55,743.69a19.88,19.88,0,0,0-.78-2.1l-8.1-17.87-11.75-30.14h0l-.21,0-1.32.18h0c-15.65,2.14-25.18,19.39-23,33.07l2.34,14.63-7.9,44,15,8.47-3.44-10.41,1.64-69a13.53,13.53,0,0,0-.3-1.62l.16-.57c1.71-1.56,3.43-9.84,4.36-12.68l20.41-73.7v0a12.65,12.65,0,0,0,.59-4.84c-.39-5.58-4.36-11-10.48-14.41a26.45,26.45,0,0,0-5.09-2.15c-11-3.34-22.23.82-25,9.3l-25,87-2.91.22-4.4-79.74c-.56-9.07-10.22-16.76-21.58-17.17s-20.12,6.6-19.56,15.67l4.26,77.14-5.37-54.9c-1.77-9.07-1.2-7.52-12.41-6.85s-18.85,8.57-17.08,17.64l.85,8.66a18.38,18.38,0,0,0-4-4.44l-.19-.16c-.3-.23-.61-.45-.92-.67l-.54-.39c-.33-.21-.67-.41-1-.61l-.48-.28a24.44,24.44,0,0,0-10.45-3c-.85-.06-1.71-.1-2.59-.09h-.6c-10.69-.25-18.8,6.49-18.12,15l10.81,47.58c0,.24-1.15,7.44-1.12,7.68l3,19.35c-2.89,16.32-25.22,34.46-23.53,51.31l11,45.75-6.12,21.75-28.18-3.52c-3.89-.49-7.31,1.48-8,4.62l-11.35,48.88c-.84,3.62,2.16,7.42,6.6,8.36l10.26,2.17-58.36,160.72,78,0,92.82,0h.75l36.44-122.07.75-4.08.67-2.49-.21,0,0-.22c4,.7,7.73-1.24,8.49-4.53l14.49-62.39c.9-3.87-2.6-7.89-7.4-8.49l-6.53-.81,4.34-15,31-14.66c2.26-.92,5-1.81,7.68-2.81,6-2.2,11.92-4.9,13.12-9.55.91-3.49,2.17-9.32,3.61-16.36.36-1.76.73-3.6,1.11-5.49l.57-2.88c.58-2.92,1.17-6,1.76-9,1.39-7.2,2.8-14.69,4.11-21.7l1.09-5.88.52-2.82c.51-2.77,1-5.4,1.44-7.83.74-4,1.37-7.51,1.85-10.14a17.08,17.08,0,0,0,.11-5.35A18.73,18.73,0,0,0,1277.55,743.69Zm-163.09-49.61,1.26,12.91-.32.11-.27-.07Z"/><path class="cls-54" d="M1214.22,794.65l6.12-14.69,11.42-43.87-.41-14.6a27.18,27.18,0,0,1,22.92-27.6l1.32-.21,11.77,42.49a20.52,20.52,0,0,1,.08,10.67c-4.38,16.77-17.86,68-22.43,82-2.21,6.74-12.49,9.39-18.95,12.33l-48,21.88,34.36-78.75Z"/><g id="arm-2" data-name="arm"><path class="cls-61" d="M1251.62,627l-32.19,91.69c-3.25,8.46-13.18,12.61-22.17,9.28h0c-9-3.33-13.64-12.89-10.38-21.35L1219.07,615c3.25-8.46,13.18-12.61,22.17-9.28h0C1250.23,609,1254.88,618.58,1251.62,627Z"/><path class="cls-57" d="M1152.29,720.75h0c.19,9.06,8.12,16.33,17.71,16.25h0c9.59-.09,17.2-7.5,17-16.56h0c-.19-9.06-8.12-16.33-17.71-16.25h0C1159.71,704.28,1152.1,711.69,1152.29,720.75Z"/><path class="cls-61" d="M1190.94,622.46l-6,99.19c-.5,9-8.67,16-18.25,15.64h0c-9.58-.41-16.93-8.08-16.43-17.13l6-99.19c.5-9,8.67-16,18.25-15.64h0C1184.08,605.74,1191.44,613.41,1190.94,622.46Z"/><path class="cls-56" d="M1174.51,605.33h0c9.58.41,16.93,8.08,16.43,17.13l-4.46,71.65c-.5,9-8.21-7.51-17.79-7.92Z"/><path class="cls-61" d="M1152.93,643.16l-1.83,74c.53,9-6.8,16.93-16.36,17.6h0c-9.56.67-17.74-6.11-18.27-15.16l1.83-74c-.53-9,6.8-16.93,16.36-17.6h0C1144.23,627.32,1152.41,634.11,1152.93,643.16Z"/><path class="cls-56" d="M1134.67,628h0c9.56-.67,17.74,6.11,18.27,15.16l-3.81,51.08c.53,9-8.41-4.62-18-3.94Z"/><path class="cls-61" d="M1119.27,660.58l-3.63,57.17c-.36,9.06-8.41,16.19-18,15.93h0c-9.58-.26-17.06-7.81-16.71-16.86l3.63-57.17c.34-8.53,7.93-15.25,17-15l2,.05C1112.56,644.93,1119.6,652,1119.27,660.58Z"/><path class="cls-54" d="M1070.36,793.61l4.38,45.64-75.57,218.18,81.44,24.19,101.8-225.71,30-71.65,8.81-68.84h0a15,15,0,0,0-16.11-15L1185.84,702l-15.26-1.71-17.65,4.56-18.23-3.64-18.22,6.8-16.41-4.89-18.21,7.89-4.58,32.75A219.17,219.17,0,0,0,1070.36,793.61Z"/><path class="cls-56" d="M1165.61,857.44c-37.62,84.59-93.07,223.5-93.07,223.5l8.07.68,98.39-219,47.07-21.46c6.45-2.94,16.73-5.6,18.95-12.33,4.57-13.92,18.05-65.19,22.43-82a20.52,20.52,0,0,0-.08-10.67l-11.77-42.49-1.32.21c-13.49,2.14,5.24,31.42,5.62,45.07l-20.51,53.55c-.8,4.72-5.54,23.81-21.38,36.72C1198.22,845.36,1166.49,855.46,1165.61,857.44Z"/><path class="cls-56" d="M1241.24,605.69l-29.49,85.68c4.06,1.5-2.06,94-.54,100.1.51,2,8.75-78.79,9.32-78.13,1.5,1.73,4.59-9.38,5.88-12.75L1251.62,627C1254.88,618.58,1250.23,609,1241.24,605.69Z"/></g><path class="cls-56" d="M1100.07,692.69a59.25,59.25,0,0,1,17,3.08l2.24-36.51c-.73-8.64-7.61-14.75-17.23-14.61l0,.3Z"/><polygon class="cls-58" points="962.84 1081.63 1054.37 860.76 1165.78 927.78 1107.51 1081.63 962.84 1081.63"/><polygon class="cls-59" points="1028.91 1081.63 1113.5 882.13 1178.07 892.23 1108.15 1081.63 1028.91 1081.63"/><path class="cls-60" d="M1166.78,948.56l19-62.25a6.62,6.62,0,0,0-5.35-8.47l-136.66-20.38a6.62,6.62,0,0,0-7.3,4.61l-14.87,48.77a6.62,6.62,0,0,0,4.69,8.34L1158.81,953A6.62,6.62,0,0,0,1166.78,948.56Z"/><path class="cls-59" d="M1166.83,948.41l18.87-61.9a6.79,6.79,0,0,0-5.5-8.7L1131,871l-31.54,65.92L1158.66,953A6.78,6.78,0,0,0,1166.83,948.41Z"/><polygon class="cls-53" points="1038.01 923.31 1152.93 962.14 1156.21 952.43 1038.01 923.31"/><g class="cls-14"><rect x="1739.8" y="655.05" width="112.45" height="176.87" rx="56.22" ry="56.22"/></g><rect class="cls-62" x="1732.87" y="645" width="112.45" height="176.87" rx="56.22" ry="56.22"/><path class="cls-63" d="M1836,670.22a56.48,56.48,0,0,1,1,10.59v64.43a56.22,56.22,0,0,1-56.22,56.22h0a56.16,56.16,0,0,1-46.9-25.22,56.23,56.23,0,0,0,55.21,45.63h0a56.22,56.22,0,0,0,56.22-56.22V701.22A56,56,0,0,0,1836,670.22Z"/><polyline class="cls-64" points="1789.09 646.49 1789.09 700.9 1732.87 701.22"/><line class="cls-64" x1="1845.32" y1="700.89" x2="1789.09" y2="700.89"/><rect class="cls-65" x="1785.51" y="654.1" width="7.11" height="22.54" rx="3.02" ry="3.02"/></g></g></svg>