<svg id="Ebene_1" data-name="Ebene 1" xmlns="http://www.w3.org/2000/svg" xmlns:xlink="http://www.w3.org/1999/xlink" viewBox="0 0 500 300"><defs><style>.cls-1,.cls-11{mask:url(#mask);}.cls-1{filter:url(#luminosity-noclip-29);}.cls-13,.cls-16,.cls-19,.cls-2,.cls-22,.cls-25,.cls-27,.cls-29,.cls-32,.cls-35,.cls-38,.cls-4,.cls-6,.cls-9{mix-blend-mode:multiply;}.cls-2{fill:url(#radial-gradient);}.cls-3,.cls-41{mask:url(#mask-2);}.cls-4{fill:url(#radial-gradient-2);}.cls-24,.cls-5,.cls-7{mask:url(#mask-3);}.cls-5{filter:url(#luminosity-noclip-35);}.cls-6{fill:url(#radial-gradient-3);}.cls-10,.cls-8{mask:url(#mask-5);}.cls-8{filter:url(#luminosity-noclip-37);}.cls-9{fill:url(#radial-gradient-5);}.cls-12,.cls-14{mask:url(#mask-8);}.cls-12{filter:url(#luminosity-noclip-39);}.cls-13{fill:url(#radial-gradient-8);}.cls-15,.cls-17{mask:url(#mask-10);}.cls-15{filter:url(#luminosity-noclip-41);}.cls-16{fill:url(#radial-gradient-10);}.cls-18,.cls-20{mask:url(#mask-12);}.cls-18{filter:url(#luminosity-noclip-43);}.cls-19{fill:url(#radial-gradient-12);}.cls-21,.cls-23{mask:url(#mask-14);}.cls-21{filter:url(#luminosity-noclip-45);}.cls-22{fill:url(#radial-gradient-14);}.cls-24{filter:url(#luminosity-noclip-47);}.cls-25{fill:url(#radial-gradient-16);}.cls-26,.cls-40{mask:url(#mask-18);}.cls-26{filter:url(#luminosity-noclip-31);}.cls-27{fill:url(#radial-gradient-18);}.cls-28,.cls-30{mask:url(#mask-19);}.cls-28{filter:url(#luminosity-noclip-49);}.cls-29{fill:url(#radial-gradient-19);}.cls-31,.cls-33{mask:url(#mask-21);}.cls-31{filter:url(#luminosity-noclip-51);}.cls-32{fill:url(#radial-gradient-21);}.cls-34,.cls-36{mask:url(#mask-23);}.cls-34{filter:url(#luminosity-noclip-53);}.cls-35{fill:url(#radial-gradient-23);}.cls-37,.cls-39{mask:url(#mask-25);}.cls-37{filter:url(#luminosity-noclip-55);}.cls-38{fill:url(#radial-gradient-25);}.cls-41{filter:url(#luminosity-noclip-33);}.cls-42{fill:url(#linear-gradient);}.cls-43,.cls-44,.cls-45,.cls-46,.cls-47{fill:#fff;}.cls-43{fill-rule:evenodd;}.cls-43,.cls-46{opacity:0.2;}.cls-44{opacity:0.6;}.cls-45{opacity:0.5;}.cls-48{mask:url(#mask-29);}.cls-49{fill:url(#radial-gradient-29);}.cls-50{mask:url(#mask-31);}.cls-51{fill:url(#radial-gradient-30);}.cls-52{mask:url(#mask-33);}.cls-53{fill:url(#radial-gradient-31);}.cls-54{mask:url(#mask-35);}.cls-55{fill:url(#radial-gradient-32);}.cls-56{mask:url(#mask-37);}.cls-57{fill:url(#radial-gradient-33);}.cls-58{mask:url(#mask-39);}.cls-59{fill:url(#radial-gradient-34);}.cls-60{mask:url(#mask-41);}.cls-61{fill:url(#radial-gradient-35);}.cls-62{mask:url(#mask-43);}.cls-63{fill:url(#radial-gradient-36);}.cls-64{mask:url(#mask-45);}.cls-65{fill:url(#radial-gradient-37);}.cls-66{mask:url(#mask-47);}.cls-67{fill:url(#radial-gradient-38);}.cls-68{mask:url(#mask-49);}.cls-69,.cls-71,.cls-73,.cls-75{opacity:0.9;}.cls-69{fill:url(#radial-gradient-39);}.cls-70{mask:url(#mask-51);}.cls-71{fill:url(#radial-gradient-40);}.cls-72{mask:url(#mask-53);}.cls-73{fill:url(#radial-gradient-41);}.cls-74{mask:url(#mask-55);}.cls-75{fill:url(#radial-gradient-42);}.cls-76{filter:url(#luminosity-noclip-25);}.cls-77{filter:url(#luminosity-noclip-23);}.cls-78{filter:url(#luminosity-noclip-21);}.cls-79{filter:url(#luminosity-noclip-19);}.cls-80{filter:url(#luminosity-noclip-18);}.cls-81{filter:url(#luminosity-noclip-14);}.cls-82{filter:url(#luminosity-noclip-12);}.cls-83{filter:url(#luminosity-noclip-10);}.cls-84{filter:url(#luminosity-noclip-8);}.cls-85{filter:url(#luminosity-noclip-5);}.cls-86{filter:url(#luminosity-noclip-3);}.cls-87{filter:url(#luminosity-noclip-2);}.cls-88{filter:url(#luminosity-noclip);}</style><filter id="luminosity-noclip" x="89.6" y="-8342" width="6.38" height="32766" filterUnits="userSpaceOnUse" color-interpolation-filters="sRGB"><feFlood flood-color="#fff" result="bg"/><feBlend in="SourceGraphic" in2="bg"/></filter><mask id="mask" x="89.6" y="-8342" width="6.38" height="32766" maskUnits="userSpaceOnUse"><g class="cls-88"/></mask><radialGradient id="radial-gradient" cx="91.81" cy="111.82" r="3.16" gradientTransform="translate(0 -0.15) scale(1.01 1.01)" gradientUnits="userSpaceOnUse"><stop offset="0" stop-color="#fff"/><stop offset="0.19" stop-color="#c4c4c4"/><stop offset="0.49" stop-color="#717171"/><stop offset="0.73" stop-color="#343434"/><stop offset="0.91" stop-color="#0e0e0e"/><stop offset="1"/></radialGradient><filter id="luminosity-noclip-2" x="468.84" y="-8342" width="6.38" height="32766" filterUnits="userSpaceOnUse" color-interpolation-filters="sRGB"><feFlood flood-color="#fff" result="bg"/><feBlend in="SourceGraphic" in2="bg"/></filter><mask id="mask-2" x="468.84" y="-8342" width="6.38" height="32766" maskUnits="userSpaceOnUse"><g class="cls-87"/></mask><radialGradient id="radial-gradient-2" cx="467.06" cy="196.19" r="3.16" xlink:href="#radial-gradient"/><filter id="luminosity-noclip-3" x="273.2" y="-8342" width="6.38" height="32766" filterUnits="userSpaceOnUse" color-interpolation-filters="sRGB"><feFlood flood-color="#fff" result="bg"/><feBlend in="SourceGraphic" in2="bg"/></filter><mask id="mask-3" x="273.2" y="-8342" width="6.38" height="32766" maskUnits="userSpaceOnUse"><g class="cls-86"/></mask><radialGradient id="radial-gradient-3" cx="273.48" cy="152.36" r="3.16" xlink:href="#radial-gradient"/><filter id="luminosity-noclip-5" x="82.22" y="-8342" width="6.38" height="32766" filterUnits="userSpaceOnUse" color-interpolation-filters="sRGB"><feFlood flood-color="#fff" result="bg"/><feBlend in="SourceGraphic" in2="bg"/></filter><mask id="mask-5" x="82.22" y="-8342" width="6.38" height="32766" maskUnits="userSpaceOnUse"><g class="cls-85"/></mask><radialGradient id="radial-gradient-5" cx="84.51" cy="155.52" r="3.16" xlink:href="#radial-gradient"/><filter id="luminosity-noclip-8" x="340.31" y="-8342" width="6.38" height="32766" filterUnits="userSpaceOnUse" color-interpolation-filters="sRGB"><feFlood flood-color="#fff" result="bg"/><feBlend in="SourceGraphic" in2="bg"/></filter><mask id="mask-8" x="340.31" y="-8342" width="6.38" height="32766" maskUnits="userSpaceOnUse"><g class="cls-84"/></mask><radialGradient id="radial-gradient-8" cx="339.88" cy="234.44" r="3.16" xlink:href="#radial-gradient"/><filter id="luminosity-noclip-10" x="35.35" y="-8342" width="6.38" height="32766" filterUnits="userSpaceOnUse" color-interpolation-filters="sRGB"><feFlood flood-color="#fff" result="bg"/><feBlend in="SourceGraphic" in2="bg"/></filter><mask id="mask-10" x="35.35" y="-8342" width="6.38" height="32766" maskUnits="userSpaceOnUse"><g class="cls-83"/></mask><radialGradient id="radial-gradient-10" cx="38.14" cy="163.01" r="3.16" xlink:href="#radial-gradient"/><filter id="luminosity-noclip-12" x="32.16" y="-8342" width="6.38" height="32766" filterUnits="userSpaceOnUse" color-interpolation-filters="sRGB"><feFlood flood-color="#fff" result="bg"/><feBlend in="SourceGraphic" in2="bg"/></filter><mask id="mask-12" x="32.16" y="-8342" width="6.38" height="32766" maskUnits="userSpaceOnUse"><g class="cls-82"/></mask><radialGradient id="radial-gradient-12" cx="34.98" cy="204.14" r="3.16" xlink:href="#radial-gradient"/><filter id="luminosity-noclip-14" x="246.81" y="-8342" width="6.38" height="32766" filterUnits="userSpaceOnUse" color-interpolation-filters="sRGB"><feFlood flood-color="#fff" result="bg"/><feBlend in="SourceGraphic" in2="bg"/></filter><mask id="mask-14" x="246.81" y="-8342" width="6.38" height="32766" maskUnits="userSpaceOnUse"><g class="cls-81"/></mask><radialGradient id="radial-gradient-14" cx="247.37" cy="138.44" r="3.16" xlink:href="#radial-gradient"/><radialGradient id="radial-gradient-16" cx="273.48" cy="108.66" r="3.16" xlink:href="#radial-gradient"/><filter id="luminosity-noclip-18" x="448.91" y="-8342" width="6.38" height="32766" filterUnits="userSpaceOnUse" color-interpolation-filters="sRGB"><feFlood flood-color="#fff" result="bg"/><feBlend in="SourceGraphic" in2="bg"/></filter><mask id="mask-18" x="448.91" y="-8342" width="6.38" height="32766" maskUnits="userSpaceOnUse"><g class="cls-80"/></mask><radialGradient id="radial-gradient-18" cx="447.34" cy="212.2" r="3.16" xlink:href="#radial-gradient"/><filter id="luminosity-noclip-19" x="124.11" y="-8342" width="4.08" height="32766" filterUnits="userSpaceOnUse" color-interpolation-filters="sRGB"><feFlood flood-color="#fff" result="bg"/><feBlend in="SourceGraphic" in2="bg"/></filter><mask id="mask-19" x="124.11" y="-8342" width="4.08" height="32766" maskUnits="userSpaceOnUse"><g class="cls-79"/></mask><radialGradient id="radial-gradient-19" cx="124.82" cy="111.55" r="2.02" xlink:href="#radial-gradient"/><filter id="luminosity-noclip-21" x="212.63" y="-8342" width="4.08" height="32766" filterUnits="userSpaceOnUse" color-interpolation-filters="sRGB"><feFlood flood-color="#fff" result="bg"/><feBlend in="SourceGraphic" in2="bg"/></filter><mask id="mask-21" x="212.63" y="-8342" width="4.08" height="32766" maskUnits="userSpaceOnUse"><g class="cls-78"/></mask><radialGradient id="radial-gradient-21" cx="212.41" cy="109.8" r="2.02" xlink:href="#radial-gradient"/><filter id="luminosity-noclip-23" x="480.05" y="-8342" width="4.08" height="32766" filterUnits="userSpaceOnUse" color-interpolation-filters="sRGB"><feFlood flood-color="#fff" result="bg"/><feBlend in="SourceGraphic" in2="bg"/></filter><mask id="mask-23" x="480.05" y="-8342" width="4.08" height="32766" maskUnits="userSpaceOnUse"><g class="cls-77"/></mask><radialGradient id="radial-gradient-23" cx="477.02" cy="175.28" r="2.02" xlink:href="#radial-gradient"/><filter id="luminosity-noclip-25" x="384.37" y="-8342" width="4.08" height="32766" filterUnits="userSpaceOnUse" color-interpolation-filters="sRGB"><feFlood flood-color="#fff" result="bg"/><feBlend in="SourceGraphic" in2="bg"/></filter><mask id="mask-25" x="384.37" y="-8342" width="4.08" height="32766" maskUnits="userSpaceOnUse"><g class="cls-76"/></mask><radialGradient id="radial-gradient-25" cx="382.34" cy="228.96" r="2.02" xlink:href="#radial-gradient"/><linearGradient id="linear-gradient" x1="170.52" y1="-119.36" x2="320.39" y2="388.55" gradientUnits="userSpaceOnUse"><stop offset="0" stop-color="#e5332a"/><stop offset="0.25" stop-color="#ca303d"/><stop offset="0.77" stop-color="#86286c"/><stop offset="1" stop-color="#662482"/></linearGradient><filter id="luminosity-noclip-29" x="89.6" y="109.98" width="6.38" height="6.4" filterUnits="userSpaceOnUse" color-interpolation-filters="sRGB"><feFlood flood-color="#fff" result="bg"/><feBlend in="SourceGraphic" in2="bg"/></filter><mask id="mask-29" x="89.6" y="109.98" width="6.38" height="6.4" maskUnits="userSpaceOnUse"><g class="cls-1"><ellipse class="cls-2" cx="92.79" cy="113.17" rx="3.19" ry="3.2"/></g></mask><radialGradient id="radial-gradient-29" cx="91.81" cy="111.82" r="3.16" gradientTransform="translate(0 -0.15) scale(1.01 1.01)" gradientUnits="userSpaceOnUse"><stop offset="0" stop-color="#fff"/><stop offset="1" stop-color="#fff"/></radialGradient><filter id="luminosity-noclip-31" x="448.91" y="211.72" width="6.38" height="6.4" filterUnits="userSpaceOnUse" color-interpolation-filters="sRGB"><feFlood flood-color="#fff" result="bg"/><feBlend in="SourceGraphic" in2="bg"/></filter><mask id="mask-31" x="448.91" y="211.72" width="6.38" height="6.4" maskUnits="userSpaceOnUse"><g class="cls-26"><ellipse class="cls-27" cx="452.1" cy="214.91" rx="3.19" ry="3.2"/></g></mask><radialGradient id="radial-gradient-30" cx="447.34" cy="212.2" r="3.16" xlink:href="#radial-gradient-29"/><filter id="luminosity-noclip-33" x="468.84" y="195.49" width="6.38" height="6.4" filterUnits="userSpaceOnUse" color-interpolation-filters="sRGB"><feFlood flood-color="#fff" result="bg"/><feBlend in="SourceGraphic" in2="bg"/></filter><mask id="mask-33" x="468.84" y="195.49" width="6.38" height="6.4" maskUnits="userSpaceOnUse"><g class="cls-41"><ellipse class="cls-4" cx="472.03" cy="198.69" rx="3.19" ry="3.2"/></g></mask><radialGradient id="radial-gradient-31" cx="467.06" cy="196.19" r="3.16" xlink:href="#radial-gradient-29"/><filter id="luminosity-noclip-35" x="273.2" y="151.07" width="6.38" height="6.4" filterUnits="userSpaceOnUse" color-interpolation-filters="sRGB"><feFlood flood-color="#fff" result="bg"/><feBlend in="SourceGraphic" in2="bg"/></filter><mask id="mask-35" x="273.2" y="151.07" width="6.38" height="6.4" maskUnits="userSpaceOnUse"><g class="cls-5"><ellipse class="cls-6" cx="276.39" cy="154.27" rx="3.19" ry="3.2"/></g></mask><radialGradient id="radial-gradient-32" cx="273.48" cy="152.36" r="3.16" xlink:href="#radial-gradient-29"/><filter id="luminosity-noclip-37" x="82.22" y="154.27" width="6.38" height="6.4" filterUnits="userSpaceOnUse" color-interpolation-filters="sRGB"><feFlood flood-color="#fff" result="bg"/><feBlend in="SourceGraphic" in2="bg"/></filter><mask id="mask-37" x="82.22" y="154.27" width="6.38" height="6.4" maskUnits="userSpaceOnUse"><g class="cls-8"><ellipse class="cls-9" cx="85.41" cy="157.47" rx="3.19" ry="3.2"/></g></mask><radialGradient id="radial-gradient-33" cx="84.51" cy="155.52" r="3.16" xlink:href="#radial-gradient-29"/><filter id="luminosity-noclip-39" x="340.31" y="234.26" width="6.38" height="6.4" filterUnits="userSpaceOnUse" color-interpolation-filters="sRGB"><feFlood flood-color="#fff" result="bg"/><feBlend in="SourceGraphic" in2="bg"/></filter><mask id="mask-39" x="340.31" y="234.26" width="6.38" height="6.4" maskUnits="userSpaceOnUse"><g class="cls-12"><ellipse class="cls-13" cx="343.5" cy="237.46" rx="3.19" ry="3.2"/></g></mask><radialGradient id="radial-gradient-34" cx="339.88" cy="234.44" r="3.16" xlink:href="#radial-gradient-29"/><filter id="luminosity-noclip-41" x="35.35" y="161.86" width="6.38" height="6.4" filterUnits="userSpaceOnUse" color-interpolation-filters="sRGB"><feFlood flood-color="#fff" result="bg"/><feBlend in="SourceGraphic" in2="bg"/></filter><mask id="mask-41" x="35.35" y="161.86" width="6.38" height="6.4" maskUnits="userSpaceOnUse"><g class="cls-15"><ellipse class="cls-16" cx="38.54" cy="165.06" rx="3.19" ry="3.2"/></g></mask><radialGradient id="radial-gradient-35" cx="38.14" cy="163.01" r="3.16" xlink:href="#radial-gradient-29"/><filter id="luminosity-noclip-43" x="32.16" y="203.55" width="6.38" height="6.4" filterUnits="userSpaceOnUse" color-interpolation-filters="sRGB"><feFlood flood-color="#fff" result="bg"/><feBlend in="SourceGraphic" in2="bg"/></filter><mask id="mask-43" x="32.16" y="203.55" width="6.38" height="6.4" maskUnits="userSpaceOnUse"><g class="cls-18"><ellipse class="cls-19" cx="35.35" cy="206.74" rx="3.19" ry="3.2"/></g></mask><radialGradient id="radial-gradient-36" cx="34.98" cy="204.14" r="3.16" xlink:href="#radial-gradient-29"/><filter id="luminosity-noclip-45" x="246.81" y="136.95" width="6.38" height="6.4" filterUnits="userSpaceOnUse" color-interpolation-filters="sRGB"><feFlood flood-color="#fff" result="bg"/><feBlend in="SourceGraphic" in2="bg"/></filter><mask id="mask-45" x="246.81" y="136.95" width="6.38" height="6.4" maskUnits="userSpaceOnUse"><g class="cls-21"><ellipse class="cls-22" cx="250" cy="140.15" rx="3.19" ry="3.2"/></g></mask><radialGradient id="radial-gradient-37" cx="247.37" cy="138.44" r="3.16" xlink:href="#radial-gradient-29"/><filter id="luminosity-noclip-47" x="273.2" y="106.78" width="6.38" height="6.4" filterUnits="userSpaceOnUse" color-interpolation-filters="sRGB"><feFlood flood-color="#fff" result="bg"/><feBlend in="SourceGraphic" in2="bg"/></filter><mask id="mask-47" x="273.2" y="106.78" width="6.38" height="6.4" maskUnits="userSpaceOnUse"><g class="cls-24"><ellipse class="cls-25" cx="276.39" cy="109.97" rx="3.19" ry="3.2"/></g></mask><radialGradient id="radial-gradient-38" cx="273.48" cy="108.66" r="3.16" xlink:href="#radial-gradient-29"/><filter id="luminosity-noclip-49" x="124.11" y="110.86" width="4.08" height="4.09" filterUnits="userSpaceOnUse" color-interpolation-filters="sRGB"><feFlood flood-color="#fff" result="bg"/><feBlend in="SourceGraphic" in2="bg"/></filter><mask id="mask-49" x="124.11" y="110.86" width="4.08" height="4.09" maskUnits="userSpaceOnUse"><g class="cls-28"><ellipse class="cls-29" cx="126.15" cy="112.9" rx="2.04" ry="2.04"/></g></mask><radialGradient id="radial-gradient-39" cx="124.82" cy="111.55" r="2.02" xlink:href="#radial-gradient-29"/><filter id="luminosity-noclip-51" x="212.63" y="109.08" width="4.08" height="4.09" filterUnits="userSpaceOnUse" color-interpolation-filters="sRGB"><feFlood flood-color="#fff" result="bg"/><feBlend in="SourceGraphic" in2="bg"/></filter><mask id="mask-51" x="212.63" y="109.08" width="4.08" height="4.09" maskUnits="userSpaceOnUse"><g class="cls-31"><ellipse class="cls-32" cx="214.67" cy="111.13" rx="2.04" ry="2.04"/></g></mask><radialGradient id="radial-gradient-40" cx="212.41" cy="109.8" r="2.02" xlink:href="#radial-gradient-29"/><filter id="luminosity-noclip-53" x="480.05" y="175.45" width="4.08" height="4.09" filterUnits="userSpaceOnUse" color-interpolation-filters="sRGB"><feFlood flood-color="#fff" result="bg"/><feBlend in="SourceGraphic" in2="bg"/></filter><mask id="mask-53" x="480.05" y="175.45" width="4.08" height="4.09" maskUnits="userSpaceOnUse"><g class="cls-34"><ellipse class="cls-35" cx="482.09" cy="177.49" rx="2.04" ry="2.04"/></g></mask><radialGradient id="radial-gradient-41" cx="477.02" cy="175.28" r="2.02" xlink:href="#radial-gradient-29"/><filter id="luminosity-noclip-55" x="384.37" y="229.86" width="4.08" height="4.09" filterUnits="userSpaceOnUse" color-interpolation-filters="sRGB"><feFlood flood-color="#fff" result="bg"/><feBlend in="SourceGraphic" in2="bg"/></filter><mask id="mask-55" x="384.37" y="229.86" width="4.08" height="4.09" maskUnits="userSpaceOnUse"><g class="cls-37"><ellipse class="cls-38" cx="386.41" cy="231.9" rx="2.04" ry="2.05"/></g></mask><radialGradient id="radial-gradient-42" cx="382.34" cy="228.96" r="2.02" xlink:href="#radial-gradient-29"/></defs><title>Zeichenfläche 1</title><rect class="cls-42" width="500" height="300"/><path class="cls-43" d="M0,247.48V300H500V228.35a15.92,15.92,0,0,0-15.89,15.94c0,.46,0,.91.07,1.36-.25,0-.5,0-.75,0a14.5,14.5,0,0,0-10.1,4.1,25.1,25.1,0,0,0-41.65,5.12,19.21,19.21,0,0,0-26.88,5.25,23.75,23.75,0,0,0-37.11,2.49,15.82,15.82,0,0,0-23.57-1.86,7.57,7.57,0,0,0-10.85-3.28,15.85,15.85,0,0,0-25.39-9.76c0-.17,0-.34,0-.52a13,13,0,0,0-18.67-11.79,15.92,15.92,0,0,0-7-12A12.31,12.31,0,0,0,263,208.91a12.36,12.36,0,0,0-11.83-3.14,12.41,12.41,0,0,0-14.47-10.29,8.25,8.25,0,0,0-5.41-13.79,4.86,4.86,0,1,0-7.34,2.83l-6.29,10.35s-14.19,8.49-38.41,10.89-45-4.8-52-15.77a30.78,30.78,0,0,0-5.59-6.91,4.9,4.9,0,1,0-8.21-1.71,16,16,0,0,0-20.35,9.85,13.11,13.11,0,0,0-21.87,13.87,11.55,11.55,0,0,0-7.87,13.68,20.11,20.11,0,0,0-28.7,7.17A16.8,16.8,0,0,0,11,246.29a16.8,16.8,0,0,0-3.82-.45A16.66,16.66,0,0,0,0,247.48Z"/><path class="cls-44" d="M500,300V242.87a15.21,15.21,0,0,0-13.71,19.8l-.71,0a24,24,0,0,0-21.29,13,15.1,15.1,0,0,0-18.48,7,16.91,16.91,0,0,0-27.05,6.54,10,10,0,0,0-8-3.92h-.17a10,10,0,0,0-19.58-.93,15.07,15.07,0,0,0-17.29.67,10.06,10.06,0,0,0-9.75-7.65,10.29,10.29,0,0,0-1,.05,18.68,18.68,0,0,0-25.32-8.48,10,10,0,0,0-15,3.42,10,10,0,0,0-8.73-5.08c-.22,0-.44,0-.66,0a18.76,18.76,0,0,0-18.1-23.68,18.62,18.62,0,0,0-7.43,1.54A10.05,10.05,0,0,0,268,247.5,19.16,19.16,0,0,0,252,238.79c-.63,0-1.25,0-1.86.09A14.85,14.85,0,0,0,235.83,220a14.71,14.71,0,0,0-6.54,1.54c0-.11,0-.22,0-.33a10.08,10.08,0,0,0-8.94-10,5.88,5.88,0,1,0-11-1.33c-3.23,1.37-8.56,5.45-18.47,10.16-13.08,6.21-39.35-3.39-45.11-6.09-3.69-1.73-5.56-2.39-7.08-2.64,0-.05,0-.1,0-.16a6.31,6.31,0,1,0-12.47,1.37,14.42,14.42,0,0,0-15.89,9.68A24.37,24.37,0,0,0,66.5,235a7,7,0,0,0-5.63,12.43,16.24,16.24,0,0,0-10.64,15.24s0,0,0,0a12.19,12.19,0,0,0-13.78,6.58,16.91,16.91,0,0,0-28.29,12.2,12.12,12.12,0,0,0-8.16,1V300Z"/><ellipse class="cls-45" cx="379.46" cy="270.77" rx="6.95" ry="6.97"/><ellipse class="cls-45" cx="452.1" cy="258.44" rx="6.95" ry="6.97"/><ellipse class="cls-45" cx="43.19" cy="239.77" rx="7.84" ry="7.87"/><ellipse class="cls-46" cx="465.92" cy="226.4" rx="2.92" ry="2.93"/><ellipse class="cls-46" cx="51.04" cy="207.76" rx="4.21" ry="4.22"/><ellipse class="cls-46" cx="9.64" cy="220.66" rx="5.73" ry="5.74"/><ellipse class="cls-46" cx="485.78" cy="216.45" rx="5.73" ry="5.74"/><ellipse class="cls-45" cx="11.05" cy="258.44" rx="2.92" ry="2.93"/><circle class="cls-47" cx="199.14" cy="203.52" r="1.31"/><circle class="cls-47" cx="183.12" cy="187.8" r="1.31"/><circle class="cls-45" cx="149.74" cy="182.97" r="1.31"/><circle class="cls-45" cx="165.35" cy="168.46" r="1.31"/><circle class="cls-47" cx="176.3" cy="174.58" r="1.31"/><g class="cls-48"><g class="cls-48"><ellipse class="cls-49" cx="92.79" cy="113.17" rx="3.19" ry="3.2"/></g></g><g class="cls-50"><g class="cls-50"><ellipse class="cls-51" cx="452.1" cy="214.91" rx="3.19" ry="3.2"/></g></g><g class="cls-52"><g class="cls-52"><ellipse class="cls-53" cx="472.03" cy="198.69" rx="3.19" ry="3.2"/></g></g><g class="cls-54"><g class="cls-54"><ellipse class="cls-55" cx="276.39" cy="154.27" rx="3.19" ry="3.2"/></g></g><g class="cls-56"><g class="cls-56"><ellipse class="cls-57" cx="85.41" cy="157.47" rx="3.19" ry="3.2"/></g></g><g class="cls-58"><g class="cls-58"><ellipse class="cls-59" cx="343.5" cy="237.46" rx="3.19" ry="3.2"/></g></g><g class="cls-60"><g class="cls-60"><ellipse class="cls-61" cx="38.54" cy="165.06" rx="3.19" ry="3.2"/></g></g><g class="cls-62"><g class="cls-62"><ellipse class="cls-63" cx="35.35" cy="206.74" rx="3.19" ry="3.2"/></g></g><g class="cls-64"><g class="cls-64"><ellipse class="cls-65" cx="250" cy="140.15" rx="3.19" ry="3.2"/></g></g><g class="cls-66"><g class="cls-66"><ellipse class="cls-67" cx="276.39" cy="109.97" rx="3.19" ry="3.2"/></g></g><g class="cls-68"><g class="cls-68"><ellipse class="cls-69" cx="126.15" cy="112.9" rx="2.04" ry="2.04"/></g></g><g class="cls-70"><g class="cls-70"><ellipse class="cls-71" cx="214.67" cy="111.13" rx="2.04" ry="2.04"/></g></g><g class="cls-72"><g class="cls-72"><ellipse class="cls-73" cx="482.09" cy="177.49" rx="2.04" ry="2.04"/></g></g><g class="cls-74"><g class="cls-74"><ellipse class="cls-75" cx="386.41" cy="231.9" rx="2.04" ry="2.05"/></g></g><ellipse class="cls-46" cx="411.2" cy="237.46" rx="10.46" ry="10.5"/><ellipse class="cls-45" cx="229.49" cy="202.2" rx="2.74" ry="2.75"/></svg>