<svg xmlns="http://www.w3.org/2000/svg" width="562.596" height="577.684" viewBox="0 0 562.596 577.684">
  <g id="Gruppe_107" data-name="Gruppe 107" transform="translate(686.693 -357.553) rotate(90)">
    <path id="Pfad_115" data-name="Pfad 115" d="M935.237,124.694V686.689H363.584c-10.42-38.968-11.256-123.313,29.923-144.042,20.692-10.4,44.708-10.829,67.8-12.63,4.606-.353,9.268-.8,13.912-1.43,18.648-2.452,37.074-7.56,50.763-20.06,12.537-11.442,19.076-27.285,21.75-44.225a128.5,128.5,0,0,0,1.467-20.209c0-1.746-.037-3.473-.111-5.2-.149-3.789-.427-7.56-.817-11.256-3.1-28.883-11.739-57.394-9.974-86.388,3.975-65.009,68.65-119.821,133.436-113.042,20.339,2.117,39.8,9.343,59.938,12.8,51.97,8.86,61.424-24.183,82.283-60.161C836.479,142.024,891.607,120.143,935.237,124.694Z" transform="translate(0 0.003)" fill="#884ab0"/>
    <g id="Gruppe_102" data-name="Gruppe 102" transform="translate(549.083 304.073)">
      <g id="Gruppe_98" data-name="Gruppe 98" transform="translate(0 6.663)">
        <path id="Pfad_116" data-name="Pfad 116" d="M846.824,230.709v5.182l-58.23,56.335-9.937,9.6-7.764-12.3-36.572-57.877-52.49,87.5-34.845-66.012-98.517,96.065-9.9,9.659-8.154-8.618-24.908-26.338-5.554-5.869-5.684,5.777-33.489,34.12c0-1.746-.037-3.473-.111-5.2l30.963-31.52,8.358-8.525,8.21,8.674,24.388,25.762,6.092,6.445,7.355-7.17L647.952,247l34.083,64.582,52.212-87,39.433,62.409,5.684,8.99,7.281-7.04Z" transform="translate(-460.67 -224.58)" fill="#9f64c4"/>
      </g>
      <g id="Gruppe_99" data-name="Gruppe 99" transform="translate(29.108 87.256)">
        <circle id="Ellipse_1" data-name="Ellipse 1" cx="10.197" cy="10.197" r="10.197" fill="#9f64c4"/>
      </g>
      <g id="Gruppe_100" data-name="Gruppe 100" transform="translate(68.854 126.298)">
        <path id="Pfad_117" data-name="Pfad 117" d="M518.134,299.187a10.2,10.2,0,1,1-10.2-10.2A10.2,10.2,0,0,1,518.134,299.187Z" transform="translate(-497.74 -288.99)" fill="#9f64c4"/>
      </g>
      <path id="Pfad_118" data-name="Pfad 118" d="M622.883,231.188a10.2,10.2,0,1,1-10.2-10.2A10.2,10.2,0,0,1,622.883,231.188Z" transform="translate(-339.072 -220.993)" fill="#9f64c4"/>
      <g id="Gruppe_101" data-name="Gruppe 101" transform="translate(308.14 67.559)">
        <path id="Pfad_119" data-name="Pfad 119" d="M646.962,267.561a10.2,10.2,0,1,1-10.2-10.2A10.2,10.2,0,0,1,646.962,267.561Z" transform="translate(-626.568 -257.366)" fill="#9f64c4"/>
      </g>
    </g>
    <path id="Pfad_120" data-name="Pfad 120" d="M935.237,294.48V540.6H363.584c-10.42-38.968-11.256-123.313,29.923-144.042,20.692-10.4,44.708-10.829,67.8-12.63,4.606-.353,9.268-.8,13.912-1.43,18.648-2.452,37.074-7.56,50.763-20.06,12.537-11.442,19.076-27.285,21.75-44.225H565.01a7.588,7.588,0,0,1,7.588,7.587v33.452a7.588,7.588,0,0,0,7.587,7.587h3.51a7.588,7.588,0,0,1,7.588,7.587v13.726a7.588,7.588,0,0,0,7.587,7.587h18.351a7.588,7.588,0,0,0,7.588-7.587V347.9a7.594,7.594,0,0,1,2.221-5.366l14.943-14.943a7.591,7.591,0,0,1,10.732,0l13.381,13.384a7.58,7.58,0,0,1,2.223,5.364V370.42a7.588,7.588,0,0,0,7.588,7.588h0a7.588,7.588,0,0,0,7.588-7.588V358.755a7.588,7.588,0,0,1,7.587-7.588h41.55a7.588,7.588,0,0,1,7.588,7.588v29.4a7.588,7.588,0,0,0,7.588,7.587h18.377a7.581,7.581,0,0,0,5.362-2.222l21.891-21.876a7.589,7.589,0,0,1,10.728,0L824.224,391.7a7.591,7.591,0,0,1,2.225,5.368v7.786a7.588,7.588,0,0,0,7.588,7.588h4.941a7.588,7.588,0,0,0,7.588-7.588V368.483a7.594,7.594,0,0,1,2.221-5.366l12.045-12.043a7.587,7.587,0,0,1,10.732,0L884.5,364.01a7.579,7.579,0,0,1,2.223,5.364V383.2a7.588,7.588,0,0,0,7.588,7.587h2.155a7.588,7.588,0,0,0,7.587-7.587V338.714a7.588,7.588,0,0,1,7.587-7.588h6.278a7.588,7.588,0,0,0,7.588-7.587V302.067a7.588,7.588,0,0,1,7.587-7.587Z" transform="translate(0 146.088)" fill="#673387"/>
    <path id="Pfad_121" data-name="Pfad 121" d="M407.025,563.316c20.678-10.405,44.7-10.838,67.8-12.64s47.566-5.869,64.66-21.485c21.451-19.586,25.376-52.02,22.287-80.9S550.028,390.9,551.8,361.907c3.971-65.015,68.648-119.817,133.436-113.047,20.342,2.123,39.8,9.359,59.95,12.8C797.14,270.52,806.6,237.49,827.469,201.5c20.24-34.9,66.855-56.1,107.766-56.72V124.69c-43.627-4.551-98.767,17.335-121.279,56.155-20.874,35.987-30.33,69.017-82.285,60.158-20.149-3.442-39.607-10.678-59.95-12.8-64.788-6.77-129.465,48.033-133.436,113.047-1.77,28.994,6.882,57.505,9.969,86.384s-.836,61.317-22.287,80.9c-17.094,15.613-41.584,19.683-64.66,21.483s-47.117,2.236-67.8,12.64c-41.182,20.729-40.347,105.072-29.927,144.034h9.525C367.4,644.089,372.135,580.876,407.025,563.316Z" transform="translate(0.002)" fill="#7b3ea3" opacity="0.24" style="mix-blend-mode: multiply;isolation: isolate"/>
    <path id="Pfad_140" data-name="Pfad 140" d="M643.176,194.785l2.522,6.163a1.194,1.194,0,0,0,.652.652l6.163,2.522a1.192,1.192,0,0,1,0,2.207l-6.163,2.52a1.2,1.2,0,0,0-.652.652l-2.522,6.163a1.192,1.192,0,0,1-2.207,0l-2.52-6.163a1.206,1.206,0,0,0-.652-.652l-6.163-2.52a1.192,1.192,0,0,1,0-2.207L637.8,201.6a1.2,1.2,0,0,0,.652-.652l2.52-6.163A1.192,1.192,0,0,1,643.176,194.785Z" transform="translate(234.363 59.973)" fill="#fff"/>
    <path id="Pfad_141" data-name="Pfad 141" d="M507.71,242.3l2.52,6.161a1.194,1.194,0,0,0,.652.652l6.163,2.522a1.192,1.192,0,0,1,0,2.207l-6.163,2.522a1.194,1.194,0,0,0-.652.652l-2.52,6.163a1.193,1.193,0,0,1-2.207,0l-2.522-6.163a1.188,1.188,0,0,0-.652-.652l-6.163-2.522a1.192,1.192,0,0,1,0-2.207l6.163-2.522a1.188,1.188,0,0,0,.652-.652L505.5,242.3A1.192,1.192,0,0,1,507.71,242.3Z" transform="translate(118.212 100.709)" fill="#fff"/>
    <path id="Pfad_142" data-name="Pfad 142" d="M599.6,310.251l2.522,6.163a1.194,1.194,0,0,0,.652.652l6.163,2.522a1.192,1.192,0,0,1,0,2.207l-6.163,2.521a1.2,1.2,0,0,0-.652.652L599.6,331.13a1.192,1.192,0,0,1-2.207,0l-2.521-6.163a1.206,1.206,0,0,0-.652-.652l-6.163-2.521a1.192,1.192,0,0,1,0-2.207l6.163-2.522a1.2,1.2,0,0,0,.652-.652l2.521-6.163A1.192,1.192,0,0,1,599.6,310.251Z" transform="translate(196.998 158.975)" fill="#fff"/>
    <g id="Gruppe_104" data-name="Gruppe 104" transform="translate(368.357 430.371)">
      <path id="Pfad_143" data-name="Pfad 143" d="M930.25,460.094v85.218H363.37a13.8,13.8,0,0,1,.5-2.1c2.6-8.284,10.179-14.544,18.63-16.531,8.451-1.969,12.965-2.6,20.45,1.8-7.8-15.156-5.405-34.975,5.777-47.828,11.2-12.872,30.48-17.98,46.565-12.333a50.684,50.684,0,0,1,27.564,24.146c-.223-9.9,3.956-19.986,11.832-26.059,11.014-8.507,28.27-8.433,39.191.074a26.338,26.338,0,0,1,2.545,2.229,32.851,32.851,0,0,1-1.783-3.009c-6.594-12.686-3.882-29.477,5.572-40.4,10.216-11.813,26.914-16.921,42.423-15.082,15.509,1.857,30.406,11.683,41.736,22.419,80.481-26,83.082-139.082,83.082-139.082l14.989-4.569,15.008,4.569s2.582,113.079,83.082,139.082c11.33-10.736,26.227-20.561,41.736-22.419,15.509-1.839,32.207,3.269,42.423,15.082s12.556,30.48,3.771,43.408C914.109,463.047,922.152,460.168,930.25,460.094Z" transform="translate(-363.37 -288.99)" fill="#c9a6e0"/>
      <path id="Pfad_144" data-name="Pfad 144" d="M772.238,469.207H503.23c1.579-14.135,7.82-27.972,20.283-34.381,14.673-7.56,34.325-3.6,44.931,9.046C562,414.767,584.194,382.6,613.671,378.25c29.477-4.328,59.994,20.1,62.2,49.816.947-13.15,15.008-23.7,27.9-20.933,12.872,2.768,21.36,18.165,16.828,30.536,11.813-10.662,31.929-10.29,43.352.8C771.941,446.231,774.8,458.435,772.238,469.207Z" transform="translate(-243.453 -212.886)" fill="#d8baeb"/>
      <path id="Pfad_145" data-name="Pfad 145" d="M652.3,469.731H421.164c-1.672-11.943,4.606-24.8,15.324-30.48,11.739-6.222,27.638-3.158,36.257,6.984-5.126-17.385-2.656-37.371,8.525-51.617a41.6,41.6,0,0,1,3.288-3.715c.241-.26.5-.52.761-.78,11.609-11.2,29.328-16.252,44.466-10.736,14.952,5.442,25.335,21.88,23.57,37.39,4.774-12.519,20.023-20.859,33.006-16.568,15.063,4.978,22.456,25.465,14.042,38.931,10.513-9.6,27.768-10.7,39.414-2.507C650.07,443.838,655.011,457.6,652.3,469.731Z" transform="translate(-314.047 -213.409)" fill="#e7d5f2"/>
    </g>
    <g id="Gruppe_106" data-name="Gruppe 106" transform="translate(823.964 414.583)">
      <circle id="Ellipse_4" data-name="Ellipse 4" cx="32.639" cy="32.639" r="32.639" transform="translate(3.818 58.721) rotate(-64.101)" fill="#e87de5"/>
      <path id="Pfad_146" data-name="Pfad 146" d="M676.342,310.165A32.551,32.551,0,0,0,657.283,287.8a32.6,32.6,0,0,1-35.235,53.586,32.62,32.62,0,0,0,54.294-31.219Z" transform="translate(-597.185 -274.224)" fill="#e05edc"/>
      <g id="Gruppe_105" data-name="Gruppe 105" transform="translate(0 28.993)">
        <path id="Pfad_147" data-name="Pfad 147" d="M685.345,296.249a31.57,31.57,0,0,1,2.112,5.489c6.148-.264,9.978.243,11.36.979-.916,1.348-4.244,3.626-10.13,6.311-6.763,3.089-16.895,6.705-30.58,10.017s-24.349,4.725-31.775,5.071c-6.464.3-10.465-.2-11.895-.983.892-1.285,4.066-3.488,9.655-6.063a31.525,31.525,0,0,1-.631-5.847c-8.823,3.893-15.82,8.548-14.675,13.277,1.2,4.965,10.374,5.747,20.6,4.972a211.558,211.558,0,0,0,59.053-14.289c9.449-3.986,17.231-8.869,16.029-13.834C703.323,296.619,694.972,295.677,685.345,296.249Z" transform="translate(-608.662 -296.1)" fill="#c445c1"/>
      </g>
    </g>
  </g>
</svg>
